<?xml version="1.0" standalone="no"?>
<!DOCTYPE svg PUBLIC "-//W3C//DTD SVG 1.1//EN" "http://www.w3.org/Graphics/SVG/1.1/DTD/svg11.dtd" >
<svg xmlns="http://www.w3.org/2000/svg" xmlns:xlink="http://www.w3.org/1999/xlink" version="1.1">
<metadata>
Created by FontForge 20170731 at Wed Feb  1 19:38:00 2017
 By Aleksey,,,
Copyright 2011 The Podkova Project Authors (contact@cyreal.org)
</metadata>
<defs>
<font id="Podkova-Regular" horiz-adv-x="0" >
  <font-face 
    font-family="Podkova"
    font-weight="400"
    font-stretch="normal"
    units-per-em="1000"
    panose-1="0 0 5 0 0 0 0 0 0 0"
    ascent="800"
    descent="-200"
    x-height="429"
    cap-height="589"
    bbox="-409 -301.129 1301.37 969"
    underline-thickness="50"
    underline-position="-150"
    unicode-range="U+000D-FB02"
  />
<missing-glyph horiz-adv-x="965" 
d="M945 567l-64 -66l-1 1q-2 -237 -241 -399q0 -8 -4 -16t-14 -8l-12 -12q62 -22 95 -38q5 0 21 0.5t32 -4t30 -14.5q0 -4 -1.5 -5t-2.5 -2q-15 7 -24.5 10.5t-22.5 3.5l-11 -1q13 -7 21.5 -13t15.5 -17q-1 -4 -9 -6q-33 33 -64 32q-13 0 -21 -2t-17 -6t-13 -6q-1 1 -3 1.5
t-3 4.5q7 8 13 11t14.5 5.5t15.5 4.5q-19 11 -38.5 18t-23.5 8q-10 3 -17.5 6t-7.5 6q0 6 11 15q-7 0 -12.5 7t-6.5 12h-27q-30 0 -55 4q-10 -26 -27 -23q-12 -7 -15 -10q6 -4 33 -21t51 -36q7 -1 22 -3.5t27.5 -9t22.5 -20.5q0 -3 -2 -4.5t-3 -2.5q-13 12 -21.5 16t-27.5 7
q20 -12 27 -39q-2 -5 -8 -4q-12 19 -24.5 31.5t-28.5 15.5q-7 1 -20 1q-24 0 -50 -6q-3 4 -3 8q11 7 22.5 9t34.5 3q-17 14 -44 31q-31 19 -31 26q0 5 4.5 8t8.5 6q-8 8 -8 23l1 9q-54 29 -94.5 69t-65.5 75.5t-54 83.5q-11 3 -20 7q-63 21 -101.5 37t-64.5 37q-6 5 -6 11
q0 11 12 11l256 -22q85 17 119 23q118 23 160 35.5t58 36.5q30 53 61.5 75.5t74.5 22.5q24 0 47 -7v1l74 26q3 0 3 -2v-1l-25 -69l70 3q4 0 2 -3zM678 203.5q12 14.5 11 18.5q-5 5 -33 29q-28 23 -57 49l39 51q24 31 34 46q-22 19 -37 26l-74 -93q-57 46 -97 73
q-20 -23 -26 -39l91 -72l-72 -93q1 -4 15.5 -16t18.5 -11l78 88l93 -72q4 1 16 15.5z" />
    <glyph glyph-name="fi" unicode="fi" horiz-adv-x="663" 
d="M167 613.5q47 44.5 132 44.5q36 0 69 -11t56 -31l-31 -55q-17 16 -43 24.5t-56 8.5q-45 0 -70.5 -32t-25.5 -89v-44h124v-62h-124v-305h90v-62h-252v62h84v305h-84v62h84v60q0 80 47 124.5zM395 429h162v-367h83v-62h-245v62h83v305h-83v62zM552 625q17 -17 17 -45
t-17 -45t-45 -17t-44.5 17t-16.5 45t16.5 45t44.5 17t45 -17z" />
    <glyph glyph-name="fl" unicode="fl" horiz-adv-x="641" 
d="M618 62v-62h-246v62h84v494q-65 42 -133 42q-57 0 -91 -31t-34 -94v-44h124v-62h-124v-305h90v-62h-252v62h84v305h-84v62h84v60q0 51 26 91.5t72 64t105 23.5q60 0 111.5 -17.5t99.5 -55.5v-533h84z" />
    <glyph glyph-name=".notdef" horiz-adv-x="965" 
d="M945 567l-64 -66l-1 1q-2 -237 -241 -399q0 -8 -4 -16t-14 -8l-12 -12q62 -22 95 -38q5 0 21 0.5t32 -4t30 -14.5q0 -4 -1.5 -5t-2.5 -2q-15 7 -24.5 10.5t-22.5 3.5l-11 -1q13 -7 21.5 -13t15.5 -17q-1 -4 -9 -6q-33 33 -64 32q-13 0 -21 -2t-17 -6t-13 -6q-1 1 -3 1.5
t-3 4.5q7 8 13 11t14.5 5.5t15.5 4.5q-19 11 -38.5 18t-23.5 8q-10 3 -17.5 6t-7.5 6q0 6 11 15q-7 0 -12.5 7t-6.5 12h-27q-30 0 -55 4q-10 -26 -27 -23q-12 -7 -15 -10q6 -4 33 -21t51 -36q7 -1 22 -3.5t27.5 -9t22.5 -20.5q0 -3 -2 -4.5t-3 -2.5q-13 12 -21.5 16t-27.5 7
q20 -12 27 -39q-2 -5 -8 -4q-12 19 -24.5 31.5t-28.5 15.5q-7 1 -20 1q-24 0 -50 -6q-3 4 -3 8q11 7 22.5 9t34.5 3q-17 14 -44 31q-31 19 -31 26q0 5 4.5 8t8.5 6q-8 8 -8 23l1 9q-54 29 -94.5 69t-65.5 75.5t-54 83.5q-11 3 -20 7q-63 21 -101.5 37t-64.5 37q-6 5 -6 11
q0 11 12 11l256 -22q85 17 119 23q118 23 160 35.5t58 36.5q30 53 61.5 75.5t74.5 22.5q24 0 47 -7v1l74 26q3 0 3 -2v-1l-25 -69l70 3q4 0 2 -3zM678 203.5q12 14.5 11 18.5q-5 5 -33 29q-28 23 -57 49l39 51q24 31 34 46q-22 19 -37 26l-74 -93q-57 46 -97 73
q-20 -23 -26 -39l91 -72l-72 -93q1 -4 15.5 -16t18.5 -11l78 88l93 -72q4 1 16 15.5z" />
    <glyph glyph-name=".null" 
 />
    <glyph glyph-name="nonmarkingreturn" unicode="&#xd;" horiz-adv-x="251" 
 />
    <glyph glyph-name="NULL" 
 />
    <glyph glyph-name="NULL" 
 />
    <glyph glyph-name="space" unicode=" " horiz-adv-x="251" 
 />
    <glyph glyph-name="exclam" unicode="!" horiz-adv-x="205" 
d="M64 589h79l-12 -403h-58zM145.5 90.5q18.5 -18.5 18.5 -43.5t-18.5 -43.5t-43.5 -18.5t-43.5 18.5t-18.5 43.5t18.5 43.5t43.5 18.5t43.5 -18.5z" />
    <glyph glyph-name="quotedbl" unicode="&#x22;" horiz-adv-x="334" 
d="M56 589h80l-19 -186h-42zM198 589h80l-19 -186h-42z" />
    <glyph glyph-name="numbersign" unicode="#" horiz-adv-x="594" 
d="M258 589h63l-54 -196h134l55 196h63l-54 -196h123v-54h-139l-44 -162h148v-54h-163l-52 -190h-64l51 190h-133l-52 -190h-65l53 190h-122v54h137l45 162h-148v54h163zM252 339l-45 -162h134l44 162h-133z" />
    <glyph glyph-name="dollar" unicode="$" horiz-adv-x="442" 
d="M186 59v198q-68 8 -109 49.5t-41 103.5q0 68 38.5 106t111.5 46v90h65v-89q49 -4 74.5 -10.5t58.5 -23.5l16 -112l-60 -6l-12 74q-34 15 -77 18v-190l23 -3q138 -18 138 -140q0 -81 -40 -123.5t-122 -46.5v-83h-64v84q-72 7 -107 23t-36 16l-17 104l62 7l11 -70
q45 -17 87 -22zM100 414q0 -39 22 -62.5t64 -28.5v180q-86 -12 -86 -89zM342 160q0 39 -24 62t-68 26v-189q92 15 92 101z" />
    <glyph glyph-name="percent" unicode="%" horiz-adv-x="774" 
d="M325 428q0 -175 -133 -175t-133 175q0 176 133 176t133 -176zM490 604h73l-291 -625h-74zM142 514q-18 -24 -18 -86t18 -85.5t50 -23.5t50 23.5t18 85.5t-18 86t-50 24t-50 -24zM715 159q0 -175 -133 -175t-133 175q0 176 133 176t133 -176zM532 245q-18 -24 -18 -86
t18 -85.5t50 -23.5t50 23.5t18 85.5t-18 86t-50 24t-50 -24z" />
    <glyph glyph-name="ampersand" unicode="&#x26;" horiz-adv-x="704" 
d="M256 -15q-42 0 -89 15.5t-81 55.5t-34 107q0 46 20.5 81t51 58.5t75.5 50.5q-57 77 -57 131q0 67 38.5 93.5t89.5 26.5q56 0 92 -28t36 -81q0 -46 -28.5 -80t-80.5 -70q60 -70 170 -159q19 40 32 86.5t25 104.5l109 35l19 -59l-71 -24q-19 -65 -31.5 -103.5t-33.5 -78.5
q90 -69 148 -106l-33 -56q-4 3 -45.5 32t-102.5 75q-81 -107 -219 -107zM215 485q0 -41 41 -98q35 23 53.5 46t18.5 54q0 33 -13 47.5t-44 14.5q-56 0 -56 -64zM157 240.5q-27 -33.5 -27 -77.5q0 -46 24.5 -72.5t54.5 -36.5t50 -10q103 0 167 87q-117 93 -192 177
q-50 -34 -77 -67.5z" />
    <glyph glyph-name="quotesingle" unicode="'" horiz-adv-x="192" 
d="M51 589h90l-14 -206h-62z" />
    <glyph glyph-name="parenleft" unicode="(" horiz-adv-x="217" 
d="M122 436q-28 -93 -28 -173q0 -79 28 -172t103 -167l-38 -49q-44 29 -84 88t-64.5 137.5t-24.5 162.5t24.5 163t64.5 138t84 88l38 -49q-75 -74 -103 -167z" />
    <glyph glyph-name="parenright" unicode=")" horiz-adv-x="217" 
d="M114 564q40 -59 64.5 -138t24.5 -163t-24.5 -162.5t-64.5 -137.5t-84 -88l-38 49q75 74 103 167t28 172q0 80 -28 173t-103 167l38 49q44 -29 84 -88z" />
    <glyph glyph-name="asterisk" unicode="*" horiz-adv-x="406" 
d="M162 652h75l-7 -146l139 54l25 -72l-145 -39l92 -113l-62 -46l-78 122l-79 -122l-63 44l95 116l-141 37l23 73l134 -53z" />
    <glyph glyph-name="plus" unicode="+" horiz-adv-x="466" 
d="M195 483h76v-145h145v-69h-145v-145h-76v145h-145v69h145v145z" />
    <glyph glyph-name="comma" unicode="," horiz-adv-x="212" 
d="M53 -91q5 7 20.5 32t25.5 48q-25 2 -40.5 18.5t-15.5 39.5q0 27 18.5 44.5t46.5 17.5q27 0 47.5 -20t20.5 -48q0 -34 -19.5 -70t-44 -65t-24.5 -27z" />
    <glyph glyph-name="hyphen" unicode="-" horiz-adv-x="397" 
d="M45 266h307v-69h-307v69z" />
    <glyph glyph-name="period" unicode="." horiz-adv-x="222" 
d="M154.5 90.5q18.5 -18.5 18.5 -43.5t-18.5 -43.5t-43.5 -18.5t-43.5 18.5t-18.5 43.5t18.5 43.5t43.5 18.5t43.5 -18.5z" />
    <glyph glyph-name="slash" unicode="/" horiz-adv-x="349" 
d="M302 589h73l-327 -720h-74z" />
    <glyph glyph-name="zero" unicode="0" horiz-adv-x="595" 
d="M471 531.5q62 -72.5 62 -237.5q0 -164 -62 -236.5t-174 -72.5q-111 0 -173 72.5t-62 236.5q0 165 61.5 237.5t173.5 72.5t174 -72.5zM188 484q-39 -52 -39 -190q0 -137 39 -189t110 -52q70 0 109.5 52.5t39.5 188.5q0 138 -39.5 190t-109.5 52q-71 0 -110 -52z" />
    <glyph glyph-name="one" unicode="1" horiz-adv-x="494" 
d="M260 589h50l-2 -520h156v-69h-400v69h166l1 403l-143 -118l-44 54z" />
    <glyph glyph-name="two" unicode="2" horiz-adv-x="544" 
d="M34 80q51 46 145 123q81 66 112 96q38 36 56.5 67t18.5 65q0 50 -33.5 77t-84.5 27q-36 0 -73.5 -14.5t-66.5 -42.5l-50 47q39 42 90.5 63t105.5 21q53 0 98 -20t72 -58.5t27 -91.5q0 -44 -27.5 -88.5t-79.5 -93.5q-37 -35 -127 -109q-64 -52 -95 -79h274l52 83l57 -30
l-71 -122h-373z" />
    <glyph glyph-name="three" unicode="3" horiz-adv-x="510" 
d="M325 367.5q28 29.5 28 77.5q0 41 -30 65.5t-80 24.5q-39 0 -76.5 -15t-61.5 -39l-54 52q33 34 84.5 52.5t113.5 18.5q85 0 137 -44t52 -115q0 -49 -26.5 -88t-70.5 -56q55 -9 89.5 -47.5t34.5 -91.5q0 -52 -27 -92.5t-76.5 -62.5t-114.5 -22q-136 0 -208 69l51 57
q43 -31 77.5 -44t82.5 -13q58 0 94 29.5t36 77.5q0 49 -42 78.5t-111 29.5h-46v69h68q48 0 76 29.5z" />
    <glyph glyph-name="four" unicode="4" horiz-adv-x="552" 
d="M222 0v69h105v96h-301l-1 37l202 420l66 -37l-169 -352h203v269h81l-1 -269l94 1v-69h-94v-96h90v-69h-275z" />
    <glyph glyph-name="five" unicode="5" horiz-adv-x="515" 
d="M277 395q86 0 139.5 -50t53.5 -142q0 -106 -57 -162t-164 -56q-59 0 -113 22.5t-87 64.5l61 41q24 -29 60.5 -44.5t81.5 -15.5q65 0 99 36.5t34 102.5q0 63 -38.5 98.5t-94.5 35.5q-33 0 -65.5 -13.5t-58.5 -39.5l-46 21v295h346v-70h-265v-159q53 35 114 35z" />
    <glyph glyph-name="six" unicode="6" horiz-adv-x="551" 
d="M403.5 518.5q-36.5 17.5 -77.5 17.5q-94 0 -135 -70.5t-44 -168.5q21 29 64 50.5t95 21.5q87 0 143.5 -44t56.5 -148q0 -42 -19.5 -86t-68 -75t-129.5 -31q-225 0 -225 304q0 87 31.5 159t90.5 114t138 42q40 0 74 -10t57 -22.5t23 -13.5l-36 -58q-2 1 -38.5 18.5z
M208.5 282q-42.5 -19 -59.5 -52q7 -104 46.5 -140.5t100.5 -36.5q41 0 70 18t43.5 46.5t14.5 59.5q0 60 -29.5 92t-88.5 32q-55 0 -97.5 -19z" />
    <glyph glyph-name="seven" unicode="7" horiz-adv-x="512" 
d="M336.5 272q-50.5 -145 -58.5 -272h-82q14 122 59.5 254.5t128.5 265.5h-268l-14 -62l-69 15l22 116h437v-43q-105 -129 -155.5 -274z" />
    <glyph glyph-name="eight" unicode="8" horiz-adv-x="532" 
d="M406.5 559q56.5 -45 56.5 -124q0 -44 -27 -81.5t-73 -49.5q48 -7 79.5 -47.5t31.5 -93.5q0 -57 -28.5 -97.5t-76 -60.5t-103.5 -20t-103.5 20t-76 60.5t-28.5 97.5q0 53 31.5 93.5t79.5 47.5q-46 12 -73 49.5t-27 81.5q0 53 26 91t71 58t99 20q85 0 141.5 -45zM184 507.5
q-30 -28.5 -30 -72.5q0 -45 30 -73t82 -28t82 28t30 73q0 44 -30 72.5t-82 28.5t-82 -28.5zM175.5 240q-31.5 -30 -31.5 -77q0 -48 34 -79t88 -31t88 31t34 79q0 47 -31.5 77t-90.5 30t-90.5 -30z" />
    <glyph glyph-name="nine" unicode="9" horiz-adv-x="553" 
d="M157.5 71q37.5 -18 92.5 -18q88 0 122.5 60.5t39.5 154.5q-23 -31 -65.5 -53.5t-93.5 -22.5q-87 0 -143.5 49t-56.5 164q0 44 19.5 89.5t68 77.5t129.5 32q115 0 172.5 -78.5t57.5 -227.5q0 -119 -39.5 -189t-97 -97t-120.5 -27q-43 0 -79 10t-59.5 22.5t-23.5 13.5
l37 58q2 0 39.5 -18zM168 495.5q-33 -40.5 -33 -102.5q0 -57 30.5 -95t87.5 -38q61 0 101.5 22.5t57.5 61.5q-6 114 -46 153t-103 39q-62 0 -95 -40.5z" />
    <glyph glyph-name="colon" unicode=":" horiz-adv-x="208" 
d="M147.5 425.5q18.5 -18.5 18.5 -43.5t-18.5 -43.5t-43.5 -18.5t-43.5 18.5t-18.5 43.5t18.5 43.5t43.5 18.5t43.5 -18.5zM147.5 90.5q18.5 -18.5 18.5 -43.5t-18.5 -43.5t-43.5 -18.5t-43.5 18.5t-18.5 43.5t18.5 43.5t43.5 18.5t43.5 -18.5z" />
    <glyph glyph-name="semicolon" unicode=";" horiz-adv-x="208" 
d="M146.5 425.5q18.5 -18.5 18.5 -43.5t-18.5 -43.5t-43.5 -18.5t-43.5 18.5t-18.5 43.5t18.5 43.5t43.5 18.5t43.5 -18.5zM71.5 -59q15.5 25 25.5 48q-25 2 -40.5 18.5t-15.5 39.5q0 27 18.5 44.5t46.5 17.5q27 0 47.5 -20t20.5 -48q0 -34 -19.5 -70t-44 -65t-24.5 -27
l-35 30q5 7 20.5 32z" />
    <glyph glyph-name="less" unicode="&#x3c;" horiz-adv-x="466" 
d="M394 517l31 -64l-287 -139v-6l287 -155l-33 -64l-351 195v61z" />
    <glyph glyph-name="equal" unicode="=" horiz-adv-x="466" 
d="M50 347v69h366v-69h-366zM50 197v69h366v-69h-366z" />
    <glyph glyph-name="greater" unicode="&#x3e;" horiz-adv-x="466" 
d="M72 517l353 -172v-61l-351 -195l-33 64l287 155v6l-287 139z" />
    <glyph glyph-name="question" unicode="?" horiz-adv-x="373" 
d="M89 592.5q46 10.5 96 10.5q83 0 133.5 -38.5t50.5 -99.5q0 -44 -27 -74t-87 -62q-45 -23 -61.5 -38.5t-16.5 -32.5q0 -14 10.5 -25.5t33.5 -24.5l-39 -53q-48 26 -64.5 51.5t-16.5 52.5q0 36 21 60.5t73 53.5q40 23 59 37t25.5 27t6.5 33q0 29 -31.5 48.5t-81.5 19.5
q-45 0 -90 -19l-13 -84l-66 7l17 123q22 17 68 27.5zM221.5 90.5q18.5 -18.5 18.5 -43.5t-18.5 -43.5t-43.5 -18.5t-43.5 18.5t-18.5 43.5t18.5 43.5t43.5 18.5t43.5 -18.5z" />
    <glyph glyph-name="at" unicode="@" horiz-adv-x="751" 
d="M513 -74q-22 -12 -58 -22t-80 -10q-102 0 -171.5 41.5t-104 113.5t-34.5 164q0 75 34 149t106 123t178 49q98 0 167.5 -43t105 -113.5t35.5 -151.5q0 -59 -20.5 -103.5t-53.5 -68t-69 -23.5q-51 0 -86 45q0 -2 -11 -12t-30.5 -19t-45.5 -9q-59 0 -100.5 41t-41.5 124
q0 84 44.5 124t116.5 40q27 0 52 -8t41 -16.5t20 -11.5v-216q6 -10 17.5 -16.5t25.5 -6.5q29 0 49 31.5t20 103.5q0 62 -23.5 118t-76.5 92.5t-136 36.5q-68 0 -123 -31.5t-86.5 -90t-31.5 -137.5q0 -138 65.5 -197.5t169.5 -59.5q28 0 56 7t46 14.5t23 10.5l33 -48
q0 -2 -22 -14zM426.5 300.5q-16.5 5.5 -34.5 5.5q-42 0 -62.5 -25.5t-20.5 -80.5q0 -52 20.5 -78.5t51.5 -26.5q22 0 35.5 6.5t20 13.5t6.5 9v170q0 1 -16.5 6.5z" />
    <glyph glyph-name="A" unicode="A" horiz-adv-x="651" 
d="M10 0v69h96l166 451h-101v69h194l181 -520h95v-69h-243v69h63l-32 91h-216l-34 -91h64v-69h-233zM238 229h167l-79 259z" />
    <glyph glyph-name="B" unicode="B" horiz-adv-x="556" 
d="M37 69h95v451h-95v69h255q107 0 163.5 -39.5t56.5 -114.5q0 -41 -22 -76.5t-59 -54.5q44 -16 72 -53.5t28 -89.5q0 -73 -49.5 -117t-147.5 -44h-297v69zM337 328q43 0 66.5 25.5t23.5 70.5q0 96 -124 96h-91v-192h125zM330 70q57 0 86.5 25.5t29.5 76.5q0 46 -28.5 71
t-81.5 25h-124l-1 -198h119z" />
    <glyph glyph-name="C" unicode="C" horiz-adv-x="575" 
d="M328 536q-96 0 -147.5 -64t-51.5 -177q0 -114 52.5 -178t146.5 -64q59 0 117 21l19 80l68 -16l-25 -116q0 -1 -25.5 -11t-65.5 -18t-88 -8q-86 0 -150 38.5t-99 109t-35 164.5q0 92 35 161.5t98.5 107.5t147.5 38q59 0 100.5 -10.5t63.5 -22.5t22 -14l22 -116l-68 -15
l-20 86q-44 24 -117 24z" />
    <glyph glyph-name="D" unicode="D" horiz-adv-x="649" 
d="M526 508.5q80 -80.5 80 -223.5q0 -134 -78 -209.5t-217 -75.5h-274v69h95v451h-95v69h266q143 0 223 -80.5zM463 123.5q58 54.5 58 161.5q0 116 -55.5 175.5t-162.5 59.5h-91v-451h81q112 0 170 54.5z" />
    <glyph glyph-name="E" unicode="E" horiz-adv-x="587" 
d="M38 589h444l51 -154l-65 -22l-40 107h-214v-181h187v-69h-187l-1 -201h235l40 107l65 -22l-51 -154h-465v69h96l1 451h-96v69z" />
    <glyph glyph-name="F" unicode="F" horiz-adv-x="560" 
d="M38 589h443l51 -154l-65 -22l-40 107h-214v-187h165v-69h-166v-195h122v-69h-297v69h96l1 451h-96v69z" />
    <glyph glyph-name="G" unicode="G" horiz-adv-x="592" 
d="M434 0q-42 -15 -113 -15q-79 0 -142 34.5t-99 104t-36 171.5q0 94 35.5 164t100 107.5t150.5 37.5q113 0 184 -57l23 -106l-69 -15l-18 77q-28 17 -52.5 25t-66.5 8q-54 0 -100 -28.5t-74 -83t-28 -129.5q0 -123 54.5 -182.5t137.5 -59.5q47 0 76 8.5t60 30.5v129h-128
v69h203v-236q-56 -39 -98 -54z" />
    <glyph glyph-name="H" unicode="H" horiz-adv-x="714" 
d="M38 589h240v-69h-64l-1 -184h288l1 184h-64v69h239v-69h-95l-3 -451h96v-69h-238v69h64v198h-288l-1 -198h64v-69h-239v69h96l1 451h-96v69z" />
    <glyph glyph-name="I" unicode="I" horiz-adv-x="345" 
d="M38 589h270v-69h-93l-2 -451h95v-69h-271v69h97v451h-96v69z" />
    <glyph glyph-name="J" unicode="J" horiz-adv-x="514" 
d="M339 51.5q-54 -65.5 -150 -65.5q-65 0 -139 29l-25 126l68 16l21 -89q41 -17 77 -17q57 0 89 45.5t32 131.5l1 292h-132v69h306v-69h-94v-284q0 -119 -54 -184.5z" />
    <glyph glyph-name="K" unicode="K" horiz-adv-x="669" 
d="M37 589h237v-69h-64v-188h93l138 188h-74v69h246v-69h-91l-151 -205l165 -246h100v-69h-269v69h81l-129 194h-109l1 -194h63v-69h-237v69h94v451h-94v69z" />
    <glyph glyph-name="L" unicode="L" horiz-adv-x="552" 
d="M37 589h308v-69h-113l-2 -451h189l39 106l66 -22l-53 -153h-434v69h114l1 451h-115v69z" />
    <glyph glyph-name="M" unicode="M" horiz-adv-x="845" 
d="M40 589h221l168 -429l166 429h213v-69h-94v-451h94v-69h-238v69h64v451l-45 -130l-122 -319h-86l-128 321l-46 128l-3 -451h66v-69h-234v69h96l1 451h-93v69z" />
    <glyph glyph-name="N" unicode="N" horiz-adv-x="718" 
d="M38 589h221l255 -467v398h-84v69h261v-69h-97v-520h-98l-284 520l2 -451h84v-69h-261v69h96l-1 451h-94v69z" />
    <glyph glyph-name="O" unicode="O" horiz-adv-x="636" 
d="M461 565.5q62 -38.5 96.5 -108.5t34.5 -162t-34 -162.5t-96.5 -109t-143.5 -38.5t-143.5 38.5t-96.5 109t-34 162.5t34 162t96 108.5t143 38.5q82 0 144 -38.5zM179 471q-50 -63 -50 -176q0 -114 50 -177t139 -63t139 63t50 177q0 113 -50 176t-139 63t-139 -63z" />
    <glyph glyph-name="P" unicode="P" horiz-adv-x="542" 
d="M465.5 542q56.5 -47 56.5 -137q0 -91 -56.5 -139t-163.5 -48h-92v-149h120v-69h-293v69h93v451h-93v69h265q107 0 163.5 -47zM437 404q0 116 -136 116h-90v-232h90q136 0 136 116z" />
    <glyph glyph-name="Q" unicode="Q" horiz-adv-x="663" 
d="M318 -15q-81 0 -143 38t-96.5 108t-34.5 164t34.5 164t96 107.5t142.5 37.5q82 0 144 -37.5t96.5 -107.5t34.5 -164q0 -72 -20.5 -130t-59.5 -99l134 -79l-53 -66l-125 106q-65 -42 -150 -42zM176.5 473.5q-47.5 -62.5 -47.5 -178.5t47.5 -179t141.5 -63t141.5 63
t47.5 179t-47.5 178.5t-141.5 62.5t-141.5 -62.5z" />
    <glyph glyph-name="R" unicode="R" horiz-adv-x="614" 
d="M587 69v-69h-149l-126 230h-10h-91v-161h63v-69h-237v69h94v451h-94v69h265q117 0 167 -43.5t50 -134.5q0 -70 -28.5 -112.5t-93.5 -58.5l99 -171h91zM302 301q46 0 74 8.5t43 32t15 68.5q0 65 -31.5 87.5t-100.5 22.5h-90v-219h90z" />
    <glyph glyph-name="S" unicode="S" horiz-adv-x="536" 
d="M62 24l-19 122l66 6l14 -75q36 -12 69 -18t80 -6q61 0 100 26t39 82q0 43 -23 70.5t-78 35.5l-76 11q-85 13 -131 56.5t-46 110.5q0 71 53.5 115t157.5 44q58 0 99 -7t91 -26l17 -124l-66 -7l-13 80q-46 17 -127 17q-65 0 -102 -23.5t-37 -66.5q0 -81 104 -95l91 -14
q83 -12 124.5 -55.5t41.5 -110.5q0 -60 -29 -102t-79 -63.5t-110 -21.5q-111 0 -211 39z" />
    <glyph glyph-name="T" unicode="T" horiz-adv-x="587" 
d="M36 589h515v-164h-76v95h-141l-2 -451h95v-69h-270v69h95l1 451h-141v-95h-76v164z" />
    <glyph glyph-name="U" unicode="U" horiz-adv-x="678" 
d="M500 46q-55 -61 -166 -61q-107 0 -159 61t-52 169v305h-96v69h240v-69h-64v-332q0 -68 35 -101.5t96 -33.5q66 0 103.5 36.5t37.5 108.5v322h-64v69h240v-69h-96v-305q0 -108 -55 -169z" />
    <glyph glyph-name="V" unicode="V" horiz-adv-x="660" 
d="M4 589h245v-69h-64l103 -274l53 -157l47 149l99 282h-64v69h233v-69h-94l-177 -520h-90l-196 520h-95v69z" />
    <glyph glyph-name="W" unicode="W" horiz-adv-x="912" 
d="M1 589h243v-69h-64l84 -283l44 -146l30 141l82 282h88l70 -276l32 -146l43 146l93 282h-64v69h229v-69h-95l-164 -520h-92l-71 269l-32 135l-39 -140l-70 -264h-86l-166 520h-95v69z" />
    <glyph glyph-name="X" unicode="X" horiz-adv-x="664" 
d="M20 0v69h85l173 232l-174 219h-85v69h252v-69h-64l126 -159l118 159h-69v69h250v-69h-95l-159 -215l187 -236h85v-69h-261v69h74l-141 176l-131 -176h74v-69h-245z" />
    <glyph glyph-name="Y" unicode="Y" horiz-adv-x="651" 
d="M4 589h239v-69h-53l139 -196l156 196h-75v69h237v-69h-68l-213 -263l-2 -188h94v-69h-267v69h94l1 185l-198 266h-84v69z" />
    <glyph glyph-name="Z" unicode="Z" horiz-adv-x="534" 
d="M61 589h419v-52l-337 -468h251l40 107l66 -22l-52 -154h-407v56l334 464h-258l-20 -97l-64 9z" />
    <glyph glyph-name="bracketleft" unicode="[" horiz-adv-x="231" 
d="M56 652h180v-63h-103v-650h103v-63h-180v776z" />
    <glyph glyph-name="backslash" unicode="\" horiz-adv-x="349" 
d="M-26 589h73l328 -720h-74z" />
    <glyph glyph-name="bracketright" unicode="]" horiz-adv-x="231" 
d="M-5 652h180v-776h-180v63h103v650h-103v63z" />
    <glyph glyph-name="asciicircum" unicode="^" horiz-adv-x="466" 
d="M270 717l188 -290l-57 -42l-155 234h-7l-155 -234l-57 42l188 290h55z" />
    <glyph glyph-name="underscore" unicode="_" horiz-adv-x="587" 
d="M64 -19h459v-69h-459v69z" />
    <glyph glyph-name="grave" unicode="`" horiz-adv-x="285" 
d="M198 484l-148 164l59 44l126 -180z" />
    <glyph glyph-name="a" unicode="a" horiz-adv-x="525" 
d="M208 -15q-85 0 -128.5 34.5t-43.5 100.5q0 64 42 96.5t124 32.5l129 -1q0 67 -25 99.5t-76 32.5q-50 0 -90 -12l-10 -55l-64 12l16 91q78 28 145 28q90 0 136 -48.5t46 -143.5v-174l95 -31l-20 -64l-135 46q-65 -44 -141 -44zM138.5 169q-22.5 -17 -22.5 -50
q0 -34 24.5 -52t71.5 -18q69 0 119 38v98l-126 1q-44 0 -66.5 -17z" />
    <glyph glyph-name="b" unicode="b" horiz-adv-x="516" 
d="M152 -1q-49 14 -86 42v513l-95 33l21 62l151 -52v-186q62 33 116 33q109 0 161 -53t52 -165q0 -124 -52.5 -182.5t-164.5 -58.5q-54 0 -103 14zM358.5 92q33.5 43 33.5 134q0 79 -32.5 116.5t-101.5 37.5q-54 0 -115 -37v-269q44 -25 111 -25q71 0 104.5 43z" />
    <glyph glyph-name="c" unicode="c" horiz-adv-x="469" 
d="M267 383q-69 0 -108 -43t-39 -125q0 -78 42 -121t106 -43q66 0 126 41l33 -49q-43 -31 -77 -44.5t-92 -13.5q-64 0 -113.5 28t-77 80t-27.5 122q0 72 30 124.5t82 79.5t116 27q35 0 63.5 -6.5t88.5 -23.5l14 -108l-64 -14l-13 75q-43 14 -90 14z" />
    <glyph glyph-name="d" unicode="d" horiz-adv-x="563" 
d="M389 29q-29 -21 -63.5 -32.5t-66.5 -11.5q-103 0 -160.5 63t-57.5 176q0 104 57.5 162t160.5 58q56 0 111 -21v131l-95 33l21 62l152 -52v-518l94 -32l-20 -64zM315 59q30 10 55 27v269q-23 11 -53 18t-57 7q-62 0 -100.5 -42.5t-38.5 -112.5q0 -79 38.5 -127.5
t100.5 -48.5q25 0 55 10z" />
    <glyph glyph-name="e" unicode="e" horiz-adv-x="491" 
d="M364 1q-42 -16 -94 -16q-107 0 -169 61t-62 169q0 68 27 120t76.5 80.5t114.5 28.5q90 0 142 -56.5t52 -152.5q0 -12 -2 -38l-333 -2q4 -73 46.5 -109t104.5 -36q85 0 143 48l36 -47q-40 -34 -82 -50zM341.5 348.5q-31.5 34.5 -83.5 34.5q-54 0 -93.5 -35t-47.5 -91
l257 1q-1 56 -32.5 90.5z" />
    <glyph glyph-name="f" unicode="f" horiz-adv-x="349" 
d="M167 613.5q47 44.5 132 44.5q36 0 69 -11t56 -31l-31 -55q-17 16 -43 24.5t-56 8.5q-45 0 -70.5 -32t-25.5 -89v-44h124v-62h-124v-305h90v-62h-252v62h84v305h-84v62h84v60q0 80 47 124.5z" />
    <glyph glyph-name="g" unicode="g" horiz-adv-x="535" 
d="M450 -89q0 -63 -56.5 -98.5t-156.5 -35.5q-48 0 -117 15.5t-97 32.5l28 59q35 -18 88 -29.5t98 -11.5q65 0 100.5 15t35.5 46q0 61 -104 61h-143v171q-45 19 -69 55.5t-24 86.5q0 76 53 121t144 45q73 0 122 -28l142 53l23 -66l-118 -27q30 -37 30 -93q0 -76 -54 -120.5
t-146 -44.5q-18 0 -27 1v-92h88q160 0 160 -116zM142.5 354q-30.5 -26 -30.5 -73q0 -44 32.5 -71.5t86.5 -27.5t86.5 27.5t32.5 71.5q0 47 -30.5 73t-88.5 26t-88.5 -26z" />
    <glyph glyph-name="h" unicode="h" horiz-adv-x="600" 
d="M21 62h84v493l-95 33l21 62l152 -52v-196q31 20 65 31t66 11q92 0 135.5 -41t43.5 -128v-213h84v-62h-207v62h45v197q0 64 -25 92.5t-81 28.5q-33 0 -68.5 -9.5t-57.5 -24.5v-284h45v-62h-207v62z" />
    <glyph glyph-name="i" unicode="i" horiz-adv-x="304" 
d="M36 429h162v-367h83v-62h-245v62h83v305h-83v62zM193 625q17 -17 17 -45t-17 -45t-45 -17t-44.5 17t-16.5 45t16.5 45t44.5 17t45 -17z" />
    <glyph glyph-name="j" unicode="j" horiz-adv-x="254" 
d="M175.5 -127q-9.5 -39 -49.5 -67.5t-123 -28.5q-9 0 -26 1.5t-23 2.5l10 61q26 -2 42 -2q50 0 72 18.5t25.5 41t3.5 63.5v404h-84v62h162v-460q0 -57 -9.5 -96zM181 625q17 -17 17 -45t-17 -45t-45 -17t-44.5 17t-16.5 45t16.5 45t44.5 17t45 -17z" />
    <glyph glyph-name="k" unicode="k" horiz-adv-x="551" 
d="M33 651l152 -52v-350h91l69 118h-52v62h210v-62h-84l-83 -143l97 -162h86v-62h-133l-113 187h-88v-125h45v-62h-207v62h84v494l-95 33z" />
    <glyph glyph-name="l" unicode="l" horiz-adv-x="292" 
d="M23 0v62h84v504l-100 22l17 64l161 -37v-553h84v-62h-246z" />
    <glyph glyph-name="m" unicode="m" horiz-adv-x="883" 
d="M42 62h84v287l-96 33l21 62l132 -46q28 21 64.5 33.5t70.5 12.5q101 0 144 -52q25 23 64.5 37.5t77.5 14.5q91 0 131.5 -40t40.5 -129v-213h84v-62h-207v62h45v197q0 66 -22.5 93.5t-76.5 27.5q-32 0 -62.5 -9.5t-46.5 -24.5v-284h45v-62h-168v62h45v197q0 66 -22.5 93.5
t-76.5 27.5q-32 0 -62.5 -9.5t-46.5 -24.5v-284h45v-62h-207v62z" />
    <glyph glyph-name="n" unicode="n" horiz-adv-x="621" 
d="M42 62h84v287l-96 33l21 62l133 -46q70 46 152 46q76 0 127 -44t51 -125v-213h84v-62h-207v62h45v197q0 61 -31 91t-82 30q-57 0 -119 -34v-284h45v-62h-207v62z" />
    <glyph glyph-name="o" unicode="o" horiz-adv-x="521" 
d="M375.5 416q50.5 -28 78 -79.5t27.5 -122.5q0 -106 -60.5 -167.5t-161.5 -61.5q-64 0 -113.5 27.5t-77 79.5t-27.5 122t27.5 122t77 80t113.5 28q66 0 116.5 -28zM156.5 337q-35.5 -43 -35.5 -123t35.5 -122.5t103.5 -42.5q70 0 105.5 42.5t35.5 122.5t-35.5 123
t-105.5 43q-68 0 -103.5 -43z" />
    <glyph glyph-name="p" unicode="p" horiz-adv-x="561" 
d="M30 -146h84v498l-94 31l20 64l134 -46q33 20 67.5 31.5t65.5 11.5q99 0 156.5 -58t57.5 -158q0 -71 -27.5 -126t-77 -86t-113.5 -31q-57 0 -111 17v-148h84v-62h-246v62zM404 96.5q37 47.5 37 131.5q0 152 -135 152q-31 0 -63.5 -10.5t-50.5 -26.5v-269q17 -11 47.5 -18
t62.5 -7q65 0 102 47.5z" />
    <glyph glyph-name="q" unicode="q" horiz-adv-x="514" 
d="M287 -146h84v163q-26 -15 -56 -23.5t-56 -8.5q-103 0 -160.5 63t-57.5 176q0 102 62 161t166 59q116 0 180 -57v-533h84v-62h-246v62zM317.5 59.5q30.5 10.5 53.5 27.5v267q-26 13 -50.5 19.5t-60.5 6.5q-62 0 -100.5 -42.5t-38.5 -112.5q0 -79 38.5 -127.5t100.5 -48.5
q27 0 57.5 10.5z" />
    <glyph glyph-name="r" unicode="r" horiz-adv-x="418" 
d="M261.5 431.5q43.5 12.5 86.5 12.5q36 0 38 -2l17 -105l-65 -14l-10 56q-31 0 -63.5 -9t-59.5 -25v-283h98v-62h-260v62h84v286l-96 33l21 62l133 -46q33 22 76.5 34.5z" />
    <glyph glyph-name="s" unicode="s" horiz-adv-x="450" 
d="M271 380.5q-20 4.5 -50 4.5q-40 0 -69.5 -18t-29.5 -47q0 -58 97 -68l41 -4q79 -8 113.5 -39.5t34.5 -86.5q0 -61 -50 -99t-130 -38q-48 0 -94.5 12.5t-81.5 32.5l-17 101l69 17l15 -70q47 -27 106 -27q47 0 79 18.5t32 50.5q0 29 -19.5 42t-70.5 19l-44 5
q-73 8 -112.5 42.5t-39.5 86.5q0 62 51 96t121 34q46 0 83 -8.5t72 -26.5l18 -95l-63 -14l-17 65q-24 10 -44 14.5z" />
    <glyph glyph-name="t" unicode="t" horiz-adv-x="363" 
d="M145.5 22.5q-39.5 37.5 -39.5 126.5v218h-83v62h83v97l76 18v-115h125v-62h-125v-174q0 -75 14.5 -112t55.5 -37q31 0 70 18l15 -56q-53 -21 -90 -21q-62 0 -101.5 37.5z" />
    <glyph glyph-name="u" unicode="u" horiz-adv-x="609" 
d="M361 -3q-40 -12 -75 -12q-92 0 -135.5 41t-43.5 128v213h-84v62h162v-259q0 -64 25 -92.5t81 -28.5q32 0 68 9.5t58 24.5v284h-84v62h162v-351l94 -32l-20 -64l-136 47q-32 -20 -72 -32z" />
    <glyph glyph-name="v" unicode="v" horiz-adv-x="576" 
d="M2 429h210v-62h-46l126 -298l126 298h-44v62h200v-62h-78l-164 -367h-88l-159 367h-83v62z" />
    <glyph glyph-name="w" unicode="w" horiz-adv-x="741" 
d="M206 0l-120 367h-84v62h226v-62h-65l55 -171l33 -104l31 102l54 174h76l55 -179l31 -99l30 94l59 183h-54v62h206v-62h-85l-117 -367h-76l-87 270l-90 -270h-78z" />
    <glyph glyph-name="x" unicode="x" horiz-adv-x="591" 
d="M25 0v62h87l130 155l-142 150h-75v62h227v-62h-54l107 -113l93 113h-44v62h200v-62h-75l-132 -157l141 -148h84v-62h-228v62h45l-104 109l-92 -109h44v-62h-212z" />
    <glyph glyph-name="y" unicode="y" horiz-adv-x="543" 
d="M542 429v-62h-72l-163 -457q-47 -134 -155 -134q-33 0 -66 11l12 60q27 -8 48 -8q29 0 46.5 8.5t31.5 32.5t31 73l5 14l-188 400h-71v62h208v-62h-57l138 -313l107 313h-55v62h200z" />
    <glyph glyph-name="z" unicode="z" horiz-adv-x="452" 
d="M42 0v53l268 314h-204l-11 -56l-65 14l19 104h351v-50l-270 -317h212l10 60l67 -12l-21 -110h-356z" />
    <glyph glyph-name="braceleft" unicode="{" horiz-adv-x="237" 
d="M80 304.5q4 21.5 4 57.5v122q0 79 36 120.5t115 47.5l8 -61q-52 -6 -70 -37t-18 -86v-126q0 -64 -51 -87q51 -21 51 -86v-116q0 -55 18 -86t70 -37l-8 -61q-79 6 -115 47.5t-36 120.5v112q0 36 -4 57.5t-23 21.5h-72v55h72q19 0 23 21.5z" />
    <glyph glyph-name="bar" unicode="|" horiz-adv-x="288" 
d="M109 653h70v-860h-70v860z" />
    <glyph glyph-name="braceright" unicode="}" horiz-adv-x="238" 
d="M158 206.5q-4 -21.5 -4 -57.5v-112q0 -79 -36 -120.5t-115 -47.5l-9 61q53 6 71 37t18 86v116q0 65 51 86q-51 23 -51 87v126q0 55 -18 86t-71 37l9 61q79 -6 115 -47.5t36 -120.5v-122q0 -36 4 -57.5t23 -21.5h72v-55h-72q-19 0 -23 -21.5z" />
    <glyph glyph-name="asciitilde" unicode="~" horiz-adv-x="466" 
d="M42 308q34 23 58 32t56 9q24 0 44 -5.5t45 -16.5q20 -9 36 -14t33 -5q21 0 37.5 5.5t38.5 24.5l34 -54q-43 -28 -63 -35.5t-57 -7.5q-28 0 -72 21q-24 10 -38.5 15t-30.5 5q-26 0 -44 -6.5t-42 -21.5z" />
    <glyph glyph-name="uni00A0" unicode="&#xa0;" horiz-adv-x="251" 
 />
    <glyph glyph-name="exclamdown" unicode="&#xa1;" horiz-adv-x="205" 
d="M145.5 425.5q18.5 -18.5 18.5 -43.5t-18.5 -43.5t-43.5 -18.5t-43.5 18.5t-18.5 43.5q0 26 18.5 44t43.5 18t43.5 -18.5zM73 243h58l12 -451h-79z" />
    <glyph glyph-name="cent" unicode="&#xa2;" horiz-adv-x="425" 
d="M296.5 453q-14.5 4 -26.5 4v-327q26 5 56 16.5t49 24.5l33 -49q-80 -49 -138 -56v-101h-69v101q-84 13 -132 73t-48 154q0 93 48.5 154t131.5 72v102h69v-100q32 -2 61.5 -8.5t44.5 -14.5l21 -108l-64 -14l-13 69q-9 4 -23.5 8zM126.5 402q-25.5 -41 -25.5 -109
t25.5 -109t74.5 -52v322q-49 -11 -74.5 -52z" />
    <glyph glyph-name="sterling" unicode="&#xa3;" horiz-adv-x="537" 
d="M517 30q-21 -18 -58 -31.5t-67 -13.5q-35 0 -60 6.5t-54 19.5q-26 10 -43 15t-39 5q-35 0 -65.5 -10t-65.5 -34l-40 53q55 36 80 78.5t25 98.5q0 13 -4 47h-91v59h80q-5 40 -5 68q0 103 51.5 158t151.5 55q49 0 82.5 -10.5t81.5 -38.5l20 -130l-67 -9l-22 101
q-23 15 -45.5 20.5t-55.5 5.5q-53 0 -85.5 -39t-32.5 -113q0 -30 6 -68h165v-59h-154q5 -33 5 -53q0 -39 -17 -67t-59 -67l2 -3q38 25 86 25q26 0 47 -5.5t47 -16.5q27 -10 44 -15t38 -5q20 0 42.5 9t38.5 22z" />
    <glyph glyph-name="currency" unicode="&#xa4;" horiz-adv-x="497" 
d="M42 152l67 44q-32 44 -32 98q0 57 33 100l-68 46l36 53l82 -56q37 23 86 23t89 -22l81 55l35 -52l-66 -45q36 -43 36 -102q0 -57 -33 -99l64 -42l-36 -53l-79 52q-42 -22 -90 -22t-89 23l-80 -54zM324 218q31 31 31 76t-31 77t-76 32q-44 0 -75 -32t-31 -77
q0 -44 31 -75.5t75 -31.5q45 0 76 31z" />
    <glyph glyph-name="yen" unicode="&#xa5;" horiz-adv-x="657" 
d="M194 0v69h94v63h-164v58h164v46h-164v58h150l-183 226h-84v69h239v-69h-53l141 -176l134 176h-55v69h237v-69h-96l-173 -226h150v-58h-163v-46h163v-58h-163l-1 -63h94v-69h-267z" />
    <glyph glyph-name="brokenbar" unicode="&#xa6;" horiz-adv-x="288" 
d="M109 653h70v-353h-70v353zM109 144h70v-353h-70v353z" />
    <glyph glyph-name="section" unicode="&#xa7;" horiz-adv-x="519" 
d="M386 159q24 -18 35 -42t11 -55q0 -42 -25 -74.5t-66.5 -50.5t-89.5 -18q-97 0 -170 48l-14 88l61 12l11 -52q37 -32 111 -32q48 0 75 18.5t27 53.5q0 28 -30 47.5t-97 39.5q-65 21 -102.5 58t-37.5 84q0 36 20 62.5t53 36.5q-62 42 -62 101q0 64 50.5 97t128.5 33
q41 0 81 -13t71 -36l14 -92l-72 -12l-11 67q-41 22 -85 22q-46 0 -72 -14t-26 -44q0 -25 26.5 -46t86.5 -39q70 -21 109 -60t39 -91q0 -55 -50 -97zM336 186q21 24 21 57q0 34 -26 58.5t-89 43.5q-20 6 -40 14q-18 -7 -28 -24.5t-10 -38.5q0 -30 27 -51t89 -40
q36 -10 56 -19z" />
    <glyph glyph-name="dieresis" unicode="&#xa8;" horiz-adv-x="353" 
d="M125.5 582.5q16.5 -16.5 16.5 -39.5t-16.5 -39.5t-39.5 -16.5t-39.5 16.5t-16.5 39.5t16.5 39.5t39.5 16.5t39.5 -16.5zM303.5 582.5q16.5 -16.5 16.5 -39.5t-16.5 -39.5t-39.5 -16.5t-39.5 16.5t-16.5 39.5t16.5 39.5t39.5 16.5t39.5 -16.5z" />
    <glyph glyph-name="copyright" unicode="&#xa9;" horiz-adv-x="839" 
d="M604.5 606q81.5 -46 127 -127.5t45.5 -185.5q0 -101 -46 -182.5t-127 -127.5t-183 -46q-103 0 -184.5 46t-128 127.5t-46.5 182.5q0 104 46.5 185.5t128 127.5t184.5 46q102 0 183.5 -46zM264.5 549.5q-66.5 -39.5 -103 -108t-36.5 -153.5q0 -81 36.5 -147t103 -103.5
t152.5 -37.5q85 0 153 38t106 103.5t38 146.5q0 84 -38 153t-106 108.5t-153 39.5q-86 0 -152.5 -39.5zM494.5 413.5q-7.5 3.5 -21.5 7t-34 3.5q-64 0 -94.5 -35.5t-30.5 -94.5q0 -58 32 -94t93 -36q22 0 44 6.5t22 8.5l15 47l58 -17l-26 -80q-4 -2 -19 -7.5t-41.5 -11
t-58.5 -5.5q-88 0 -138 48t-52 140q0 93 50.5 142t139.5 49q35 0 61.5 -8t43 -17t16.5 -10l23 -71l-55 -17l-18 48q-2 1 -9.5 4.5z" />
    <glyph glyph-name="ordfeminine" unicode="&#xaa;" horiz-adv-x="354" 
d="M244 186q-27 -14 -47.5 -20.5t-44.5 -6.5q-50 0 -78.5 24.5t-28.5 62.5q0 40 29 60t74 20l74 -1q0 42 -11.5 57t-45.5 15q-26 0 -49 -7l-8 -34l-47 9l11 61q3 1 15 5.5t32.5 8.5t43.5 4q52 0 77.5 -17.5t32 -42t6.5 -59.5v-103l44 -16l-15 -46zM222 230v51h-72
q-22 0 -34.5 -7.5t-12.5 -29.5q0 -19 14.5 -29t37.5 -10q37 0 67 25z" />
    <glyph glyph-name="guillemotleft" unicode="&#xab;" horiz-adv-x="314" 
d="M152 432l50 -35l-128 -180l128 -180l-50 -35l-159 215zM247 365l56 -32l-78 -116l78 -116l-56 -32l-101 148z" />
    <glyph glyph-name="logicalnot" unicode="&#xac;" horiz-adv-x="466" 
d="M50 338h366v-206h-78v137h-288v69z" />
    <glyph glyph-name="uni00AD" unicode="&#xad;" horiz-adv-x="352" 
d="M46 310h260v-75h-260v75z" />
    <glyph glyph-name="registered" unicode="&#xae;" horiz-adv-x="649" 
d="M192.5 105.5q-58.5 33.5 -92 92t-33.5 131.5t33.5 132t92 92.5t131.5 33.5t132 -33.5t92.5 -92.5t33.5 -132t-33.5 -131.5t-92.5 -92t-132 -33.5t-131.5 33.5zM427 148.5q46 26.5 71.5 73t25.5 103.5q0 59 -25.5 107t-71.5 76t-104 28t-103 -27.5t-70 -76t-25 -107.5
q0 -57 25 -103.5t70 -73t103 -26.5t104 26.5zM208 239h41v188h-41v43h126q57 0 80 -21t23 -67q0 -58 -53 -76l39 -67h44v-44h-78l-56 102h-35v-58h30v-44h-120v44zM335 342q22 0 36 8t14 31q0 28 -13 37t-39 9h-34v-85h36z" />
    <glyph glyph-name="macron" unicode="&#xaf;" horiz-adv-x="366" 
d="M36 589h299v-59h-299v59z" />
    <glyph glyph-name="degree" unicode="&#xb0;" horiz-adv-x="377" 
d="M260.5 576.5q29.5 -27.5 29.5 -75.5q0 -47 -29.5 -74.5t-72.5 -27.5q-42 0 -72 27.5t-30 74.5t30 75t72 28q43 0 72.5 -27.5zM153.5 539.5q-14.5 -14.5 -14.5 -38.5t14.5 -38.5t34.5 -14.5t34 14.5t14 38.5t-14 38.5t-34 14.5t-34.5 -14.5z" />
    <glyph glyph-name="plusminus" unicode="&#xb1;" horiz-adv-x="466" 
d="M195 483h76v-125h145v-69h-145v-105h-76v105h-145v69h145v125zM416 148v-69h-366v69h366z" />
    <glyph glyph-name="uni00B2" unicode="&#xb2;" horiz-adv-x="388" 
d="M29 290l24 15q89 55 114 73q76 54 76 111q0 25 -19.5 38t-50.5 13q-27 0 -55.5 -10.5t-49.5 -29.5l-44 44q37 30 70 43.5t75 13.5q69 0 108.5 -30.5t39.5 -82.5q0 -41 -28.5 -77.5t-79.5 -70.5q-27 -18 -104 -62h166l37 50l51 -30l-54 -80h-252z" />
    <glyph glyph-name="uni00B3" unicode="&#xb3;" horiz-adv-x="393" 
d="M236.5 454q19.5 15 19.5 39q0 22 -20.5 35.5t-53.5 13.5q-28 0 -55.5 -9t-45.5 -25l-45 43q26 25 64 37.5t83 12.5q67 0 106 -28.5t39 -74.5q0 -30 -20 -54t-52 -32q41 -8 66 -32t25 -58q0 -52 -44 -84t-116 -32q-51 0 -89 12.5t-69 37.5l43 52q29 -22 55 -32t60 -10
q39 0 62.5 16t23.5 42q0 25 -23 40.5t-64 15.5h-49v59h49q31 0 50.5 15z" />
    <glyph glyph-name="acute" unicode="&#xb4;" horiz-adv-x="285" 
d="M176 692l59 -44l-148 -164l-37 28z" />
    <glyph glyph-name="uni00B5" unicode="&#xb5;" horiz-adv-x="622" 
d="M136 -180.5q-35 43.5 -35 143.5v466h78v-207q0 -65 10 -102.5t33 -54t63 -16.5q32 0 69.5 13t56.5 32v335h78v-350l94 -32l-20 -64l-136 47q-31 -21 -71 -33t-76 -12q-30 0 -57 10.5t-46 29.5v-61q0 -70 19 -98t65 -28q28 0 50 8l13 -60q-37 -10 -73 -10q-80 0 -115 43.5
z" />
    <glyph glyph-name="paragraph" unicode="&#xb6;" horiz-adv-x="601" 
d="M92.5 336.5q-40.5 36.5 -40.5 112.5q0 67 45 103.5t116 36.5h351v-69h-92v-451h88v-69h-156v520h-72v-520h-165v69h97v231h-36q-95 0 -135.5 36.5z" />
    <glyph glyph-name="periodcentered" unicode="&#xb7;" horiz-adv-x="221" 
d="M154 263.5q18 -18.5 18 -43.5t-18 -43.5t-43 -18.5t-43.5 18.5t-18.5 43.5q0 26 18.5 44t43.5 18t43 -18.5z" />
    <glyph glyph-name="cedilla" unicode="&#xb8;" horiz-adv-x="254" 
d="M44 -204.5q-24 18.5 -25 18.5l22 37q17 -11 40.5 -18.5t42.5 -7.5q55 0 55 34q0 19 -15 26.5t-51 7.5h-37v107h50v-63q108 0 108 -78q0 -38 -29 -60t-79 -22q-58 0 -82 18.5z" />
    <glyph glyph-name="uni00B9" unicode="&#xb9;" horiz-adv-x="369" 
d="M193 589h46l-2 -311h112v-60h-299v60h117l1 216l-101 -67l-33 44z" />
    <glyph glyph-name="ordmasculine" unicode="&#xba;" horiz-adv-x="360" 
d="M278.5 406.5q37.5 -37.5 37.5 -104.5q0 -66 -37.5 -103.5t-99.5 -37.5q-60 0 -97.5 37.5t-37.5 103.5t37.5 104t97.5 38q62 0 99.5 -37.5zM121 371.5q-20 -24.5 -20 -69.5t20 -69t59 -24t59 24t20 69t-20 69.5t-59 24.5t-59 -24.5z" />
    <glyph glyph-name="guillemotright" unicode="&#xbb;" horiz-adv-x="314" 
d="M161 432l160 -215l-160 -215l-49 35l128 180l-128 180zM66 365l101 -148l-101 -148l-55 32l79 116l-79 116z" />
    <glyph glyph-name="onequarter" unicode="&#xbc;" horiz-adv-x="945" 
d="M193 589h46l-2 -311h112v-60h-299v60h117l1 216l-101 -67l-33 44zM661 652h69l-440 -728h-70zM691 0v60h80v45h-219l-1 54l157 237l57 -34l-134 -197h140v135h72v-135h61v-60h-61v-45h59v-60h-211z" />
    <glyph glyph-name="onehalf" unicode="&#xbd;" horiz-adv-x="944" 
d="M193 589h46l-2 -311h112v-60h-299v60h117l1 216l-101 -67l-33 44zM661 652h69l-440 -728h-70zM585 72l24 15q89 55 114 73q76 54 76 111q0 25 -19.5 38t-50.5 13q-27 0 -55.5 -10.5t-49.5 -29.5l-44 44q37 30 70 43.5t75 13.5q69 0 108.5 -30.5t39.5 -82.5
q0 -41 -28.5 -77.5t-79.5 -70.5q-27 -18 -104 -62h166l37 50l51 -30l-54 -80h-252z" />
    <glyph glyph-name="threequarters" unicode="&#xbe;" horiz-adv-x="929" 
d="M236.5 454q19.5 15 19.5 39q0 22 -20.5 35.5t-53.5 13.5q-28 0 -55.5 -9t-45.5 -25l-45 43q26 25 64 37.5t83 12.5q67 0 106 -28.5t39 -74.5q0 -30 -20 -54t-52 -32q41 -8 66 -32t25 -58q0 -52 -44 -84t-116 -32q-51 0 -89 12.5t-69 37.5l43 52q29 -22 55 -32t60 -10
q39 0 62.5 16t23.5 42q0 25 -23 40.5t-64 15.5h-49v59h49q31 0 50.5 15zM645 652h69l-440 -728h-70zM675 0v60h80v45h-219l-1 54l157 237l57 -34l-134 -197h140v135h72v-135h61v-60h-61v-45h59v-60h-211z" />
    <glyph glyph-name="questiondown" unicode="&#xbf;" horiz-adv-x="373" 
d="M151.5 295.5q-18.5 18.5 -18.5 43.5t18.5 43.5t43.5 18.5q26 0 44 -18t18 -44q0 -25 -18.5 -43.5t-43.5 -18.5t-43.5 18.5zM284 -206.5q-46 -10.5 -96 -10.5q-83 0 -133.5 38.5t-50.5 99.5q0 44 27 74t87 62q45 23 61.5 38.5t16.5 32.5q0 14 -10.5 25.5t-33.5 24.5l39 53
q48 -26 64.5 -51.5t16.5 -52.5q0 -36 -21 -60.5t-73 -53.5q-40 -23 -59 -37t-25.5 -27t-6.5 -33q0 -29 31.5 -48.5t81.5 -19.5q45 0 90 19l13 84l66 -7l-17 -123q-22 -17 -68 -27.5z" />
    <glyph glyph-name="Agrave" unicode="&#xc0;" horiz-adv-x="651" 
d="M10 0v69h96l166 451h-101v69h194l181 -520h95v-69h-243v69h63l-32 91h-216l-34 -91h64v-69h-233zM238 229h167l-79 259zM135 762l243 -84l-9 -36l-252 47z" />
    <glyph glyph-name="Aacute" unicode="&#xc1;" horiz-adv-x="651" 
d="M10 0v69h96l166 451h-101v69h194l181 -520h95v-69h-243v69h63l-32 91h-216l-34 -91h64v-69h-233zM238 229h167l-79 259zM470 768l18 -73l-252 -47l-9 36z" />
    <glyph glyph-name="Acircumflex" unicode="&#xc2;" horiz-adv-x="651" 
d="M10 0v69h96l166 451h-101v69h194l181 -520h95v-69h-243v69h63l-32 91h-216l-34 -91h64v-69h-233zM238 229h167l-79 259zM318 778l171 -97l-18 -32l-153 56l-153 -56l-18 32z" />
    <glyph glyph-name="Atilde" unicode="&#xc3;" horiz-adv-x="651" 
d="M10 0v69h96l166 451h-101v69h194l181 -520h95v-69h-243v69h63l-32 91h-216l-34 -91h64v-69h-233zM238 229h167l-79 259zM177 709q35 23 57 32t53 9q22 0 38 -5.5t38 -17.5q15 -9 26 -13t23 -4q15 0 26 6t39 27l24 -56q-29 -25 -49.5 -34t-44.5 -9q-15 0 -28.5 5.5
t-31.5 15.5q-17 10 -30.5 15t-26.5 5q-22 0 -37 -4.5t-31.5 -12.5t-23.5 -11z" />
    <glyph glyph-name="Adieresis" unicode="&#xc4;" horiz-adv-x="651" 
d="M10 0v69h96l166 451h-101v69h194l181 -520h95v-69h-243v69h63l-32 91h-216l-34 -91h64v-69h-233zM238 229h167l-79 259zM268 762.5q17 -16.5 17 -39.5t-16.5 -39.5t-39.5 -16.5t-39.5 16.5t-16.5 39.5t16.5 39.5t39.5 16.5q22 0 39 -16.5zM446 762.5q17 -16.5 17 -39.5
t-16.5 -39.5t-39.5 -16.5t-39.5 16.5t-16.5 39.5t16.5 39.5t39.5 16.5q22 0 39 -16.5z" />
    <glyph glyph-name="Aring" unicode="&#xc5;" horiz-adv-x="685" 
d="M641 69v-69h-243v69h63l-32 91h-216l-34 -91h64v-69h-233v69h96l166 451h-101v69h102q-25 23 -25 64q0 39 23.5 62.5t62.5 23.5t62.5 -23.5t23.5 -62.5q0 -29 -13 -49.5t-37 -29.5l176 -505h95zM306 681q-11 -11 -11 -28t11 -28t28 -11t28 11t11 28t-11 28t-28 11
t-28 -11zM238 229h167l-79 259z" />
    <glyph glyph-name="AE" unicode="&#xc6;" horiz-adv-x="919" 
d="M27 0v69h100l286 451h-103v69h503l52 -154l-66 -22l-40 107h-187v-191h160v-69h-161v-191h208l40 107l66 -22l-51 -154h-438v69h95v91h-226l-56 -91h58v-69h-240zM308 229h183l1 291z" />
    <glyph glyph-name="Ccedilla" unicode="&#xc7;" horiz-adv-x="575" 
d="M464 154l68 -16l-25 -116q-5 -2 -23.5 -9.5t-52 -15.5t-74.5 -11v-49q108 0 108 -78q0 -38 -29 -60t-79 -22q-58 0 -82 18.5t-25 18.5l22 37q17 -11 40.5 -18.5t42.5 -7.5q55 0 55 34q0 19 -15 26.5t-51 7.5h-37v93q-80 4 -139.5 43.5t-91.5 108.5t-32 159q0 92 35 161.5
t98.5 107.5t147.5 38q59 0 100.5 -10.5t63.5 -22.5t22 -14l22 -116l-68 -15l-20 86q-44 24 -117 24q-96 0 -147.5 -64t-51.5 -177q0 -114 52.5 -178t146.5 -64q59 0 117 21z" />
    <glyph glyph-name="Egrave" unicode="&#xc8;" horiz-adv-x="587" 
d="M38 589h444l51 -154l-65 -22l-40 107h-214v-181h187v-69h-187l-1 -201h235l40 107l65 -22l-51 -154h-465v69h96l1 451h-96v69zM110 762l243 -84l-9 -36l-252 47z" />
    <glyph glyph-name="Eacute" unicode="&#xc9;" horiz-adv-x="587" 
d="M38 589h444l51 -154l-65 -22l-40 107h-214v-181h187v-69h-187l-1 -201h235l40 107l65 -22l-51 -154h-465v69h96l1 451h-96v69zM445 768l18 -73l-252 -47l-9 36z" />
    <glyph glyph-name="Ecircumflex" unicode="&#xca;" horiz-adv-x="587" 
d="M38 589h444l51 -154l-65 -22l-40 107h-214v-181h187v-69h-187l-1 -201h235l40 107l65 -22l-51 -154h-465v69h96l1 451h-96v69zM293 778l171 -97l-18 -32l-153 56l-153 -56l-18 32z" />
    <glyph glyph-name="Edieresis" unicode="&#xcb;" horiz-adv-x="587" 
d="M38 589h444l51 -154l-65 -22l-40 107h-214v-181h187v-69h-187l-1 -201h235l40 107l65 -22l-51 -154h-465v69h96l1 451h-96v69zM243 762.5q17 -16.5 17 -39.5t-16.5 -39.5t-39.5 -16.5t-39.5 16.5t-16.5 39.5t16.5 39.5t39.5 16.5q22 0 39 -16.5zM421 762.5
q17 -16.5 17 -39.5t-16.5 -39.5t-39.5 -16.5t-39.5 16.5t-16.5 39.5t16.5 39.5t39.5 16.5q22 0 39 -16.5z" />
    <glyph glyph-name="Igrave" unicode="&#xcc;" horiz-adv-x="345" 
d="M38 589h270v-69h-93l-2 -451h95v-69h-271v69h97v451h-96v69zM-10 762l243 -84l-9 -36l-252 47z" />
    <glyph glyph-name="Iacute" unicode="&#xcd;" horiz-adv-x="345" 
d="M38 589h270v-69h-93l-2 -451h95v-69h-271v69h97v451h-96v69zM325 768l18 -73l-252 -47l-9 36z" />
    <glyph glyph-name="Icircumflex" unicode="&#xce;" horiz-adv-x="345" 
d="M38 589h270v-69h-93l-2 -451h95v-69h-271v69h97v451h-96v69zM173 778l171 -97l-18 -32l-153 56l-153 -56l-18 32z" />
    <glyph glyph-name="Idieresis" unicode="&#xcf;" horiz-adv-x="345" 
d="M38 589h270v-69h-93l-2 -451h95v-69h-271v69h97v451h-96v69zM123 762.5q17 -16.5 17 -39.5t-16.5 -39.5t-39.5 -16.5t-39.5 16.5t-16.5 39.5t16.5 39.5t39.5 16.5q22 0 39 -16.5zM301 762.5q17 -16.5 17 -39.5t-16.5 -39.5t-39.5 -16.5t-39.5 16.5t-16.5 39.5t16.5 39.5
t39.5 16.5q22 0 39 -16.5z" />
    <glyph glyph-name="Eth" unicode="&#xd0;" horiz-adv-x="661" 
d="M539 519.5q79 -69.5 79 -234.5q0 -86 -38.5 -150.5t-106 -99.5t-150.5 -35h-274v69h95v203h-95v64h95v184h-95v69h266q145 0 224 -69.5zM475 124q58 55 58 161q0 94 -24.5 145t-71.5 70.5t-122 19.5h-91v-184h113v-64h-113v-203h81q112 0 170 55z" />
    <glyph glyph-name="Ntilde" unicode="&#xd1;" horiz-adv-x="718" 
d="M38 589h221l255 -467v398h-84v69h261v-69h-97v-520h-98l-284 520l2 -451h84v-69h-261v69h96l-1 451h-94v69zM217 709q35 23 57 32t53 9q22 0 38 -5.5t38 -17.5q15 -9 26 -13t23 -4q15 0 26 6t39 27l24 -56q-29 -25 -49.5 -34t-44.5 -9q-15 0 -28.5 5.5t-31.5 15.5
q-17 10 -30.5 15t-26.5 5q-22 0 -37 -4.5t-31.5 -12.5t-23.5 -11z" />
    <glyph glyph-name="Ograve" unicode="&#xd2;" horiz-adv-x="636" 
d="M461 565.5q62 -38.5 96.5 -108.5t34.5 -162t-34 -162.5t-96.5 -109t-143.5 -38.5t-143.5 38.5t-96.5 109t-34 162.5t34 162t96 108.5t143 38.5q82 0 144 -38.5zM179 471q-50 -63 -50 -176q0 -114 50 -177t139 -63t139 63t50 177q0 113 -50 176t-139 63t-139 -63zM135 762
l243 -84l-9 -36l-252 47z" />
    <glyph glyph-name="Oacute" unicode="&#xd3;" horiz-adv-x="636" 
d="M461 565.5q62 -38.5 96.5 -108.5t34.5 -162t-34 -162.5t-96.5 -109t-143.5 -38.5t-143.5 38.5t-96.5 109t-34 162.5t34 162t96 108.5t143 38.5q82 0 144 -38.5zM179 471q-50 -63 -50 -176q0 -114 50 -177t139 -63t139 63t50 177q0 113 -50 176t-139 63t-139 -63zM470 768
l18 -73l-252 -47l-9 36z" />
    <glyph glyph-name="Ocircumflex" unicode="&#xd4;" horiz-adv-x="636" 
d="M461 565.5q62 -38.5 96.5 -108.5t34.5 -162t-34 -162.5t-96.5 -109t-143.5 -38.5t-143.5 38.5t-96.5 109t-34 162.5t34 162t96 108.5t143 38.5q82 0 144 -38.5zM179 471q-50 -63 -50 -176q0 -114 50 -177t139 -63t139 63t50 177q0 113 -50 176t-139 63t-139 -63zM318 778
l171 -97l-18 -32l-153 56l-153 -56l-18 32z" />
    <glyph glyph-name="Otilde" unicode="&#xd5;" horiz-adv-x="636" 
d="M461 565.5q62 -38.5 96.5 -108.5t34.5 -162t-34 -162.5t-96.5 -109t-143.5 -38.5t-143.5 38.5t-96.5 109t-34 162.5t34 162t96 108.5t143 38.5q82 0 144 -38.5zM179 471q-50 -63 -50 -176q0 -114 50 -177t139 -63t139 63t50 177q0 113 -50 176t-139 63t-139 -63zM177 709
q35 23 57 32t53 9q22 0 38 -5.5t38 -17.5q15 -9 26 -13t23 -4q15 0 26 6t39 27l24 -56q-29 -25 -49.5 -34t-44.5 -9q-15 0 -28.5 5.5t-31.5 15.5q-17 10 -30.5 15t-26.5 5q-22 0 -37 -4.5t-31.5 -12.5t-23.5 -11z" />
    <glyph glyph-name="Odieresis" unicode="&#xd6;" horiz-adv-x="636" 
d="M461 565.5q62 -38.5 96.5 -108.5t34.5 -162t-34 -162.5t-96.5 -109t-143.5 -38.5t-143.5 38.5t-96.5 109t-34 162.5t34 162t96 108.5t143 38.5q82 0 144 -38.5zM179 471q-50 -63 -50 -176q0 -114 50 -177t139 -63t139 63t50 177q0 113 -50 176t-139 63t-139 -63z
M268 762.5q17 -16.5 17 -39.5t-16.5 -39.5t-39.5 -16.5t-39.5 16.5t-16.5 39.5t16.5 39.5t39.5 16.5q22 0 39 -16.5zM446 762.5q17 -16.5 17 -39.5t-16.5 -39.5t-39.5 -16.5t-39.5 16.5t-16.5 39.5t16.5 39.5t39.5 16.5q22 0 39 -16.5z" />
    <glyph glyph-name="multiply" unicode="&#xd7;" horiz-adv-x="466" 
d="M132 456l102 -102l104 103l49 -48l-104 -104l103 -103l-52 -51l-102 102l-104 -103l-49 48l104 104l-103 103z" />
    <glyph glyph-name="Oslash" unicode="&#xd8;" horiz-adv-x="636" 
d="M565 440.5q27 -64.5 27 -145.5q0 -92 -34 -162.5t-96.5 -109t-143.5 -38.5q-47 0 -89 14l-31 -68h-74l44 97q-59 39 -91.5 108t-32.5 159q0 92 34 162t96 108.5t143 38.5q63 0 115 -23l32 70h73l-49 -105q50 -41 77 -105.5zM148 173.5q19 -51.5 55 -80.5l194 425
q-33 16 -79 16q-89 0 -139 -63t-50 -176q0 -70 19 -121.5zM457 118q50 63 50 177q0 119 -56 183l-188 -416q24 -7 55 -7q89 0 139 63z" />
    <glyph glyph-name="Ugrave" unicode="&#xd9;" horiz-adv-x="678" 
d="M500 46q-55 -61 -166 -61q-107 0 -159 61t-52 169v305h-96v69h240v-69h-64v-332q0 -68 35 -101.5t96 -33.5q66 0 103.5 36.5t37.5 108.5v322h-64v69h240v-69h-96v-305q0 -108 -55 -169zM156 762l243 -84l-9 -36l-252 47z" />
    <glyph glyph-name="Uacute" unicode="&#xda;" horiz-adv-x="678" 
d="M500 46q-55 -61 -166 -61q-107 0 -159 61t-52 169v305h-96v69h240v-69h-64v-332q0 -68 35 -101.5t96 -33.5q66 0 103.5 36.5t37.5 108.5v322h-64v69h240v-69h-96v-305q0 -108 -55 -169zM491 768l18 -73l-252 -47l-9 36z" />
    <glyph glyph-name="Ucircumflex" unicode="&#xdb;" horiz-adv-x="678" 
d="M500 46q-55 -61 -166 -61q-107 0 -159 61t-52 169v305h-96v69h240v-69h-64v-332q0 -68 35 -101.5t96 -33.5q66 0 103.5 36.5t37.5 108.5v322h-64v69h240v-69h-96v-305q0 -108 -55 -169zM339 778l171 -97l-18 -32l-153 56l-153 -56l-18 32z" />
    <glyph glyph-name="Udieresis" unicode="&#xdc;" horiz-adv-x="678" 
d="M500 46q-55 -61 -166 -61q-107 0 -159 61t-52 169v305h-96v69h240v-69h-64v-332q0 -68 35 -101.5t96 -33.5q66 0 103.5 36.5t37.5 108.5v322h-64v69h240v-69h-96v-305q0 -108 -55 -169zM289 762.5q17 -16.5 17 -39.5t-16.5 -39.5t-39.5 -16.5t-39.5 16.5t-16.5 39.5
t16.5 39.5t39.5 16.5q22 0 39 -16.5zM467 762.5q17 -16.5 17 -39.5t-16.5 -39.5t-39.5 -16.5t-39.5 16.5t-16.5 39.5t16.5 39.5t39.5 16.5q22 0 39 -16.5z" />
    <glyph glyph-name="Yacute" unicode="&#xdd;" horiz-adv-x="651" 
d="M4 589h239v-69h-53l139 -196l156 196h-75v69h237v-69h-68l-213 -263l-2 -188h94v-69h-267v69h94l1 185l-198 266h-84v69zM477 768l18 -73l-252 -47l-9 36z" />
    <glyph glyph-name="Thorn" unicode="&#xde;" horiz-adv-x="540" 
d="M37 69h93v451h-93v69h272v-69h-98v-71h118q92 0 141.5 -33.5t49.5 -114.5q0 -76 -51 -119.5t-129 -43.5h-130v-69h120v-69h-293v69zM323 208q53 0 82.5 19t29.5 64q0 52 -28.5 70.5t-85.5 18.5h-110v-172h112z" />
    <glyph glyph-name="germandbls" unicode="&#xdf;" horiz-adv-x="584" 
d="M336.5 -2.5q-36.5 12.5 -54.5 31.5l-16 89l65 14l10 -59q10 -11 29.5 -17.5t40.5 -6.5q31 0 50 17.5t19 45.5q0 29 -19 48.5t-62 34.5q-56 20 -89 54.5t-33 74.5q0 42 17.5 67.5t49.5 52.5q24 21 35 35t11 35q0 27 -25 45.5t-61 18.5q-58 0 -82 -27t-24 -94v-457h-162v62
h84v305h-84v62h84v44q0 87 43.5 128t135.5 41q76 0 120.5 -34.5t44.5 -93.5q0 -37 -17 -62.5t-48 -53.5q-22 -20 -33 -35t-11 -32q0 -22 18 -36.5t66 -31.5q58 -21 85.5 -58t27.5 -93t-40 -91.5t-102 -35.5q-37 0 -73.5 12.5z" />
    <glyph glyph-name="agrave" unicode="&#xe0;" horiz-adv-x="525" 
d="M208 -15q-85 0 -128.5 34.5t-43.5 100.5q0 64 42 96.5t124 32.5l129 -1q0 67 -25 99.5t-76 32.5q-50 0 -90 -12l-10 -55l-64 12l16 91q78 28 145 28q90 0 136 -48.5t46 -143.5v-174l95 -31l-20 -64l-135 46q-65 -44 -141 -44zM138.5 169q-22.5 -17 -22.5 -50
q0 -34 24.5 -52t71.5 -18q69 0 119 38v98l-126 1q-44 0 -66.5 -17zM227 484l-148 164l59 44l126 -180z" />
    <glyph glyph-name="aacute" unicode="&#xe1;" horiz-adv-x="525" 
d="M208 -15q-85 0 -128.5 34.5t-43.5 100.5q0 64 42 96.5t124 32.5l129 -1q0 67 -25 99.5t-76 32.5q-50 0 -90 -12l-10 -55l-64 12l16 91q78 28 145 28q90 0 136 -48.5t46 -143.5v-174l95 -31l-20 -64l-135 46q-65 -44 -141 -44zM138.5 169q-22.5 -17 -22.5 -50
q0 -34 24.5 -52t71.5 -18q69 0 119 38v98l-126 1q-44 0 -66.5 -17zM304 692l59 -44l-148 -164l-37 28z" />
    <glyph glyph-name="acircumflex" unicode="&#xe2;" horiz-adv-x="525" 
d="M208 -15q-85 0 -128.5 34.5t-43.5 100.5q0 64 42 96.5t124 32.5l129 -1q0 67 -25 99.5t-76 32.5q-50 0 -90 -12l-10 -55l-64 12l16 91q78 28 145 28q90 0 136 -48.5t46 -143.5v-174l95 -31l-20 -64l-135 46q-65 -44 -141 -44zM138.5 169q-22.5 -17 -22.5 -50
q0 -34 24.5 -52t71.5 -18q69 0 119 38v98l-126 1q-44 0 -66.5 -17zM235 630l149 -99l-23 -44l-126 65l-126 -63l-27 42z" />
    <glyph glyph-name="atilde" unicode="&#xe3;" horiz-adv-x="525" 
d="M208 -15q-85 0 -128.5 34.5t-43.5 100.5q0 64 42 96.5t124 32.5l129 -1q0 67 -25 99.5t-76 32.5q-50 0 -90 -12l-10 -55l-64 12l16 91q78 28 145 28q90 0 136 -48.5t46 -143.5v-174l95 -31l-20 -64l-135 46q-65 -44 -141 -44zM138.5 169q-22.5 -17 -22.5 -50
q0 -34 24.5 -52t71.5 -18q69 0 119 38v98l-126 1q-44 0 -66.5 -17zM92 549q35 23 57 32t53 9q22 0 38 -5.5t38 -17.5q15 -9 26 -13t23 -4q15 0 26 6t39 27l24 -56q-29 -25 -49.5 -34t-44.5 -9q-15 0 -28.5 5.5t-31.5 15.5q-17 10 -30.5 15t-26.5 5q-22 0 -37 -4.5
t-31.5 -12.5t-23.5 -11z" />
    <glyph glyph-name="adieresis" unicode="&#xe4;" horiz-adv-x="525" 
d="M208 -15q-85 0 -128.5 34.5t-43.5 100.5q0 64 42 96.5t124 32.5l129 -1q0 67 -25 99.5t-76 32.5q-50 0 -90 -12l-10 -55l-64 12l16 91q78 28 145 28q90 0 136 -48.5t46 -143.5v-174l95 -31l-20 -64l-135 46q-65 -44 -141 -44zM138.5 169q-22.5 -17 -22.5 -50
q0 -34 24.5 -52t71.5 -18q69 0 119 38v98l-126 1q-44 0 -66.5 -17zM183 602.5q17 -16.5 17 -39.5t-16.5 -39.5t-39.5 -16.5t-39.5 16.5t-16.5 39.5t16.5 39.5t39.5 16.5q22 0 39 -16.5zM361 602.5q17 -16.5 17 -39.5t-16.5 -39.5t-39.5 -16.5t-39.5 16.5t-16.5 39.5
t16.5 39.5t39.5 16.5q22 0 39 -16.5z" />
    <glyph glyph-name="aring" unicode="&#xe5;" horiz-adv-x="525" 
d="M208 -15q-85 0 -128.5 34.5t-43.5 100.5q0 64 42 96.5t124 32.5l129 -1q0 67 -25 99.5t-76 32.5q-50 0 -90 -12l-10 -55l-64 12l16 91q78 28 145 28q90 0 136 -48.5t46 -143.5v-174l95 -31l-20 -64l-135 46q-65 -44 -141 -44zM138.5 169q-22.5 -17 -22.5 -50
q0 -34 24.5 -52t71.5 -18q69 0 119 38v98l-126 1q-44 0 -66.5 -17zM295.5 643.5q23.5 -23.5 23.5 -62.5t-23.5 -62.5t-62.5 -23.5t-62.5 23.5t-23.5 62.5t23.5 62.5t62.5 23.5t62.5 -23.5zM205 609q-11 -11 -11 -28t11 -28t28 -11t28 11t11 28t-11 28t-28 11t-28 -11z" />
    <glyph glyph-name="ae" unicode="&#xe6;" horiz-adv-x="777" 
d="M150.5 437.5q30.5 6.5 75.5 6.5q63 0 102.5 -25t55.5 -71q28 45 72.5 70.5t101.5 25.5q75 0 125 -46t50 -153q0 -22 -3 -49l-322 -2q4 -70 39 -107.5t99 -37.5q41 0 75 11t55.5 23.5t21.5 14.5l36 -47q0 -3 -25.5 -20t-67.5 -31.5t-96 -14.5q-100 0 -160 63
q-31 -21 -85 -42t-93 -21q-79 0 -125.5 38t-46.5 97q0 65 46.5 97t119.5 32l129 -1q0 49 -8 77t-30 41.5t-63 13.5q-49 0 -90 -12l-10 -55l-64 12l16 91q39 15 69.5 21.5zM635.5 349.5q-25.5 30.5 -80.5 30.5q-59 0 -98 -33t-48 -91l254 1q-2 62 -27.5 92.5zM138.5 172.5
q-23.5 -13.5 -23.5 -53.5q0 -34 27.5 -52t68.5 -18q33 0 72.5 13.5t69.5 32.5q-21 42 -24 90l-125 1q-42 0 -65.5 -13.5z" />
    <glyph glyph-name="ccedilla" unicode="&#xe7;" horiz-adv-x="469" 
d="M369 6.5q-26 -12.5 -60 -18.5v-51q108 0 108 -78q0 -38 -29 -60t-79 -22q-58 0 -82 18.5t-25 18.5l22 37q17 -11 40.5 -18.5t42.5 -7.5q55 0 55 34q0 19 -15 26.5t-51 7.5h-37v92h-1q-64 0 -113.5 28t-77 80t-27.5 122q0 72 30 124.5t82 79.5t116 27q35 0 63.5 -6.5
t88.5 -23.5l14 -108l-64 -14l-13 75q-43 14 -90 14q-69 0 -108 -43t-39 -125q0 -78 42 -121t106 -43q66 0 126 41l33 -49q-32 -24 -58 -36.5z" />
    <glyph glyph-name="egrave" unicode="&#xe8;" horiz-adv-x="491" 
d="M364 1q-42 -16 -94 -16q-107 0 -169 61t-62 169q0 68 27 120t76.5 80.5t114.5 28.5q90 0 142 -56.5t52 -152.5q0 -12 -2 -38l-333 -2q4 -73 46.5 -109t104.5 -36q85 0 143 48l36 -47q-40 -34 -82 -50zM341.5 348.5q-31.5 34.5 -83.5 34.5q-54 0 -93.5 -35t-47.5 -91
l257 1q-1 56 -32.5 90.5zM248 484l-148 164l59 44l126 -180z" />
    <glyph glyph-name="eacute" unicode="&#xe9;" horiz-adv-x="491" 
d="M364 1q-42 -16 -94 -16q-107 0 -169 61t-62 169q0 68 27 120t76.5 80.5t114.5 28.5q90 0 142 -56.5t52 -152.5q0 -12 -2 -38l-333 -2q4 -73 46.5 -109t104.5 -36q85 0 143 48l36 -47q-40 -34 -82 -50zM341.5 348.5q-31.5 34.5 -83.5 34.5q-54 0 -93.5 -35t-47.5 -91
l257 1q-1 56 -32.5 90.5zM325 692l59 -44l-148 -164l-37 28z" />
    <glyph glyph-name="ecircumflex" unicode="&#xea;" horiz-adv-x="491" 
d="M364 1q-42 -16 -94 -16q-107 0 -169 61t-62 169q0 68 27 120t76.5 80.5t114.5 28.5q90 0 142 -56.5t52 -152.5q0 -12 -2 -38l-333 -2q4 -73 46.5 -109t104.5 -36q85 0 143 48l36 -47q-40 -34 -82 -50zM341.5 348.5q-31.5 34.5 -83.5 34.5q-54 0 -93.5 -35t-47.5 -91
l257 1q-1 56 -32.5 90.5zM256 630l149 -99l-23 -44l-126 65l-126 -63l-27 42z" />
    <glyph glyph-name="edieresis" unicode="&#xeb;" horiz-adv-x="491" 
d="M364 1q-42 -16 -94 -16q-107 0 -169 61t-62 169q0 68 27 120t76.5 80.5t114.5 28.5q90 0 142 -56.5t52 -152.5q0 -12 -2 -38l-333 -2q4 -73 46.5 -109t104.5 -36q85 0 143 48l36 -47q-40 -34 -82 -50zM341.5 348.5q-31.5 34.5 -83.5 34.5q-54 0 -93.5 -35t-47.5 -91
l257 1q-1 56 -32.5 90.5zM204 602.5q17 -16.5 17 -39.5t-16.5 -39.5t-39.5 -16.5t-39.5 16.5t-16.5 39.5t16.5 39.5t39.5 16.5q22 0 39 -16.5zM382 602.5q17 -16.5 17 -39.5t-16.5 -39.5t-39.5 -16.5t-39.5 16.5t-16.5 39.5t16.5 39.5t39.5 16.5q22 0 39 -16.5z" />
    <glyph glyph-name="igrave" unicode="&#xec;" horiz-adv-x="304" 
d="M36 429h162v-367h83v-62h-245v62h83v305h-83v62zM143 484l-148 164l59 44l126 -180z" />
    <glyph glyph-name="iacute" unicode="&#xed;" horiz-adv-x="304" 
d="M36 429h162v-367h83v-62h-245v62h83v305h-83v62zM220 692l59 -44l-148 -164l-37 28z" />
    <glyph glyph-name="icircumflex" unicode="&#xee;" horiz-adv-x="304" 
d="M36 429h162v-367h83v-62h-245v62h83v305h-83v62zM151 630l149 -99l-23 -44l-126 65l-126 -63l-27 42z" />
    <glyph glyph-name="idieresis" unicode="&#xef;" horiz-adv-x="304" 
d="M36 429h162v-367h83v-62h-245v62h83v305h-83v62zM99 602.5q17 -16.5 17 -39.5t-16.5 -39.5t-39.5 -16.5t-39.5 16.5t-16.5 39.5t16.5 39.5t39.5 16.5q22 0 39 -16.5zM277 602.5q17 -16.5 17 -39.5t-16.5 -39.5t-39.5 -16.5t-39.5 16.5t-16.5 39.5t16.5 39.5t39.5 16.5
q22 0 39 -16.5z" />
    <glyph glyph-name="eth" unicode="&#xf0;" horiz-adv-x="523" 
d="M386.5 501.5q41.5 -50.5 65.5 -113.5t26 -126q0 -92 -29 -154.5t-78.5 -93t-112.5 -30.5q-59 0 -108.5 26t-79.5 77.5t-30 125.5q0 70 27.5 122t77 79.5t113.5 27.5q53 0 99 -19q-40 67 -106 107l-46 -50l-41 40l34 38q-42 20 -100 39l13 55q90 -26 131 -46l46 51l41 -40
l-35 -39q51 -26 92.5 -76.5zM155.5 335.5q-35.5 -42.5 -35.5 -122.5t35.5 -122.5t103.5 -42.5q67 0 103.5 51.5t36.5 145.5q0 27 -4 49t-12 51q-21 15 -55 24t-69 9q-68 0 -103.5 -42.5z" />
    <glyph glyph-name="ntilde" unicode="&#xf1;" horiz-adv-x="621" 
d="M42 62h84v287l-96 33l21 62l133 -46q70 46 152 46q76 0 127 -44t51 -125v-213h84v-62h-207v62h45v197q0 61 -31 91t-82 30q-57 0 -119 -34v-284h45v-62h-207v62zM165 549q35 23 57 32t53 9q22 0 38 -5.5t38 -17.5q15 -9 26 -13t23 -4q15 0 26 6t39 27l24 -56
q-29 -25 -49.5 -34t-44.5 -9q-15 0 -28.5 5.5t-31.5 15.5q-17 10 -30.5 15t-26.5 5q-22 0 -37 -4.5t-31.5 -12.5t-23.5 -11z" />
    <glyph glyph-name="ograve" unicode="&#xf2;" horiz-adv-x="521" 
d="M375.5 416q50.5 -28 78 -79.5t27.5 -122.5q0 -106 -60.5 -167.5t-161.5 -61.5q-64 0 -113.5 27.5t-77 79.5t-27.5 122t27.5 122t77 80t113.5 28q66 0 116.5 -28zM156.5 337q-35.5 -43 -35.5 -123t35.5 -122.5t103.5 -42.5q70 0 105.5 42.5t35.5 122.5t-35.5 123
t-105.5 43q-68 0 -103.5 -43zM255 484l-148 164l59 44l126 -180z" />
    <glyph glyph-name="oacute" unicode="&#xf3;" horiz-adv-x="521" 
d="M375.5 416q50.5 -28 78 -79.5t27.5 -122.5q0 -106 -60.5 -167.5t-161.5 -61.5q-64 0 -113.5 27.5t-77 79.5t-27.5 122t27.5 122t77 80t113.5 28q66 0 116.5 -28zM156.5 337q-35.5 -43 -35.5 -123t35.5 -122.5t103.5 -42.5q70 0 105.5 42.5t35.5 122.5t-35.5 123
t-105.5 43q-68 0 -103.5 -43zM332 692l59 -44l-148 -164l-37 28z" />
    <glyph glyph-name="ocircumflex" unicode="&#xf4;" horiz-adv-x="521" 
d="M375.5 416q50.5 -28 78 -79.5t27.5 -122.5q0 -106 -60.5 -167.5t-161.5 -61.5q-64 0 -113.5 27.5t-77 79.5t-27.5 122t27.5 122t77 80t113.5 28q66 0 116.5 -28zM156.5 337q-35.5 -43 -35.5 -123t35.5 -122.5t103.5 -42.5q70 0 105.5 42.5t35.5 122.5t-35.5 123
t-105.5 43q-68 0 -103.5 -43zM263 630l149 -99l-23 -44l-126 65l-126 -63l-27 42z" />
    <glyph glyph-name="otilde" unicode="&#xf5;" horiz-adv-x="521" 
d="M375.5 416q50.5 -28 78 -79.5t27.5 -122.5q0 -106 -60.5 -167.5t-161.5 -61.5q-64 0 -113.5 27.5t-77 79.5t-27.5 122t27.5 122t77 80t113.5 28q66 0 116.5 -28zM156.5 337q-35.5 -43 -35.5 -123t35.5 -122.5t103.5 -42.5q70 0 105.5 42.5t35.5 122.5t-35.5 123
t-105.5 43q-68 0 -103.5 -43zM120 549q35 23 57 32t53 9q22 0 38 -5.5t38 -17.5q15 -9 26 -13t23 -4q15 0 26 6t39 27l24 -56q-29 -25 -49.5 -34t-44.5 -9q-15 0 -28.5 5.5t-31.5 15.5q-17 10 -30.5 15t-26.5 5q-22 0 -37 -4.5t-31.5 -12.5t-23.5 -11z" />
    <glyph glyph-name="odieresis" unicode="&#xf6;" horiz-adv-x="521" 
d="M375.5 416q50.5 -28 78 -79.5t27.5 -122.5q0 -106 -60.5 -167.5t-161.5 -61.5q-64 0 -113.5 27.5t-77 79.5t-27.5 122t27.5 122t77 80t113.5 28q66 0 116.5 -28zM156.5 337q-35.5 -43 -35.5 -123t35.5 -122.5t103.5 -42.5q70 0 105.5 42.5t35.5 122.5t-35.5 123
t-105.5 43q-68 0 -103.5 -43zM211 602.5q17 -16.5 17 -39.5t-16.5 -39.5t-39.5 -16.5t-39.5 16.5t-16.5 39.5t16.5 39.5t39.5 16.5q22 0 39 -16.5zM389 602.5q17 -16.5 17 -39.5t-16.5 -39.5t-39.5 -16.5t-39.5 16.5t-16.5 39.5t16.5 39.5t39.5 16.5q22 0 39 -16.5z" />
    <glyph glyph-name="divide" unicode="&#xf7;" horiz-adv-x="466" 
d="M276.5 499.5q18.5 -18.5 18.5 -43.5t-18.5 -43.5t-43.5 -18.5t-43.5 18.5t-18.5 43.5t18.5 43.5t43.5 18.5t43.5 -18.5zM416 338v-69h-366v69h366zM276.5 180.5q18.5 -18.5 18.5 -43.5t-18.5 -43.5t-43.5 -18.5t-43.5 18.5t-18.5 43.5t18.5 43.5t43.5 18.5t43.5 -18.5z
" />
    <glyph glyph-name="oslash" unicode="&#xf8;" horiz-adv-x="521" 
d="M452.5 338.5q28.5 -52.5 28.5 -124.5q0 -106 -60.5 -167.5t-161.5 -61.5q-32 0 -64 8l-26 -62h-50l32 78q-52 27 -81 80t-29 125q0 70 27.5 122t77 80t113.5 28q37 0 69 -9l27 64h50l-33 -81q52 -27 80.5 -79.5zM178 72l125 303q-22 5 -43 5q-68 0 -103.5 -43t-35.5 -123
q0 -102 57 -142zM365.5 91.5q35.5 42.5 35.5 122.5q0 101 -56 142l-125 -303q16 -4 40 -4q70 0 105.5 42.5z" />
    <glyph glyph-name="ugrave" unicode="&#xf9;" horiz-adv-x="609" 
d="M361 -3q-40 -12 -75 -12q-92 0 -135.5 41t-43.5 128v213h-84v62h162v-259q0 -64 25 -92.5t81 -28.5q32 0 68 9.5t58 24.5v284h-84v62h162v-351l94 -32l-20 -64l-136 47q-32 -20 -72 -32zM275 484l-148 164l59 44l126 -180z" />
    <glyph glyph-name="uacute" unicode="&#xfa;" horiz-adv-x="609" 
d="M361 -3q-40 -12 -75 -12q-92 0 -135.5 41t-43.5 128v213h-84v62h162v-259q0 -64 25 -92.5t81 -28.5q32 0 68 9.5t58 24.5v284h-84v62h162v-351l94 -32l-20 -64l-136 47q-32 -20 -72 -32zM352 692l59 -44l-148 -164l-37 28z" />
    <glyph glyph-name="ucircumflex" unicode="&#xfb;" horiz-adv-x="609" 
d="M361 -3q-40 -12 -75 -12q-92 0 -135.5 41t-43.5 128v213h-84v62h162v-259q0 -64 25 -92.5t81 -28.5q32 0 68 9.5t58 24.5v284h-84v62h162v-351l94 -32l-20 -64l-136 47q-32 -20 -72 -32zM283 630l149 -99l-23 -44l-126 65l-126 -63l-27 42z" />
    <glyph glyph-name="udieresis" unicode="&#xfc;" horiz-adv-x="609" 
d="M361 -3q-40 -12 -75 -12q-92 0 -135.5 41t-43.5 128v213h-84v62h162v-259q0 -64 25 -92.5t81 -28.5q32 0 68 9.5t58 24.5v284h-84v62h162v-351l94 -32l-20 -64l-136 47q-32 -20 -72 -32zM231 602.5q17 -16.5 17 -39.5t-16.5 -39.5t-39.5 -16.5t-39.5 16.5t-16.5 39.5
t16.5 39.5t39.5 16.5q22 0 39 -16.5zM409 602.5q17 -16.5 17 -39.5t-16.5 -39.5t-39.5 -16.5t-39.5 16.5t-16.5 39.5t16.5 39.5t39.5 16.5q22 0 39 -16.5z" />
    <glyph glyph-name="yacute" unicode="&#xfd;" horiz-adv-x="543" 
d="M542 429v-62h-72l-163 -457q-47 -134 -155 -134q-33 0 -66 11l12 60q27 -8 48 -8q29 0 46.5 8.5t31.5 32.5t31 73l5 14l-188 400h-71v62h208v-62h-57l138 -313l107 313h-55v62h200zM344 692l59 -44l-148 -164l-37 28z" />
    <glyph glyph-name="thorn" unicode="&#xfe;" horiz-adv-x="517" 
d="M263 444q97 0 155.5 -57t58.5 -160q0 -71 -27.5 -126t-77 -85.5t-113.5 -30.5q-60 0 -111 17v-148h84v-62h-246v62h84v703l-94 31l20 64l152 -52v-188q58 32 115 32zM164.5 66q13.5 -6 37.5 -11.5t56 -5.5q67 0 103 48.5t36 129.5q0 153 -135 153q-32 0 -57 -8t-41 -18
t-16 -11v-269q3 -2 16.5 -8z" />
    <glyph glyph-name="ydieresis" unicode="&#xff;" horiz-adv-x="543" 
d="M542 429v-62h-72l-163 -457q-47 -134 -155 -134q-33 0 -66 11l12 60q27 -8 48 -8q29 0 46.5 8.5t31.5 32.5t31 73l5 14l-188 400h-71v62h208v-62h-57l138 -313l107 313h-55v62h200zM223 602.5q17 -16.5 17 -39.5t-16.5 -39.5t-39.5 -16.5t-39.5 16.5t-16.5 39.5
t16.5 39.5t39.5 16.5q22 0 39 -16.5zM401 602.5q17 -16.5 17 -39.5t-16.5 -39.5t-39.5 -16.5t-39.5 16.5t-16.5 39.5t16.5 39.5t39.5 16.5q22 0 39 -16.5z" />
    <glyph glyph-name="Amacron" unicode="&#x100;" horiz-adv-x="651" 
d="M10 0v69h96l166 451h-101v69h194l181 -520h95v-69h-243v69h63l-32 91h-216l-34 -91h64v-69h-233zM238 229h167l-79 259zM168 749h299v-59h-299v59z" />
    <glyph glyph-name="amacron" unicode="&#x101;" horiz-adv-x="525" 
d="M208 -15q-85 0 -128.5 34.5t-43.5 100.5q0 64 42 96.5t124 32.5l129 -1q0 67 -25 99.5t-76 32.5q-50 0 -90 -12l-10 -55l-64 12l16 91q78 28 145 28q90 0 136 -48.5t46 -143.5v-174l95 -31l-20 -64l-135 46q-65 -44 -141 -44zM138.5 169q-22.5 -17 -22.5 -50
q0 -34 24.5 -52t71.5 -18q69 0 119 38v98l-126 1q-44 0 -66.5 -17zM83 589h299v-59h-299v59z" />
    <glyph glyph-name="Abreve" unicode="&#x102;" horiz-adv-x="651" 
d="M10 0v69h96l166 451h-101v69h194l181 -520h95v-69h-243v69h63l-32 91h-216l-34 -91h64v-69h-233zM238 229h167l-79 259zM212.5 680.5q-39.5 30.5 -51.5 89.5l65 12q11 -68 91 -68q83 0 92 68l65 -12q-12 -59 -52 -89.5t-105 -30.5t-104.5 30.5z" />
    <glyph glyph-name="abreve" unicode="&#x103;" horiz-adv-x="525" 
d="M208 -15q-85 0 -128.5 34.5t-43.5 100.5q0 64 42 96.5t124 32.5l129 -1q0 67 -25 99.5t-76 32.5q-50 0 -90 -12l-10 -55l-64 12l16 91q78 28 145 28q90 0 136 -48.5t46 -143.5v-174l95 -31l-20 -64l-135 46q-65 -44 -141 -44zM138.5 169q-22.5 -17 -22.5 -50
q0 -34 24.5 -52t71.5 -18q69 0 119 38v98l-126 1q-44 0 -66.5 -17zM127.5 520.5q-39.5 30.5 -51.5 89.5l65 12q11 -68 91 -68q83 0 92 68l65 -12q-12 -59 -52 -89.5t-105 -30.5t-104.5 30.5z" />
    <glyph glyph-name="Aogonek" unicode="&#x104;" horiz-adv-x="651" 
d="M487.5 -47.5q-18.5 -25.5 -18.5 -56.5q0 -22 15.5 -33.5t44.5 -11.5q24 0 49 9v-61q-40 -20 -80 -20q-46 0 -79 25t-33 67q0 41 24 72.5t74 56.5h-86v69h63l-32 91h-216l-34 -91h64v-69h-233v69h96l166 451h-101v69h194l181 -520h95v-69h-96q-39 -22 -57.5 -47.5z
M238 229h167l-79 259z" />
    <glyph glyph-name="aogonek" unicode="&#x105;" horiz-adv-x="525" 
d="M518 -157v-61q-40 -20 -80 -20q-46 0 -79 25t-33 67q0 46 30 80t93 61l-100 34q-65 -44 -141 -44q-85 0 -128.5 34.5t-43.5 100.5q0 64 42 96.5t124 32.5l129 -1q0 67 -25 99.5t-76 32.5q-50 0 -90 -12l-10 -55l-64 12l16 91q78 28 145 28q90 0 136 -48.5t46 -143.5v-174
l95 -31l-20 -63l1 -1q-39 -22 -57.5 -47.5t-18.5 -56.5q0 -22 15.5 -33.5t44.5 -11.5q24 0 49 9zM331 185l-126 1q-44 0 -66.5 -17t-22.5 -50q0 -34 24.5 -52t71.5 -18q69 0 119 38v98z" />
    <glyph glyph-name="Cacute" unicode="&#x106;" horiz-adv-x="575" 
d="M328 536q-96 0 -147.5 -64t-51.5 -177q0 -114 52.5 -178t146.5 -64q59 0 117 21l19 80l68 -16l-25 -116q0 -1 -25.5 -11t-65.5 -18t-88 -8q-86 0 -150 38.5t-99 109t-35 164.5q0 92 35 161.5t98.5 107.5t147.5 38q59 0 100.5 -10.5t63.5 -22.5t22 -14l22 -116l-68 -15
l-20 86q-44 24 -117 24zM479 768l18 -73l-252 -47l-9 36z" />
    <glyph glyph-name="cacute" unicode="&#x107;" horiz-adv-x="469" 
d="M267 383q-69 0 -108 -43t-39 -125q0 -78 42 -121t106 -43q66 0 126 41l33 -49q-43 -31 -77 -44.5t-92 -13.5q-64 0 -113.5 28t-77 80t-27.5 122q0 72 30 124.5t82 79.5t116 27q35 0 63.5 -6.5t88.5 -23.5l14 -108l-64 -14l-13 75q-43 14 -90 14zM340 692l59 -44
l-148 -164l-37 28z" />
    <glyph glyph-name="Ccircumflex" unicode="&#x108;" horiz-adv-x="575" 
d="M328 536q-96 0 -147.5 -64t-51.5 -177q0 -114 52.5 -178t146.5 -64q59 0 117 21l19 80l68 -16l-25 -116q0 -1 -25.5 -11t-65.5 -18t-88 -8q-86 0 -150 38.5t-99 109t-35 164.5q0 92 35 161.5t98.5 107.5t147.5 38q59 0 100.5 -10.5t63.5 -22.5t22 -14l22 -116l-68 -15
l-20 86q-44 24 -117 24zM327 778l171 -97l-18 -32l-153 56l-153 -56l-18 32z" />
    <glyph glyph-name="ccircumflex" unicode="&#x109;" horiz-adv-x="469" 
d="M267 383q-69 0 -108 -43t-39 -125q0 -78 42 -121t106 -43q66 0 126 41l33 -49q-43 -31 -77 -44.5t-92 -13.5q-64 0 -113.5 28t-77 80t-27.5 122q0 72 30 124.5t82 79.5t116 27q35 0 63.5 -6.5t88.5 -23.5l14 -108l-64 -14l-13 75q-43 14 -90 14zM271 630l149 -99l-23 -44
l-126 65l-126 -63l-27 42z" />
    <glyph glyph-name="Cdotaccent" unicode="&#x10a;" horiz-adv-x="575" 
d="M328 536q-96 0 -147.5 -64t-51.5 -177q0 -114 52.5 -178t146.5 -64q59 0 117 21l19 80l68 -16l-25 -116q0 -1 -25.5 -11t-65.5 -18t-88 -8q-86 0 -150 38.5t-99 109t-35 164.5q0 92 35 161.5t98.5 107.5t147.5 38q59 0 100.5 -10.5t63.5 -22.5t22 -14l22 -116l-68 -15
l-20 86q-44 24 -117 24zM371 785q17 -17 17 -45t-17 -45t-45 -17t-44.5 17t-16.5 45t16.5 45t44.5 17t45 -17z" />
    <glyph glyph-name="cdotaccent" unicode="&#x10b;" horiz-adv-x="469" 
d="M267 383q-69 0 -108 -43t-39 -125q0 -78 42 -121t106 -43q66 0 126 41l33 -49q-43 -31 -77 -44.5t-92 -13.5q-64 0 -113.5 28t-77 80t-27.5 122q0 72 30 124.5t82 79.5t116 27q35 0 63.5 -6.5t88.5 -23.5l14 -108l-64 -14l-13 75q-43 14 -90 14zM313 625q17 -17 17 -45
t-17 -45t-45 -17t-44.5 17t-16.5 45t16.5 45t44.5 17t45 -17z" />
    <glyph glyph-name="Ccaron" unicode="&#x10c;" horiz-adv-x="575" 
d="M328 536q-96 0 -147.5 -64t-51.5 -177q0 -114 52.5 -178t146.5 -64q59 0 117 21l19 80l68 -16l-25 -116q0 -1 -25.5 -11t-65.5 -18t-88 -8q-86 0 -150 38.5t-99 109t-35 164.5q0 92 35 161.5t98.5 107.5t147.5 38q59 0 100.5 -10.5t63.5 -22.5t22 -14l22 -116l-68 -15
l-20 86q-44 24 -117 24zM329 636l-153 99l27 42l126 -63l126 65l23 -44z" />
    <glyph glyph-name="ccaron" unicode="&#x10d;" horiz-adv-x="469" 
d="M267 383q-69 0 -108 -43t-39 -125q0 -78 42 -121t106 -43q66 0 126 41l33 -49q-43 -31 -77 -44.5t-92 -13.5q-64 0 -113.5 28t-77 80t-27.5 122q0 72 30 124.5t82 79.5t116 27q35 0 63.5 -6.5t88.5 -23.5l14 -108l-64 -14l-13 75q-43 14 -90 14zM271 476l-153 99l27 42
l126 -63l126 65l23 -44z" />
    <glyph glyph-name="Dcaron" unicode="&#x10e;" horiz-adv-x="649" 
d="M526 508.5q80 -80.5 80 -223.5q0 -134 -78 -209.5t-217 -75.5h-274v69h95v451h-95v69h266q143 0 223 -80.5zM463 123.5q58 54.5 58 161.5q0 116 -55.5 175.5t-162.5 59.5h-91v-451h81q112 0 170 54.5zM285 648l-171 97l18 32l153 -56l153 56l18 -32z" />
    <glyph glyph-name="dcaron" unicode="&#x10f;" horiz-adv-x="563" 
d="M389 29q-29 -21 -63.5 -32.5t-66.5 -11.5q-103 0 -160.5 63t-57.5 176q0 104 57.5 162t160.5 58q56 0 111 -21v131l-95 33l21 62l152 -52v-518l94 -32l-20 -64zM315 59q30 10 55 27v269q-23 11 -53 18t-57 7q-62 0 -100.5 -42.5t-38.5 -112.5q0 -79 38.5 -127.5
t100.5 -48.5q25 0 55 10zM411 636l-153 99l27 42l126 -63l126 65l23 -44z" />
    <glyph glyph-name="Dcroat" unicode="&#x110;" horiz-adv-x="661" 
d="M539 519.5q79 -69.5 79 -234.5q0 -86 -38.5 -150.5t-106 -99.5t-150.5 -35h-274v69h95v203h-95v64h95v184h-95v69h266q145 0 224 -69.5zM475 124q58 55 58 161q0 94 -24.5 145t-71.5 70.5t-122 19.5h-91v-184h113v-64h-113v-203h81q112 0 170 55z" />
    <glyph glyph-name="dcroat" unicode="&#x111;" horiz-adv-x="563" 
d="M542 47l-20 -64l-133 46q-29 -21 -63.5 -32.5t-66.5 -11.5q-103 0 -160.5 60.5t-57.5 168.5q0 100 58 157.5t160 57.5q56 0 111 -21v57h-149v60h149v29l-95 33l21 62l152 -52v-72h80v-60h-80v-386zM370 340q-23 11 -53 18t-57 7q-62 0 -100.5 -42t-38.5 -108
q0 -75 38.5 -120.5t100.5 -45.5q30 0 56.5 9.5t53.5 27.5v254z" />
    <glyph glyph-name="Emacron" unicode="&#x112;" horiz-adv-x="587" 
d="M38 589h444l51 -154l-65 -22l-40 107h-214v-181h187v-69h-187l-1 -201h235l40 107l65 -22l-51 -154h-465v69h96l1 451h-96v69zM143 749h299v-59h-299v59z" />
    <glyph glyph-name="emacron" unicode="&#x113;" horiz-adv-x="491" 
d="M364 1q-42 -16 -94 -16q-107 0 -169 61t-62 169q0 68 27 120t76.5 80.5t114.5 28.5q90 0 142 -56.5t52 -152.5q0 -12 -2 -38l-333 -2q4 -73 46.5 -109t104.5 -36q85 0 143 48l36 -47q-40 -34 -82 -50zM341.5 348.5q-31.5 34.5 -83.5 34.5q-54 0 -93.5 -35t-47.5 -91
l257 1q-1 56 -32.5 90.5zM104 589h299v-59h-299v59z" />
    <glyph glyph-name="Ebreve" unicode="&#x114;" horiz-adv-x="587" 
d="M38 589h444l51 -154l-65 -22l-40 107h-214v-181h187v-69h-187l-1 -201h235l40 107l65 -22l-51 -154h-465v69h96l1 451h-96v69zM187.5 680.5q-39.5 30.5 -51.5 89.5l65 12q11 -68 91 -68q83 0 92 68l65 -12q-12 -59 -52 -89.5t-105 -30.5t-104.5 30.5z" />
    <glyph glyph-name="ebreve" unicode="&#x115;" horiz-adv-x="491" 
d="M364 1q-42 -16 -94 -16q-107 0 -169 61t-62 169q0 68 27 120t76.5 80.5t114.5 28.5q90 0 142 -56.5t52 -152.5q0 -12 -2 -38l-333 -2q4 -73 46.5 -109t104.5 -36q85 0 143 48l36 -47q-40 -34 -82 -50zM341.5 348.5q-31.5 34.5 -83.5 34.5q-54 0 -93.5 -35t-47.5 -91
l257 1q-1 56 -32.5 90.5zM148.5 520.5q-39.5 30.5 -51.5 89.5l65 12q11 -68 91 -68q83 0 92 68l65 -12q-12 -59 -52 -89.5t-105 -30.5t-104.5 30.5z" />
    <glyph glyph-name="Edotaccent" unicode="&#x116;" horiz-adv-x="587" 
d="M38 589h444l51 -154l-65 -22l-40 107h-214v-181h187v-69h-187l-1 -201h235l40 107l65 -22l-51 -154h-465v69h96l1 451h-96v69zM337 785q17 -17 17 -45t-17 -45t-45 -17t-44.5 17t-16.5 45t16.5 45t44.5 17t45 -17z" />
    <glyph glyph-name="edotaccent" unicode="&#x117;" horiz-adv-x="491" 
d="M364 1q-42 -16 -94 -16q-107 0 -169 61t-62 169q0 68 27 120t76.5 80.5t114.5 28.5q90 0 142 -56.5t52 -152.5q0 -12 -2 -38l-333 -2q4 -73 46.5 -109t104.5 -36q85 0 143 48l36 -47q-40 -34 -82 -50zM341.5 348.5q-31.5 34.5 -83.5 34.5q-54 0 -93.5 -35t-47.5 -91
l257 1q-1 56 -32.5 90.5zM298 625q17 -17 17 -45t-17 -45t-45 -17t-44.5 17t-16.5 45t16.5 45t44.5 17t45 -17z" />
    <glyph glyph-name="Eogonek" unicode="&#x118;" horiz-adv-x="587" 
d="M442.5 -137.5q15.5 -11.5 44.5 -11.5q24 0 49 9v-61q-40 -20 -80 -20q-46 0 -79 25t-33 67q0 41 24 72.5t74 56.5h-405v69h96l1 451h-96v69h444l51 -154l-65 -22l-40 107h-214v-181h187v-69h-187l-1 -201h235l40 107l65 -22l-51 -153l1 -1q-39 -22 -57.5 -47.5
t-18.5 -56.5q0 -22 15.5 -33.5z" />
    <glyph glyph-name="eogonek" unicode="&#x119;" horiz-adv-x="491" 
d="M449 197l-333 -2q4 -73 46.5 -109t104.5 -36q85 0 143 48l36 -47q-27 -23 -53 -37q-30 -20 -43.5 -42.5t-13.5 -49.5q0 -22 15.5 -33.5t44.5 -11.5q24 0 49 9v-61q-40 -20 -80 -20q-46 0 -79 25t-33 67q0 50 39 89q-7 -1 -22 -1q-107 0 -169 61t-62 169q0 68 27 120
t76.5 80.5t114.5 28.5q90 0 142 -56.5t52 -152.5q0 -12 -2 -38zM374 258q-1 56 -32.5 90.5t-83.5 34.5q-54 0 -93.5 -35t-47.5 -91z" />
    <glyph glyph-name="Ecaron" unicode="&#x11a;" horiz-adv-x="587" 
d="M38 589h444l51 -154l-65 -22l-40 107h-214v-181h187v-69h-187l-1 -201h235l40 107l65 -22l-51 -154h-465v69h96l1 451h-96v69zM295 636l-153 99l27 42l126 -63l126 65l23 -44z" />
    <glyph glyph-name="ecaron" unicode="&#x11b;" horiz-adv-x="491" 
d="M364 1q-42 -16 -94 -16q-107 0 -169 61t-62 169q0 68 27 120t76.5 80.5t114.5 28.5q90 0 142 -56.5t52 -152.5q0 -12 -2 -38l-333 -2q4 -73 46.5 -109t104.5 -36q85 0 143 48l36 -47q-40 -34 -82 -50zM341.5 348.5q-31.5 34.5 -83.5 34.5q-54 0 -93.5 -35t-47.5 -91
l257 1q-1 56 -32.5 90.5zM256 476l-153 99l27 42l126 -63l126 65l23 -44z" />
    <glyph glyph-name="Gcircumflex" unicode="&#x11c;" horiz-adv-x="592" 
d="M434 0q-42 -15 -113 -15q-79 0 -142 34.5t-99 104t-36 171.5q0 94 35.5 164t100 107.5t150.5 37.5q113 0 184 -57l23 -106l-69 -15l-18 77q-28 17 -52.5 25t-66.5 8q-54 0 -100 -28.5t-74 -83t-28 -129.5q0 -123 54.5 -182.5t137.5 -59.5q47 0 76 8.5t60 30.5v129h-128
v69h203v-236q-56 -39 -98 -54zM335 778l171 -97l-18 -32l-153 56l-153 -56l-18 32z" />
    <glyph glyph-name="gcircumflex" unicode="&#x11d;" horiz-adv-x="535" 
d="M450 -89q0 -63 -56.5 -98.5t-156.5 -35.5q-48 0 -117 15.5t-97 32.5l28 59q35 -18 88 -29.5t98 -11.5q65 0 100.5 15t35.5 46q0 61 -104 61h-143v171q-45 19 -69 55.5t-24 86.5q0 76 53 121t144 45q73 0 122 -28l142 53l23 -66l-118 -27q30 -37 30 -93q0 -76 -54 -120.5
t-146 -44.5q-18 0 -27 1v-92h88q160 0 160 -116zM142.5 354q-30.5 -26 -30.5 -73q0 -44 32.5 -71.5t86.5 -27.5t86.5 27.5t32.5 71.5q0 47 -30.5 73t-88.5 26t-88.5 -26zM234 630l149 -99l-23 -44l-126 65l-126 -63l-27 42z" />
    <glyph glyph-name="Gbreve" unicode="&#x11e;" horiz-adv-x="592" 
d="M434 0q-42 -15 -113 -15q-79 0 -142 34.5t-99 104t-36 171.5q0 94 35.5 164t100 107.5t150.5 37.5q113 0 184 -57l23 -106l-69 -15l-18 77q-28 17 -52.5 25t-66.5 8q-54 0 -100 -28.5t-74 -83t-28 -129.5q0 -123 54.5 -182.5t137.5 -59.5q47 0 76 8.5t60 30.5v129h-128
v69h203v-236q-56 -39 -98 -54zM229.5 680.5q-39.5 30.5 -51.5 89.5l65 12q11 -68 91 -68q83 0 92 68l65 -12q-12 -59 -52 -89.5t-105 -30.5t-104.5 30.5z" />
    <glyph glyph-name="gbreve" unicode="&#x11f;" horiz-adv-x="535" 
d="M450 -89q0 -63 -56.5 -98.5t-156.5 -35.5q-48 0 -117 15.5t-97 32.5l28 59q35 -18 88 -29.5t98 -11.5q65 0 100.5 15t35.5 46q0 61 -104 61h-143v171q-45 19 -69 55.5t-24 86.5q0 76 53 121t144 45q73 0 122 -28l142 53l23 -66l-118 -27q30 -37 30 -93q0 -76 -54 -120.5
t-146 -44.5q-18 0 -27 1v-92h88q160 0 160 -116zM142.5 354q-30.5 -26 -30.5 -73q0 -44 32.5 -71.5t86.5 -27.5t86.5 27.5t32.5 71.5q0 47 -30.5 73t-88.5 26t-88.5 -26zM126.5 520.5q-39.5 30.5 -51.5 89.5l65 12q11 -68 91 -68q83 0 92 68l65 -12q-12 -59 -52 -89.5
t-105 -30.5t-104.5 30.5z" />
    <glyph glyph-name="Gdotaccent" unicode="&#x120;" horiz-adv-x="592" 
d="M434 0q-42 -15 -113 -15q-79 0 -142 34.5t-99 104t-36 171.5q0 94 35.5 164t100 107.5t150.5 37.5q113 0 184 -57l23 -106l-69 -15l-18 77q-28 17 -52.5 25t-66.5 8q-54 0 -100 -28.5t-74 -83t-28 -129.5q0 -123 54.5 -182.5t137.5 -59.5q47 0 76 8.5t60 30.5v129h-128
v69h203v-236q-56 -39 -98 -54zM379 785q17 -17 17 -45t-17 -45t-45 -17t-44.5 17t-16.5 45t16.5 45t44.5 17t45 -17z" />
    <glyph glyph-name="gdotaccent" unicode="&#x121;" horiz-adv-x="535" 
d="M450 -89q0 -63 -56.5 -98.5t-156.5 -35.5q-48 0 -117 15.5t-97 32.5l28 59q35 -18 88 -29.5t98 -11.5q65 0 100.5 15t35.5 46q0 61 -104 61h-143v171q-45 19 -69 55.5t-24 86.5q0 76 53 121t144 45q73 0 122 -28l142 53l23 -66l-118 -27q30 -37 30 -93q0 -76 -54 -120.5
t-146 -44.5q-18 0 -27 1v-92h88q160 0 160 -116zM142.5 354q-30.5 -26 -30.5 -73q0 -44 32.5 -71.5t86.5 -27.5t86.5 27.5t32.5 71.5q0 47 -30.5 73t-88.5 26t-88.5 -26zM276 625q17 -17 17 -45t-17 -45t-45 -17t-44.5 17t-16.5 45t16.5 45t44.5 17t45 -17z" />
    <glyph glyph-name="Gcommaaccent" unicode="&#x122;" horiz-adv-x="592" 
d="M434 0q-42 -15 -113 -15q-79 0 -142 34.5t-99 104t-36 171.5q0 94 35.5 164t100 107.5t150.5 37.5q113 0 184 -57l23 -106l-69 -15l-18 77q-28 17 -52.5 25t-66.5 8q-54 0 -100 -28.5t-74 -83t-28 -129.5q0 -123 54.5 -182.5t137.5 -59.5q47 0 76 8.5t60 30.5v129h-128
v69h203v-236q-56 -39 -98 -54zM278 -271q5 7 20.5 32t25.5 48q-25 2 -40.5 18.5t-15.5 39.5q0 27 18.5 44.5t46.5 17.5q27 0 47.5 -20t20.5 -48q0 -34 -19.5 -70t-44 -65t-24.5 -27z" />
    <glyph glyph-name="gcommaaccent" unicode="&#x123;" horiz-adv-x="535" 
d="M450 -89q0 -63 -56.5 -98.5t-156.5 -35.5q-48 0 -117 15.5t-97 32.5l28 59q35 -18 88 -29.5t98 -11.5q65 0 100.5 15t35.5 46q0 61 -104 61h-143v171q-45 19 -69 55.5t-24 86.5q0 76 53 121t144 45q73 0 122 -28l142 53l23 -66l-118 -27q30 -37 30 -93q0 -76 -54 -120.5
t-146 -44.5q-18 0 -27 1v-92h88q160 0 160 -116zM142.5 354q-30.5 -26 -30.5 -73q0 -44 32.5 -71.5t86.5 -27.5t86.5 27.5t32.5 71.5q0 47 -30.5 73t-88.5 26t-88.5 -26zM289 692q-5 -7 -20.5 -32t-25.5 -48q25 -2 40.5 -18.5t15.5 -39.5q0 -27 -18.5 -44.5t-46.5 -17.5
q-27 0 -47.5 20.5t-20.5 48.5q0 34 19.5 70t44 64.5t24.5 26.5z" />
    <glyph glyph-name="Hcircumflex" unicode="&#x124;" horiz-adv-x="714" 
d="M38 589h240v-69h-64l-1 -184h288l1 184h-64v69h239v-69h-95l-3 -451h96v-69h-238v69h64v198h-288l-1 -198h64v-69h-239v69h96l1 451h-96v69zM357 778l171 -97l-18 -32l-153 56l-153 -56l-18 32z" />
    <glyph glyph-name="hcircumflex" unicode="&#x125;" horiz-adv-x="600" 
d="M21 62h84v493l-95 33l21 62l152 -52v-196q31 20 65 31t66 11q92 0 135.5 -41t43.5 -128v-213h84v-62h-207v62h45v197q0 64 -25 92.5t-81 28.5q-33 0 -68.5 -9.5t-57.5 -24.5v-284h45v-62h-207v62zM112 782l171 -97l-18 -32l-153 56l-153 -56l-18 32z" />
    <glyph glyph-name="Hbar" unicode="&#x126;" horiz-adv-x="714" 
d="M677 520h-95v-64h75v-52h-76l-2 -335h96v-69h-238v69h64v198h-288l-1 -198h64v-69h-239v69h96l1 335h-84v52h84v64h-96v69h240v-69h-64v-64h288v64h-64v69h239v-69zM501 336v68h-288v-68h288z" />
    <glyph glyph-name="hbar" unicode="&#x127;" horiz-adv-x="600" 
d="M577 62v-62h-207v62h45v182q0 64 -25 92.5t-81 28.5q-33 0 -68.5 -9.5t-57.5 -24.5v-269h45v-62h-207v62h84v403h-90v60h90v30l-95 33l21 62l152 -52v-73h139v-60h-139v-78q31 20 65 31t66 11q92 0 135.5 -41t43.5 -128v-198h84z" />
    <glyph glyph-name="Itilde" unicode="&#x128;" horiz-adv-x="345" 
d="M38 589h270v-69h-93l-2 -451h95v-69h-271v69h97v451h-96v69zM32 709q35 23 57 32t53 9q22 0 38 -5.5t38 -17.5q15 -9 26 -13t23 -4q15 0 26 6t39 27l24 -56q-29 -25 -49.5 -34t-44.5 -9q-15 0 -28.5 5.5t-31.5 15.5q-17 10 -30.5 15t-26.5 5q-22 0 -37 -4.5t-31.5 -12.5
t-23.5 -11z" />
    <glyph glyph-name="itilde" unicode="&#x129;" horiz-adv-x="304" 
d="M36 429h162v-367h83v-62h-245v62h83v305h-83v62zM25 549q29 23 47.5 32t45.5 9q17 0 30 -6t31 -17q13 -9 22.5 -13t19.5 -4q14 0 24 6.5t33 26.5l21 -56q-23 -25 -41.5 -34t-43.5 -9q-12 0 -23 5t-26 16q-14 10 -25.5 15t-22.5 5q-16 0 -27.5 -4.5t-25 -12t-19.5 -11.5z
" />
    <glyph glyph-name="Imacron" unicode="&#x12a;" horiz-adv-x="345" 
d="M38 589h270v-69h-93l-2 -451h95v-69h-271v69h97v451h-96v69zM23 749h299v-59h-299v59z" />
    <glyph glyph-name="imacron" unicode="&#x12b;" horiz-adv-x="304" 
d="M36 429h162v-367h83v-62h-245v62h83v305h-83v62zM29 589h239v-59h-239v59z" />
    <glyph glyph-name="Ibreve" unicode="&#x12c;" horiz-adv-x="345" 
d="M38 589h270v-69h-93l-2 -451h95v-69h-271v69h97v451h-96v69zM67.5 680.5q-39.5 30.5 -51.5 89.5l65 12q11 -68 91 -68q83 0 92 68l65 -12q-12 -59 -52 -89.5t-105 -30.5t-104.5 30.5z" />
    <glyph glyph-name="ibreve" unicode="&#x12d;" horiz-adv-x="304" 
d="M36 429h162v-367h83v-62h-245v62h83v305h-83v62zM57 520.5q-35 30.5 -45 89.5l65 12q4 -34 22 -51t49 -17q66 0 72 68l65 -12q-10 -59 -45 -89.5t-92 -30.5q-56 0 -91 30.5z" />
    <glyph glyph-name="Iogonek" unicode="&#x12e;" horiz-adv-x="345" 
d="M342 -140v-61q-40 -20 -80 -20q-46 0 -79 25t-33 67q0 41 24 72.5t74 56.5h-211v69h97v451h-96v69h270v-69h-93l-2 -451h95v-68l1 -1q-39 -22 -57.5 -47.5t-18.5 -56.5q0 -22 15.5 -33.5t44.5 -11.5q24 0 49 9z" />
    <glyph glyph-name="iogonek" unicode="&#x12f;" horiz-adv-x="304" 
d="M103.5 535q-16.5 17 -16.5 45t16.5 45t44.5 17t45 -17t17 -45t-17 -45t-45 -17t-44.5 17zM156.5 -47.5q-18.5 -25.5 -18.5 -56.5q0 -22 15.5 -33.5t44.5 -11.5q24 0 49 9v-61q-40 -20 -80 -20q-46 0 -79 25t-33 67q0 41 24 72.5t74 56.5h-117v62h83v305h-83v62h162v-367
h83v-62h-67q-39 -22 -57.5 -47.5z" />
    <glyph glyph-name="Idotaccent" unicode="&#x130;" horiz-adv-x="345" 
d="M38 589h270v-69h-93l-2 -451h95v-69h-271v69h97v451h-96v69zM217 785q17 -17 17 -45t-17 -45t-45 -17t-44.5 17t-16.5 45t16.5 45t44.5 17t45 -17z" />
    <glyph glyph-name="dotlessi" unicode="&#x131;" horiz-adv-x="304" 
d="M36 429h162v-367h83v-62h-245v62h83v305h-83v62z" />
    <glyph glyph-name="Jcircumflex" unicode="&#x134;" horiz-adv-x="514" 
d="M339 51.5q-54 -65.5 -150 -65.5q-65 0 -139 29l-25 126l68 16l21 -89q41 -17 77 -17q57 0 89 45.5t32 131.5l1 292h-132v69h306v-69h-94v-284q0 -119 -54 -184.5zM348 778l171 -97l-18 -32l-153 56l-153 -56l-18 32z" />
    <glyph glyph-name="jcircumflex" unicode="&#x135;" horiz-adv-x="254" 
d="M175.5 -127q-9.5 -39 -49.5 -67.5t-123 -28.5q-9 0 -26 1.5t-23 2.5l10 61q26 -2 42 -2q50 0 72 18.5t25.5 41t3.5 63.5v404h-84v62h162v-460q0 -57 -9.5 -96zM139 630l149 -99l-23 -44l-126 65l-126 -63l-27 42z" />
    <glyph glyph-name="Kcommaaccent" unicode="&#x136;" horiz-adv-x="669" 
d="M37 589h237v-69h-64v-188h93l138 188h-74v69h246v-69h-91l-151 -205l165 -246h100v-69h-269v69h81l-129 194h-109l1 -194h63v-69h-237v69h94v451h-94v69zM266 -271q5 7 20.5 32t25.5 48q-25 2 -40.5 18.5t-15.5 39.5q0 27 18.5 44.5t46.5 17.5q27 0 47.5 -20t20.5 -48
q0 -34 -19.5 -70t-44 -65t-24.5 -27z" />
    <glyph glyph-name="kcommaaccent" unicode="&#x137;" horiz-adv-x="551" 
d="M33 651l152 -52v-350h91l69 118h-52v62h210v-62h-84l-83 -143l97 -162h86v-62h-133l-113 187h-88v-125h45v-62h-207v62h84v494l-95 33zM251 -271q5 7 20.5 32t25.5 48q-25 2 -40.5 18.5t-15.5 39.5q0 27 18.5 44.5t46.5 17.5q27 0 47.5 -20t20.5 -48q0 -34 -19.5 -70
t-44 -65t-24.5 -27z" />
    <glyph glyph-name="kgreenlandic" unicode="&#x138;" horiz-adv-x="570" 
d="M42 429h207v-62h-45v-124h91l78 124h-51v62h210v-62h-84l-93 -149l97 -156h86v-62h-135l-112 181h-87v-119h45v-62h-207v62h84v305h-84v62z" />
    <glyph glyph-name="Lacute" unicode="&#x139;" horiz-adv-x="552" 
d="M37 589h308v-69h-113l-2 -451h189l39 106l66 -22l-53 -153h-434v69h114l1 451h-115v69zM348 768l18 -73l-252 -47l-9 36z" />
    <glyph glyph-name="lacute" unicode="&#x13a;" horiz-adv-x="292" 
d="M23 0v62h84v504l-100 22l17 64l161 -37v-553h84v-62h-246zM285 804l18 -73l-252 -47l-9 36z" />
    <glyph glyph-name="Lcommaaccent" unicode="&#x13b;" horiz-adv-x="552" 
d="M37 589h308v-69h-113l-2 -451h189l39 106l66 -22l-53 -153h-434v69h114l1 451h-115v69zM209 -271q5 7 20.5 32t25.5 48q-25 2 -40.5 18.5t-15.5 39.5q0 27 18.5 44.5t46.5 17.5q27 0 47.5 -20t20.5 -48q0 -34 -19.5 -70t-44 -65t-24.5 -27z" />
    <glyph glyph-name="lcommaaccent" unicode="&#x13c;" horiz-adv-x="292" 
d="M23 0v62h84v504l-100 22l17 64l161 -37v-553h84v-62h-246zM89 -271q5 7 20.5 32t25.5 48q-25 2 -40.5 18.5t-15.5 39.5q0 27 18.5 44.5t46.5 17.5q27 0 47.5 -20t20.5 -48q0 -34 -19.5 -70t-44 -65t-24.5 -27z" />
    <glyph glyph-name="Lcaron" unicode="&#x13d;" horiz-adv-x="552" 
d="M37 589h308v-69h-113l-2 -451h189l39 106l66 -22l-53 -153h-434v69h114l1 451h-115v69zM443 602l72 -16l-69 -210l-45 10z" />
    <glyph glyph-name="lcaron" unicode="&#x13e;" horiz-adv-x="292" 
d="M0 741l133 -66l133 66l18 -32l-151 -107l-151 107zM23 0v62h84v434l-100 22l17 64l161 -37v-483h84v-62h-246z" />
    <glyph glyph-name="Ldot" unicode="&#x13f;" horiz-adv-x="600" 
d="M37 589h308v-69h-113l-2 -451h189l39 106l66 -22l-53 -153h-434v69h114l1 451h-115v69zM396 372.5q18 -18.5 18 -43.5t-18 -43.5t-43 -18.5t-43.5 18.5t-18.5 43.5q0 26 18.5 44t43.5 18t43 -18.5z" />
    <glyph glyph-name="ldot" unicode="&#x140;" horiz-adv-x="362" 
d="M23 0v62h84v504l-100 22l17 64l161 -37v-553h84v-62h-246zM324 335.5q18 -18.5 18 -43.5t-18 -43.5t-43 -18.5t-43.5 18.5t-18.5 43.5q0 26 18.5 44t43.5 18t43 -18.5z" />
    <glyph glyph-name="Lslash" unicode="&#x141;" horiz-adv-x="552" 
d="M458 175l66 -22l-53 -153h-434v69h114v136l-74 -44v72l74 44l1 243h-115v69h308v-69h-113l-1 -196l169 100v-72l-169 -100l-1 -183h189z" />
    <glyph glyph-name="lslash" unicode="&#x142;" horiz-adv-x="292" 
d="M185 62h84v-62h-246v62h84v189l-70 -60v72l70 60v243l-100 22l17 64l161 -37v-225l75 64v-72l-75 -64v-256z" />
    <glyph glyph-name="Nacute" unicode="&#x143;" horiz-adv-x="718" 
d="M38 589h221l255 -467v398h-84v69h261v-69h-97v-520h-98l-284 520l2 -451h84v-69h-261v69h96l-1 451h-94v69zM510 768l18 -73l-252 -47l-9 36z" />
    <glyph glyph-name="nacute" unicode="&#x144;" horiz-adv-x="621" 
d="M42 62h84v287l-96 33l21 62l133 -46q70 46 152 46q76 0 127 -44t51 -125v-213h84v-62h-207v62h45v197q0 61 -31 91t-82 30q-57 0 -119 -34v-284h45v-62h-207v62zM377 692l59 -44l-148 -164l-37 28z" />
    <glyph glyph-name="Ncommaaccent" unicode="&#x145;" horiz-adv-x="718" 
d="M38 589h221l255 -467v398h-84v69h261v-69h-97v-520h-98l-284 520l2 -451h84v-69h-261v69h96l-1 451h-94v69zM301 -271q5 7 20.5 32t25.5 48q-25 2 -40.5 18.5t-15.5 39.5q0 27 18.5 44.5t46.5 17.5q27 0 47.5 -20t20.5 -48q0 -34 -19.5 -70t-44 -65t-24.5 -27z" />
    <glyph glyph-name="ncommaaccent" unicode="&#x146;" horiz-adv-x="621" 
d="M42 62h84v287l-96 33l21 62l133 -46q70 46 152 46q76 0 127 -44t51 -125v-213h84v-62h-207v62h45v197q0 61 -31 91t-82 30q-57 0 -119 -34v-284h45v-62h-207v62zM249 -271q5 7 20.5 32t25.5 48q-25 2 -40.5 18.5t-15.5 39.5q0 27 18.5 44.5t46.5 17.5q27 0 47.5 -20
t20.5 -48q0 -34 -19.5 -70t-44 -65t-24.5 -27z" />
    <glyph glyph-name="Ncaron" unicode="&#x147;" horiz-adv-x="718" 
d="M38 589h221l255 -467v398h-84v69h261v-69h-97v-520h-98l-284 520l2 -451h84v-69h-261v69h96l-1 451h-94v69zM360 636l-153 99l27 42l126 -63l126 65l23 -44z" />
    <glyph glyph-name="ncaron" unicode="&#x148;" horiz-adv-x="621" 
d="M42 62h84v287l-96 33l21 62l133 -46q70 46 152 46q76 0 127 -44t51 -125v-213h84v-62h-207v62h45v197q0 61 -31 91t-82 30q-57 0 -119 -34v-284h45v-62h-207v62zM308 476l-153 99l27 42l126 -63l126 65l23 -44z" />
    <glyph glyph-name="Eng" unicode="&#x14a;" horiz-adv-x="718" 
d="M305 -195l18 62q54 -19 90 -19q47 0 72 31t28 98l-301 543l2 -451h84v-69h-261v69h96l-1 451h-94v69h221l255 -467v398h-84v69h261v-69h-97v-521q-4 -106 -48 -164t-121 -58q-54 0 -120 28z" />
    <glyph glyph-name="eng" unicode="&#x14b;" horiz-adv-x="564" 
d="M465 397.5q49 -46.5 49 -122.5v-254q0 -117 -43.5 -180.5t-123.5 -63.5q-54 0 -120 28l18 62q54 -19 90 -19q51 0 76 37t25 116v258q0 58 -29.5 89.5t-83.5 31.5q-57 0 -119 -34v-284h45v-62h-207v62h84v287l-96 33l21 62l133 -46q69 46 152 46q80 0 129 -46.5z" />
    <glyph glyph-name="Omacron" unicode="&#x14c;" horiz-adv-x="636" 
d="M461 565.5q62 -38.5 96.5 -108.5t34.5 -162t-34 -162.5t-96.5 -109t-143.5 -38.5t-143.5 38.5t-96.5 109t-34 162.5t34 162t96 108.5t143 38.5q82 0 144 -38.5zM179 471q-50 -63 -50 -176q0 -114 50 -177t139 -63t139 63t50 177q0 113 -50 176t-139 63t-139 -63zM168 749
h299v-59h-299v59z" />
    <glyph glyph-name="omacron" unicode="&#x14d;" horiz-adv-x="521" 
d="M375.5 416q50.5 -28 78 -79.5t27.5 -122.5q0 -106 -60.5 -167.5t-161.5 -61.5q-64 0 -113.5 27.5t-77 79.5t-27.5 122t27.5 122t77 80t113.5 28q66 0 116.5 -28zM156.5 337q-35.5 -43 -35.5 -123t35.5 -122.5t103.5 -42.5q70 0 105.5 42.5t35.5 122.5t-35.5 123
t-105.5 43q-68 0 -103.5 -43zM111 589h299v-59h-299v59z" />
    <glyph glyph-name="Obreve" unicode="&#x14e;" horiz-adv-x="636" 
d="M461 565.5q62 -38.5 96.5 -108.5t34.5 -162t-34 -162.5t-96.5 -109t-143.5 -38.5t-143.5 38.5t-96.5 109t-34 162.5t34 162t96 108.5t143 38.5q82 0 144 -38.5zM179 471q-50 -63 -50 -176q0 -114 50 -177t139 -63t139 63t50 177q0 113 -50 176t-139 63t-139 -63z
M212.5 680.5q-39.5 30.5 -51.5 89.5l65 12q11 -68 91 -68q83 0 92 68l65 -12q-12 -59 -52 -89.5t-105 -30.5t-104.5 30.5z" />
    <glyph glyph-name="obreve" unicode="&#x14f;" horiz-adv-x="521" 
d="M375.5 416q50.5 -28 78 -79.5t27.5 -122.5q0 -106 -60.5 -167.5t-161.5 -61.5q-64 0 -113.5 27.5t-77 79.5t-27.5 122t27.5 122t77 80t113.5 28q66 0 116.5 -28zM156.5 337q-35.5 -43 -35.5 -123t35.5 -122.5t103.5 -42.5q70 0 105.5 42.5t35.5 122.5t-35.5 123
t-105.5 43q-68 0 -103.5 -43zM155.5 520.5q-39.5 30.5 -51.5 89.5l65 12q11 -68 91 -68q83 0 92 68l65 -12q-12 -59 -52 -89.5t-105 -30.5t-104.5 30.5z" />
    <glyph glyph-name="Ohungarumlaut" unicode="&#x150;" horiz-adv-x="636" 
d="M461 565.5q62 -38.5 96.5 -108.5t34.5 -162t-34 -162.5t-96.5 -109t-143.5 -38.5t-143.5 38.5t-96.5 109t-34 162.5t34 162t96 108.5t143 38.5q82 0 144 -38.5zM179 471q-50 -63 -50 -176q0 -114 50 -177t139 -63t139 63t50 177q0 113 -50 176t-139 63t-139 -63zM402 807
l40 -56l-166 -102l-20 28zM550 763l24 -64l-190 -49l-13 32z" />
    <glyph glyph-name="ohungarumlaut" unicode="&#x151;" horiz-adv-x="521" 
d="M375.5 416q50.5 -28 78 -79.5t27.5 -122.5q0 -106 -60.5 -167.5t-161.5 -61.5q-64 0 -113.5 27.5t-77 79.5t-27.5 122t27.5 122t77 80t113.5 28q66 0 116.5 -28zM156.5 337q-35.5 -43 -35.5 -123t35.5 -122.5t103.5 -42.5q70 0 105.5 42.5t35.5 122.5t-35.5 123
t-105.5 43q-68 0 -103.5 -43zM282 692l59 -44l-148 -164l-37 28zM449 672l49 -54l-175 -134l-31 34z" />
    <glyph glyph-name="OE" unicode="&#x152;" horiz-adv-x="870" 
d="M188 35.5q-67 35.5 -105.5 102t-38.5 157.5q0 164 78 229t224 65h418l53 -154l-66 -22l-40 107h-212v-181h185v-69h-186v-201h233l40 107l66 -22l-53 -154h-445q-84 0 -151 35.5zM225.5 504.5q-45.5 -16.5 -71 -65.5t-25.5 -144q0 -113 57.5 -170.5t170.5 -56.5l61 1v452
h-72q-75 0 -120.5 -16.5z" />
    <glyph glyph-name="oe" unicode="&#x153;" horiz-adv-x="753" 
d="M684.5 31q-25.5 -17 -67.5 -31.5t-96 -14.5q-80 0 -136 42q-61 -42 -127 -42q-64 0 -113.5 29.5t-77 83.5t-27.5 125q0 63 29 113.5t78.5 79t110.5 28.5q73 0 139 -34q53 34 124 34q83 0 135.5 -46t52.5 -154q0 -22 -3 -48l-322 -2q4 -70 39 -107.5t99 -37.5q41 0 75 11
t55.5 23.5t21.5 14.5l36 -47q0 -3 -25.5 -20zM158 336q-38 -44 -38 -112q0 -81 36 -128t103 -47q44 0 84 22q-40 57 -40 143q0 92 45 151q-41 15 -89 15q-63 0 -101 -44zM607.5 348.5q-29.5 31.5 -85.5 31.5q-58 0 -93 -32.5t-44 -91.5l253 1q-1 60 -30.5 91.5z" />
    <glyph glyph-name="Racute" unicode="&#x154;" horiz-adv-x="614" 
d="M587 69v-69h-149l-126 230h-10h-91v-161h63v-69h-237v69h94v451h-94v69h265q117 0 167 -43.5t50 -134.5q0 -70 -28.5 -112.5t-93.5 -58.5l99 -171h91zM302 301q46 0 74 8.5t43 32t15 68.5q0 65 -31.5 87.5t-100.5 22.5h-90v-219h90zM429 768l18 -73l-252 -47l-9 36z" />
    <glyph glyph-name="racute" unicode="&#x155;" horiz-adv-x="418" 
d="M261.5 431.5q43.5 12.5 86.5 12.5q36 0 38 -2l17 -105l-65 -14l-10 56q-31 0 -63.5 -9t-59.5 -25v-283h98v-62h-260v62h84v286l-96 33l21 62l133 -46q33 22 76.5 34.5zM281 692l59 -44l-148 -164l-37 28z" />
    <glyph glyph-name="Rcommaaccent" unicode="&#x156;" horiz-adv-x="614" 
d="M587 69v-69h-149l-126 230h-10h-91v-161h63v-69h-237v69h94v451h-94v69h265q117 0 167 -43.5t50 -134.5q0 -70 -28.5 -112.5t-93.5 -58.5l99 -171h91zM302 301q46 0 74 8.5t43 32t15 68.5q0 65 -31.5 87.5t-100.5 22.5h-90v-219h90zM250 -271q5 7 20.5 32t25.5 48
q-25 2 -40.5 18.5t-15.5 39.5q0 27 18.5 44.5t46.5 17.5q27 0 47.5 -20t20.5 -48q0 -34 -19.5 -70t-44 -65t-24.5 -27z" />
    <glyph glyph-name="rcommaaccent" unicode="&#x157;" horiz-adv-x="418" 
d="M261.5 431.5q43.5 12.5 86.5 12.5q36 0 38 -2l17 -105l-65 -14l-10 56q-31 0 -63.5 -9t-59.5 -25v-283h98v-62h-260v62h84v286l-96 33l21 62l133 -46q33 22 76.5 34.5zM115 -271q5 7 20.5 32t25.5 48q-25 2 -40.5 18.5t-15.5 39.5q0 27 18.5 44.5t46.5 17.5
q27 0 47.5 -20t20.5 -48q0 -34 -19.5 -70t-44 -65t-24.5 -27z" />
    <glyph glyph-name="Rcaron" unicode="&#x158;" horiz-adv-x="614" 
d="M587 69v-69h-149l-126 230h-10h-91v-161h63v-69h-237v69h94v451h-94v69h265q117 0 167 -43.5t50 -134.5q0 -70 -28.5 -112.5t-93.5 -58.5l99 -171h91zM302 301q46 0 74 8.5t43 32t15 68.5q0 65 -31.5 87.5t-100.5 22.5h-90v-219h90zM279 636l-153 99l27 42l126 -63
l126 65l23 -44z" />
    <glyph glyph-name="rcaron" unicode="&#x159;" horiz-adv-x="418" 
d="M261.5 431.5q43.5 12.5 86.5 12.5q36 0 38 -2l17 -105l-65 -14l-10 56q-31 0 -63.5 -9t-59.5 -25v-283h98v-62h-260v62h84v286l-96 33l21 62l133 -46q33 22 76.5 34.5zM212 476l-153 99l27 42l126 -63l126 65l23 -44z" />
    <glyph glyph-name="Sacute" unicode="&#x15a;" horiz-adv-x="536" 
d="M62 24l-19 122l66 6l14 -75q36 -12 69 -18t80 -6q61 0 100 26t39 82q0 43 -23 70.5t-78 35.5l-76 11q-85 13 -131 56.5t-46 110.5q0 71 53.5 115t157.5 44q58 0 99 -7t91 -26l17 -124l-66 -7l-13 80q-46 17 -127 17q-65 0 -102 -23.5t-37 -66.5q0 -81 104 -95l91 -14
q83 -12 124.5 -55.5t41.5 -110.5q0 -60 -29 -102t-79 -63.5t-110 -21.5q-111 0 -211 39zM420 768l18 -73l-252 -47l-9 36z" />
    <glyph glyph-name="sacute" unicode="&#x15b;" horiz-adv-x="450" 
d="M271 380.5q-20 4.5 -50 4.5q-40 0 -69.5 -18t-29.5 -47q0 -58 97 -68l41 -4q79 -8 113.5 -39.5t34.5 -86.5q0 -61 -50 -99t-130 -38q-48 0 -94.5 12.5t-81.5 32.5l-17 101l69 17l15 -70q47 -27 106 -27q47 0 79 18.5t32 50.5q0 29 -19.5 42t-70.5 19l-44 5
q-73 8 -112.5 42.5t-39.5 86.5q0 62 51 96t121 34q46 0 83 -8.5t72 -26.5l18 -95l-63 -14l-17 65q-24 10 -44 14.5zM294 692l59 -44l-148 -164l-37 28z" />
    <glyph glyph-name="Scircumflex" unicode="&#x15c;" horiz-adv-x="536" 
d="M62 24l-19 122l66 6l14 -75q36 -12 69 -18t80 -6q61 0 100 26t39 82q0 43 -23 70.5t-78 35.5l-76 11q-85 13 -131 56.5t-46 110.5q0 71 53.5 115t157.5 44q58 0 99 -7t91 -26l17 -124l-66 -7l-13 80q-46 17 -127 17q-65 0 -102 -23.5t-37 -66.5q0 -81 104 -95l91 -14
q83 -12 124.5 -55.5t41.5 -110.5q0 -60 -29 -102t-79 -63.5t-110 -21.5q-111 0 -211 39zM268 778l171 -97l-18 -32l-153 56l-153 -56l-18 32z" />
    <glyph glyph-name="scircumflex" unicode="&#x15d;" horiz-adv-x="450" 
d="M271 380.5q-20 4.5 -50 4.5q-40 0 -69.5 -18t-29.5 -47q0 -58 97 -68l41 -4q79 -8 113.5 -39.5t34.5 -86.5q0 -61 -50 -99t-130 -38q-48 0 -94.5 12.5t-81.5 32.5l-17 101l69 17l15 -70q47 -27 106 -27q47 0 79 18.5t32 50.5q0 29 -19.5 42t-70.5 19l-44 5
q-73 8 -112.5 42.5t-39.5 86.5q0 62 51 96t121 34q46 0 83 -8.5t72 -26.5l18 -95l-63 -14l-17 65q-24 10 -44 14.5zM225 630l149 -99l-23 -44l-126 65l-126 -63l-27 42z" />
    <glyph glyph-name="Scedilla" unicode="&#x15e;" horiz-adv-x="536" 
d="M443 46.5q-48 -47.5 -125 -58.5v-51q108 0 108 -78q0 -38 -29 -60t-79 -22q-58 0 -82 18.5t-25 18.5l22 37q17 -11 40.5 -18.5t42.5 -7.5q55 0 55 34q0 19 -15 26.5t-51 7.5h-37v92q-112 1 -206 39l-19 122l66 6l14 -75q36 -12 69 -18t80 -6q61 0 100 26t39 82
q0 43 -23 70.5t-78 35.5l-76 11q-85 13 -131 56.5t-46 110.5q0 71 53.5 115t157.5 44q58 0 99 -7t91 -26l17 -124l-66 -7l-13 80q-46 17 -127 17q-65 0 -102 -23.5t-37 -66.5q0 -81 104 -95l91 -14q83 -12 124.5 -55.5t41.5 -110.5q0 -78 -48 -125.5z" />
    <glyph glyph-name="scedilla" unicode="&#x15f;" horiz-adv-x="450" 
d="M381 -141q0 -38 -29 -60t-79 -22q-58 0 -82 18.5t-25 18.5l22 37q17 -11 40.5 -18.5t42.5 -7.5q55 0 55 34q0 19 -15 26.5t-51 7.5h-37v92q-46 1 -91 13t-80 32l-17 101l69 17l15 -70q47 -27 106 -27q47 0 79 18.5t32 50.5q0 29 -19.5 42t-70.5 19l-44 5
q-73 8 -112.5 42.5t-39.5 86.5q0 62 51 96t121 34q46 0 83 -8.5t72 -26.5l18 -95l-63 -14l-17 65q-24 10 -44 14.5t-50 4.5q-40 0 -69.5 -18t-29.5 -47q0 -58 97 -68l41 -4q79 -8 113.5 -39.5t34.5 -86.5q0 -52 -36.5 -87.5t-98.5 -46.5v-51q108 0 108 -78z" />
    <glyph glyph-name="Scaron" unicode="&#x160;" horiz-adv-x="536" 
d="M62 24l-19 122l66 6l14 -75q36 -12 69 -18t80 -6q61 0 100 26t39 82q0 43 -23 70.5t-78 35.5l-76 11q-85 13 -131 56.5t-46 110.5q0 71 53.5 115t157.5 44q58 0 99 -7t91 -26l17 -124l-66 -7l-13 80q-46 17 -127 17q-65 0 -102 -23.5t-37 -66.5q0 -81 104 -95l91 -14
q83 -12 124.5 -55.5t41.5 -110.5q0 -60 -29 -102t-79 -63.5t-110 -21.5q-111 0 -211 39zM270 636l-153 99l27 42l126 -63l126 65l23 -44z" />
    <glyph glyph-name="scaron" unicode="&#x161;" horiz-adv-x="450" 
d="M271 380.5q-20 4.5 -50 4.5q-40 0 -69.5 -18t-29.5 -47q0 -58 97 -68l41 -4q79 -8 113.5 -39.5t34.5 -86.5q0 -61 -50 -99t-130 -38q-48 0 -94.5 12.5t-81.5 32.5l-17 101l69 17l15 -70q47 -27 106 -27q47 0 79 18.5t32 50.5q0 29 -19.5 42t-70.5 19l-44 5
q-73 8 -112.5 42.5t-39.5 86.5q0 62 51 96t121 34q46 0 83 -8.5t72 -26.5l18 -95l-63 -14l-17 65q-24 10 -44 14.5zM225 476l-153 99l27 42l126 -63l126 65l23 -44z" />
    <glyph glyph-name="uni0162" unicode="&#x162;" horiz-adv-x="587" 
d="M36 589h515v-164h-76v95h-141l-2 -451h95v-69h-270v69h95l1 451h-141v-95h-76v164zM262 -204.5q-24 18.5 -25 18.5l22 37q17 -11 40.5 -18.5t42.5 -7.5q55 0 55 34q0 19 -15 26.5t-51 7.5h-37v107h50v-63q108 0 108 -78q0 -38 -29 -60t-79 -22q-58 0 -82 18.5z" />
    <glyph glyph-name="uni0163" unicode="&#x163;" horiz-adv-x="363" 
d="M333 -141q0 -38 -29 -60t-79 -22q-58 0 -82 18.5t-25 18.5l22 37q17 -11 40.5 -18.5t42.5 -7.5q55 0 55 34q0 19 -15 26.5t-51 7.5h-37v107h1q-70 35 -70 149v218h-83v62h83v97l76 18v-115h125v-62h-125v-174q0 -75 14.5 -112t55.5 -37q31 0 70 18l15 -56
q-53 -21 -90 -21q-15 0 -22 1v-49q108 0 108 -78z" />
    <glyph glyph-name="Tcaron" unicode="&#x164;" horiz-adv-x="587" 
d="M36 589h515v-164h-76v95h-141l-2 -451h95v-69h-270v69h95l1 451h-141v-95h-76v164zM296 636l-153 99l27 42l126 -63l126 65l23 -44z" />
    <glyph glyph-name="tcaron" unicode="&#x165;" horiz-adv-x="363" 
d="M145.5 22.5q-39.5 37.5 -39.5 126.5v218h-83v62h83v97l76 18v-115h125v-62h-125v-174q0 -75 14.5 -112t55.5 -37q31 0 70 18l15 -56q-53 -21 -90 -21q-62 0 -101.5 37.5zM155 547l-153 99l27 42l126 -63l126 65l23 -44z" />
    <glyph glyph-name="Tbar" unicode="&#x166;" horiz-adv-x="587" 
d="M36 589h515v-164h-76v95h-141l-1 -191h114v-62h-114l-1 -198h95v-69h-270v69h95v198h-112v62h113v191h-141v-95h-76v164z" />
    <glyph glyph-name="tbar" unicode="&#x167;" horiz-adv-x="363" 
d="M337 6q-53 -21 -90 -21q-62 0 -101.5 37.5t-39.5 126.5v108h-85v62h85v48h-83v62h83v97l76 18v-115h125v-62h-125v-48h146v-62h-146v-64q0 -75 14.5 -112t55.5 -37q31 0 70 18z" />
    <glyph glyph-name="Utilde" unicode="&#x168;" horiz-adv-x="678" 
d="M500 46q-55 -61 -166 -61q-107 0 -159 61t-52 169v305h-96v69h240v-69h-64v-332q0 -68 35 -101.5t96 -33.5q66 0 103.5 36.5t37.5 108.5v322h-64v69h240v-69h-96v-305q0 -108 -55 -169zM198 709q35 23 57 32t53 9q22 0 38 -5.5t38 -17.5q15 -9 26 -13t23 -4q15 0 26 6
t39 27l24 -56q-29 -25 -49.5 -34t-44.5 -9q-15 0 -28.5 5.5t-31.5 15.5q-17 10 -30.5 15t-26.5 5q-22 0 -37 -4.5t-31.5 -12.5t-23.5 -11z" />
    <glyph glyph-name="utilde" unicode="&#x169;" horiz-adv-x="609" 
d="M361 -3q-40 -12 -75 -12q-92 0 -135.5 41t-43.5 128v213h-84v62h162v-259q0 -64 25 -92.5t81 -28.5q32 0 68 9.5t58 24.5v284h-84v62h162v-351l94 -32l-20 -64l-136 47q-32 -20 -72 -32zM140 549q35 23 57 32t53 9q22 0 38 -5.5t38 -17.5q15 -9 26 -13t23 -4q15 0 26 6
t39 27l24 -56q-29 -25 -49.5 -34t-44.5 -9q-15 0 -28.5 5.5t-31.5 15.5q-17 10 -30.5 15t-26.5 5q-22 0 -37 -4.5t-31.5 -12.5t-23.5 -11z" />
    <glyph glyph-name="Umacron" unicode="&#x16a;" horiz-adv-x="678" 
d="M500 46q-55 -61 -166 -61q-107 0 -159 61t-52 169v305h-96v69h240v-69h-64v-332q0 -68 35 -101.5t96 -33.5q66 0 103.5 36.5t37.5 108.5v322h-64v69h240v-69h-96v-305q0 -108 -55 -169zM189 749h299v-59h-299v59z" />
    <glyph glyph-name="umacron" unicode="&#x16b;" horiz-adv-x="609" 
d="M361 -3q-40 -12 -75 -12q-92 0 -135.5 41t-43.5 128v213h-84v62h162v-259q0 -64 25 -92.5t81 -28.5q32 0 68 9.5t58 24.5v284h-84v62h162v-351l94 -32l-20 -64l-136 47q-32 -20 -72 -32zM131 589h299v-59h-299v59z" />
    <glyph glyph-name="Ubreve" unicode="&#x16c;" horiz-adv-x="678" 
d="M500 46q-55 -61 -166 -61q-107 0 -159 61t-52 169v305h-96v69h240v-69h-64v-332q0 -68 35 -101.5t96 -33.5q66 0 103.5 36.5t37.5 108.5v322h-64v69h240v-69h-96v-305q0 -108 -55 -169zM233.5 680.5q-39.5 30.5 -51.5 89.5l65 12q11 -68 91 -68q83 0 92 68l65 -12
q-12 -59 -52 -89.5t-105 -30.5t-104.5 30.5z" />
    <glyph glyph-name="ubreve" unicode="&#x16d;" horiz-adv-x="609" 
d="M361 -3q-40 -12 -75 -12q-92 0 -135.5 41t-43.5 128v213h-84v62h162v-259q0 -64 25 -92.5t81 -28.5q32 0 68 9.5t58 24.5v284h-84v62h162v-351l94 -32l-20 -64l-136 47q-32 -20 -72 -32zM175.5 520.5q-39.5 30.5 -51.5 89.5l65 12q11 -68 91 -68q83 0 92 68l65 -12
q-12 -59 -52 -89.5t-105 -30.5t-104.5 30.5z" />
    <glyph glyph-name="Uring" unicode="&#x16e;" horiz-adv-x="678" 
d="M500 46q-55 -61 -166 -61q-107 0 -159 61t-52 169v305h-96v69h240v-69h-64v-332q0 -68 35 -101.5t96 -33.5q66 0 103.5 36.5t37.5 108.5v322h-64v69h240v-69h-96v-305q0 -108 -55 -169zM401.5 803.5q23.5 -23.5 23.5 -62.5t-23.5 -62.5t-62.5 -23.5t-62.5 23.5
t-23.5 62.5t23.5 62.5t62.5 23.5t62.5 -23.5zM311 769q-11 -11 -11 -28t11 -28t28 -11t28 11t11 28t-11 28t-28 11t-28 -11z" />
    <glyph glyph-name="uring" unicode="&#x16f;" horiz-adv-x="609" 
d="M361 -3q-40 -12 -75 -12q-92 0 -135.5 41t-43.5 128v213h-84v62h162v-259q0 -64 25 -92.5t81 -28.5q32 0 68 9.5t58 24.5v284h-84v62h162v-351l94 -32l-20 -64l-136 47q-32 -20 -72 -32zM343.5 643.5q23.5 -23.5 23.5 -62.5t-23.5 -62.5t-62.5 -23.5t-62.5 23.5
t-23.5 62.5t23.5 62.5t62.5 23.5t62.5 -23.5zM253 609q-11 -11 -11 -28t11 -28t28 -11t28 11t11 28t-11 28t-28 11t-28 -11z" />
    <glyph glyph-name="Uhungarumlaut" unicode="&#x170;" horiz-adv-x="678" 
d="M500 46q-55 -61 -166 -61q-107 0 -159 61t-52 169v305h-96v69h240v-69h-64v-332q0 -68 35 -101.5t96 -33.5q66 0 103.5 36.5t37.5 108.5v322h-64v69h240v-69h-96v-305q0 -108 -55 -169zM423 807l40 -56l-166 -102l-20 28zM571 763l24 -64l-190 -49l-13 32z" />
    <glyph glyph-name="uhungarumlaut" unicode="&#x171;" horiz-adv-x="609" 
d="M361 -3q-40 -12 -75 -12q-92 0 -135.5 41t-43.5 128v213h-84v62h162v-259q0 -64 25 -92.5t81 -28.5q32 0 68 9.5t58 24.5v284h-84v62h162v-351l94 -32l-20 -64l-136 47q-32 -20 -72 -32zM302 692l59 -44l-148 -164l-37 28zM469 672l49 -54l-175 -134l-31 34z" />
    <glyph glyph-name="Uogonek" unicode="&#x172;" horiz-adv-x="678" 
d="M651 589v-69h-96v-305q0 -81 -31.5 -136.5t-95.5 -78.5q-59 -40 -59 -94q0 -22 15.5 -33.5t44.5 -11.5q24 0 49 9v-61q-40 -20 -80 -20q-46 0 -79 25t-33 67q0 62 57 104h-9q-107 0 -159 61t-52 169v305h-96v69h240v-69h-64v-332q0 -68 35 -101.5t96 -33.5
q66 0 103.5 36.5t37.5 108.5v322h-64v69h240z" />
    <glyph glyph-name="uogonek" unicode="&#x173;" horiz-adv-x="609" 
d="M603 -158v-61q-40 -20 -80 -20q-46 0 -79 25t-33 67q0 46 30 80t93 61l-101 35q-32 -20 -72 -32t-75 -12q-92 0 -135.5 41t-43.5 128v213h-84v62h162v-259q0 -64 25 -92.5t81 -28.5q32 0 68 9.5t58 24.5v284h-84v62h162v-351l94 -32l-20 -63l1 -1q-39 -22 -57.5 -47.5
t-18.5 -56.5q0 -22 15.5 -33.5t44.5 -11.5q24 0 49 9z" />
    <glyph glyph-name="Wcircumflex" unicode="&#x174;" horiz-adv-x="912" 
d="M1 589h243v-69h-64l84 -283l44 -146l30 141l82 282h88l70 -276l32 -146l43 146l93 282h-64v69h229v-69h-95l-164 -520h-92l-71 269l-32 135l-39 -140l-70 -264h-86l-166 520h-95v69zM459 778l171 -97l-18 -32l-153 56l-153 -56l-18 32z" />
    <glyph glyph-name="wcircumflex" unicode="&#x175;" horiz-adv-x="741" 
d="M206 0l-120 367h-84v62h226v-62h-65l55 -171l33 -104l31 102l54 174h76l55 -179l31 -99l30 94l59 183h-54v62h206v-62h-85l-117 -367h-76l-87 270l-90 -270h-78zM376 630l149 -99l-23 -44l-126 65l-126 -63l-27 42z" />
    <glyph glyph-name="Ycircumflex" unicode="&#x176;" horiz-adv-x="651" 
d="M4 589h239v-69h-53l139 -196l156 196h-75v69h237v-69h-68l-213 -263l-2 -188h94v-69h-267v69h94l1 185l-198 266h-84v69zM325 778l171 -97l-18 -32l-153 56l-153 -56l-18 32z" />
    <glyph glyph-name="ycircumflex" unicode="&#x177;" horiz-adv-x="543" 
d="M542 429v-62h-72l-163 -457q-47 -134 -155 -134q-33 0 -66 11l12 60q27 -8 48 -8q29 0 46.5 8.5t31.5 32.5t31 73l5 14l-188 400h-71v62h208v-62h-57l138 -313l107 313h-55v62h200zM275 630l149 -99l-23 -44l-126 65l-126 -63l-27 42z" />
    <glyph glyph-name="Ydieresis" unicode="&#x178;" horiz-adv-x="651" 
d="M4 589h239v-69h-53l139 -196l156 196h-75v69h237v-69h-68l-213 -263l-2 -188h94v-69h-267v69h94l1 185l-198 266h-84v69zM275 762.5q17 -16.5 17 -39.5t-16.5 -39.5t-39.5 -16.5t-39.5 16.5t-16.5 39.5t16.5 39.5t39.5 16.5q22 0 39 -16.5zM453 762.5q17 -16.5 17 -39.5
t-16.5 -39.5t-39.5 -16.5t-39.5 16.5t-16.5 39.5t16.5 39.5t39.5 16.5q22 0 39 -16.5z" />
    <glyph glyph-name="Zacute" unicode="&#x179;" horiz-adv-x="534" 
d="M61 589h419v-52l-337 -468h251l40 107l66 -22l-52 -154h-407v56l334 464h-258l-20 -97l-64 9zM415 768l18 -73l-252 -47l-9 36z" />
    <glyph glyph-name="zacute" unicode="&#x17a;" horiz-adv-x="452" 
d="M42 0v53l268 314h-204l-11 -56l-65 14l19 104h351v-50l-270 -317h212l10 60l67 -12l-21 -110h-356zM296 692l59 -44l-148 -164l-37 28z" />
    <glyph glyph-name="Zdotaccent" unicode="&#x17b;" horiz-adv-x="534" 
d="M61 589h419v-52l-337 -468h251l40 107l66 -22l-52 -154h-407v56l334 464h-258l-20 -97l-64 9zM307 785q17 -17 17 -45t-17 -45t-45 -17t-44.5 17t-16.5 45t16.5 45t44.5 17t45 -17z" />
    <glyph glyph-name="zdotaccent" unicode="&#x17c;" horiz-adv-x="452" 
d="M42 0v53l268 314h-204l-11 -56l-65 14l19 104h351v-50l-270 -317h212l10 60l67 -12l-21 -110h-356zM269 625q17 -17 17 -45t-17 -45t-45 -17t-44.5 17t-16.5 45t16.5 45t44.5 17t45 -17z" />
    <glyph glyph-name="Zcaron" unicode="&#x17d;" horiz-adv-x="534" 
d="M61 589h419v-52l-337 -468h251l40 107l66 -22l-52 -154h-407v56l334 464h-258l-20 -97l-64 9zM265 636l-153 99l27 42l126 -63l126 65l23 -44z" />
    <glyph glyph-name="zcaron" unicode="&#x17e;" horiz-adv-x="452" 
d="M42 0v53l268 314h-204l-11 -56l-65 14l19 104h351v-50l-270 -317h212l10 60l67 -12l-21 -110h-356zM227 476l-153 99l27 42l126 -63l126 65l23 -44z" />
    <glyph glyph-name="uni018F" unicode="&#x18f;" horiz-adv-x="605" 
d="M422.5 566q63.5 -38 98 -107t34.5 -161q0 -93 -34 -164t-96 -110t-144 -39q-75 0 -134 37.5t-91.5 105.5t-32.5 157v36h446q-17 215 -197 215q-46 0 -81 -8t-57 -18l-19 -84l-69 15l22 116q5 5 26 15.5t67 21t114 10.5q84 0 147.5 -38zM415.5 107.5q52.5 52.5 52.5 144.5
h-365q0 -93 49 -145t129 -52q82 0 134.5 52.5z" />
    <glyph glyph-name="florin" unicode="&#x192;" horiz-adv-x="447" 
d="M20 33l39 53q27 -26 56 -26q31 0 51.5 28.5t28.5 80.5l28 198h-84l9 62h84l8 60q11 80 59.5 124.5t123.5 44.5q30 0 56.5 -11.5t42.5 -30.5l-38 -52q-25 26 -65 26q-41 0 -67.5 -24.5t-31.5 -65.5l-10 -71h94l-9 -62h-94l-30 -218q-11 -84 -52.5 -121t-108.5 -37
q-51 0 -90 42z" />
    <glyph glyph-name="Ohorn" unicode="&#x1a0;" horiz-adv-x="636" 
d="M563 446q29 -66 29 -151q0 -92 -34 -162.5t-96.5 -109t-143.5 -38.5t-143.5 38.5t-96.5 109t-34 162.5t34 162t96 108.5t143 38.5q47 0 91 -14q27 4 41 23.5t14 54.5h62q0 -81 -45 -116q54 -40 83 -106zM457 118q50 63 50 177q0 113 -50 176t-139 63t-139 -63t-50 -176
q0 -114 50 -177t139 -63t139 63z" />
    <glyph glyph-name="ohorn" unicode="&#x1a1;" horiz-adv-x="521" 
d="M465 310q16 -43 16 -96q0 -106 -60.5 -167.5t-161.5 -61.5q-64 0 -113.5 27.5t-77 79.5t-27.5 122t27.5 122t77 80t113.5 28q49 0 89 -15q32 1 49 21t17 58h62q0 -92 -57 -124q30 -31 46 -74zM365.5 91.5q35.5 42.5 35.5 122.5t-35.5 123t-105.5 43q-68 0 -103.5 -43
t-35.5 -123t35.5 -122.5t103.5 -42.5q70 0 105.5 42.5z" />
    <glyph glyph-name="Uhorn" unicode="&#x1af;" horiz-adv-x="686" 
d="M555 524v-309q0 -108 -55 -169t-166 -61q-107 0 -159 61t-52 169v305h-96v69h240v-69h-64v-332q0 -68 35 -101.5t96 -33.5q66 0 103.5 36.5t37.5 108.5v322h-64v69h104q34 0 51.5 20t17.5 59h62q0 -123 -91 -144z" />
    <glyph glyph-name="uhorn" unicode="&#x1b0;" horiz-adv-x="619" 
d="M589 46l-20 -64l-136 47q-32 -20 -72 -32t-75 -12q-92 0 -135.5 41t-43.5 128v213h-84v62h162v-259q0 -64 25 -92.5t81 -28.5q32 0 68 9.5t58 24.5v284h-84v62h123q34 0 51.5 20t17.5 59h62q0 -117 -92 -137v-293z" />
    <glyph glyph-name="Gcaron" unicode="&#x1e6;" horiz-adv-x="592" 
d="M434 0q-42 -15 -113 -15q-79 0 -142 34.5t-99 104t-36 171.5q0 94 35.5 164t100 107.5t150.5 37.5q113 0 184 -57l23 -106l-69 -15l-18 77q-28 17 -52.5 25t-66.5 8q-54 0 -100 -28.5t-74 -83t-28 -129.5q0 -123 54.5 -182.5t137.5 -59.5q47 0 76 8.5t60 30.5v129h-128
v69h203v-236q-56 -39 -98 -54zM337 636l-153 99l27 42l126 -63l126 65l23 -44z" />
    <glyph glyph-name="gcaron" unicode="&#x1e7;" horiz-adv-x="535" 
d="M450 -89q0 -63 -56.5 -98.5t-156.5 -35.5q-48 0 -117 15.5t-97 32.5l28 59q35 -18 88 -29.5t98 -11.5q65 0 100.5 15t35.5 46q0 61 -104 61h-143v171q-45 19 -69 55.5t-24 86.5q0 76 53 121t144 45q73 0 122 -28l142 53l23 -66l-118 -27q30 -37 30 -93q0 -76 -54 -120.5
t-146 -44.5q-18 0 -27 1v-92h88q160 0 160 -116zM142.5 354q-30.5 -26 -30.5 -73q0 -44 32.5 -71.5t86.5 -27.5t86.5 27.5t32.5 71.5q0 47 -30.5 73t-88.5 26t-88.5 -26zM234 476l-153 99l27 42l126 -63l126 65l23 -44z" />
    <glyph glyph-name="uni01EA" unicode="&#x1ea;" horiz-adv-x="636" 
d="M373 -40.5q-16 -23.5 -16 -53.5q0 -22 15.5 -33.5t44.5 -11.5q24 0 49 9v-61q-40 -20 -80 -20q-46 0 -79 25t-33 67q0 60 57 104h-13q-81 0 -143.5 38.5t-96.5 109t-34 162.5t34 162t96 108.5t143 38.5q82 0 144 -38.5t96.5 -108.5t34.5 -162q0 -106 -44.5 -182
t-123.5 -108q-35 -22 -51 -45.5zM179 118q50 -63 139 -63t139 63t50 177q0 113 -50 176t-139 63t-139 -63t-50 -176q0 -114 50 -177z" />
    <glyph glyph-name="uni01EB" unicode="&#x1eb;" horiz-adv-x="521" 
d="M333.5 -114.5q15.5 -11.5 44.5 -11.5q24 0 49 9v-61q-40 -20 -80 -20q-46 0 -79 25t-33 67q0 53 42 92q-6 -1 -18 -1q-64 0 -113.5 27.5t-77 79.5t-27.5 122t27.5 122t77 80t113.5 28q66 0 116.5 -28t78 -79.5t27.5 -122.5q0 -64 -23 -112.5t-65 -77.5l1 -1
q-39 -22 -57.5 -47.5t-18.5 -56.5q0 -22 15.5 -33.5zM156.5 91.5q35.5 -42.5 103.5 -42.5q70 0 105.5 42.5t35.5 122.5t-35.5 123t-105.5 43q-68 0 -103.5 -43t-35.5 -123t35.5 -122.5z" />
    <glyph glyph-name="Aringacute" unicode="&#x1fa;" horiz-adv-x="685" 
d="M641 69v-69h-243v69h63l-32 91h-216l-34 -91h64v-69h-233v69h96l166 451h-101v69h102q-25 23 -25 64q0 39 23.5 62.5t62.5 23.5t62.5 -23.5t23.5 -62.5q0 -29 -13 -49.5t-37 -29.5l176 -505h95zM306 681q-11 -11 -11 -28t11 -28t28 -11t28 11t11 28t-11 28t-28 11
t-28 -11zM238 229h167l-79 259zM480 880l18 -73l-252 -47l-9 36z" />
    <glyph glyph-name="aringacute" unicode="&#x1fb;" horiz-adv-x="525" 
d="M208 -15q-85 0 -128.5 34.5t-43.5 100.5q0 64 42 96.5t124 32.5l129 -1q0 67 -25 99.5t-76 32.5q-50 0 -90 -12l-10 -55l-64 12l16 91q78 28 145 28q90 0 136 -48.5t46 -143.5v-174l95 -31l-20 -64l-135 46q-65 -44 -141 -44zM138.5 169q-22.5 -17 -22.5 -50
q0 -34 24.5 -52t71.5 -18q69 0 119 38v98l-126 1q-44 0 -66.5 -17zM295.5 643.5q23.5 -23.5 23.5 -62.5t-23.5 -62.5t-62.5 -23.5t-62.5 23.5t-23.5 62.5t23.5 62.5t62.5 23.5t62.5 -23.5zM205 609q-11 -11 -11 -28t11 -28t28 -11t28 11t11 28t-11 28t-28 11t-28 -11z
M304 930l59 -44l-148 -164l-37 28z" />
    <glyph glyph-name="AEacute" unicode="&#x1fc;" horiz-adv-x="919" 
d="M27 0v69h100l286 451h-103v69h503l52 -154l-66 -22l-40 107h-187v-191h160v-69h-161v-191h208l40 107l66 -22l-51 -154h-438v69h95v91h-226l-56 -91h58v-69h-240zM308 229h183l1 291zM672 768l18 -73l-252 -47l-9 36z" />
    <glyph glyph-name="aeacute" unicode="&#x1fd;" horiz-adv-x="777" 
d="M150.5 437.5q30.5 6.5 75.5 6.5q63 0 102.5 -25t55.5 -71q28 45 72.5 70.5t101.5 25.5q75 0 125 -46t50 -153q0 -22 -3 -49l-322 -2q4 -70 39 -107.5t99 -37.5q41 0 75 11t55.5 23.5t21.5 14.5l36 -47q0 -3 -25.5 -20t-67.5 -31.5t-96 -14.5q-100 0 -160 63
q-31 -21 -85 -42t-93 -21q-79 0 -125.5 38t-46.5 97q0 65 46.5 97t119.5 32l129 -1q0 49 -8 77t-30 41.5t-63 13.5q-49 0 -90 -12l-10 -55l-64 12l16 91q39 15 69.5 21.5zM635.5 349.5q-25.5 30.5 -80.5 30.5q-59 0 -98 -33t-48 -91l254 1q-2 62 -27.5 92.5zM138.5 172.5
q-23.5 -13.5 -23.5 -53.5q0 -34 27.5 -52t68.5 -18q33 0 72.5 13.5t69.5 32.5q-21 42 -24 90l-125 1q-42 0 -65.5 -13.5zM460 692l59 -44l-148 -164l-37 28z" />
    <glyph glyph-name="Oslashacute" unicode="&#x1fe;" horiz-adv-x="636" 
d="M565 440.5q27 -64.5 27 -145.5q0 -92 -34 -162.5t-96.5 -109t-143.5 -38.5q-47 0 -89 14l-31 -68h-74l44 97q-59 39 -91.5 108t-32.5 159q0 92 34 162t96 108.5t143 38.5q63 0 115 -23l32 70h73l-49 -105q50 -41 77 -105.5zM148 173.5q19 -51.5 55 -80.5l194 425
q-33 16 -79 16q-89 0 -139 -63t-50 -176q0 -70 19 -121.5zM457 118q50 63 50 177q0 119 -56 183l-188 -416q24 -7 55 -7q89 0 139 63zM470 768l18 -73l-252 -47l-9 36z" />
    <glyph glyph-name="oslashacute" unicode="&#x1ff;" horiz-adv-x="521" 
d="M452.5 338.5q28.5 -52.5 28.5 -124.5q0 -106 -60.5 -167.5t-161.5 -61.5q-32 0 -64 8l-26 -62h-50l32 78q-52 27 -81 80t-29 125q0 70 27.5 122t77 80t113.5 28q37 0 69 -9l27 64h50l-33 -81q52 -27 80.5 -79.5zM178 72l125 303q-22 5 -43 5q-68 0 -103.5 -43t-35.5 -123
q0 -102 57 -142zM365.5 91.5q35.5 42.5 35.5 122.5q0 101 -56 142l-125 -303q16 -4 40 -4q70 0 105.5 42.5zM332 692l59 -44l-148 -164l-37 28z" />
    <glyph glyph-name="uni0200" unicode="&#x200;" horiz-adv-x="651" 
d="M10 0v69h96l166 451h-101v69h194l181 -520h95v-69h-243v69h63l-32 91h-216l-34 -91h64v-69h-233zM238 229h167l-79 259zM234 807l146 -130l-20 -28l-166 102zM86 763l179 -81l-13 -32l-190 49z" />
    <glyph glyph-name="uni0201" unicode="&#x201;" horiz-adv-x="525" 
d="M208 -15q-85 0 -128.5 34.5t-43.5 100.5q0 64 42 96.5t124 32.5l129 -1q0 67 -25 99.5t-76 32.5q-50 0 -90 -12l-10 -55l-64 12l16 91q78 28 145 28q90 0 136 -48.5t46 -143.5v-174l95 -31l-20 -64l-135 46q-65 -44 -141 -44zM138.5 169q-22.5 -17 -22.5 -50
q0 -34 24.5 -52t71.5 -18q69 0 119 38v98l-126 1q-44 0 -66.5 -17zM218 692l126 -180l-37 -28l-148 164zM51 672l157 -154l-31 -34l-175 134z" />
    <glyph glyph-name="uni0202" unicode="&#x202;" horiz-adv-x="651" 
d="M10 0v69h96l166 451h-101v69h194l181 -520h95v-69h-243v69h63l-32 91h-216l-34 -91h64v-69h-233zM238 229h167l-79 259zM422 761.5q40 -30.5 52 -89.5l-65 -12q-9 68 -92 68q-80 0 -91 -68l-65 12q12 59 51.5 89.5t104.5 30.5t105 -30.5z" />
    <glyph glyph-name="uni0203" unicode="&#x203;" horiz-adv-x="525" 
d="M208 -15q-85 0 -128.5 34.5t-43.5 100.5q0 64 42 96.5t124 32.5l129 -1q0 67 -25 99.5t-76 32.5q-50 0 -90 -12l-10 -55l-64 12l16 91q78 28 145 28q90 0 136 -48.5t46 -143.5v-174l95 -31l-20 -64l-135 46q-65 -44 -141 -44zM138.5 169q-22.5 -17 -22.5 -50
q0 -34 24.5 -52t71.5 -18q69 0 119 38v98l-126 1q-44 0 -66.5 -17zM337 601.5q40 -30.5 52 -89.5l-65 -12q-9 68 -92 68q-80 0 -91 -68l-65 12q12 59 51.5 89.5t104.5 30.5t105 -30.5z" />
    <glyph glyph-name="uni0204" unicode="&#x204;" horiz-adv-x="587" 
d="M38 589h444l51 -154l-65 -22l-40 107h-214v-181h187v-69h-187l-1 -201h235l40 107l65 -22l-51 -154h-465v69h96l1 451h-96v69zM278 852l126 -180l-37 -28l-148 164zM111 832l157 -154l-31 -34l-175 134z" />
    <glyph glyph-name="uni0205" unicode="&#x205;" horiz-adv-x="491" 
d="M364 1q-42 -16 -94 -16q-107 0 -169 61t-62 169q0 68 27 120t76.5 80.5t114.5 28.5q90 0 142 -56.5t52 -152.5q0 -12 -2 -38l-333 -2q4 -73 46.5 -109t104.5 -36q85 0 143 48l36 -47q-40 -34 -82 -50zM341.5 348.5q-31.5 34.5 -83.5 34.5q-54 0 -93.5 -35t-47.5 -91
l257 1q-1 56 -32.5 90.5zM239 692l126 -180l-37 -28l-148 164zM72 672l157 -154l-31 -34l-175 134z" />
    <glyph glyph-name="uni0206" unicode="&#x206;" horiz-adv-x="587" 
d="M38 589h444l51 -154l-65 -22l-40 107h-214v-181h187v-69h-187l-1 -201h235l40 107l65 -22l-51 -154h-465v69h96l1 451h-96v69zM397 761.5q40 -30.5 52 -89.5l-65 -12q-9 68 -92 68q-80 0 -91 -68l-65 12q12 59 51.5 89.5t104.5 30.5t105 -30.5z" />
    <glyph glyph-name="uni0207" unicode="&#x207;" horiz-adv-x="491" 
d="M364 1q-42 -16 -94 -16q-107 0 -169 61t-62 169q0 68 27 120t76.5 80.5t114.5 28.5q90 0 142 -56.5t52 -152.5q0 -12 -2 -38l-333 -2q4 -73 46.5 -109t104.5 -36q85 0 143 48l36 -47q-40 -34 -82 -50zM341.5 348.5q-31.5 34.5 -83.5 34.5q-54 0 -93.5 -35t-47.5 -91
l257 1q-1 56 -32.5 90.5zM358 601.5q40 -30.5 52 -89.5l-65 -12q-9 68 -92 68q-80 0 -91 -68l-65 12q12 59 51.5 89.5t104.5 30.5t105 -30.5z" />
    <glyph glyph-name="uni0208" unicode="&#x208;" horiz-adv-x="345" 
d="M38 589h270v-69h-93l-2 -451h95v-69h-271v69h97v451h-96v69zM158 852l126 -180l-37 -28l-148 164zM-9 832l157 -154l-31 -34l-175 134z" />
    <glyph glyph-name="uni0209" unicode="&#x209;" horiz-adv-x="304" 
d="M36 429h162v-367h83v-62h-245v62h83v305h-83v62zM134 692l126 -180l-37 -28l-148 164zM-33 672l157 -154l-31 -34l-175 134z" />
    <glyph glyph-name="uni020A" unicode="&#x20a;" horiz-adv-x="345" 
d="M38 589h270v-69h-93l-2 -451h95v-69h-271v69h97v451h-96v69zM277 761.5q40 -30.5 52 -89.5l-65 -12q-9 68 -92 68q-80 0 -91 -68l-65 12q12 59 51.5 89.5t104.5 30.5t105 -30.5z" />
    <glyph glyph-name="uni020B" unicode="&#x20b;" horiz-adv-x="304" 
d="M36 429h162v-367h83v-62h-245v62h83v305h-83v62zM238 601.5q34 -30.5 42 -89.5l-57 -12q-6 68 -75 68q-33 0 -52 -17t-22 -51l-57 12q8 59 41.5 89.5t89.5 30.5t90 -30.5z" />
    <glyph glyph-name="uni020C" unicode="&#x20c;" horiz-adv-x="636" 
d="M461 565.5q62 -38.5 96.5 -108.5t34.5 -162t-34 -162.5t-96.5 -109t-143.5 -38.5t-143.5 38.5t-96.5 109t-34 162.5t34 162t96 108.5t143 38.5q82 0 144 -38.5zM179 471q-50 -63 -50 -176q0 -114 50 -177t139 -63t139 63t50 177q0 113 -50 176t-139 63t-139 -63zM303 852
l126 -180l-37 -28l-148 164zM136 832l157 -154l-31 -34l-175 134z" />
    <glyph glyph-name="uni020D" unicode="&#x20d;" horiz-adv-x="521" 
d="M375.5 416q50.5 -28 78 -79.5t27.5 -122.5q0 -106 -60.5 -167.5t-161.5 -61.5q-64 0 -113.5 27.5t-77 79.5t-27.5 122t27.5 122t77 80t113.5 28q66 0 116.5 -28zM156.5 337q-35.5 -43 -35.5 -123t35.5 -122.5t103.5 -42.5q70 0 105.5 42.5t35.5 122.5t-35.5 123
t-105.5 43q-68 0 -103.5 -43zM246 692l126 -180l-37 -28l-148 164zM79 672l157 -154l-31 -34l-175 134z" />
    <glyph glyph-name="uni020E" unicode="&#x20e;" horiz-adv-x="636" 
d="M461 565.5q62 -38.5 96.5 -108.5t34.5 -162t-34 -162.5t-96.5 -109t-143.5 -38.5t-143.5 38.5t-96.5 109t-34 162.5t34 162t96 108.5t143 38.5q82 0 144 -38.5zM179 471q-50 -63 -50 -176q0 -114 50 -177t139 -63t139 63t50 177q0 113 -50 176t-139 63t-139 -63z
M422 761.5q40 -30.5 52 -89.5l-65 -12q-9 68 -92 68q-80 0 -91 -68l-65 12q12 59 51.5 89.5t104.5 30.5t105 -30.5z" />
    <glyph glyph-name="uni020F" unicode="&#x20f;" horiz-adv-x="521" 
d="M375.5 416q50.5 -28 78 -79.5t27.5 -122.5q0 -106 -60.5 -167.5t-161.5 -61.5q-64 0 -113.5 27.5t-77 79.5t-27.5 122t27.5 122t77 80t113.5 28q66 0 116.5 -28zM156.5 337q-35.5 -43 -35.5 -123t35.5 -122.5t103.5 -42.5q70 0 105.5 42.5t35.5 122.5t-35.5 123
t-105.5 43q-68 0 -103.5 -43zM365 601.5q40 -30.5 52 -89.5l-65 -12q-9 68 -92 68q-80 0 -91 -68l-65 12q12 59 51.5 89.5t104.5 30.5t105 -30.5z" />
    <glyph glyph-name="uni0210" unicode="&#x210;" horiz-adv-x="614" 
d="M587 69v-69h-149l-126 230h-10h-91v-161h63v-69h-237v69h94v451h-94v69h265q117 0 167 -43.5t50 -134.5q0 -70 -28.5 -112.5t-93.5 -58.5l99 -171h91zM302 301q46 0 74 8.5t43 32t15 68.5q0 65 -31.5 87.5t-100.5 22.5h-90v-219h90zM262 852l126 -180l-37 -28l-148 164z
M95 832l157 -154l-31 -34l-175 134z" />
    <glyph glyph-name="uni0211" unicode="&#x211;" horiz-adv-x="418" 
d="M261.5 431.5q43.5 12.5 86.5 12.5q36 0 38 -2l17 -105l-65 -14l-10 56q-31 0 -63.5 -9t-59.5 -25v-283h98v-62h-260v62h84v286l-96 33l21 62l133 -46q33 22 76.5 34.5zM195 692l126 -180l-37 -28l-148 164zM28 672l157 -154l-31 -34l-175 134z" />
    <glyph glyph-name="uni0212" unicode="&#x212;" horiz-adv-x="614" 
d="M587 69v-69h-149l-126 230h-10h-91v-161h63v-69h-237v69h94v451h-94v69h265q117 0 167 -43.5t50 -134.5q0 -70 -28.5 -112.5t-93.5 -58.5l99 -171h91zM302 301q46 0 74 8.5t43 32t15 68.5q0 65 -31.5 87.5t-100.5 22.5h-90v-219h90zM381 761.5q40 -30.5 52 -89.5l-65 -12
q-9 68 -92 68q-80 0 -91 -68l-65 12q12 59 51.5 89.5t104.5 30.5t105 -30.5z" />
    <glyph glyph-name="uni0213" unicode="&#x213;" horiz-adv-x="418" 
d="M261.5 431.5q43.5 12.5 86.5 12.5q36 0 38 -2l17 -105l-65 -14l-10 56q-31 0 -63.5 -9t-59.5 -25v-283h98v-62h-260v62h84v286l-96 33l21 62l133 -46q33 22 76.5 34.5zM314 601.5q40 -30.5 52 -89.5l-65 -12q-9 68 -92 68q-80 0 -91 -68l-65 12q12 59 51.5 89.5
t104.5 30.5t105 -30.5z" />
    <glyph glyph-name="uni0214" unicode="&#x214;" horiz-adv-x="678" 
d="M500 46q-55 -61 -166 -61q-107 0 -159 61t-52 169v305h-96v69h240v-69h-64v-332q0 -68 35 -101.5t96 -33.5q66 0 103.5 36.5t37.5 108.5v322h-64v69h240v-69h-96v-305q0 -108 -55 -169zM324 852l126 -180l-37 -28l-148 164zM157 832l157 -154l-31 -34l-175 134z" />
    <glyph glyph-name="uni0215" unicode="&#x215;" horiz-adv-x="609" 
d="M361 -3q-40 -12 -75 -12q-92 0 -135.5 41t-43.5 128v213h-84v62h162v-259q0 -64 25 -92.5t81 -28.5q32 0 68 9.5t58 24.5v284h-84v62h162v-351l94 -32l-20 -64l-136 47q-32 -20 -72 -32zM266 692l126 -180l-37 -28l-148 164zM99 672l157 -154l-31 -34l-175 134z" />
    <glyph glyph-name="uni0216" unicode="&#x216;" horiz-adv-x="678" 
d="M500 46q-55 -61 -166 -61q-107 0 -159 61t-52 169v305h-96v69h240v-69h-64v-332q0 -68 35 -101.5t96 -33.5q66 0 103.5 36.5t37.5 108.5v322h-64v69h240v-69h-96v-305q0 -108 -55 -169zM443 761.5q40 -30.5 52 -89.5l-65 -12q-9 68 -92 68q-80 0 -91 -68l-65 12
q12 59 51.5 89.5t104.5 30.5t105 -30.5z" />
    <glyph glyph-name="uni0217" unicode="&#x217;" horiz-adv-x="609" 
d="M361 -3q-40 -12 -75 -12q-92 0 -135.5 41t-43.5 128v213h-84v62h162v-259q0 -64 25 -92.5t81 -28.5q32 0 68 9.5t58 24.5v284h-84v62h162v-351l94 -32l-20 -64l-136 47q-32 -20 -72 -32zM385 601.5q40 -30.5 52 -89.5l-65 -12q-9 68 -92 68q-80 0 -91 -68l-65 12
q12 59 51.5 89.5t104.5 30.5t105 -30.5z" />
    <glyph glyph-name="Scommaaccent" unicode="&#x218;" horiz-adv-x="536" 
d="M62 24l-19 122l66 6l14 -75q36 -12 69 -18t80 -6q61 0 100 26t39 82q0 43 -23 70.5t-78 35.5l-76 11q-85 13 -131 56.5t-46 110.5q0 71 53.5 115t157.5 44q58 0 99 -7t91 -26l17 -124l-66 -7l-13 80q-46 17 -127 17q-65 0 -102 -23.5t-37 -66.5q0 -81 104 -95l91 -14
q83 -12 124.5 -55.5t41.5 -110.5q0 -60 -29 -102t-79 -63.5t-110 -21.5q-111 0 -211 39zM211 -271q5 7 20.5 32t25.5 48q-25 2 -40.5 18.5t-15.5 39.5q0 27 18.5 44.5t46.5 17.5q27 0 47.5 -20t20.5 -48q0 -34 -19.5 -70t-44 -65t-24.5 -27z" />
    <glyph glyph-name="scommaaccent" unicode="&#x219;" horiz-adv-x="450" 
d="M271 380.5q-20 4.5 -50 4.5q-40 0 -69.5 -18t-29.5 -47q0 -58 97 -68l41 -4q79 -8 113.5 -39.5t34.5 -86.5q0 -61 -50 -99t-130 -38q-48 0 -94.5 12.5t-81.5 32.5l-17 101l69 17l15 -70q47 -27 106 -27q47 0 79 18.5t32 50.5q0 29 -19.5 42t-70.5 19l-44 5
q-73 8 -112.5 42.5t-39.5 86.5q0 62 51 96t121 34q46 0 83 -8.5t72 -26.5l18 -95l-63 -14l-17 65q-24 10 -44 14.5zM166 -271q5 7 20.5 32t25.5 48q-25 2 -40.5 18.5t-15.5 39.5q0 27 18.5 44.5t46.5 17.5q27 0 47.5 -20t20.5 -48q0 -34 -19.5 -70t-44 -65t-24.5 -27z" />
    <glyph glyph-name="uni021A" unicode="&#x21a;" horiz-adv-x="587" 
d="M36 589h515v-164h-76v95h-141l-2 -451h95v-69h-270v69h95l1 451h-141v-95h-76v164zM237 -271q5 7 20.5 32t25.5 48q-25 2 -40.5 18.5t-15.5 39.5q0 27 18.5 44.5t46.5 17.5q27 0 47.5 -20t20.5 -48q0 -34 -19.5 -70t-44 -65t-24.5 -27z" />
    <glyph glyph-name="uni021B" unicode="&#x21b;" horiz-adv-x="363" 
d="M145.5 22.5q-39.5 37.5 -39.5 126.5v218h-83v62h83v97l76 18v-115h125v-62h-125v-174q0 -75 14.5 -112t55.5 -37q31 0 70 18l15 -56q-53 -21 -90 -21q-62 0 -101.5 37.5zM118 -271q5 7 20.5 32t25.5 48q-25 2 -40.5 18.5t-15.5 39.5q0 27 18.5 44.5t46.5 17.5
q27 0 47.5 -20t20.5 -48q0 -34 -19.5 -70t-44 -65t-24.5 -27z" />
    <glyph glyph-name="uni022A" unicode="&#x22a;" horiz-adv-x="636" 
d="M461 565.5q62 -38.5 96.5 -108.5t34.5 -162t-34 -162.5t-96.5 -109t-143.5 -38.5t-143.5 38.5t-96.5 109t-34 162.5t34 162t96 108.5t143 38.5q82 0 144 -38.5zM179 471q-50 -63 -50 -176q0 -114 50 -177t139 -63t139 63t50 177q0 113 -50 176t-139 63t-139 -63z
M268 762.5q17 -16.5 17 -39.5t-16.5 -39.5t-39.5 -16.5t-39.5 16.5t-16.5 39.5t16.5 39.5t39.5 16.5q22 0 39 -16.5zM446 762.5q17 -16.5 17 -39.5t-16.5 -39.5t-39.5 -16.5t-39.5 16.5t-16.5 39.5t16.5 39.5t39.5 16.5q22 0 39 -16.5zM168 879h299v-59h-299v59z" />
    <glyph glyph-name="uni022B" unicode="&#x22b;" horiz-adv-x="521" 
d="M375.5 416q50.5 -28 78 -79.5t27.5 -122.5q0 -106 -60.5 -167.5t-161.5 -61.5q-64 0 -113.5 27.5t-77 79.5t-27.5 122t27.5 122t77 80t113.5 28q66 0 116.5 -28zM156.5 337q-35.5 -43 -35.5 -123t35.5 -122.5t103.5 -42.5q70 0 105.5 42.5t35.5 122.5t-35.5 123
t-105.5 43q-68 0 -103.5 -43zM211 602.5q17 -16.5 17 -39.5t-16.5 -39.5t-39.5 -16.5t-39.5 16.5t-16.5 39.5t16.5 39.5t39.5 16.5q22 0 39 -16.5zM389 602.5q17 -16.5 17 -39.5t-16.5 -39.5t-39.5 -16.5t-39.5 16.5t-16.5 39.5t16.5 39.5t39.5 16.5q22 0 39 -16.5zM111 719
h299v-59h-299v59z" />
    <glyph glyph-name="uni022C" unicode="&#x22c;" horiz-adv-x="636" 
d="M461 565.5q62 -38.5 96.5 -108.5t34.5 -162t-34 -162.5t-96.5 -109t-143.5 -38.5t-143.5 38.5t-96.5 109t-34 162.5t34 162t96 108.5t143 38.5q82 0 144 -38.5zM179 471q-50 -63 -50 -176q0 -114 50 -177t139 -63t139 63t50 177q0 113 -50 176t-139 63t-139 -63zM177 709
q35 23 57 32t53 9q22 0 38 -5.5t38 -17.5q15 -9 26 -13t23 -4q15 0 26 6t39 27l24 -56q-29 -25 -49.5 -34t-44.5 -9q-15 0 -28.5 5.5t-31.5 15.5q-17 10 -30.5 15t-26.5 5q-22 0 -37 -4.5t-31.5 -12.5t-23.5 -11zM167 893h299v-59h-299v59z" />
    <glyph glyph-name="uni022D" unicode="&#x22d;" horiz-adv-x="521" 
d="M375.5 416q50.5 -28 78 -79.5t27.5 -122.5q0 -106 -60.5 -167.5t-161.5 -61.5q-64 0 -113.5 27.5t-77 79.5t-27.5 122t27.5 122t77 80t113.5 28q66 0 116.5 -28zM156.5 337q-35.5 -43 -35.5 -123t35.5 -122.5t103.5 -42.5q70 0 105.5 42.5t35.5 122.5t-35.5 123
t-105.5 43q-68 0 -103.5 -43zM120 549q35 23 57 32t53 9q22 0 38 -5.5t38 -17.5q15 -9 26 -13t23 -4q15 0 26 6t39 27l24 -56q-29 -25 -49.5 -34t-44.5 -9q-15 0 -28.5 5.5t-31.5 15.5q-17 10 -30.5 15t-26.5 5q-22 0 -37 -4.5t-31.5 -12.5t-23.5 -11zM110 733h299v-59h-299
v59z" />
    <glyph glyph-name="uni0230" unicode="&#x230;" horiz-adv-x="636" 
d="M461 565.5q62 -38.5 96.5 -108.5t34.5 -162t-34 -162.5t-96.5 -109t-143.5 -38.5t-143.5 38.5t-96.5 109t-34 162.5t34 162t96 108.5t143 38.5q82 0 144 -38.5zM179 471q-50 -63 -50 -176q0 -114 50 -177t139 -63t139 63t50 177q0 113 -50 176t-139 63t-139 -63zM362 785
q17 -17 17 -45t-17 -45t-45 -17t-44.5 17t-16.5 45t16.5 45t44.5 17t45 -17zM168 891h299v-59h-299v59z" />
    <glyph glyph-name="uni0231" unicode="&#x231;" horiz-adv-x="521" 
d="M375.5 416q50.5 -28 78 -79.5t27.5 -122.5q0 -106 -60.5 -167.5t-161.5 -61.5q-64 0 -113.5 27.5t-77 79.5t-27.5 122t27.5 122t77 80t113.5 28q66 0 116.5 -28zM156.5 337q-35.5 -43 -35.5 -123t35.5 -122.5t103.5 -42.5q70 0 105.5 42.5t35.5 122.5t-35.5 123
t-105.5 43q-68 0 -103.5 -43zM305 625q17 -17 17 -45t-17 -45t-45 -17t-44.5 17t-16.5 45t16.5 45t44.5 17t45 -17zM111 742h299v-59h-299v59z" />
    <glyph glyph-name="uni0232" unicode="&#x232;" horiz-adv-x="651" 
d="M4 589h239v-69h-53l139 -196l156 196h-75v69h237v-69h-68l-213 -263l-2 -188h94v-69h-267v69h94l1 185l-198 266h-84v69zM175 749h299v-59h-299v59z" />
    <glyph glyph-name="uni0233" unicode="&#x233;" horiz-adv-x="543" 
d="M542 429v-62h-72l-163 -457q-47 -134 -155 -134q-33 0 -66 11l12 60q27 -8 48 -8q29 0 46.5 8.5t31.5 32.5t31 73l5 14l-188 400h-71v62h208v-62h-57l138 -313l107 313h-55v62h200zM123 589h299v-59h-299v59z" />
    <glyph glyph-name="uni0237" unicode="&#x237;" horiz-adv-x="254" 
d="M175.5 -127q-9.5 -39 -49.5 -67.5t-123 -28.5q-9 0 -26 1.5t-23 2.5l10 61q26 -2 42 -2q50 0 72 18.5t25.5 41t3.5 63.5v404h-84v62h162v-460q0 -57 -9.5 -96z" />
    <glyph glyph-name="uni0259" unicode="&#x259;" horiz-adv-x="491" 
d="M127 428q42 16 94 16q107 0 169 -61t62 -169q0 -68 -27 -120t-76.5 -80.5t-114.5 -28.5q-90 0 -142 56.5t-52 152.5q0 12 2 38l333 2q-4 73 -46.5 109t-104.5 36q-84 0 -143 -48l-36 47q40 34 82 50zM149.5 80.5q31.5 -34.5 83.5 -34.5q54 0 93.5 35t47.5 91l-257 -1
q1 -56 32.5 -90.5z" />
    <glyph glyph-name="uni02B9" unicode="&#x2b9;" horiz-adv-x="223" 
d="M83 605h90l-81 -206h-62z" />
    <glyph glyph-name="uni02BA" unicode="&#x2ba;" horiz-adv-x="373" 
d="M83 605h90l-81 -206h-62zM233 605h90l-81 -206h-62z" />
    <glyph glyph-name="uni02BB" unicode="&#x2bb;" horiz-adv-x="212" 
d="M166 631q-5 -7 -20.5 -32t-25.5 -48q25 -2 40.5 -18.5t15.5 -39.5q0 -27 -18.5 -44.5t-46.5 -17.5q-27 0 -47.5 20.5t-20.5 48.5q0 34 19.5 70t44 64.5t24.5 26.5z" />
    <glyph glyph-name="uni02BC" unicode="&#x2bc;" horiz-adv-x="173" 
d="M15.5 437q15.5 25 25.5 48q-25 2 -40.5 18.5t-15.5 39.5q0 27 18.5 44.5t46.5 17.5q27 0 47.5 -20t20.5 -48q0 -34 -19.5 -70t-44 -65t-24.5 -27l-35 30q5 7 20.5 32z" />
    <glyph glyph-name="uni02BE" unicode="&#x2be;" horiz-adv-x="202" 
d="M123 623.5q29 -26.5 29 -80.5t-29.5 -81t-72.5 -27v50q21 0 35 13.5t14 44.5q0 30 -14 43.5t-35 13.5v50q44 0 73 -26.5z" />
    <glyph glyph-name="uni02BF" unicode="&#x2bf;" horiz-adv-x="202" 
d="M79 461.5q-29 26.5 -29 80.5t29.5 81t72.5 27v-50q-21 0 -35 -13.5t-14 -44.5q0 -30 14 -43.5t35 -13.5v-50q-44 0 -73 26.5z" />
    <glyph glyph-name="circumflex" unicode="&#x2c6;" horiz-adv-x="343" 
d="M171 630l149 -99l-23 -44l-126 65l-126 -63l-27 42z" />
    <glyph glyph-name="caron" unicode="&#x2c7;" horiz-adv-x="347" 
d="M171 476l-153 99l27 42l126 -63l126 65l23 -44z" />
    <glyph glyph-name="uni02C8" unicode="&#x2c8;" horiz-adv-x="270" 
d="M100 652h70v-208h-70v208z" />
    <glyph glyph-name="uni02C9" unicode="&#x2c9;" horiz-adv-x="366" 
d="M36 589h299v-59h-299v59z" />
    <glyph glyph-name="uni02CA" unicode="&#x2ca;" horiz-adv-x="224" 
d="M84 605h90l-112 -106h-62z" />
    <glyph glyph-name="uni02CB" unicode="&#x2cb;" horiz-adv-x="224" 
d="M140 605l84 -106h-62l-112 106h90z" />
    <glyph glyph-name="uni02CC" unicode="&#x2cc;" horiz-adv-x="170" 
d="M50 0h70v-208h-70v208z" />
    <glyph glyph-name="breve" unicode="&#x2d8;" horiz-adv-x="393" 
d="M91.5 520.5q-39.5 30.5 -51.5 89.5l65 12q11 -68 91 -68q83 0 92 68l65 -12q-12 -59 -52 -89.5t-105 -30.5t-104.5 30.5z" />
    <glyph glyph-name="dotaccent" unicode="&#x2d9;" horiz-adv-x="223" 
d="M156 625q17 -17 17 -45t-17 -45t-45 -17t-44.5 17t-16.5 45t16.5 45t44.5 17t45 -17z" />
    <glyph glyph-name="ring" unicode="&#x2da;" horiz-adv-x="241" 
d="M181.5 643.5q23.5 -23.5 23.5 -62.5t-23.5 -62.5t-62.5 -23.5t-62.5 23.5t-23.5 62.5t23.5 62.5t62.5 23.5t62.5 -23.5zM91 609q-11 -11 -11 -28t11 -28t28 -11t28 11t11 28t-11 28t-28 11t-28 -11z" />
    <glyph glyph-name="ogonek" unicode="&#x2db;" horiz-adv-x="273" 
d="M200 0q-39 -22 -57.5 -47.5t-18.5 -56.5q0 -22 15.5 -33.5t44.5 -11.5q24 0 49 9v-61q-40 -20 -80 -20q-46 0 -79 25t-33 67q0 48 33.5 83.5t104.5 63.5z" />
    <glyph glyph-name="tilde" unicode="&#x2dc;" horiz-adv-x="446" 
d="M-18 668q34 23 58 32t56 9q24 0 44 -5.5t45 -16.5q20 -9 36 -14t33 -5q21 0 37.5 5.5t38.5 24.5l34 -54q-43 -28 -63 -35.5t-57 -7.5q-28 0 -72 21q-24 10 -38.5 15t-30.5 5q-26 0 -44 -6.5t-42 -21.5z" />
    <glyph glyph-name="hungarumlaut" unicode="&#x2dd;" horiz-adv-x="600" 
d="M176 692l59 -44l-148 -164l-37 28zM343 672l49 -54l-175 -134l-31 34z" />
    <glyph glyph-name="gravecomb" unicode="&#x300;" 
d="M-137 484l-148 164l59 44l126 -180z" />
    <glyph glyph-name="acutecomb" unicode="&#x301;" 
d="M-109 692l59 -44l-148 -164l-37 28z" />
    <glyph glyph-name="uni0302" unicode="&#x302;" 
d="M-172 630l149 -99l-23 -44l-126 65l-126 -63l-27 42z" />
    <glyph glyph-name="tildecomb" unicode="&#x303;" 
d="M-374 549q35 23 57 32t53 9q22 0 38 -5.5t38 -17.5q15 -9 26 -13t23 -4q15 0 26 6t39 27l24 -56q-29 -25 -49.5 -34t-44.5 -9q-15 0 -28.5 5.5t-31.5 15.5q-17 10 -30.5 15t-26.5 5q-22 0 -37 -4.5t-31.5 -12.5t-23.5 -11z" />
    <glyph glyph-name="uni0304" unicode="&#x304;" 
d="M-330 589h299v-59h-299v59z" />
    <glyph glyph-name="uni0306" unicode="&#x306;" 
d="M-301.5 520.5q-39.5 30.5 -51.5 89.5l65 12q11 -68 91 -68q83 0 92 68l65 -12q-12 -59 -52 -89.5t-105 -30.5t-104.5 30.5z" />
    <glyph glyph-name="uni0307" unicode="&#x307;" 
d="M-67 625q17 -17 17 -45t-17 -45t-45 -17t-44.5 17t-16.5 45t16.5 45t44.5 17t45 -17z" />
    <glyph glyph-name="uni0308" unicode="&#x308;" 
d="M-228 602.5q17 -16.5 17 -39.5t-16.5 -39.5t-39.5 -16.5t-39.5 16.5t-16.5 39.5t16.5 39.5t39.5 16.5q22 0 39 -16.5zM-50 602.5q17 -16.5 17 -39.5t-16.5 -39.5t-39.5 -16.5t-39.5 16.5t-16.5 39.5t16.5 39.5t39.5 16.5q22 0 39 -16.5z" />
    <glyph glyph-name="hookabovecomb" unicode="&#x309;" 
d="M-114 514q15 12 24 28.5t9 31.5q0 14 -7.5 22t-22.5 8q-25 0 -47 -26l-35 40q18 22 43 34t51 12q35 0 59 -22t24 -61q0 -48 -73 -98z" />
    <glyph glyph-name="uni030A" unicode="&#x30a;" 
d="M-59.5 643.5q23.5 -23.5 23.5 -62.5t-23.5 -62.5t-62.5 -23.5t-62.5 23.5t-23.5 62.5t23.5 62.5t62.5 23.5t62.5 -23.5zM-150 609q-11 -11 -11 -28t11 -28t28 -11t28 11t11 28t-11 28t-28 11t-28 -11z" />
    <glyph glyph-name="uni030B" unicode="&#x30b;" 
d="M-266 692l59 -44l-148 -164l-37 28zM-99 672l49 -54l-175 -134l-31 34z" />
    <glyph glyph-name="uni030C" unicode="&#x30c;" 
d="M-176 476l-153 99l27 42l126 -63l126 65l23 -44z" />
    <glyph glyph-name="uni030F" unicode="&#x30f;" 
d="M-176 692l126 -180l-37 -28l-148 164zM-343 672l157 -154l-31 -34l-175 134z" />
    <glyph glyph-name="uni0311" unicode="&#x311;" 
d="M-92 601.5q40 -30.5 52 -89.5l-65 -12q-9 68 -92 68q-80 0 -91 -68l-65 12q12 59 51.5 89.5t104.5 30.5t105 -30.5z" />
    <glyph glyph-name="uni0312" unicode="&#x312;" 
d="M-60 692q-5 -7 -20.5 -32t-25.5 -48q25 -2 40.5 -18.5t15.5 -39.5q0 -27 -18.5 -44.5t-46.5 -17.5q-27 0 -47.5 20.5t-20.5 48.5q0 34 19.5 70t44 64.5t24.5 26.5z" />
    <glyph glyph-name="uni031B" unicode="&#x31b;" 
d="M-161 429q34 0 51.5 20t17.5 59h62q0 -70 -33 -105.5t-98 -35.5v62z" />
    <glyph glyph-name="dotbelowcomb" unicode="&#x323;" 
d="M-67 -75q17 -17 17 -45t-17 -45t-45 -17t-44.5 17t-16.5 45t16.5 45t44.5 17t45 -17z" />
    <glyph glyph-name="uni0324" unicode="&#x324;" 
d="M-245 -78.5q17 -16.5 17 -39.5t-16.5 -39.5t-39.5 -16.5t-39.5 16.5t-16.5 39.5t16.5 39.5t39.5 16.5q22 0 39 -16.5zM-67 -78.5q17 -16.5 17 -39.5t-16.5 -39.5t-39.5 -16.5t-39.5 16.5t-16.5 39.5t16.5 39.5t39.5 16.5q22 0 39 -16.5z" />
    <glyph glyph-name="uni0326" unicode="&#x326;" 
d="M-159 -271q5 7 20.5 32t25.5 48q-25 2 -40.5 18.5t-15.5 39.5q0 27 18.5 44.5t46.5 17.5q27 0 47.5 -20t20.5 -48q0 -34 -19.5 -70t-44 -65t-24.5 -27z" />
    <glyph glyph-name="uni0327" unicode="&#x327;" 
d="M-210 -204.5q-24 18.5 -25 18.5l22 37q17 -11 40.5 -18.5t42.5 -7.5q55 0 55 34q0 19 -15 26.5t-51 7.5h-37v107h50v-63q108 0 108 -78q0 -38 -29 -60t-79 -22q-58 0 -82 18.5z" />
    <glyph glyph-name="uni0328" unicode="&#x328;" 
d="M-83 0q-39 -22 -57.5 -47.5t-18.5 -56.5q0 -22 15.5 -33.5t44.5 -11.5q23 0 49 9v-61q-40 -20 -80 -20q-46 0 -79 25t-33 67q0 48 33.5 83.5t104.5 63.5z" />
    <glyph glyph-name="uni032E" unicode="&#x32e;" 
d="M-301.5 -149.5q-39.5 30.5 -51.5 89.5l65 12q11 -68 91 -68q83 0 92 68l65 -12q-12 -59 -52 -89.5t-105 -30.5t-104.5 30.5z" />
    <glyph glyph-name="uni0331" unicode="&#x331;" 
d="M-307 -40h307v-62h-307v62z" />
    <glyph glyph-name="uni0335" unicode="&#x335;" 
d="M-357 266h307v-62h-307v62z" />
    <glyph glyph-name="pi" unicode="&#x3c0;" horiz-adv-x="525" 
d="M398 367v-229q0 -81 72 -81l14 1v-64q-10 -1 -29 -1q-67 0 -101 32t-34 94v248h-134v-305h54v-62h-198v62h66v305h-63v62h440v-62h-87z" />
    <glyph glyph-name="uni0400" unicode="&#x400;" horiz-adv-x="587" 
d="M38 589h444l51 -154l-65 -22l-40 107h-214v-181h187v-69h-187l-1 -201h235l40 107l65 -22l-51 -154h-465v69h96l1 451h-96v69zM299 644l-148 164l59 44l126 -180z" />
    <glyph glyph-name="uni0401" unicode="&#x401;" horiz-adv-x="587" 
d="M38 589h444l51 -154l-65 -22l-40 107h-214v-181h187v-69h-187l-1 -201h235l40 107l65 -22l-51 -154h-465v69h96l1 451h-96v69zM255 762.5q17 -16.5 17 -39.5t-16.5 -39.5t-39.5 -16.5t-39.5 16.5t-16.5 39.5t16.5 39.5t39.5 16.5q22 0 39 -16.5zM433 762.5
q17 -16.5 17 -39.5t-16.5 -39.5t-39.5 -16.5t-39.5 16.5t-16.5 39.5t16.5 39.5t39.5 16.5q22 0 39 -16.5z" />
    <glyph glyph-name="uni0402" unicode="&#x402;" horiz-adv-x="688" 
d="M482 369q77 0 124 -47t47 -130q0 -46 -18.5 -90.5t-55.5 -73.5t-90 -29q-11 0 -32 3l7 66q17 -3 25 -3q40 0 62 33t22 92q0 60 -29.5 88t-80.5 28q-68 0 -130 -34v-203h64v-69h-240v69h95l1 451h-141v-95h-76v164h515v-164h-76v95h-141l-1 -195q67 44 149 44z" />
    <glyph glyph-name="uni0403" unicode="&#x403;" horiz-adv-x="508" 
d="M46 589h425l28 -148l-69 -15l-22 94h-188l-2 -451h123v-69h-296v69h95l1 451h-95v69zM386 852l59 -44l-148 -164l-37 28z" />
    <glyph glyph-name="uni0404" unicode="&#x404;" horiz-adv-x="605" 
d="M193 106.5q50 -53.5 140 -53.5q69 0 137 22l19 79l68 -16l-25 -116q0 -1 -27 -11t-71 -18t-101 -8q-86 0 -150 38.5t-99 109t-35 164.5q0 92 35 161.5t98.5 107.5t147.5 38q68 0 114 -10.5t67 -21t26 -15.5l22 -116l-69 -15l-20 84q-52 26 -137 26q-95 0 -144.5 -58
t-54.5 -164l141 7h129v-69h-128l-141 6q8 -98 58 -151.5z" />
    <glyph glyph-name="uni0405" unicode="&#x405;" horiz-adv-x="536" 
d="M62 24l-19 122l66 6l14 -75q36 -12 69 -18t80 -6q61 0 100 26t39 82q0 43 -23 70.5t-78 35.5l-76 11q-85 13 -131 56.5t-46 110.5q0 71 53.5 115t157.5 44q58 0 99 -7t91 -26l17 -124l-66 -7l-13 80q-46 17 -127 17q-65 0 -102 -23.5t-37 -66.5q0 -81 104 -95l91 -14
q83 -12 124.5 -55.5t41.5 -110.5q0 -60 -29 -102t-79 -63.5t-110 -21.5q-111 0 -211 39z" />
    <glyph glyph-name="uni0406" unicode="&#x406;" horiz-adv-x="345" 
d="M38 589h270v-69h-93l-2 -451h95v-69h-271v69h97v451h-96v69z" />
    <glyph glyph-name="uni0407" unicode="&#x407;" horiz-adv-x="345" 
d="M38 589h270v-69h-93l-2 -451h95v-69h-271v69h97v451h-96v69zM123 762.5q17 -16.5 17 -39.5t-16.5 -39.5t-39.5 -16.5t-39.5 16.5t-16.5 39.5t16.5 39.5t39.5 16.5q22 0 39 -16.5zM301 762.5q17 -16.5 17 -39.5t-16.5 -39.5t-39.5 -16.5t-39.5 16.5t-16.5 39.5t16.5 39.5
t39.5 16.5q22 0 39 -16.5z" />
    <glyph glyph-name="uni0408" unicode="&#x408;" horiz-adv-x="514" 
d="M339 51.5q-54 -65.5 -150 -65.5q-65 0 -139 29l-25 126l68 16l21 -89q41 -17 77 -17q57 0 89 45.5t32 131.5l1 292h-132v69h306v-69h-94v-284q0 -119 -54 -184.5z" />
    <glyph glyph-name="uni0409" unicode="&#x409;" horiz-adv-x="870" 
d="M845 193q0 -96 -55.5 -144.5t-144.5 -48.5h-276v69h84l1 453h-184l-15 -199q-9 -114 -28 -186.5t-55.5 -110.5t-97.5 -38q-17 0 -35 3v73q6 -1 18 -1q50 0 75 28.5t34.5 83t17.5 163.5l13 184h-86v67h517v-67h-95v-149h92q220 0 220 -180zM723 99.5q37 29.5 37 92.5
q0 112 -136 112h-91v-234h93q60 0 97 29.5z" />
    <glyph glyph-name="uni040A" unicode="&#x40a;" horiz-adv-x="919" 
d="M37 69h95l1 451h-95v69h239v-69h-64l-1 -184h288l1 184h-64v69h239v-69h-95l-1 -185h92q120 0 171 -39t51 -122q0 -86 -56 -130t-146 -44h-256v69h64v198h-288l-1 -198h64v-69h-238v69zM674 69q135 0 135 104q0 42 -19.5 62.5t-48.5 26t-70 5.5h-91v-198h94z" />
    <glyph glyph-name="uni040B" unicode="&#x40b;" horiz-adv-x="756" 
d="M448 372q97 0 141 -43t44 -132v-128h93v-69h-238v69h64v111q0 61 -23.5 93t-85.5 32q-42 0 -76.5 -12t-54.5 -24v-200h94v-69h-270v69h95l1 451h-141v-95h-76v164h515v-164h-76v95h-141l-1 -192q67 44 136 44z" />
    <glyph glyph-name="uni040C" unicode="&#x40c;" horiz-adv-x="669" 
d="M37 589h237v-69h-64v-188h93l138 188h-74v69h246v-69h-91l-151 -205l165 -246h100v-69h-269v69h81l-129 194h-109l1 -194h63v-69h-237v69h94v451h-94v69zM400 852l59 -44l-148 -164l-37 28z" />
    <glyph glyph-name="uni040D" unicode="&#x40d;" horiz-adv-x="741" 
d="M38 589h238v-69h-64l-2 -416l321 485h173v-69h-96l-1 -451h95v-69h-237v69h64l1 406l-320 -475h-173v69h95l1 451h-95v69zM377 644l-148 164l59 44l126 -180z" />
    <glyph glyph-name="uni040E" unicode="&#x40e;" horiz-adv-x="622" 
d="M119 0l20 67q20 -7 43 -11.5t37 -4.5q31 0 46 15.5t31 57.5l-210 396h-85v69h238v-69h-63l155 -306l117 306h-67v69h240v-69h-95l-169 -420q-25 -62 -53.5 -89t-80.5 -27q-50 0 -104 16zM202 665q-42 25 -55 73l72 10q7 -26 30.5 -40t60.5 -14q79 0 91 54l72 -10
q-17 -48 -59 -73t-104 -25q-66 0 -108 25z" />
    <glyph glyph-name="uni040F" unicode="&#x40f;" horiz-adv-x="698" 
d="M313 -206l5 206h-273v69h95l1 451h-96v69h239v-69h-64l-1 -451h258l1 451h-63v69h238v-69h-96l-1 -451h96v-69h-265l5 -206h-79z" />
    <glyph glyph-name="uni0410" unicode="&#x410;" horiz-adv-x="651" 
d="M10 0v69h96l166 451h-101v69h194l181 -520h95v-69h-243v69h63l-32 91h-216l-34 -91h64v-69h-233zM238 229h167l-79 259z" />
    <glyph glyph-name="uni0411" unicode="&#x411;" horiz-adv-x="559" 
d="M478.5 300q50.5 -39 50.5 -116q0 -90 -45.5 -137t-131.5 -47h-315v69h95v451h-95v69h436l31 -147l-73 -16l-22 94h-199v-188l122 4q96 3 146.5 -36zM444 176q0 49 -27 71t-81 20l-126 -4l-1 -193h119q116 0 116 106z" />
    <glyph glyph-name="uni0412" unicode="&#x412;" horiz-adv-x="556" 
d="M37 69h95v451h-95v69h255q107 0 163.5 -39.5t56.5 -114.5q0 -41 -22 -76.5t-59 -54.5q44 -16 72 -53.5t28 -89.5q0 -73 -49.5 -117t-147.5 -44h-297v69zM337 328q43 0 66.5 25.5t23.5 70.5q0 96 -124 96h-91v-192h125zM330 70q57 0 86.5 25.5t29.5 76.5q0 46 -28.5 71
t-81.5 25h-124l-1 -198h119z" />
    <glyph glyph-name="uni0413" unicode="&#x413;" horiz-adv-x="508" 
d="M46 589h425l28 -148l-69 -15l-22 94h-188l-2 -451h123v-69h-296v69h95l1 451h-95v69z" />
    <glyph glyph-name="uni0414" unicode="&#x414;" horiz-adv-x="677" 
d="M154.5 158q17.5 57 24.5 148l18 214h-106v69h541v-69h-97v-451h93v-202h-68v133h-453v-133h-68v202h70q28 32 45.5 89zM458 69v451h-187l-21 -224q-15 -161 -68 -227h276z" />
    <glyph glyph-name="uni0415" unicode="&#x415;" horiz-adv-x="587" 
d="M38 589h444l51 -154l-65 -22l-40 107h-214v-181h187v-69h-187l-1 -201h235l40 107l65 -22l-51 -154h-465v69h96l1 451h-96v69z" />
    <glyph glyph-name="uni0416" unicode="&#x416;" horiz-adv-x="963" 
d="M49 589h246v-69h-72l138 -183h81v182h-64v69h207v-69h-64l-1 -182h82l137 183h-71v69h246v-69h-91l-160 -214l160 -237h95v-69h-250v69h63l-123 199h-88l-1 -199h66v-69h-207v69h64v199h-87l-123 -199h63v-69h-250v69h95l159 237l-159 214h-91v69z" />
    <glyph glyph-name="uni0417" unicode="&#x417;" horiz-adv-x="513" 
d="M167.5 592q48.5 12 93.5 12q92 0 143.5 -43t51.5 -121q0 -49 -23.5 -82t-74.5 -53q58 -17 89 -53.5t31 -89.5q0 -52 -27.5 -92t-78 -62.5t-117.5 -22.5q-52 0 -96.5 14.5t-94.5 48.5l-21 99l68 16l17 -66q26 -23 57 -32.5t71 -9.5q137 0 137 103q0 52 -32.5 79.5
t-88.5 27.5h-88v69h88q45 0 72 29.5t27 74.5q0 47 -31.5 72.5t-86.5 25.5q-54 0 -109 -24l-19 -86l-69 15l21 116q42 23 90.5 35z" />
    <glyph glyph-name="uni0418" unicode="&#x418;" horiz-adv-x="741" 
d="M38 589h238v-69h-64l-2 -416l321 485h173v-69h-96l-1 -451h95v-69h-237v69h64l1 406l-320 -475h-173v69h95l1 451h-95v69z" />
    <glyph glyph-name="uni0419" unicode="&#x419;" horiz-adv-x="741" 
d="M38 589h238v-69h-64l-2 -416l321 485h173v-69h-96l-1 -451h95v-69h-237v69h64l1 406l-320 -475h-173v69h95l1 451h-95v69zM274 665q-42 25 -55 73l72 10q7 -26 30.5 -40t60.5 -14q79 0 91 54l72 -10q-17 -48 -59 -73t-104 -25q-66 0 -108 25z" />
    <glyph glyph-name="uni041A" unicode="&#x41a;" horiz-adv-x="669" 
d="M37 589h237v-69h-64v-188h93l138 188h-74v69h246v-69h-91l-151 -205l165 -246h100v-69h-269v69h81l-129 194h-109l1 -194h63v-69h-237v69h94v451h-94v69z" />
    <glyph glyph-name="uni041B" unicode="&#x41b;" horiz-adv-x="673" 
d="M39 -9v73q54 0 82.5 22.5t41 67t17.5 124.5l17 244h-86v69h517v-69h-95l-2 -453h95v-69h-257v69h84l1 453h-184l-21 -269q-9 -125 -49 -193.5t-132 -69.5q-19 0 -29 1z" />
    <glyph glyph-name="uni041C" unicode="&#x41c;" horiz-adv-x="845" 
d="M40 589h221l168 -429l166 429h213v-69h-94v-451h94v-69h-238v69h64v451l-45 -130l-122 -319h-86l-128 321l-46 128l-3 -451h66v-69h-234v69h96l1 451h-93v69z" />
    <glyph glyph-name="uni041D" unicode="&#x41d;" horiz-adv-x="714" 
d="M38 589h240v-69h-64l-1 -184h288l1 184h-64v69h239v-69h-95l-3 -451h96v-69h-238v69h64v198h-288l-1 -198h64v-69h-239v69h96l1 451h-96v69z" />
    <glyph glyph-name="uni041E" unicode="&#x41e;" horiz-adv-x="636" 
d="M461 565.5q62 -38.5 96.5 -108.5t34.5 -162t-34 -162.5t-96.5 -109t-143.5 -38.5t-143.5 38.5t-96.5 109t-34 162.5t34 162t96 108.5t143 38.5q82 0 144 -38.5zM179 471q-50 -63 -50 -176q0 -114 50 -177t139 -63t139 63t50 177q0 113 -50 176t-139 63t-139 -63z" />
    <glyph glyph-name="uni041F" unicode="&#x41f;" horiz-adv-x="685" 
d="M38 589h610v-69h-95l-2 -451h95v-69h-257v69h84l1 451h-262l-2 -451h84v-69h-257v69h95l1 451h-95v69z" />
    <glyph glyph-name="uni0420" unicode="&#x420;" horiz-adv-x="542" 
d="M465.5 542q56.5 -47 56.5 -137q0 -91 -56.5 -139t-163.5 -48h-92v-149h120v-69h-293v69h93v451h-93v69h265q107 0 163.5 -47zM437 404q0 116 -136 116h-90v-232h90q136 0 136 116z" />
    <glyph glyph-name="uni0421" unicode="&#x421;" horiz-adv-x="575" 
d="M328 536q-96 0 -147.5 -64t-51.5 -177q0 -114 52.5 -178t146.5 -64q59 0 117 21l19 80l68 -16l-25 -116q0 -1 -25.5 -11t-65.5 -18t-88 -8q-86 0 -150 38.5t-99 109t-35 164.5q0 92 35 161.5t98.5 107.5t147.5 38q59 0 100.5 -10.5t63.5 -22.5t22 -14l22 -116l-68 -15
l-20 86q-44 24 -117 24z" />
    <glyph glyph-name="uni0422" unicode="&#x422;" horiz-adv-x="587" 
d="M36 589h515v-164h-76v95h-141l-2 -451h95v-69h-270v69h95l1 451h-141v-95h-76v164z" />
    <glyph glyph-name="uni0423" unicode="&#x423;" horiz-adv-x="622" 
d="M119 0l20 67q20 -7 43 -11.5t37 -4.5q31 0 46 15.5t31 57.5l-210 396h-85v69h238v-69h-63l155 -306l117 306h-67v69h240v-69h-95l-169 -420q-25 -62 -53.5 -89t-80.5 -27q-50 0 -104 16z" />
    <glyph glyph-name="uni0424" unicode="&#x424;" horiz-adv-x="730" 
d="M232 26h94v55h-21q-117 0 -194 57t-77 186t74.5 177.5t196.5 48.5h21v51l-119 32l18 73l180 -53v-103h20q122 0 196.5 -48.5t74.5 -177.5t-77 -186t-194 -57h-20v-55h94v-66h-267v66zM325 147v337h-26q-56 0 -94 -10.5t-62 -45t-24 -103.5q0 -100 49.5 -139t130.5 -39h26
zM431 147q81 0 130.5 39t49.5 139q0 69 -24 103.5t-62 45t-94 10.5h-26v-337h26z" />
    <glyph glyph-name="uni0425" unicode="&#x425;" horiz-adv-x="664" 
d="M20 0v69h85l173 232l-174 219h-85v69h252v-69h-64l126 -159l118 159h-69v69h250v-69h-95l-159 -215l187 -236h85v-69h-261v69h74l-141 176l-131 -176h74v-69h-245z" />
    <glyph glyph-name="uni0426" unicode="&#x426;" horiz-adv-x="698" 
d="M573 -175l1 175h-529v69h95l1 451h-96v69h239v-69h-64l-1 -451h258l1 451h-63v69h238v-69h-96l-1 -451h96v-244h-79z" />
    <glyph glyph-name="uni0427" unicode="&#x427;" horiz-adv-x="690" 
d="M322 69h150v187q-15 -14 -49 -26t-91 -12q-88 0 -143.5 50.5t-54.5 149.5l1 102h-96v69h238v-69h-65v-102q0 -73 33 -103t105 -30q80 0 122 36v199h-65v69h238v-69h-95v-451h93v-69h-321v69z" />
    <glyph glyph-name="uni0428" unicode="&#x428;" horiz-adv-x="967" 
d="M45 0v69h95l1 451h-95v69h238v-69h-64l-1 -451h219l1 451h-63v69h206v-69h-64l-1 -451h231l1 451h-63v69h236v-69h-94l-1 -451h95v-69h-877z" />
    <glyph glyph-name="uni0429" unicode="&#x429;" horiz-adv-x="984" 
d="M46 589h238v-69h-64l-1 -451h219l1 451h-63v69h206v-69h-64l-1 -451h231l1 451h-63v69h236v-69h-94l-1 -451h115v-244h-79l1 175h-819v69h95l1 451h-95v69z" />
    <glyph glyph-name="uni042A" unicode="&#x42a;" horiz-adv-x="679" 
d="M172 70h92v451h-148v-117h-69v185l361 1v-69h-66v-148h92q120 0 170 -43t50 -137q0 -96 -55.5 -144.5t-144.5 -48.5h-282v70zM435 70q134 0 134 122q0 48 -16 72.5t-44.5 32t-75.5 7.5h-90v-234h92z" />
    <glyph glyph-name="uni042B" unicode="&#x42b;" horiz-adv-x="855" 
d="M45 70h92v451h-88v69h232v-69h-66v-148h92q120 0 170 -43t50 -137q0 -96 -55.5 -144.5t-144.5 -48.5l-282 1v69zM572 0v69h64l1 450h-65v69h238v-69h-94l-2 -450h96v-69h-238zM308 70q134 0 134 122q0 48 -16 72.5t-44.5 32t-75.5 7.5h-90v-234h92z" />
    <glyph glyph-name="uni042C" unicode="&#x42c;" horiz-adv-x="551" 
d="M476 330q50 -43 50 -137q0 -96 -55.5 -144.5t-144.5 -48.5l-281 1v69h92v451h-88v69h232v-69h-66v-148h91q120 0 170 -43zM441 192q0 48 -16 72.5t-44.5 32t-75.5 7.5h-90v-234h92q134 0 134 122z" />
    <glyph glyph-name="uni042D" unicode="&#x42d;" horiz-adv-x="600" 
d="M171 -7q-44 8 -71 18t-27 11l-25 116l68 16l18 -78q69 -23 138 -23q90 0 139.5 53.5t57.5 152.5l-169 -7h-99v69h102l167 -7q-4 106 -53.5 164t-144.5 58q-46 0 -81 -8t-57 -18l-19 -84l-69 15l22 116q43 25 88 36t121 11q84 0 147 -38t97.5 -107.5t34.5 -160.5
q0 -95 -35 -165.5t-99 -109t-150 -38.5q-57 0 -101 8z" />
    <glyph glyph-name="uni042E" unicode="&#x42e;" horiz-adv-x="882" 
d="M456 19.5q-56 34.5 -89 98.5t-37 151l-80 -4h-40l-1 -196h67v-69h-239v69h94l1 450h-95v69h239v-69h-65l-1 -185h40l81 -5q5 84 38 146t88 95.5t126 33.5q77 0 134.5 -37.5t89 -107.5t31.5 -164t-31.5 -164t-89 -108t-133.5 -38q-72 0 -128 34.5zM712.5 115
q40.5 62 40.5 180t-40.5 179.5t-128.5 61.5t-128.5 -61.5t-40.5 -179.5t40.5 -180t128.5 -62t128.5 62z" />
    <glyph glyph-name="uni042F" unicode="&#x42f;" horiz-adv-x="615" 
d="M39 69h96l85 173q-59 19 -89.5 60.5t-30.5 102.5q0 90 55 137t160 47h263v-69h-93v-451h93v-69h-235v69h64v162h-110l-112 -231h-146v69zM406 301v219h-90q-64 0 -97.5 -30t-33.5 -86q0 -50 33 -76.5t96 -26.5h92z" />
    <glyph glyph-name="uni0430" unicode="&#x430;" horiz-adv-x="525" 
d="M208 -15q-85 0 -128.5 34.5t-43.5 100.5q0 64 42 96.5t124 32.5l129 -1q0 67 -25 99.5t-76 32.5q-50 0 -90 -12l-10 -55l-64 12l16 91q78 28 145 28q90 0 136 -48.5t46 -143.5v-174l95 -31l-20 -64l-135 46q-65 -44 -141 -44zM138.5 169q-22.5 -17 -22.5 -50
q0 -34 24.5 -52t71.5 -18q69 0 119 38v98l-126 1q-44 0 -66.5 -17z" />
    <glyph glyph-name="uni0431" unicode="&#x431;" horiz-adv-x="520" 
d="M300 515q-72 -23 -69 -22q-62 -22 -91 -74.5t-33 -136.5q20 50 61.5 86t111.5 36q56 0 101.5 -24.5t72 -71.5t26.5 -113q0 -99 -58 -154.5t-152 -55.5q-116 0 -167.5 73t-51.5 176q0 91 11.5 151t49 106.5t112.5 74.5q17 6 63 20q48 15 80.5 26.5t58.5 26.5l29 -66
q-45 -26 -155 -58zM175 303q-35 -37 -35 -108q0 -72 33 -109t97 -37t97 37t33 109q0 71 -31 108t-91 37q-68 0 -103 -37z" />
    <glyph glyph-name="uni0432" unicode="&#x432;" horiz-adv-x="522" 
d="M419.5 403.5q41.5 -25.5 41.5 -78.5q0 -37 -13.5 -60.5t-42.5 -34.5q40 -10 58.5 -35t18.5 -66q0 -66 -32 -97.5t-100 -31.5h-308v63h88v304h-88v62h248q88 0 129.5 -25.5zM362 266q15 14 15 43q0 30 -20.5 44.5t-63.5 14.5h-85v-116h107q32 0 47 14zM384 79.5
q19 16.5 19 50.5q0 32 -18.5 47.5t-56.5 15.5h-120v-130h116q41 0 60 16.5z" />
    <glyph glyph-name="uni0433" unicode="&#x433;" horiz-adv-x="455" 
d="M42 430h373l30 -136l-65 -16l-21 90h-150v-306h107v-62h-274v62h89v306h-89v62z" />
    <glyph glyph-name="uni0434" unicode="&#x434;" horiz-adv-x="600" 
d="M34 62h58q37 17 51 76.5t22 143.5l8 85h-81v62h466v-62h-93v-305h93v-204h-76v142h-372v-142h-76v204zM389 62v305h-150l-9 -96q-8 -91 -18.5 -138t-32.5 -71h210z" />
    <glyph glyph-name="uni0435" unicode="&#x435;" horiz-adv-x="491" 
d="M364 1q-42 -16 -94 -16q-107 0 -169 61t-62 169q0 68 27 120t76.5 80.5t114.5 28.5q90 0 142 -56.5t52 -152.5q0 -12 -2 -38l-333 -2q4 -73 46.5 -109t104.5 -36q85 0 143 48l36 -47q-40 -34 -82 -50zM341.5 348.5q-31.5 34.5 -83.5 34.5q-54 0 -93.5 -35t-47.5 -91
l257 1q-1 56 -32.5 90.5z" />
    <glyph glyph-name="uni0436" unicode="&#x436;" horiz-adv-x="771" 
d="M25 0v62h86l97 156l-97 149h-80v62h210v-62h-51l77 -124h76v123h-45v62h168v-62h-45v-123h75l78 124h-51v62h210v-62h-84l-93 -149l97 -156h86v-62h-133l-112 181h-73v-119h45v-62h-168v62h45v119h-73l-112 -181h-133z" />
    <glyph glyph-name="uni0437" unicode="&#x437;" horiz-adv-x="444" 
d="M115.5 0.5q-45.5 16.5 -90.5 49.5l38 51q29 -23 72 -37.5t81 -14.5q55 0 87 19t32 54q0 34 -26 49.5t-80 15.5h-54v60h63q38 0 56.5 15t18.5 47q0 36 -27.5 53.5t-71.5 17.5q-55 0 -105 -25l-11 -64l-64 12l15 89q37 25 83 38.5t94 13.5q76 0 121.5 -32.5t45.5 -86.5
q0 -34 -18.5 -62t-49.5 -41q39 -5 64 -32.5t25 -67.5t-25.5 -71.5t-70 -49t-99.5 -17.5q-58 0 -103.5 16.5z" />
    <glyph glyph-name="uni0438" unicode="&#x438;" horiz-adv-x="625" 
d="M42 429h214v-62h-55v-267l224 329h158v-62h-85v-305h85v-62h-213v62h55v267l-224 -329h-159v62h85v305h-85v62z" />
    <glyph glyph-name="uni0439" unicode="&#x439;" horiz-adv-x="625" 
d="M42 429h214v-62h-55v-267l224 329h158v-62h-85v-305h85v-62h-213v62h55v267l-224 -329h-159v62h85v305h-85v62zM215 523.5q-38 33.5 -49 86.5l65 12q5 -32 27.5 -50t63.5 -18q42 0 65 18.5t27 49.5l65 -12q-11 -53 -49.5 -86.5t-107.5 -33.5t-107 33.5z" />
    <glyph glyph-name="uni043A" unicode="&#x43a;" horiz-adv-x="570" 
d="M42 429h207v-62h-45v-124h91l78 124h-51v62h210v-62h-84l-93 -149l97 -156h86v-62h-135l-112 181h-87v-119h45v-62h-207v62h84v305h-84v62z" />
    <glyph glyph-name="uni043B" unicode="&#x43b;" horiz-adv-x="587" 
d="M546 62v-62h-218v62h44v305h-127l-10 -138q-7 -106 -50.5 -171.5t-124.5 -65.5q-8 0 -26 2v64q6 -1 18 -1q60 0 84.5 51.5t29.5 143.5l6 115h-89v62h460v-62h-93v-305h96z" />
    <glyph glyph-name="uni043C" unicode="&#x43c;" horiz-adv-x="769" 
d="M727 367h-85v-305h85v-62h-218v62h55v314l-148 -315h-57l-154 313v-312h55v-62h-218v62h85v305h-85v62h213l136 -285l134 285h202v-62z" />
    <glyph glyph-name="uni043D" unicode="&#x43d;" horiz-adv-x="634" 
d="M42 429h218v-62h-55v-125h224v125h-55v62h218v-62h-85v-305h85v-62h-218v62h55v118h-224v-118h55v-62h-218v62h85v305h-85v62z" />
    <glyph glyph-name="uni043E" unicode="&#x43e;" horiz-adv-x="521" 
d="M375.5 416q50.5 -28 78 -79.5t27.5 -122.5q0 -106 -60.5 -167.5t-161.5 -61.5q-64 0 -113.5 27.5t-77 79.5t-27.5 122t27.5 122t77 80t113.5 28q66 0 116.5 -28zM156.5 337q-35.5 -43 -35.5 -123t35.5 -122.5t103.5 -42.5q70 0 105.5 42.5t35.5 122.5t-35.5 123
t-105.5 43q-68 0 -103.5 -43z" />
    <glyph glyph-name="uni043F" unicode="&#x43f;" horiz-adv-x="624" 
d="M42 429h540v-62h-85v-305h85v-62h-218v62h55v305h-214v-305h55v-62h-218v62h85v305h-85v62z" />
    <glyph glyph-name="uni0440" unicode="&#x440;" horiz-adv-x="561" 
d="M30 -146h84v498l-94 31l20 64l134 -46q33 20 67.5 31.5t65.5 11.5q99 0 156.5 -58t57.5 -158q0 -71 -27.5 -126t-77 -86t-113.5 -31q-57 0 -111 17v-148h84v-62h-246v62zM404 96.5q37 47.5 37 131.5q0 152 -135 152q-31 0 -63.5 -10.5t-50.5 -26.5v-269q17 -11 47.5 -18
t62.5 -7q65 0 102 47.5z" />
    <glyph glyph-name="uni0441" unicode="&#x441;" horiz-adv-x="469" 
d="M267 383q-69 0 -108 -43t-39 -125q0 -78 42 -121t106 -43q66 0 126 41l33 -49q-43 -31 -77 -44.5t-92 -13.5q-64 0 -113.5 28t-77 80t-27.5 122q0 72 30 124.5t82 79.5t116 27q35 0 63.5 -6.5t88.5 -23.5l14 -108l-64 -14l-13 75q-43 14 -90 14z" />
    <glyph glyph-name="uni0442" unicode="&#x442;" horiz-adv-x="475" 
d="M17 429h441v-151h-62v89h-119v-305h89v-62h-256v62h89v305h-120v-89h-62v151z" />
    <glyph glyph-name="uni0443" unicode="&#x443;" horiz-adv-x="543" 
d="M542 429v-62h-72l-163 -457q-47 -134 -155 -134q-33 0 -66 11l12 60q27 -8 48 -8q29 0 46.5 8.5t31.5 32.5t31 73l5 14l-188 400h-71v62h208v-62h-57l138 -313l107 313h-55v62h200z" />
    <glyph glyph-name="uni0444" unicode="&#x444;" horiz-adv-x="720" 
d="M221 -147h100v149q-34 -12 -75 -12q-52 0 -98.5 26.5t-75 78.5t-28.5 125q0 72 26.5 121.5t70 74t95.5 24.5q42 0 85 -15v141l-100 24l17 64l161 -40v-189q43 15 85 15q52 0 95.5 -24.5t70 -74t26.5 -121.5q0 -73 -28.5 -125t-75 -78.5t-98.5 -26.5q-43 0 -75 12v-149h97
v-62h-275v62zM304.5 57.5q16.5 4.5 16.5 5.5v295q-2 2 -9.5 6.5t-24.5 8.5t-41 4q-54 0 -88 -41.5t-34 -116.5q0 -76 38 -121t98 -45q28 0 44.5 4.5zM558 98q38 45 38 121q0 75 -34 116.5t-88 41.5q-23 0 -39.5 -4t-25 -8.5t-10.5 -6.5v-295q0 -1 17 -5.5t44 -4.5
q60 0 98 45z" />
    <glyph glyph-name="uni0445" unicode="&#x445;" horiz-adv-x="591" 
d="M25 0v62h87l130 155l-142 150h-75v62h227v-62h-54l107 -113l93 113h-44v62h200v-62h-75l-132 -157l141 -148h84v-62h-228v62h45l-104 109l-92 -109h44v-62h-212z" />
    <glyph glyph-name="uni0446" unicode="&#x446;" horiz-adv-x="644" 
d="M524 -143v143h-481v62h95v305h-96v62h218v-62h-46v-305h216v305h-46v62h218v-62h-96v-305h95v-205h-77z" />
    <glyph glyph-name="uni0447" unicode="&#x447;" horiz-adv-x="604" 
d="M256 147q-89 0 -119 47.5t-28 119.5l1 52h-85v62h218v-62h-55v-44q0 -41 5.5 -63t26 -35t63.5 -13q66 0 116 36v118h-54v62h217v-62h-85v-303h85v-62h-248v62h85v125q-59 -40 -143 -40z" />
    <glyph glyph-name="uni0448" unicode="&#x448;" horiz-adv-x="807" 
d="M42 429h215v-62h-43v-305h154v305h-50v62h170v-62h-44v-305h150v305h-44v62h215v-62h-95v-305h95v-62h-720v62h93v305h-96v62z" />
    <glyph glyph-name="uni0449" unicode="&#x449;" horiz-adv-x="808" 
d="M689 -143v143h-644v62h93v305h-96v62h218v-62h-46v-305h154v305h-50v62h170v-62h-44v-305h150v305h-46v62h218v-62h-96v-305h95v-205h-76z" />
    <glyph glyph-name="uni044A" unicode="&#x44a;" horiz-adv-x="565" 
d="M499 232q46 -32 46 -97q0 -58 -37 -96.5t-104 -38.5h-281v63h77v304h-117v-89h-66v151h343v-61h-82v-104h100q75 0 121 -32zM445 82q21 19 21 54q0 32 -20 50.5t-55 18.5h-113v-142h109q37 0 58 19z" />
    <glyph glyph-name="uni044B" unicode="&#x44b;" horiz-adv-x="748" 
d="M42 63l77 1v303h-77v62h237v-61h-82v-105h90q75 0 121 -32t46 -97q0 -58 -36.5 -96t-104.5 -38h-271v63zM498 0v62h45v305h-55v62h218v-62h-85v-305h85v-62h-208zM296 64q37 0 58 18t21 53q0 32 -20 50.5t-55 18.5h-103v-140h99z" />
    <glyph glyph-name="uni044C" unicode="&#x44c;" horiz-adv-x="504" 
d="M42 63h77v304h-77v62h237v-61h-82v-104h120q75 0 121 -32t46 -97q0 -58 -37 -96.5t-104 -38.5h-301v63zM326 63q37 0 58 19t21 54q0 32 -20 50.5t-55 18.5h-133v-142h129z" />
    <glyph glyph-name="uni044D" unicode="&#x44d;" horiz-adv-x="464" 
d="M303 346q-34 33 -98 33q-45 0 -82 -13l-13 -69l-65 14l21 108q38 13 71.5 19t78.5 6q98 0 153 -62t55 -168q0 -104 -59 -166.5t-159 -62.5q-49 0 -87.5 11t-79.5 33l26 58q32 -19 64 -28.5t76 -9.5q63 0 98 36.5t40 106.5l-78 -4h-93v62h96l75 -4q-6 67 -40 100z" />
    <glyph glyph-name="uni044E" unicode="&#x44e;" horiz-adv-x="762" 
d="M367 39q-57 54 -64 151l-69 -3h-29v-125h55v-62h-218v62h85v305h-85v62h218v-62h-55v-118h29l69 -4q9 95 66 148t143 53q61 0 108.5 -27t74.5 -79.5t27 -124.5t-27 -124t-74.5 -79t-108.5 -27q-88 0 -145 54zM608 92.5q34 44.5 34 123.5t-34 123t-96 44t-96 -44t-34 -123
t34 -123.5t96 -44.5t96 44.5z" />
    <glyph glyph-name="uni044F" unicode="&#x44f;" horiz-adv-x="571" 
d="M435 367v-306h94v-62h-248v62h78v99l-92 1l-107 -161h-130l1 62h81l78 109q-47 14 -75 45.5t-28 78.5q0 62 48.5 98t142.5 36h251v-62h-94zM359 366h-81q-49 0 -79.5 -16t-30.5 -61q0 -34 29 -51.5t78 -17.5h84v146z" />
    <glyph glyph-name="uni0450" unicode="&#x450;" horiz-adv-x="491" 
d="M364 1q-42 -16 -94 -16q-107 0 -169 61t-62 169q0 68 27 120t76.5 80.5t114.5 28.5q90 0 142 -56.5t52 -152.5q0 -12 -2 -38l-333 -2q4 -73 46.5 -109t104.5 -36q85 0 143 48l36 -47q-40 -34 -82 -50zM341.5 348.5q-31.5 34.5 -83.5 34.5q-54 0 -93.5 -35t-47.5 -91
l257 1q-1 56 -32.5 90.5zM261 484l-148 164l59 44l126 -180z" />
    <glyph glyph-name="uni0451" unicode="&#x451;" horiz-adv-x="491" 
d="M364 1q-42 -16 -94 -16q-107 0 -169 61t-62 169q0 68 27 120t76.5 80.5t114.5 28.5q90 0 142 -56.5t52 -152.5q0 -12 -2 -38l-333 -2q4 -73 46.5 -109t104.5 -36q85 0 143 48l36 -47q-40 -34 -82 -50zM341.5 348.5q-31.5 34.5 -83.5 34.5q-54 0 -93.5 -35t-47.5 -91
l257 1q-1 56 -32.5 90.5zM217 602.5q17 -16.5 17 -39.5t-16.5 -39.5t-39.5 -16.5t-39.5 16.5t-16.5 39.5t16.5 39.5t39.5 16.5q22 0 39 -16.5zM395 602.5q17 -16.5 17 -39.5t-16.5 -39.5t-39.5 -16.5t-39.5 16.5t-16.5 39.5t16.5 39.5t39.5 16.5q22 0 39 -16.5z" />
    <glyph glyph-name="uni0452" unicode="&#x452;" horiz-adv-x="508" 
d="M239 -155q69 37 112.5 117.5t43.5 175.5q0 80 -27 120.5t-79 40.5q-58 0 -106 -34v-203h45v-62h-207v62h84v383h-84v62h84v48l-95 33l21 62l152 -52v-91h155v-62h-155v-119q23 17 55 27t66 10q81 0 125 -53.5t44 -155.5q0 -114 -53.5 -214t-143.5 -146z" />
    <glyph glyph-name="uni0453" unicode="&#x453;" horiz-adv-x="455" 
d="M42 430h373l30 -136l-65 -16l-21 90h-150v-306h107v-62h-274v62h89v306h-89v62zM345 692l59 -44l-148 -164l-37 28z" />
    <glyph glyph-name="uni0454" unicode="&#x454;" horiz-adv-x="460" 
d="M165.5 85.5q34.5 -36.5 98.5 -36.5q33 0 64 8.5t51 17.5t25 12l26 -58q0 -2 -25.5 -13.5t-63 -21t-78.5 -9.5q-64 0 -113.5 27.5t-77 79.5t-27.5 122q0 109 55 169t163 60q41 0 72.5 -5.5t47.5 -11t20 -7.5l21 -108l-65 -14l-13 69q-35 13 -82 13q-66 0 -99.5 -33.5
t-38.5 -99.5l75 4h96v-62h-93l-78 4q5 -70 39.5 -106.5z" />
    <glyph glyph-name="uni0455" unicode="&#x455;" horiz-adv-x="450" 
d="M271 380.5q-20 4.5 -50 4.5q-40 0 -69.5 -18t-29.5 -47q0 -58 97 -68l41 -4q79 -8 113.5 -39.5t34.5 -86.5q0 -61 -50 -99t-130 -38q-48 0 -94.5 12.5t-81.5 32.5l-17 101l69 17l15 -70q47 -27 106 -27q47 0 79 18.5t32 50.5q0 29 -19.5 42t-70.5 19l-44 5
q-73 8 -112.5 42.5t-39.5 86.5q0 62 51 96t121 34q46 0 83 -8.5t72 -26.5l18 -95l-63 -14l-17 65q-24 10 -44 14.5z" />
    <glyph glyph-name="uni0456" unicode="&#x456;" horiz-adv-x="304" 
d="M36 429h162v-367h83v-62h-245v62h83v305h-83v62zM193 625q17 -17 17 -45t-17 -45t-45 -17t-44.5 17t-16.5 45t16.5 45t44.5 17t45 -17z" />
    <glyph glyph-name="uni0457" unicode="&#x457;" horiz-adv-x="304" 
d="M36 429h162v-367h83v-62h-245v62h83v305h-83v62zM99 602.5q17 -16.5 17 -39.5t-16.5 -39.5t-39.5 -16.5t-39.5 16.5t-16.5 39.5t16.5 39.5t39.5 16.5q22 0 39 -16.5zM277 602.5q17 -16.5 17 -39.5t-16.5 -39.5t-39.5 -16.5t-39.5 16.5t-16.5 39.5t16.5 39.5t39.5 16.5
q22 0 39 -16.5z" />
    <glyph glyph-name="uni0458" unicode="&#x458;" horiz-adv-x="254" 
d="M175.5 -127q-9.5 -39 -49.5 -67.5t-123 -28.5q-9 0 -26 1.5t-23 2.5l10 61q26 -2 42 -2q50 0 72 18.5t25.5 41t3.5 63.5v404h-84v62h162v-460q0 -57 -9.5 -96zM181 625q17 -17 17 -45t-17 -45t-45 -17t-44.5 17t-16.5 45t16.5 45t44.5 17t45 -17z" />
    <glyph glyph-name="uni0459" unicode="&#x459;" horiz-adv-x="781" 
d="M34 58q6 -1 18 -1q60 0 84.5 51.5t29.5 143.5l6 115h-75v62h470v-62h-93v-103h120q75 0 121 -32t46 -97q0 -58 -37 -96.5t-104 -38.5h-268v62h46v305h-153l-10 -138q-7 -106 -50.5 -171.5t-124.5 -65.5q-8 0 -26 2v64zM603 62q37 0 58 19.5t21 54.5q0 32 -20 50.5
t-55 18.5h-133v-143h129z" />
    <glyph glyph-name="uni045A" unicode="&#x45a;" horiz-adv-x="814" 
d="M750 213q44 -27 44 -93q0 -55 -37.5 -87.5t-108.5 -32.5h-274v62h55v118h-224v-118h55v-62h-218v62h85v305h-85v62h218v-62h-55v-125h224v125h-55v62h218v-62h-85v-127h116q83 0 127 -27zM693.5 75.5q21.5 13.5 21.5 45.5q0 29 -21.5 44t-57.5 15h-129v-118h124
q41 0 62.5 13.5z" />
    <glyph glyph-name="uni045B" unicode="&#x45b;" horiz-adv-x="585" 
d="M34 62h84v383h-84v62h84v48l-95 33l21 62l152 -52v-91h175v-62h-175v-99q50 37 111 37q93 0 131 -41t38 -128v-152h84v-62h-207v62h45v136q0 41 -6.5 66.5t-27.5 40t-62 14.5q-32 0 -55.5 -7.5t-37 -16.5t-13.5 -10v-223h45v-62h-207v62z" />
    <glyph glyph-name="uni045C" unicode="&#x45c;" horiz-adv-x="570" 
d="M42 429h207v-62h-45v-124h91l78 124h-51v62h210v-62h-84l-93 -149l97 -156h86v-62h-135l-112 181h-87v-119h45v-62h-207v62h84v305h-84v62zM353 692l59 -44l-148 -164l-37 28z" />
    <glyph glyph-name="uni045D" unicode="&#x45d;" horiz-adv-x="625" 
d="M42 429h214v-62h-55v-267l224 329h158v-62h-85v-305h85v-62h-213v62h55v267l-224 -329h-159v62h85v305h-85v62zM317 484l-148 164l59 44l126 -180z" />
    <glyph glyph-name="uni045E" unicode="&#x45e;" horiz-adv-x="543" 
d="M542 429v-62h-72l-163 -457q-47 -134 -155 -134q-33 0 -66 11l12 60q27 -8 48 -8q29 0 46.5 8.5t31.5 32.5t31 73l5 14l-188 400h-71v62h208v-62h-57l138 -313l107 313h-55v62h200zM183 523.5q-38 33.5 -49 86.5l65 12q5 -32 27.5 -50t63.5 -18q42 0 65 18.5t27 49.5
l65 -12q-11 -53 -49.5 -86.5t-107.5 -33.5t-107 33.5z" />
    <glyph glyph-name="uni045F" unicode="&#x45f;" horiz-adv-x="644" 
d="M284 -143v143h-241v62h95v305h-96v62h218v-62h-46v-305h216v305h-46v62h218v-62h-96v-305h95v-62h-241v-143h-76z" />
    <glyph glyph-name="uni0462" unicode="&#x462;" horiz-adv-x="610" 
d="M104 70h92v398h-116v-64h-65v129h181v56h-88v69h232v-69h-66v-56h197v-129h-66v64h-131v-115h91q117 0 168.5 -43t51.5 -126q0 -95 -54.5 -139.5t-145.5 -44.5h-281v70zM366 70q134 0 134 113q0 38 -12 59.5t-41.5 31.5t-82.5 10h-90v-214h92z" />
    <glyph glyph-name="uni0463" unicode="&#x463;" horiz-adv-x="554" 
d="M92 63h77v304h-95v-54h-62v116h157v98h-77v62h237v-61h-82v-99h192l1 -116h-62v55l-131 -1v-103h120q75 0 121 -32t46 -97q0 -58 -37 -96.5t-104 -38.5h-301v63zM376 63q37 0 58 19t21 54q0 32 -20 49.5t-55 17.5h-133v-140h129z" />
    <glyph glyph-name="uni046A" unicode="&#x46a;" horiz-adv-x="853" 
d="M8 69h95l117 172q20 32 47 58.5t68 29.5l-196 191h-84v69h753v-69h-96l-193 -191q28 -3 50.5 -19t33.5 -30.5t28 -38.5l117 -172h95v-69h-250v69h63l-98 158q-14 22 -22 31.5t-21 13.5t-37 4h-11l-2 -207h64v-69h-207v69h64v207h-13q-24 0 -37 -4t-21 -13.5t-22 -31.5
l-98 -158h63v-69h-250v69zM432 328l190 192h-382z" />
    <glyph glyph-name="uni046B" unicode="&#x46b;" horiz-adv-x="642" 
d="M6 63h87l41 93q17 38 44 54t83 18l-127 139h-70v62h515v-62h-70l-126 -139h19q44 0 66 -16t40 -56l41 -93h87v-63l-137 -1l-54 127q-12 30 -29 41.5t-45 11.5h-11v-117h45v-62h-168v62h45v117h-11q-27 0 -44 -11.5t-30 -41.5l-54 -126h-137v63zM322 243l112 124h-222z
" />
    <glyph glyph-name="uni0472" unicode="&#x472;" horiz-adv-x="636" 
d="M461 565.5q62 -38.5 96.5 -108.5t34.5 -162t-34 -162.5t-96.5 -109t-143.5 -38.5t-143.5 38.5t-96.5 109t-34 162.5t34 162t96 108.5t143 38.5q82 0 144 -38.5zM187 481q-49 -53 -57 -150h376q-8 97 -57 150t-131 53t-131 -53zM452.5 112q49.5 57 53.5 160h-376
q4 -103 53.5 -160t134.5 -57t134.5 57z" />
    <glyph glyph-name="uni0473" unicode="&#x473;" horiz-adv-x="521" 
d="M375.5 416q50.5 -28 78 -79.5t27.5 -122.5q0 -106 -60.5 -167.5t-161.5 -61.5q-64 0 -113.5 27.5t-77 79.5t-27.5 122t27.5 122t77 80t113.5 28q66 0 116.5 -28zM165.5 346q-34.5 -34 -42.5 -97h276q-8 63 -43 97t-96 34q-60 0 -94.5 -34zM359 84.5q35 35.5 41 102.5
h-278q6 -67 41 -102.5t97 -35.5q64 0 99 35.5z" />
    <glyph glyph-name="uni0474" unicode="&#x474;" horiz-adv-x="639" 
d="M590 591q23 0 49 -9l-19 -80q-15 6 -26 6q-20 0 -35 -19t-30 -62l-149 -427h-85l-196 520h-95v69h245v-69h-64l103 -274l53 -157l47 149l79 231q42 122 123 122z" />
    <glyph glyph-name="uni0475" unicode="&#x475;" horiz-adv-x="522" 
d="M85 367h-83v62h210v-62h-46l81 -214l28 -76l86 236q25 67 56 99.5t72 32.5q15 0 35 -5v-76q-13 3 -24 3q-26 0 -43.5 -20.5t-38.5 -73.5l-105 -273h-81z" />
    <glyph glyph-name="uni048A" unicode="&#x48a;" horiz-adv-x="741" 
d="M274 665q-42 25 -55 73l72 10q7 -26 30.5 -40t60.5 -14q79 0 91 54l72 -10q-17 -48 -59 -73t-104 -25q-66 0 -108 25zM704 520h-96l-1 -451h96v-69l-70 -175h-69l60 175h-159v69h64l1 406l-320 -475h-173v69h95l1 451h-95v69h238v-69h-64l-2 -416l321 485h173v-69z" />
    <glyph glyph-name="uni048B" unicode="&#x48b;" horiz-adv-x="625" 
d="M215 523.5q-38 33.5 -49 86.5l65 12q5 -32 27.5 -50t63.5 -18q42 0 65 18.5t27 49.5l65 -12q-11 -53 -49.5 -86.5t-107.5 -33.5t-107 33.5zM598 62v-62l-50 -143h-66l44 143h-156v62h55v267l-224 -329h-159v62h85v305h-85v62h214v-62h-55v-267l224 329h158v-62h-85v-305
h100z" />
    <glyph glyph-name="uni048C" unicode="&#x48c;" horiz-adv-x="571" 
d="M476 330q50 -43 50 -137q0 -96 -55.5 -144.5t-144.5 -48.5l-281 1v69h92v348h-95v62h95v41h-88v69h232v-69h-66v-41h134v-62h-134v-45h91q120 0 170 -43zM441 192q0 48 -16 72.5t-44.5 32t-75.5 7.5h-90v-234h92q134 0 134 122z" />
    <glyph glyph-name="uni048D" unicode="&#x48d;" horiz-adv-x="522" 
d="M438 258q46 -36 46 -110q0 -63 -37 -105.5t-104 -42.5h-301v63h77v304h-81v62h81v126l-95 33l21 62l152 -52v-169h88v-62h-88v-73h120q75 0 121 -36zM384 85.5q21 22.5 21 63.5q0 40 -20 63t-55 23h-133v-172h129q37 0 58 22.5z" />
    <glyph glyph-name="uni048E" unicode="&#x48e;" horiz-adv-x="600" 
d="M457 259l49 -59l-40 -33l-57 67q-44 -16 -107 -16h-92v-149h120v-69h-293v69h93v451h-93v69h265q107 0 163.5 -47t56.5 -137q0 -99 -65 -146zM358 295l-48 57l40 33l56 -66q31 28 31 85q0 116 -136 116h-90v-232h90q35 0 57 7z" />
    <glyph glyph-name="uni048F" unicode="&#x48f;" horiz-adv-x="600" 
d="M502 120.5q-19 -48.5 -55 -81.5l53 -62l-48 -39l-56 67q-43 -20 -93 -20q-57 0 -111 17v-148h84v-62h-246v62h84v498l-94 31l20 64l134 -46q33 20 67.5 31.5t65.5 11.5q99 0 156.5 -58t57.5 -158q0 -59 -19 -107.5zM352 58l-62 73l47 39l65 -77q39 48 39 135
q0 152 -135 152q-31 0 -63.5 -10.5t-50.5 -26.5v-269q17 -11 47.5 -18t62.5 -7q28 0 50 9z" />
    <glyph glyph-name="uni0490" unicode="&#x490;" horiz-adv-x="512" 
d="M434 683l69 -15l-28 -148h-263l-2 -451h123v-69h-296v69h95l1 451h-95v69h374z" />
    <glyph glyph-name="uni0491" unicode="&#x491;" horiz-adv-x="449" 
d="M374 520l65 -16l-29 -136h-201v-306h107v-62h-274v62h89v306h-89v62h311z" />
    <glyph glyph-name="uni0492" unicode="&#x492;" horiz-adv-x="508" 
d="M471 589l28 -148l-69 -15l-22 94h-188l-1 -191h149v-62h-149l-1 -198h123v-69h-296v69h95v198h-79v62h80v191h-95v69h425z" />
    <glyph glyph-name="uni0493" unicode="&#x493;" horiz-adv-x="455" 
d="M415 430l30 -136l-65 -16l-21 90h-150v-123h126v-58h-126v-125h107v-62h-274v62h89v125h-83v58h83v123h-89v62h373z" />
    <glyph glyph-name="uni0494" unicode="&#x494;" horiz-adv-x="575" 
d="M341 -68q60 25 90.5 84t30.5 136q0 74 -30 109.5t-96 35.5q-58 0 -125 -32l-1 -196h73v-69h-246v69h95l1 451h-95v69h425l28 -148l-69 -15l-20 94h-190l-1 -199q74 40 145 40q80 0 132 -44.5t52 -152.5q0 -97 -42 -169.5t-134 -118.5z" />
    <glyph glyph-name="uni0495" unicode="&#x495;" horiz-adv-x="512" 
d="M395.5 219q40.5 -23 63.5 -65t23 -97q0 -170 -207 -263l-27 46q61 34 94.5 63.5t47.5 64.5t14 84q0 59 -32.5 92.5t-87.5 33.5q-36 0 -75 -13v-103h77v-62h-244v62h89v306h-89v62h373l30 -136l-65 -16l-21 90h-150v-145q48 19 95 19q51 0 91.5 -23z" />
    <glyph glyph-name="uni0496" unicode="&#x496;" horiz-adv-x="963" 
d="M919 69v-244h-79l1 175h-173v69h63l-123 199h-88l-1 -199h66v-69h-207v69h64v199h-87l-123 -199h63v-69h-250v69h95l159 237l-159 214h-91v69h246v-69h-72l138 -183h81v182h-64v69h207v-69h-64l-1 -182h82l137 183h-71v69h246v-69h-91l-160 -214l160 -237h96z" />
    <glyph glyph-name="uni0497" unicode="&#x497;" horiz-adv-x="778" 
d="M660 62h86v-205h-76l-1 143h-56l-112 181h-73v-119h45v-62h-168v62h45v119h-73l-112 -181h-133v62h86l97 156l-94 149h-83v62h210v-62h-51l77 -124h76v123h-45v62h168v-62h-45v-123h75l78 124h-51v62h210v-62h-84l-93 -149z" />
    <glyph glyph-name="uni0498" unicode="&#x498;" horiz-adv-x="513" 
d="M435 51q-43 -46 -117 -60v-166h-79l1 160q-47 2 -88.5 16.5t-87.5 46.5l-21 99l68 16l17 -66q26 -23 57 -32.5t71 -9.5q137 0 137 103q0 52 -32.5 79.5t-88.5 27.5h-88v69h88q45 0 72 29.5t27 74.5q0 47 -31.5 72.5t-86.5 25.5q-54 0 -109 -24l-19 -86l-69 15l21 116
q42 23 90.5 35t93.5 12q92 0 143.5 -43t51.5 -121q0 -49 -23.5 -82t-74.5 -53q58 -17 89 -53.5t31 -89.5q0 -65 -43 -111z" />
    <glyph glyph-name="uni0499" unicode="&#x499;" horiz-adv-x="452" 
d="M381.5 35q-40.5 -36 -105.5 -47v-131h-76l-1 128q-48 4 -87.5 20t-78.5 45l38 51q29 -23 72 -37.5t81 -14.5q55 0 87 19t32 54q0 34 -26 49.5t-80 15.5h-54v60h63q38 0 56.5 15t18.5 47q0 36 -27.5 53.5t-71.5 17.5q-55 0 -105 -25l-11 -64l-64 12l15 89q37 25 83 38.5
t94 13.5q76 0 121.5 -32.5t45.5 -86.5q0 -34 -18.5 -62t-49.5 -41q39 -5 64 -32.5t25 -67.5q0 -51 -40.5 -87z" />
    <glyph glyph-name="uni049A" unicode="&#x49a;" horiz-adv-x="669" 
d="M647 69v-244h-79l1 175h-202v69h81l-129 194h-109l1 -194h63v-69h-237v69h94v451h-94v69h237v-69h-64v-188h93l138 188h-74v69h246v-69h-91l-151 -205l165 -246h111z" />
    <glyph glyph-name="uni049B" unicode="&#x49b;" horiz-adv-x="579" 
d="M462 -143l-1 143h-56l-112 181h-89v-119h45v-62h-207v62h84v305h-84v62h207v-62h-45v-124h91l78 124h-51v62h210v-62h-84l-93 -149l97 -156h86v-205h-76z" />
    <glyph glyph-name="uni049C" unicode="&#x49c;" horiz-adv-x="677" 
d="M536 69h100v-69h-269v69h77l-129 194h-1v-86h-49v86h-55l1 -194h63v-69h-237v69h94v451h-94v69h237v-69h-64v-188h55v92h49v-70l122 166h-69v69h246v-69h-91l-151 -205z" />
    <glyph glyph-name="uni049D" unicode="&#x49d;" horiz-adv-x="596" 
d="M469 62h86v-62h-133l-111 179v-81h-45v83h-62v-119h45v-62h-207v62h84v305h-84v62h207v-62h-45v-124h62v82h45v-82h1l78 124h-51v62h210v-62h-84l-93 -149z" />
    <glyph glyph-name="uni049E" unicode="&#x49e;" horiz-adv-x="669" 
d="M536 69h100v-69h-269v69h81l-129 194h-109l1 -194h63v-69h-237v69h94v334h-84v62h84v55h-94v69h237v-69h-64v-55h104v-62h-104v-71h93l138 188h-74v69h246v-69h-91l-151 -205z" />
    <glyph glyph-name="uni049F" unicode="&#x49f;" horiz-adv-x="579" 
d="M452 62h86v-62h-133l-112 181h-89v-119h45v-62h-207v62h84v401h-90v62h90v41l-100 22l17 64l161 -37v-90h139v-62h-139v-220h91l78 124h-51v62h210v-62h-84l-93 -149z" />
    <glyph glyph-name="uni04A0" unicode="&#x4a0;" horiz-adv-x="780" 
d="M647 69h100v-69h-269v69h81l-129 194h-109l1 -194h63v-69h-237v69h94v451h-130v-95h-76v164h349v-69h-64v-188h93l138 188h-74v69h246v-69h-91l-151 -205z" />
    <glyph glyph-name="uni04A1" unicode="&#x4a1;" horiz-adv-x="633" 
d="M515 62h86v-62h-135l-112 181h-87v-119h45v-62h-207v62h84v305h-110v-89h-62v151h295v-62h-45v-124h91l78 124h-51v62h210v-62h-84l-93 -149z" />
    <glyph glyph-name="uni04A2" unicode="&#x4a2;" horiz-adv-x="714" 
d="M685 69v-244h-79l1 175h-170v69h64v198h-288l-1 -198h64v-69h-239v69h96l1 451h-96v69h240v-69h-64l-1 -184h288l1 184h-64v69h239v-69h-95l-3 -451h106z" />
    <glyph glyph-name="uni04A3" unicode="&#x4a3;" horiz-adv-x="634" 
d="M602 62v-205h-76l-1 143h-151v62h55v118h-224v-118h55v-62h-218v62h85v305h-85v62h218v-62h-55v-125h224v125h-55v62h218v-62h-85v-305h95z" />
    <glyph glyph-name="uni04A4" unicode="&#x4a4;" horiz-adv-x="880" 
d="M843 589l28 -148l-69 -15l-22 94h-198l-3 -451h96v-69h-238v69h64v198h-288l-1 -198h64v-69h-239v69h96l1 451h-96v69h240v-69h-64l-1 -184h288l1 184h-64v69h405z" />
    <glyph glyph-name="uni04A5" unicode="&#x4a5;" horiz-adv-x="756" 
d="M716 429l30 -136l-65 -16l-21 90h-153v-305h85v-62h-218v62h55v118h-224v-118h55v-62h-218v62h85v305h-85v62h218v-62h-55v-125h224v125h-55v62h342z" />
    <glyph glyph-name="uni04A8" unicode="&#x4a8;" horiz-adv-x="740" 
d="M720 80q-67 -87 -182 -87q-42 0 -88 11q-57 -18 -130 -18q-77 0 -139.5 34t-99.5 103t-37 169q0 106 42.5 177.5t109.5 103.5l23 -61q-43 -28 -66.5 -79t-23.5 -133q0 -130 56.5 -188t153.5 -58h8q-61 33 -92.5 98.5t-31.5 168.5q0 277 228 277q107 0 167.5 -66
t60.5 -200q0 -109 -38 -176.5t-97 -100.5q40 0 73.5 17t67.5 54zM324 183q16 -48 46.5 -73.5t78.5 -41.5q74 22 109 82t35 164q0 214 -144 214q-70 0 -105.5 -49.5t-35.5 -169.5q0 -78 16 -126z" />
    <glyph glyph-name="uni04A9" unicode="&#x4a9;" horiz-adv-x="631" 
d="M587 59q-58 -67 -142 -67q-44 0 -83 10q-45 -16 -96 -16q-101 0 -163 56.5t-62 167.5q0 84 36.5 139.5t93.5 79.5l27 -57q-36 -21 -56.5 -58t-20.5 -99q0 -84 38 -124t103 -44q-35 29 -53 75t-18 116q0 100 45 152.5t127 52.5q79 0 124 -49.5t45 -150.5q0 -77 -30 -126.5
t-76 -71.5q64 0 110 57zM292.5 335q-25.5 -45 -25.5 -113q0 -67 20 -107.5t61 -58.5q51 17 76.5 60.5t25.5 107.5q0 79 -23 117.5t-65 38.5q-44 0 -69.5 -45z" />
    <glyph glyph-name="uni04AA" unicode="&#x4aa;" horiz-adv-x="584" 
d="M469 154l68 -16l-25 -116q-4 -2 -20.5 -8.5t-45 -14t-63.5 -11.5v-163h-79l1 161q-78 6 -136 46t-89 108t-31 157q0 92 35 161.5t98.5 107.5t147.5 38q59 0 100.5 -10.5t63.5 -22.5t22 -14l22 -116l-68 -15l-20 86q-44 24 -117 24q-96 0 -147.5 -64t-51.5 -177
q0 -114 52.5 -178t146.5 -64q59 0 117 21z" />
    <glyph glyph-name="uni04AB" unicode="&#x4ab;" horiz-adv-x="473" 
d="M431 43q-33 -25 -59.5 -37.5t-62.5 -17.5v-131h-76l-1 130q-86 9 -137 69.5t-51 158.5q0 72 30 124.5t82 79.5t116 27q35 0 63.5 -6.5t88.5 -23.5l14 -108l-64 -14l-13 75q-43 14 -90 14q-69 0 -108 -43t-39 -125q0 -78 42 -121t106 -43q66 0 126 41z" />
    <glyph glyph-name="uni04AC" unicode="&#x4ac;" horiz-adv-x="587" 
d="M36 589h515v-164h-76v95h-141l-2 -451h96v-244h-79l1 175h-193v69h95l1 451h-141v-95h-76v164z" />
    <glyph glyph-name="uni04AD" unicode="&#x4ad;" horiz-adv-x="475" 
d="M17 429h441v-151h-62v89h-119v-305h95v-205h-76l-1 143h-185v62h89v305h-120v-89h-62v151z" />
    <glyph glyph-name="uni04AE" unicode="&#x4ae;" horiz-adv-x="651" 
d="M4 589h239v-69h-53l139 -196l156 196h-75v69h237v-69h-68l-213 -263l-2 -188h94v-69h-267v69h94l1 185l-198 266h-84v69z" />
    <glyph glyph-name="uni04AF" unicode="&#x4af;" horiz-adv-x="576" 
d="M167 -208v62h84v133l-166 380h-83v62h210v-62h-46l91 -230l35 -94l35 93l91 231h-44v62h200v-62h-78l-167 -380v-133h84v-62h-246z" />
    <glyph glyph-name="uni04B0" unicode="&#x4b0;" horiz-adv-x="651" 
d="M410 589h237v-69h-68l-208 -257h109v-62h-115l-1 -132h94v-69h-267v69h94l1 132h-113v62h106l-191 257h-84v69h239v-69h-53l139 -196l156 196h-75v69z" />
    <glyph glyph-name="uni04B1" unicode="&#x4b1;" horiz-adv-x="576" 
d="M374 429h200v-62h-78l-146 -333h93v-62h-114v-118h84v-62h-246v62h84v118h-115v62h94l-145 333h-83v62h210v-62h-46l91 -230l35 -94l35 93l91 231h-44v62z" />
    <glyph glyph-name="uni04B2" unicode="&#x4b2;" horiz-adv-x="664" 
d="M651 69v-244h-79l1 175h-184v69h74l-141 176l-131 -176h74v-69h-245v69h85l173 232l-174 219h-85v69h252v-69h-64l126 -159l118 159h-69v69h250v-69h-95l-159 -215l187 -236h86z" />
    <glyph glyph-name="uni04B3" unicode="&#x4b3;" horiz-adv-x="591" 
d="M488 62h84v-205h-76l-1 143h-151v62h45l-104 109l-92 -109h44v-62h-212v62h87l130 155l-142 150h-75v62h227v-62h-54l107 -113l93 113h-44v62h200v-62h-75l-132 -157z" />
    <glyph glyph-name="uni04B4" unicode="&#x4b4;" horiz-adv-x="802" 
d="M757 520h-96l-1 -451h96v-244h-79l1 175h-529v69h95l1 451h-133v-95h-76v164h445v-164h-76v95h-81l-1 -451h258l1 451h-63v69h238v-69z" />
    <glyph glyph-name="uni04B5" unicode="&#x4b5;" horiz-adv-x="685" 
d="M643 367h-96v-305h95v-205h-77v143h-481v62h95v305h-100v-89h-62v151h357v-151h-62v89h-57v-305h216v305h-46v62h218v-62z" />
    <glyph glyph-name="uni04B6" unicode="&#x4b6;" horiz-adv-x="690" 
d="M646 -175h-79l1 175h-246v69h150v187q-15 -14 -49 -26t-91 -12q-88 0 -143.5 50.5t-54.5 149.5l1 102h-96v69h238v-69h-65v-102q0 -73 33 -103t105 -30q80 0 122 36v199h-65v69h238v-69h-95v-451h96v-244z" />
    <glyph glyph-name="uni04B7" unicode="&#x4b7;" horiz-adv-x="604" 
d="M572 -143h-76l-1 143h-181v62h85v125q-59 -40 -143 -40q-89 0 -119 47.5t-28 119.5l1 52h-85v62h218v-62h-55v-44q0 -41 5.5 -63t26 -35t63.5 -13q66 0 116 36v118h-54v62h217v-62h-85v-303h95v-205z" />
    <glyph glyph-name="uni04B8" unicode="&#x4b8;" horiz-adv-x="690" 
d="M550 520v-451h93v-69h-321v69h150v187q-31 -28 -96 -36v-78h-49v76q-86 2 -140 52t-53 148l1 102h-96v69h238v-69h-65v-102q0 -67 27.5 -97.5t87.5 -34.5v103h49v-103q61 6 96 35v199h-65v69h238v-69h-95z" />
    <glyph glyph-name="uni04B9" unicode="&#x4b9;" horiz-adv-x="604" 
d="M477 365v-303h85v-62h-248v62h85v125q-38 -26 -78 -35v-70h-45v65h-10q-90 0 -124.5 48.5t-32.5 118.5l1 52h-85v62h218v-62h-55v-52q0 -48 18 -74.5t70 -28.5v98h45v-95q42 7 78 33v118h-54v62h217v-62h-85z" />
    <glyph glyph-name="uni04BA" unicode="&#x4ba;" horiz-adv-x="664" 
d="M302 520h-94v-187q15 14 48 26t90 12q88 0 145 -50.5t56 -149.5l-1 -102h93v-69h-238v69h65v102q0 73 -33 103t-105 30q-78 0 -120 -36v-199h63v-69h-240v69h97v451h-93v69h267v-69z" />
    <glyph glyph-name="uni04BB" unicode="&#x4bb;" horiz-adv-x="600" 
d="M21 62h84v493l-95 33l21 62l152 -52v-196q31 20 65 31t66 11q92 0 135.5 -41t43.5 -128v-213h84v-62h-207v62h45v197q0 64 -25 92.5t-81 28.5q-33 0 -68.5 -9.5t-57.5 -24.5v-284h45v-62h-207v62z" />
    <glyph glyph-name="uni04BC" unicode="&#x4bc;" horiz-adv-x="684" 
d="M636 268l-425 -1q4 -101 59 -157t141 -56q51 0 93.5 19t85.5 60l43 -56q-55 -48 -109 -70t-117 -22q-76 0 -136 35t-96 101t-40 156q-64 9 -102 47.5t-33 111.5h75q-1 -6 -1 -17q0 -32 16.5 -51.5t45.5 -26.5q7 79 41 138.5t90 92t126 32.5q117 0 182 -73t65 -201
q0 -18 -4 -62zM561 336q0 93 -39.5 145.5t-125.5 52.5q-50 0 -92 -24t-67 -68.5t-25 -105.5h349z" />
    <glyph glyph-name="uni04BD" unicode="&#x4bd;" horiz-adv-x="569" 
d="M527 197l-333 -2q4 -73 46.5 -109t104.5 -36q85 0 143 48l36 -47q-40 -34 -82 -50t-94 -16q-102 0 -163.5 55.5t-66.5 155.5q-49 4 -84 36t-35 88q0 11 1 17h70l-1 -13q0 -30 14 -46.5t37 -19.5q12 85 70 135.5t145 50.5q90 0 142 -56.5t52 -152.5q0 -12 -2 -38zM452 258
q-1 56 -32.5 90.5t-83.5 34.5q-54 0 -93.5 -35t-47.5 -91z" />
    <glyph glyph-name="uni04BE" unicode="&#x4be;" horiz-adv-x="684" 
d="M636 268l-425 -1q4 -101 59 -157t141 -56q51 0 93.5 19t85.5 60l43 -56q-50 -43 -98 -65t-102 -26l10 -143h-87l11 145q-100 13 -163 89t-69 200q-64 9 -102 47.5t-33 111.5h75q-1 -6 -1 -17q0 -32 16.5 -51.5t45.5 -26.5q7 79 41 138.5t90 92t126 32.5q117 0 182 -73
t65 -201q0 -18 -4 -62zM561 336q0 93 -39.5 145.5t-125.5 52.5q-50 0 -92 -24t-67 -68.5t-25 -105.5h349z" />
    <glyph glyph-name="uni04BF" unicode="&#x4bf;" horiz-adv-x="569" 
d="M527 197l-333 -2q4 -73 46.5 -109t104.5 -36q85 0 143 48l36 -47q-37 -31 -75 -47t-84 -19l9 -128h-79l10 131q-83 11 -133 65.5t-54 142.5q-49 4 -84 36t-35 88q0 11 1 17h70l-1 -13q0 -30 14 -46.5t37 -19.5q12 85 70 135.5t145 50.5q90 0 142 -56.5t52 -152.5
q0 -12 -2 -38zM452 258q-1 56 -32.5 90.5t-83.5 34.5q-54 0 -93.5 -35t-47.5 -91z" />
    <glyph glyph-name="uni04C0" unicode="&#x4c0;" horiz-adv-x="345" 
d="M38 589h270v-69h-93l-2 -451h95v-69h-271v69h97v451h-96v69z" />
    <glyph glyph-name="uni04C1" unicode="&#x4c1;" horiz-adv-x="963" 
d="M49 589h246v-69h-72l138 -183h81v182h-64v69h207v-69h-64l-1 -182h82l137 183h-71v69h246v-69h-91l-160 -214l160 -237h95v-69h-250v69h63l-123 199h-88l-1 -199h66v-69h-207v69h64v199h-87l-123 -199h63v-69h-250v69h95l159 237l-159 214h-91v69zM373 665q-42 25 -55 73
l72 10q7 -26 30.5 -40t60.5 -14q79 0 91 54l72 -10q-17 -48 -59 -73t-104 -25q-66 0 -108 25z" />
    <glyph glyph-name="uni04C2" unicode="&#x4c2;" horiz-adv-x="771" 
d="M25 0v62h86l97 156l-97 149h-80v62h210v-62h-51l77 -124h76v123h-45v62h168v-62h-45v-123h75l78 124h-51v62h210v-62h-84l-93 -149l97 -156h86v-62h-133l-112 181h-73v-119h45v-62h-168v62h45v119h-73l-112 -181h-133zM274 523.5q-38 33.5 -49 86.5l65 12q5 -32 27.5 -50
t63.5 -18q42 0 65 18.5t27 49.5l65 -12q-11 -53 -49.5 -86.5t-107.5 -33.5t-107 33.5z" />
    <glyph glyph-name="uni04C3" unicode="&#x4c3;" horiz-adv-x="669" 
d="M380 -184l22 70q40 -17 69 -17q57 0 57 61q0 58 -96 184l-114 149h-108l1 -194h63v-69h-237v69h94v451h-94v69h237v-69h-64v-188h93l138 188h-74v69h246v-69h-91l-151 -205l143 -176q102 -127 102 -215q0 -56 -33.5 -94t-101.5 -38q-47 0 -101 24z" />
    <glyph glyph-name="uni04C4" unicode="&#x4c4;" horiz-adv-x="542" 
d="M294 -198l18 62q33 -10 51 -10q32 0 50 22t18 58q0 50 -33 97l-105 150h-89v-119h45v-62h-207v62h84v305h-84v62h207v-62h-45v-124h91l78 124h-51v62h210v-62h-84l-93 -149l101 -135q29 -39 44 -81t15 -81q0 -61 -35 -99.5t-101 -38.5q-40 0 -85 19z" />
    <glyph glyph-name="uni04C5" unicode="&#x4c5;" horiz-adv-x="673" 
d="M533 522l-2 -453h96v-69l-70 -175h-69l60 175h-179v69h84l1 453h-184l-21 -269q-9 -125 -49 -193.5t-132 -69.5q-19 0 -29 1v73q54 0 82.5 22.5t41 67t17.5 124.5l17 244h-86v69h517v-69h-95z" />
    <glyph glyph-name="uni04C6" unicode="&#x4c6;" horiz-adv-x="587" 
d="M546 0h-1l-50 -143h-66l44 143h-145v62h44v305h-127l-10 -138q-7 -106 -50.5 -171.5t-124.5 -65.5q-8 0 -26 2v64q6 -1 18 -1q60 0 84.5 51.5t29.5 143.5l6 115h-89v62h460v-62h-93v-305h96v-62z" />
    <glyph glyph-name="uni04C7" unicode="&#x4c7;" horiz-adv-x="714" 
d="M677 589v-69h-95l-3 -520q0 -107 -45.5 -164t-125.5 -57q-42 0 -96 26l22 70q40 -17 69 -17q48 0 73 38.5t25 103.5v267h-288l-1 -198h64v-69h-239v69h96l1 451h-96v69h240v-69h-64l-1 -184h288l1 184h-64v69h239z" />
    <glyph glyph-name="uni04C8" unicode="&#x4c8;" horiz-adv-x="634" 
d="M592 429v-62h-85v-367q0 -109 -33.5 -163t-96.5 -54q-40 0 -85 19l18 62q33 -10 51 -10q36 0 52 33t16 113v180h-224v-118h55v-62h-218v62h85v305h-85v62h218v-62h-55v-125h224v125h-55v62h218z" />
    <glyph glyph-name="uni04C9" unicode="&#x4c9;" horiz-adv-x="714" 
d="M685 69v-69l-70 -175h-69l60 175h-169v69h64v198h-288l-1 -198h64v-69h-239v69h96l1 451h-96v69h240v-69h-64l-1 -184h288l1 184h-64v69h239v-69h-95l-3 -451h106z" />
    <glyph glyph-name="uni04CA" unicode="&#x4ca;" horiz-adv-x="634" 
d="M602 62v-62l-50 -143h-66l44 143h-156v62h55v118h-224v-118h55v-62h-218v62h85v305h-85v62h218v-62h-55v-125h224v125h-55v62h218v-62h-85v-305h95z" />
    <glyph glyph-name="uni04CB" unicode="&#x4cb;" horiz-adv-x="690" 
d="M562 520v-451h93v-69h-257l1 -175h-79v244h164v187q-15 -14 -49 -26t-91 -12q-88 0 -143.5 50.5t-54.5 149.5l1 102h-96v69h238v-69h-65v-102q0 -73 33 -103t105 -30q80 0 122 36v199h-65v69h238v-69h-95z" />
    <glyph glyph-name="uni04CC" unicode="&#x4cc;" horiz-adv-x="604" 
d="M477 365v-303h85v-62h-171l-1 -143h-76v205h85v125q-59 -40 -143 -40q-89 0 -119 47.5t-28 119.5l1 52h-85v62h218v-62h-55v-44q0 -41 5.5 -63t26 -35t63.5 -13q66 0 116 36v118h-54v62h217v-62h-85z" />
    <glyph glyph-name="uni04CD" unicode="&#x4cd;" horiz-adv-x="845" 
d="M810 69v-69l-70 -175h-69l60 175h-161v69h64v451l-45 -130l-122 -319h-86l-128 321l-46 128l-3 -451h66v-69h-234v69h96l1 451h-93v69h221l168 -429l166 429h213v-69h-94v-451h96z" />
    <glyph glyph-name="uni04CE" unicode="&#x4ce;" horiz-adv-x="769" 
d="M737 62v-62l-50 -143h-66l44 143h-156v62h55v314l-148 -315h-57l-154 313v-312h55v-62h-218v62h85v305h-85v62h213l136 -285l134 285h202v-62h-85v-305h95z" />
    <glyph glyph-name="uni04CF" unicode="&#x4cf;" horiz-adv-x="292" 
d="M23 0v62h84v504l-100 22l17 64l161 -37v-553h84v-62h-246z" />
    <glyph glyph-name="uni04D0" unicode="&#x4d0;" horiz-adv-x="651" 
d="M10 0v69h96l166 451h-101v69h194l181 -520h95v-69h-243v69h63l-32 91h-216l-34 -91h64v-69h-233zM238 229h167l-79 259zM214 665q-42 25 -55 73l72 10q7 -26 30.5 -40t60.5 -14q79 0 91 54l72 -10q-17 -48 -59 -73t-104 -25q-66 0 -108 25z" />
    <glyph glyph-name="uni04D1" unicode="&#x4d1;" horiz-adv-x="525" 
d="M208 -15q-85 0 -128.5 34.5t-43.5 100.5q0 64 42 96.5t124 32.5l129 -1q0 67 -25 99.5t-76 32.5q-50 0 -90 -12l-10 -55l-64 12l16 91q78 28 145 28q90 0 136 -48.5t46 -143.5v-174l95 -31l-20 -64l-135 46q-65 -44 -141 -44zM138.5 169q-22.5 -17 -22.5 -50
q0 -34 24.5 -52t71.5 -18q69 0 119 38v98l-126 1q-44 0 -66.5 -17zM127 523.5q-38 33.5 -49 86.5l65 12q5 -32 27.5 -50t63.5 -18q42 0 65 18.5t27 49.5l65 -12q-11 -53 -49.5 -86.5t-107.5 -33.5t-107 33.5z" />
    <glyph glyph-name="uni04D2" unicode="&#x4d2;" horiz-adv-x="651" 
d="M10 0v69h96l166 451h-101v69h194l181 -520h95v-69h-243v69h63l-32 91h-216l-34 -91h64v-69h-233zM238 229h167l-79 259zM273 762.5q17 -16.5 17 -39.5t-16.5 -39.5t-39.5 -16.5t-39.5 16.5t-16.5 39.5t16.5 39.5t39.5 16.5q22 0 39 -16.5zM451 762.5q17 -16.5 17 -39.5
t-16.5 -39.5t-39.5 -16.5t-39.5 16.5t-16.5 39.5t16.5 39.5t39.5 16.5q22 0 39 -16.5z" />
    <glyph glyph-name="uni04D3" unicode="&#x4d3;" horiz-adv-x="525" 
d="M208 -15q-85 0 -128.5 34.5t-43.5 100.5q0 64 42 96.5t124 32.5l129 -1q0 67 -25 99.5t-76 32.5q-50 0 -90 -12l-10 -55l-64 12l16 91q78 28 145 28q90 0 136 -48.5t46 -143.5v-174l95 -31l-20 -64l-135 46q-65 -44 -141 -44zM138.5 169q-22.5 -17 -22.5 -50
q0 -34 24.5 -52t71.5 -18q69 0 119 38v98l-126 1q-44 0 -66.5 -17zM185 602.5q17 -16.5 17 -39.5t-16.5 -39.5t-39.5 -16.5t-39.5 16.5t-16.5 39.5t16.5 39.5t39.5 16.5q22 0 39 -16.5zM363 602.5q17 -16.5 17 -39.5t-16.5 -39.5t-39.5 -16.5t-39.5 16.5t-16.5 39.5
t16.5 39.5t39.5 16.5q22 0 39 -16.5z" />
    <glyph glyph-name="uni04D4" unicode="&#x4d4;" horiz-adv-x="919" 
d="M27 0v69h100l286 451h-103v69h503l52 -154l-66 -22l-40 107h-187v-191h160v-69h-161v-191h208l40 107l66 -22l-51 -154h-438v69h95v91h-226l-56 -91h58v-69h-240zM308 229h183l1 291z" />
    <glyph glyph-name="uni04D5" unicode="&#x4d5;" horiz-adv-x="777" 
d="M150.5 437.5q30.5 6.5 75.5 6.5q63 0 102.5 -25t55.5 -71q28 45 72.5 70.5t101.5 25.5q75 0 125 -46t50 -153q0 -22 -3 -49l-322 -2q4 -70 39 -107.5t99 -37.5q41 0 75 11t55.5 23.5t21.5 14.5l36 -47q0 -3 -25.5 -20t-67.5 -31.5t-96 -14.5q-100 0 -160 63
q-31 -21 -85 -42t-93 -21q-79 0 -125.5 38t-46.5 97q0 65 46.5 97t119.5 32l129 -1q0 49 -8 77t-30 41.5t-63 13.5q-49 0 -90 -12l-10 -55l-64 12l16 91q39 15 69.5 21.5zM635.5 349.5q-25.5 30.5 -80.5 30.5q-59 0 -98 -33t-48 -91l254 1q-2 62 -27.5 92.5zM138.5 172.5
q-23.5 -13.5 -23.5 -53.5q0 -34 27.5 -52t68.5 -18q33 0 72.5 13.5t69.5 32.5q-21 42 -24 90l-125 1q-42 0 -65.5 -13.5z" />
    <glyph glyph-name="uni04D6" unicode="&#x4d6;" horiz-adv-x="587" 
d="M38 589h444l51 -154l-65 -22l-40 107h-214v-181h187v-69h-187l-1 -201h235l40 107l65 -22l-51 -154h-465v69h96l1 451h-96v69zM196 665q-42 25 -55 73l72 10q7 -26 30.5 -40t60.5 -14q79 0 91 54l72 -10q-17 -48 -59 -73t-104 -25q-66 0 -108 25z" />
    <glyph glyph-name="uni04D7" unicode="&#x4d7;" horiz-adv-x="491" 
d="M364 1q-42 -16 -94 -16q-107 0 -169 61t-62 169q0 68 27 120t76.5 80.5t114.5 28.5q90 0 142 -56.5t52 -152.5q0 -12 -2 -38l-333 -2q4 -73 46.5 -109t104.5 -36q85 0 143 48l36 -47q-40 -34 -82 -50zM341.5 348.5q-31.5 34.5 -83.5 34.5q-54 0 -93.5 -35t-47.5 -91
l257 1q-1 56 -32.5 90.5zM159 523.5q-38 33.5 -49 86.5l65 12q5 -32 27.5 -50t63.5 -18q42 0 65 18.5t27 49.5l65 -12q-11 -53 -49.5 -86.5t-107.5 -33.5t-107 33.5z" />
    <glyph glyph-name="uni04D8" unicode="&#x4d8;" horiz-adv-x="594" 
d="M67 556q108 49 205 49q82 0 145 -36.5t98 -107.5t35 -173q0 -89 -32.5 -158t-91.5 -107t-135 -38q-117 0 -182 73t-65 201q0 18 4 62l421 1q-4 103 -61.5 158.5t-146.5 55.5q-61 0 -127 -27l-18 -83l-70 15zM122 229q0 -81 42.5 -127.5t123.5 -46.5q50 0 92.5 24t66.5 69
t21 105h-345q-1 -8 -1 -24z" />
    <glyph glyph-name="uni04D9" unicode="&#x4d9;" horiz-adv-x="500" 
d="M102 37.5q-54 52.5 -54 140.5q0 35 2 54l329 2q-3 71 -45 108.5t-107 37.5q-58 0 -111 -21l-11 -64l-64 12l16 101q86 37 180 37q63 0 113.5 -26.5t80 -78.5t29.5 -126q0 -68 -27 -120t-76.5 -80.5t-114.5 -28.5q-86 0 -140 52.5zM337.5 81.5q31.5 32.5 40.5 95.5
l-253 -1q1 -58 32.5 -92.5t83.5 -34.5q65 0 96.5 32.5z" />
    <glyph glyph-name="uni04DA" unicode="&#x4da;" horiz-adv-x="594" 
d="M67 556q108 49 205 49q82 0 145 -36.5t98 -107.5t35 -173q0 -89 -32.5 -158t-91.5 -107t-135 -38q-117 0 -182 73t-65 201q0 18 4 62l421 1q-4 103 -61.5 158.5t-146.5 55.5q-61 0 -127 -27l-18 -83l-70 15zM122 229q0 -81 42.5 -127.5t123.5 -46.5q50 0 92.5 24t66.5 69
t21 105h-345q-1 -8 -1 -24zM237 762.5q17 -16.5 17 -39.5t-16.5 -39.5t-39.5 -16.5t-39.5 16.5t-16.5 39.5t16.5 39.5t39.5 16.5q22 0 39 -16.5zM415 762.5q17 -16.5 17 -39.5t-16.5 -39.5t-39.5 -16.5t-39.5 16.5t-16.5 39.5t16.5 39.5t39.5 16.5q22 0 39 -16.5z" />
    <glyph glyph-name="uni04DB" unicode="&#x4db;" horiz-adv-x="500" 
d="M102 37.5q-54 52.5 -54 140.5q0 35 2 54l329 2q-3 71 -45 108.5t-107 37.5q-58 0 -111 -21l-11 -64l-64 12l16 101q86 37 180 37q63 0 113.5 -26.5t80 -78.5t29.5 -126q0 -68 -27 -120t-76.5 -80.5t-114.5 -28.5q-86 0 -140 52.5zM337.5 81.5q31.5 32.5 40.5 95.5
l-253 -1q1 -58 32.5 -92.5t83.5 -34.5q65 0 96.5 32.5zM190 602.5q17 -16.5 17 -39.5t-16.5 -39.5t-39.5 -16.5t-39.5 16.5t-16.5 39.5t16.5 39.5t39.5 16.5q22 0 39 -16.5zM368 602.5q17 -16.5 17 -39.5t-16.5 -39.5t-39.5 -16.5t-39.5 16.5t-16.5 39.5t16.5 39.5
t39.5 16.5q22 0 39 -16.5z" />
    <glyph glyph-name="uni04DC" unicode="&#x4dc;" horiz-adv-x="963" 
d="M49 589h246v-69h-72l138 -183h81v182h-64v69h207v-69h-64l-1 -182h82l137 183h-71v69h246v-69h-91l-160 -214l160 -237h95v-69h-250v69h63l-123 199h-88l-1 -199h66v-69h-207v69h64v199h-87l-123 -199h63v-69h-250v69h95l159 237l-159 214h-91v69zM432 762.5
q17 -16.5 17 -39.5t-16.5 -39.5t-39.5 -16.5t-39.5 16.5t-16.5 39.5t16.5 39.5t39.5 16.5q22 0 39 -16.5zM610 762.5q17 -16.5 17 -39.5t-16.5 -39.5t-39.5 -16.5t-39.5 16.5t-16.5 39.5t16.5 39.5t39.5 16.5q22 0 39 -16.5z" />
    <glyph glyph-name="uni04DD" unicode="&#x4dd;" horiz-adv-x="771" 
d="M25 0v62h86l97 156l-97 149h-80v62h210v-62h-51l77 -124h76v123h-45v62h168v-62h-45v-123h75l78 124h-51v62h210v-62h-84l-93 -149l97 -156h86v-62h-133l-112 181h-73v-119h45v-62h-168v62h45v119h-73l-112 -181h-133zM332 602.5q17 -16.5 17 -39.5t-16.5 -39.5
t-39.5 -16.5t-39.5 16.5t-16.5 39.5t16.5 39.5t39.5 16.5q22 0 39 -16.5zM510 602.5q17 -16.5 17 -39.5t-16.5 -39.5t-39.5 -16.5t-39.5 16.5t-16.5 39.5t16.5 39.5t39.5 16.5q22 0 39 -16.5z" />
    <glyph glyph-name="uni04DE" unicode="&#x4de;" horiz-adv-x="513" 
d="M167.5 592q48.5 12 93.5 12q92 0 143.5 -43t51.5 -121q0 -49 -23.5 -82t-74.5 -53q58 -17 89 -53.5t31 -89.5q0 -52 -27.5 -92t-78 -62.5t-117.5 -22.5q-52 0 -96.5 14.5t-94.5 48.5l-21 99l68 16l17 -66q26 -23 57 -32.5t71 -9.5q137 0 137 103q0 52 -32.5 79.5
t-88.5 27.5h-88v69h88q45 0 72 29.5t27 74.5q0 47 -31.5 72.5t-86.5 25.5q-54 0 -109 -24l-19 -86l-69 15l21 116q42 23 90.5 35zM211 762.5q17 -16.5 17 -39.5t-16.5 -39.5t-39.5 -16.5t-39.5 16.5t-16.5 39.5t16.5 39.5t39.5 16.5q22 0 39 -16.5zM389 762.5
q17 -16.5 17 -39.5t-16.5 -39.5t-39.5 -16.5t-39.5 16.5t-16.5 39.5t16.5 39.5t39.5 16.5q22 0 39 -16.5z" />
    <glyph glyph-name="uni04DF" unicode="&#x4df;" horiz-adv-x="444" 
d="M115.5 0.5q-45.5 16.5 -90.5 49.5l38 51q29 -23 72 -37.5t81 -14.5q55 0 87 19t32 54q0 34 -26 49.5t-80 15.5h-54v60h63q38 0 56.5 15t18.5 47q0 36 -27.5 53.5t-71.5 17.5q-55 0 -105 -25l-11 -64l-64 12l15 89q37 25 83 38.5t94 13.5q76 0 121.5 -32.5t45.5 -86.5
q0 -34 -18.5 -62t-49.5 -41q39 -5 64 -32.5t25 -67.5t-25.5 -71.5t-70 -49t-99.5 -17.5q-58 0 -103.5 16.5zM163 602.5q17 -16.5 17 -39.5t-16.5 -39.5t-39.5 -16.5t-39.5 16.5t-16.5 39.5t16.5 39.5t39.5 16.5q22 0 39 -16.5zM341 602.5q17 -16.5 17 -39.5t-16.5 -39.5
t-39.5 -16.5t-39.5 16.5t-16.5 39.5t16.5 39.5t39.5 16.5q22 0 39 -16.5z" />
    <glyph glyph-name="uni04E0" unicode="&#x4e0;" horiz-adv-x="524" 
d="M158.5 -0.5q-44.5 14.5 -94.5 48.5l-21 99l68 16l17 -66q26 -23 57 -32.5t71 -9.5q69 0 104.5 30.5t35.5 81.5q0 118 -124 118h-78v65l162 170h-222l-20 -97l-64 9l28 157h394v-52l-187 -187q96 -3 145 -49t49 -129q0 -86 -57.5 -136.5t-166.5 -50.5q-52 0 -96.5 14.5z
" />
    <glyph glyph-name="uni04E1" unicode="&#x4e1;" horiz-adv-x="432" 
d="M99 -201q-44 15 -84 45l38 59q66 -51 126 -51q62 0 100.5 35.5t38.5 102.5q0 54 -33 87t-94 33h-74v60l173 197h-204l-11 -56l-65 14l19 104h351v-50l-183 -209q103 -2 151.5 -54t48.5 -126q0 -101 -60 -153.5t-152 -52.5q-42 0 -86 15z" />
    <glyph glyph-name="uni04E2" unicode="&#x4e2;" horiz-adv-x="741" 
d="M38 589h238v-69h-64l-2 -416l321 485h173v-69h-96l-1 -451h95v-69h-237v69h64l1 406l-320 -475h-173v69h95l1 451h-95v69zM233 749h299v-59h-299v59z" />
    <glyph glyph-name="uni04E3" unicode="&#x4e3;" horiz-adv-x="625" 
d="M42 429h214v-62h-55v-267l224 329h158v-62h-85v-305h85v-62h-213v62h55v267l-224 -329h-159v62h85v305h-85v62zM173 589h299v-59h-299v59z" />
    <glyph glyph-name="uni04E4" unicode="&#x4e4;" horiz-adv-x="741" 
d="M38 589h238v-69h-64l-2 -416l321 485h173v-69h-96l-1 -451h95v-69h-237v69h64l1 406l-320 -475h-173v69h95l1 451h-95v69zM333 762.5q17 -16.5 17 -39.5t-16.5 -39.5t-39.5 -16.5t-39.5 16.5t-16.5 39.5t16.5 39.5t39.5 16.5q22 0 39 -16.5zM511 762.5q17 -16.5 17 -39.5
t-16.5 -39.5t-39.5 -16.5t-39.5 16.5t-16.5 39.5t16.5 39.5t39.5 16.5q22 0 39 -16.5z" />
    <glyph glyph-name="uni04E5" unicode="&#x4e5;" horiz-adv-x="625" 
d="M42 429h214v-62h-55v-267l224 329h158v-62h-85v-305h85v-62h-213v62h55v267l-224 -329h-159v62h85v305h-85v62zM273 602.5q17 -16.5 17 -39.5t-16.5 -39.5t-39.5 -16.5t-39.5 16.5t-16.5 39.5t16.5 39.5t39.5 16.5q22 0 39 -16.5zM451 602.5q17 -16.5 17 -39.5
t-16.5 -39.5t-39.5 -16.5t-39.5 16.5t-16.5 39.5t16.5 39.5t39.5 16.5q22 0 39 -16.5z" />
    <glyph glyph-name="uni04E6" unicode="&#x4e6;" horiz-adv-x="636" 
d="M461 565.5q62 -38.5 96.5 -108.5t34.5 -162t-34 -162.5t-96.5 -109t-143.5 -38.5t-143.5 38.5t-96.5 109t-34 162.5t34 162t96 108.5t143 38.5q82 0 144 -38.5zM179 471q-50 -63 -50 -176q0 -114 50 -177t139 -63t139 63t50 177q0 113 -50 176t-139 63t-139 -63z
M268 762.5q17 -16.5 17 -39.5t-16.5 -39.5t-39.5 -16.5t-39.5 16.5t-16.5 39.5t16.5 39.5t39.5 16.5q22 0 39 -16.5zM446 762.5q17 -16.5 17 -39.5t-16.5 -39.5t-39.5 -16.5t-39.5 16.5t-16.5 39.5t16.5 39.5t39.5 16.5q22 0 39 -16.5z" />
    <glyph glyph-name="uni04E7" unicode="&#x4e7;" horiz-adv-x="521" 
d="M375.5 416q50.5 -28 78 -79.5t27.5 -122.5q0 -106 -60.5 -167.5t-161.5 -61.5q-64 0 -113.5 27.5t-77 79.5t-27.5 122t27.5 122t77 80t113.5 28q66 0 116.5 -28zM156.5 337q-35.5 -43 -35.5 -123t35.5 -122.5t103.5 -42.5q70 0 105.5 42.5t35.5 122.5t-35.5 123
t-105.5 43q-68 0 -103.5 -43zM222 602.5q17 -16.5 17 -39.5t-16.5 -39.5t-39.5 -16.5t-39.5 16.5t-16.5 39.5t16.5 39.5t39.5 16.5q22 0 39 -16.5zM400 602.5q17 -16.5 17 -39.5t-16.5 -39.5t-39.5 -16.5t-39.5 16.5t-16.5 39.5t16.5 39.5t39.5 16.5q22 0 39 -16.5z" />
    <glyph glyph-name="uni04E8" unicode="&#x4e8;" horiz-adv-x="636" 
d="M461 565.5q62 -38.5 96.5 -108.5t34.5 -162t-34 -162.5t-96.5 -109t-143.5 -38.5t-143.5 38.5t-96.5 109t-34 162.5t34 162t96 108.5t143 38.5q82 0 144 -38.5zM187 481q-49 -53 -57 -150h376q-8 97 -57 150t-131 53t-131 -53zM452.5 112q49.5 57 53.5 160h-376
q4 -103 53.5 -160t134.5 -57t134.5 57z" />
    <glyph glyph-name="uni04E9" unicode="&#x4e9;" horiz-adv-x="521" 
d="M375.5 416q50.5 -28 78 -79.5t27.5 -122.5q0 -106 -60.5 -167.5t-161.5 -61.5q-64 0 -113.5 27.5t-77 79.5t-27.5 122t27.5 122t77 80t113.5 28q66 0 116.5 -28zM165.5 346q-34.5 -34 -42.5 -97h276q-8 63 -43 97t-96 34q-60 0 -94.5 -34zM359 84.5q35 35.5 41 102.5
h-278q6 -67 41 -102.5t97 -35.5q64 0 99 35.5z" />
    <glyph glyph-name="uni04EA" unicode="&#x4ea;" horiz-adv-x="636" 
d="M461 565.5q62 -38.5 96.5 -108.5t34.5 -162t-34 -162.5t-96.5 -109t-143.5 -38.5t-143.5 38.5t-96.5 109t-34 162.5t34 162t96 108.5t143 38.5q82 0 144 -38.5zM187 481q-49 -53 -57 -150h376q-8 97 -57 150t-131 53t-131 -53zM452.5 112q49.5 57 53.5 160h-376
q4 -103 53.5 -160t134.5 -57t134.5 57zM268 762.5q17 -16.5 17 -39.5t-16.5 -39.5t-39.5 -16.5t-39.5 16.5t-16.5 39.5t16.5 39.5t39.5 16.5q22 0 39 -16.5zM446 762.5q17 -16.5 17 -39.5t-16.5 -39.5t-39.5 -16.5t-39.5 16.5t-16.5 39.5t16.5 39.5t39.5 16.5q22 0 39 -16.5
z" />
    <glyph glyph-name="uni04EB" unicode="&#x4eb;" horiz-adv-x="521" 
d="M375.5 416q50.5 -28 78 -79.5t27.5 -122.5q0 -106 -60.5 -167.5t-161.5 -61.5q-64 0 -113.5 27.5t-77 79.5t-27.5 122t27.5 122t77 80t113.5 28q66 0 116.5 -28zM165.5 346q-34.5 -34 -42.5 -97h276q-8 63 -43 97t-96 34q-60 0 -94.5 -34zM359 84.5q35 35.5 41 102.5
h-278q6 -67 41 -102.5t97 -35.5q64 0 99 35.5zM222 602.5q17 -16.5 17 -39.5t-16.5 -39.5t-39.5 -16.5t-39.5 16.5t-16.5 39.5t16.5 39.5t39.5 16.5q22 0 39 -16.5zM400 602.5q17 -16.5 17 -39.5t-16.5 -39.5t-39.5 -16.5t-39.5 16.5t-16.5 39.5t16.5 39.5t39.5 16.5
q22 0 39 -16.5z" />
    <glyph glyph-name="uni04EC" unicode="&#x4ec;" horiz-adv-x="600" 
d="M171 -7q-44 8 -71 18t-27 11l-25 116l68 16l18 -78q69 -23 138 -23q90 0 139.5 53.5t57.5 152.5l-169 -7h-99v69h102l167 -7q-4 106 -53.5 164t-144.5 58q-46 0 -81 -8t-57 -18l-19 -84l-69 15l22 116q43 25 88 36t121 11q84 0 147 -38t97.5 -107.5t34.5 -160.5
q0 -95 -35 -165.5t-99 -109t-150 -38.5q-57 0 -101 8zM235 762.5q17 -16.5 17 -39.5t-16.5 -39.5t-39.5 -16.5t-39.5 16.5t-16.5 39.5t16.5 39.5t39.5 16.5q22 0 39 -16.5zM413 762.5q17 -16.5 17 -39.5t-16.5 -39.5t-39.5 -16.5t-39.5 16.5t-16.5 39.5t16.5 39.5t39.5 16.5
q22 0 39 -16.5z" />
    <glyph glyph-name="uni04ED" unicode="&#x4ed;" horiz-adv-x="464" 
d="M303 346q-34 33 -98 33q-45 0 -82 -13l-13 -69l-65 14l21 108q38 13 71.5 19t78.5 6q98 0 153 -62t55 -168q0 -104 -59 -166.5t-159 -62.5q-49 0 -87.5 11t-79.5 33l26 58q32 -19 64 -28.5t76 -9.5q63 0 98 36.5t40 106.5l-78 -4h-93v62h96l75 -4q-6 67 -40 100z
M168 602.5q17 -16.5 17 -39.5t-16.5 -39.5t-39.5 -16.5t-39.5 16.5t-16.5 39.5t16.5 39.5t39.5 16.5q22 0 39 -16.5zM346 602.5q17 -16.5 17 -39.5t-16.5 -39.5t-39.5 -16.5t-39.5 16.5t-16.5 39.5t16.5 39.5t39.5 16.5q22 0 39 -16.5z" />
    <glyph glyph-name="uni04EE" unicode="&#x4ee;" horiz-adv-x="622" 
d="M119 0l20 67q20 -7 43 -11.5t37 -4.5q31 0 46 15.5t31 57.5l-210 396h-85v69h238v-69h-63l155 -306l117 306h-67v69h240v-69h-95l-169 -420q-25 -62 -53.5 -89t-80.5 -27q-50 0 -104 16zM161 749h299v-59h-299v59z" />
    <glyph glyph-name="uni04EF" unicode="&#x4ef;" horiz-adv-x="543" 
d="M542 429v-62h-72l-163 -457q-47 -134 -155 -134q-33 0 -66 11l12 60q27 -8 48 -8q29 0 46.5 8.5t31.5 32.5t31 73l5 14l-188 400h-71v62h208v-62h-57l138 -313l107 313h-55v62h200zM141 589h299v-59h-299v59z" />
    <glyph glyph-name="uni04F0" unicode="&#x4f0;" horiz-adv-x="622" 
d="M119 0l20 67q20 -7 43 -11.5t37 -4.5q31 0 46 15.5t31 57.5l-210 396h-85v69h238v-69h-63l155 -306l117 306h-67v69h240v-69h-95l-169 -420q-25 -62 -53.5 -89t-80.5 -27q-50 0 -104 16zM261 762.5q17 -16.5 17 -39.5t-16.5 -39.5t-39.5 -16.5t-39.5 16.5t-16.5 39.5
t16.5 39.5t39.5 16.5q22 0 39 -16.5zM439 762.5q17 -16.5 17 -39.5t-16.5 -39.5t-39.5 -16.5t-39.5 16.5t-16.5 39.5t16.5 39.5t39.5 16.5q22 0 39 -16.5z" />
    <glyph glyph-name="uni04F1" unicode="&#x4f1;" horiz-adv-x="543" 
d="M542 429v-62h-72l-163 -457q-47 -134 -155 -134q-33 0 -66 11l12 60q27 -8 48 -8q29 0 46.5 8.5t31.5 32.5t31 73l5 14l-188 400h-71v62h208v-62h-57l138 -313l107 313h-55v62h200zM241 602.5q17 -16.5 17 -39.5t-16.5 -39.5t-39.5 -16.5t-39.5 16.5t-16.5 39.5
t16.5 39.5t39.5 16.5q22 0 39 -16.5zM419 602.5q17 -16.5 17 -39.5t-16.5 -39.5t-39.5 -16.5t-39.5 16.5t-16.5 39.5t16.5 39.5t39.5 16.5q22 0 39 -16.5z" />
    <glyph glyph-name="uni04F2" unicode="&#x4f2;" horiz-adv-x="622" 
d="M119 0l20 67q20 -7 43 -11.5t37 -4.5q31 0 46 15.5t31 57.5l-210 396h-85v69h238v-69h-63l155 -306l117 306h-67v69h240v-69h-95l-169 -420q-25 -62 -53.5 -89t-80.5 -27q-50 0 -104 16zM395 807l40 -56l-166 -102l-20 28zM543 763l24 -64l-190 -49l-13 32z" />
    <glyph glyph-name="uni04F3" unicode="&#x4f3;" horiz-adv-x="543" 
d="M542 429v-62h-72l-163 -457q-47 -134 -155 -134q-33 0 -66 11l12 60q27 -8 48 -8q29 0 46.5 8.5t31.5 32.5t31 73l5 14l-188 400h-71v62h208v-62h-57l138 -313l107 313h-55v62h200zM312 692l59 -44l-148 -164l-37 28zM479 672l49 -54l-175 -134l-31 34z" />
    <glyph glyph-name="uni04F4" unicode="&#x4f4;" horiz-adv-x="690" 
d="M322 69h150v187q-15 -14 -49 -26t-91 -12q-88 0 -143.5 50.5t-54.5 149.5l1 102h-96v69h238v-69h-65v-102q0 -73 33 -103t105 -30q80 0 122 36v199h-65v69h238v-69h-95v-451h93v-69h-321v69zM300 762.5q17 -16.5 17 -39.5t-16.5 -39.5t-39.5 -16.5t-39.5 16.5t-16.5 39.5
t16.5 39.5t39.5 16.5q22 0 39 -16.5zM478 762.5q17 -16.5 17 -39.5t-16.5 -39.5t-39.5 -16.5t-39.5 16.5t-16.5 39.5t16.5 39.5t39.5 16.5q22 0 39 -16.5z" />
    <glyph glyph-name="uni04F5" unicode="&#x4f5;" horiz-adv-x="604" 
d="M256 147q-89 0 -119 47.5t-28 119.5l1 52h-85v62h218v-62h-55v-44q0 -41 5.5 -63t26 -35t63.5 -13q66 0 116 36v118h-54v62h217v-62h-85v-303h85v-62h-248v62h85v125q-59 -40 -143 -40zM259 602.5q17 -16.5 17 -39.5t-16.5 -39.5t-39.5 -16.5t-39.5 16.5t-16.5 39.5
t16.5 39.5t39.5 16.5q22 0 39 -16.5zM437 602.5q17 -16.5 17 -39.5t-16.5 -39.5t-39.5 -16.5t-39.5 16.5t-16.5 39.5t16.5 39.5t39.5 16.5q22 0 39 -16.5z" />
    <glyph glyph-name="uni04F6" unicode="&#x4f6;" horiz-adv-x="508" 
d="M471 589l28 -148l-69 -15l-22 94h-188l-2 -451h123v-244h-79l1 175h-218v69h95l1 451h-95v69h425z" />
    <glyph glyph-name="uni04F7" unicode="&#x4f7;" horiz-adv-x="455" 
d="M415 430l30 -136l-65 -16l-21 90h-150v-306h107v-205h-76l-1 143h-197v62h89v306h-89v62h373z" />
    <glyph glyph-name="uni04F8" unicode="&#x4f8;" horiz-adv-x="855" 
d="M45 70h92v451h-88v69h232v-69h-66v-148h92q120 0 170 -43t50 -137q0 -96 -55.5 -144.5t-144.5 -48.5l-282 1v69zM572 0v69h64l1 450h-65v69h238v-69h-94l-2 -450h96v-69h-238zM308 70q134 0 134 122q0 48 -16 72.5t-44.5 32t-75.5 7.5h-90v-234h92zM378 762.5
q17 -16.5 17 -39.5t-16.5 -39.5t-39.5 -16.5t-39.5 16.5t-16.5 39.5t16.5 39.5t39.5 16.5q22 0 39 -16.5zM556 762.5q17 -16.5 17 -39.5t-16.5 -39.5t-39.5 -16.5t-39.5 16.5t-16.5 39.5t16.5 39.5t39.5 16.5q22 0 39 -16.5z" />
    <glyph glyph-name="uni04F9" unicode="&#x4f9;" horiz-adv-x="748" 
d="M42 63l77 1v303h-77v62h237v-61h-82v-105h90q75 0 121 -32t46 -97q0 -58 -36.5 -96t-104.5 -38h-271v63zM498 0v62h45v305h-55v62h218v-62h-85v-305h85v-62h-208zM296 64q37 0 58 18t21 53q0 32 -20 50.5t-55 18.5h-103v-140h99zM332 602.5q17 -16.5 17 -39.5
t-16.5 -39.5t-39.5 -16.5t-39.5 16.5t-16.5 39.5t16.5 39.5t39.5 16.5q22 0 39 -16.5zM510 602.5q17 -16.5 17 -39.5t-16.5 -39.5t-39.5 -16.5t-39.5 16.5t-16.5 39.5t16.5 39.5t39.5 16.5q22 0 39 -16.5z" />
    <glyph glyph-name="uni04FA" unicode="&#x4fa;" horiz-adv-x="508" 
d="M471 589l28 -148l-69 -15l-22 94h-188l-1 -191h149v-62h-149l-1 -198h123v-69h-296v69h95v198h-79v62h80v191h-95v69h425zM295.5 -164q-45.5 -57 -125.5 -57q-42 0 -96 26l22 70q40 -17 69 -17q48 0 73 38.5t25 103.5h78q0 -107 -45.5 -164z" />
    <glyph glyph-name="uni04FB" unicode="&#x4fb;" horiz-adv-x="455" 
d="M415 430l30 -136l-65 -16l-21 90h-150v-123h126v-58h-126v-125h107v-62h-274v62h89v125h-83v58h83v123h-89v62h373zM282.5 -163q-33.5 -54 -96.5 -54q-40 0 -85 19l18 62q33 -10 51 -10q36 0 52 33t16 113h78q0 -109 -33.5 -163z" />
    <glyph glyph-name="uni04FC" unicode="&#x4fc;" horiz-adv-x="647" 
d="M375 -184l22 70q40 -17 69 -17q28 0 42.5 17t14.5 49q0 60 -96 179l-105 131l-131 -176h74v-69h-245v69h85l173 232l-174 219h-85v69h252v-69h-64l126 -159l118 159h-69v69h250v-69h-95l-159 -215l151 -191q37 -45 59.5 -95.5t22.5 -94.5q0 -56 -33.5 -94t-101.5 -38
q-47 0 -101 24z" />
    <glyph glyph-name="uni04FD" unicode="&#x4fd;" horiz-adv-x="569" 
d="M314 -198l18 62q33 -10 51 -10q30 0 49 22t19 57q0 29 -15 62.5t-47 66.5l-104 109l-92 -109h44v-62h-212v62h87l130 155l-142 150h-75v62h227v-62h-54l107 -113l93 113h-44v62h200v-62h-75l-132 -157l98 -103q44 -47 65 -93.5t21 -89.5q0 -61 -37.5 -101t-94.5 -40
q-40 0 -85 19z" />
    <glyph glyph-name="uni04FE" unicode="&#x4fe;" horiz-adv-x="664" 
d="M565 69h85v-69h-261v69h74l-141 176l-131 -176h74v-69h-245v69h85l148 198h-125v62h128l-152 191h-85v69h252v-69h-64l126 -159l118 159h-69v69h250v-69h-95l-145 -196h123v-62h-103z" />
    <glyph glyph-name="uni04FF" unicode="&#x4ff;" horiz-adv-x="591" 
d="M488 62h84v-62h-228v62h45l-104 109l-92 -109h44v-62h-212v62h87l103 123h-113v62h112l-114 120h-75v62h227v-62h-54l107 -113l93 113h-44v62h200v-62h-75l-105 -125h115v-62h-113z" />
    <glyph glyph-name="uni0510" unicode="&#x510;" horiz-adv-x="524" 
d="M470 441l-69 -15l-19 86q-55 24 -111 24q-59 0 -92.5 -25.5t-33.5 -72.5q0 -45 28.5 -74.5t78.5 -29.5h78v-69h-78q-56 0 -88.5 -27.5t-32.5 -79.5q0 -50 40.5 -78t98.5 -28q36 0 70.5 11.5t58.5 33.5l17 66l68 -16l-21 -99q-50 -34 -96 -48.5t-98 -14.5
q-67 0 -117.5 22.5t-78 62.5t-27.5 92q0 53 31 89.5t89 53.5q-51 18 -78.5 52.5t-27.5 82.5q0 78 53 121t150 43q46 0 95 -12t91 -35z" />
    <glyph glyph-name="uni0511" unicode="&#x511;" horiz-adv-x="466" 
d="M135.5 1.5q-44.5 17.5 -70 49t-25.5 71.5t25 67.5t64 32.5q-31 13 -49.5 41t-18.5 62q0 54 45.5 86.5t121.5 32.5q48 0 94 -13.5t83 -38.5l15 -89l-64 -12l-11 64q-50 25 -105 25q-44 0 -71.5 -17.5t-27.5 -53.5q0 -32 18.5 -47t56.5 -15h63v-60h-54q-54 0 -80 -15.5
t-26 -49.5q0 -35 32 -54t87 -19q38 0 81 14.5t72 37.5l38 -51q-45 -33 -90.5 -49.5t-103.5 -16.5q-55 0 -99.5 17.5z" />
    <glyph glyph-name="uni0512" unicode="&#x512;" horiz-adv-x="665" 
d="M628 591v-69h-95l-2 -522q0 -107 -45.5 -164t-125.5 -57q-42 0 -96 26l22 70q40 -17 69 -17q48 0 73 38.5t25 103.5l1 522h-184l-21 -269q-9 -125 -49 -193.5t-132 -69.5q-19 0 -29 1v73q54 0 82.5 22.5t41 67t17.5 124.5l17 244h-86v69h517z" />
    <glyph glyph-name="uni0513" unicode="&#x513;" horiz-adv-x="585" 
d="M543 429v-62h-93v-367q0 -109 -33.5 -163t-96.5 -54q-40 0 -85 19l18 62q33 -10 51 -10q36 0 52 33t16 113v367h-127l-10 -138q-7 -106 -50.5 -171.5t-124.5 -65.5q-8 0 -26 2v64q6 -1 18 -1q60 0 84.5 51.5t29.5 143.5l6 115h-89v62h460z" />
    <glyph glyph-name="uni051A" unicode="&#x51a;" horiz-adv-x="663" 
d="M318 -15q-81 0 -143 38t-96.5 108t-34.5 164t34.5 164t96 107.5t142.5 37.5q82 0 144 -37.5t96.5 -107.5t34.5 -164q0 -72 -20.5 -130t-59.5 -99l134 -79l-53 -66l-125 106q-65 -42 -150 -42zM176.5 473.5q-47.5 -62.5 -47.5 -178.5t47.5 -179t141.5 -63t141.5 63
t47.5 179t-47.5 178.5t-141.5 62.5t-141.5 -62.5z" />
    </font>
</defs>
</svg>
