<?xml version="1.0" standalone="no"?>
<!DOCTYPE svg PUBLIC "-//W3C//DTD SVG 1.1//EN" "http://www.w3.org/Graphics/SVG/1.1/DTD/svg11.dtd" >
<svg xmlns="http://www.w3.org/2000/svg" xmlns:xlink="http://www.w3.org/1999/xlink" version="1.1">
<metadata>
Created by FontForge 20170731 at Wed Feb  1 19:38:00 2017
 By Aleksey,,,
Copyright 2011 The Podkova Project Authors (contact@cyreal.org)
</metadata>
<defs>
<font id="Podkova-Medium" horiz-adv-x="0" >
  <font-face 
    font-family="Podkova Medium"
    font-weight="500"
    font-stretch="normal"
    units-per-em="1000"
    panose-1="0 0 6 0 0 0 0 0 0 0"
    ascent="800"
    descent="-200"
    x-height="434"
    cap-height="589"
    bbox="-410 -309 1304.37 980"
    underline-thickness="50"
    underline-position="-150"
    unicode-range="U+000D-FB02"
  />
<missing-glyph horiz-adv-x="966" 
d="M944 567l-64 -66l-1 1q-2 -237 -241 -399q0 -8 -4 -16t-14 -8l-12 -12q62 -22 95 -38q5 0 21 0.5t32 -4t30 -14.5q0 -4 -1.5 -5t-2.5 -2q-15 8 -24.5 11t-22.5 3l-11 -1q13 -7 21.5 -13t15.5 -17q-1 -5 -9 -6q-33 33 -64 32q-13 0 -21 -2t-17 -6t-13 -6q-1 1 -3 1.5
t-3 4.5q7 8 13 11t14.5 5.5t15.5 4.5q-19 11 -38.5 18t-23.5 8q-10 3 -17.5 6t-7.5 6q0 6 11 15q-7 0 -12.5 7t-6.5 12h-27q-30 0 -55 4q-10 -26 -27 -23q-12 -7 -15 -10q6 -4 33 -21t51 -36q7 -1 22 -3.5t27.5 -9t22.5 -20.5q0 -3 -2 -4.5t-3 -2.5q-13 12 -21.5 16t-27.5 7
q20 -12 27 -39q-2 -5 -8 -4q-12 19 -24.5 31.5t-28.5 15.5q-7 1 -20 1q-24 0 -50 -6q-3 4 -3 8q11 7 22.5 9t34.5 3q-17 14 -44 31q-31 19 -31 26q0 5 4.5 8t8.5 6q-8 8 -8 23l1 9q-54 29 -94.5 69t-65.5 75.5t-54 83.5q-11 3 -20 7q-63 21 -101.5 37t-64.5 37q-6 5 -6 11
q0 11 12 11l256 -22q85 17 119 23q118 23 160 35.5t58 36.5q30 53 61.5 75.5t74.5 22.5q24 0 47 -7v1l74 26q3 0 3 -2v-1l-25 -69l70 3q4 0 2 -3zM677 203.5q12 14.5 11 18.5q-5 5 -33 29q-28 23 -57 49l39 51q24 31 34 46q-22 19 -37 26l-74 -93q-57 46 -97 73
q-20 -23 -26 -39l91 -72l-72 -93q1 -4 15.5 -16t18.5 -11l78 88l93 -72q4 1 16 15.5z" />
    <glyph glyph-name="fi" unicode="fi" horiz-adv-x="684" 
d="M169 617.5q47 45.5 134 45.5q38 0 72 -11t57 -31l-33 -62q-38 32 -96 32q-44 0 -69 -30t-25 -84v-43h124v-70h-124v-294h90v-70h-261v70h84v294h-84v70h84v55q0 83 47 128.5zM406 434h172v-364h83v-70h-255v70h83v294h-83v70zM569 630.5q18 -17.5 18 -46.5q0 -28 -18 -46
t-46 -18t-45.5 17.5t-17.5 46.5t17.5 46.5t45.5 17.5t46 -17.5z" />
    <glyph glyph-name="fl" unicode="fl" horiz-adv-x="658" 
d="M635 70v-70h-256v70h84v484q-63 42 -130 42q-55 0 -89 -30t-34 -89v-43h124v-70h-124v-294h90v-70h-262v70h84v294h-84v70h84v55q0 52 27 94t75.5 66t109.5 24q63 0 116 -19.5t101 -59.5v-524h84z" />
    <glyph glyph-name=".notdef" horiz-adv-x="966" 
d="M944 567l-64 -66l-1 1q-2 -237 -241 -399q0 -8 -4 -16t-14 -8l-12 -12q62 -22 95 -38q5 0 21 0.5t32 -4t30 -14.5q0 -4 -1.5 -5t-2.5 -2q-15 8 -24.5 11t-22.5 3l-11 -1q13 -7 21.5 -13t15.5 -17q-1 -5 -9 -6q-33 33 -64 32q-13 0 -21 -2t-17 -6t-13 -6q-1 1 -3 1.5
t-3 4.5q7 8 13 11t14.5 5.5t15.5 4.5q-19 11 -38.5 18t-23.5 8q-10 3 -17.5 6t-7.5 6q0 6 11 15q-7 0 -12.5 7t-6.5 12h-27q-30 0 -55 4q-10 -26 -27 -23q-12 -7 -15 -10q6 -4 33 -21t51 -36q7 -1 22 -3.5t27.5 -9t22.5 -20.5q0 -3 -2 -4.5t-3 -2.5q-13 12 -21.5 16t-27.5 7
q20 -12 27 -39q-2 -5 -8 -4q-12 19 -24.5 31.5t-28.5 15.5q-7 1 -20 1q-24 0 -50 -6q-3 4 -3 8q11 7 22.5 9t34.5 3q-17 14 -44 31q-31 19 -31 26q0 5 4.5 8t8.5 6q-8 8 -8 23l1 9q-54 29 -94.5 69t-65.5 75.5t-54 83.5q-11 3 -20 7q-63 21 -101.5 37t-64.5 37q-6 5 -6 11
q0 11 12 11l256 -22q85 17 119 23q118 23 160 35.5t58 36.5q30 53 61.5 75.5t74.5 22.5q24 0 47 -7v1l74 26q3 0 3 -2v-1l-25 -69l70 3q4 0 2 -3zM677 203.5q12 14.5 11 18.5q-5 5 -33 29q-28 23 -57 49l39 51q24 31 34 46q-22 19 -37 26l-74 -93q-57 46 -97 73
q-20 -23 -26 -39l91 -72l-72 -93q1 -4 15.5 -16t18.5 -11l78 88l93 -72q4 1 16 15.5z" />
    <glyph glyph-name=".null" 
 />
    <glyph glyph-name="nonmarkingreturn" unicode="&#xd;" horiz-adv-x="248" 
 />
    <glyph glyph-name="NULL" 
 />
    <glyph glyph-name="NULL" 
 />
    <glyph glyph-name="space" unicode=" " horiz-adv-x="248" 
 />
    <glyph glyph-name="exclam" unicode="!" horiz-adv-x="215" 
d="M61 593h94l-16 -404h-65zM153.5 97.5q20.5 -20.5 20.5 -47.5t-20 -46.5t-47 -19.5q-28 0 -47.5 19.5t-19.5 46.5t20 47.5t47 20.5q26 0 46.5 -20.5z" />
    <glyph glyph-name="quotedbl" unicode="&#x22;" horiz-adv-x="342" 
d="M55 593h87l-21 -189h-45zM200 593h87l-21 -189h-45z" />
    <glyph glyph-name="numbersign" unicode="#" horiz-adv-x="605" 
d="M258 589h70l-53 -192h128l54 192h70l-53 -192h123v-63h-141l-42 -153h149v-63h-166l-51 -187h-71l50 187h-127l-51 -187h-72l52 187h-119v63h136l43 153h-145v63h162zM258 334l-43 -153h128l42 153h-127z" />
    <glyph glyph-name="dollar" unicode="$" horiz-adv-x="454" 
d="M189 67v189q-72 10 -114 52t-42 106q0 68 41 108t115 46v90h70v-90q46 -3 74 -11t61 -26l16 -118l-68 -7l-13 76q-30 15 -70 18v-182l22 -3q144 -20 144 -145q0 -160 -167 -171v-82h-69v83q-48 4 -80 14.5t-65 23.5l-17 109l69 8l11 -67q41 -16 82 -21zM104 418
q0 -75 85 -89v172q-85 -9 -85 -83zM348 162q0 38 -23 59.5t-67 24.5v-179q90 15 90 95z" />
    <glyph glyph-name="percent" unicode="%" horiz-adv-x="780" 
d="M328 432q0 -177 -135 -177t-135 177t135 177t135 -177zM490 608h77l-286 -629h-78zM146 515q-17 -23 -17 -83t17 -83t47 -23t47 23t17 83t-17 83t-47 23t-47 -23zM686.5 294.5q35.5 -41.5 35.5 -135.5q0 -176 -135 -176t-135 176q0 177 135 177q64 0 99.5 -41.5z
M540 242.5q-17 -23.5 -17 -83.5t17 -83t47 -23t47 23t17 83t-17 83.5t-47 23.5t-47 -23.5z" />
    <glyph glyph-name="ampersand" unicode="&#x26;" horiz-adv-x="713" 
d="M261 -20q-47 0 -94.5 16.5t-81 57.5t-33.5 109q0 47 19.5 82t50 59t75.5 50q-55 76 -55 130q0 70 40 97.5t93 27.5q57 0 95 -29.5t38 -84.5q0 -47 -28 -81t-79 -70q60 -70 161 -150q31 68 54 187l117 37l22 -68l-73 -25l-6 -20q-15 -51 -27.5 -87t-29.5 -70
q83 -63 148 -105l-38 -65l-22 16q-50 34 -126 91q-81 -105 -220 -105zM222 485q0 -39 39 -95q34 23 52.5 45.5t18.5 53.5t-13 45.5t-43 14.5q-54 0 -54 -64zM166 237q-26 -32 -26 -74q0 -43 22.5 -69t51.5 -36.5t51 -10.5q52 0 90.5 21.5t68.5 61.5q-114 89 -186 171
q-46 -32 -72 -64z" />
    <glyph glyph-name="quotesingle" unicode="'" horiz-adv-x="197" 
d="M53 593h95l-15 -209h-66z" />
    <glyph glyph-name="parenleft" unicode="(" horiz-adv-x="228" 
d="M131.5 435q-28.5 -93 -28.5 -172q0 -78 28.5 -171t104.5 -168l-44 -56q-46 30 -87 90t-66.5 140t-25.5 165t25.5 165.5t66.5 140.5t87 90l44 -56q-76 -75 -104.5 -168z" />
    <glyph glyph-name="parenright" unicode=")" horiz-adv-x="228" 
d="M123 569q41 -60 66.5 -140.5t25.5 -165.5t-25.5 -165t-66.5 -140t-87 -90l-44 56q76 75 104.5 168t28.5 171q0 79 -28.5 172t-104.5 168l44 56q46 -30 87 -90z" />
    <glyph glyph-name="asterisk" unicode="*" horiz-adv-x="416" 
d="M162 653h85l-10 -146l139 57l28 -82l-146 -36l94 -112l-70 -52l-76 123l-77 -123l-71 50l97 115l-142 34l26 83l134 -56z" />
    <glyph glyph-name="plus" unicode="+" horiz-adv-x="474" 
d="M195 488h84v-146h145v-76h-145v-145h-84v145h-145v76h145v146z" />
    <glyph glyph-name="comma" unicode="," horiz-adv-x="218" 
d="M53 -93q5 7 21 32t26 47q-27 4 -42.5 21.5t-15.5 40.5q0 29 19.5 47.5t49.5 18.5q29 0 50.5 -21.5t21.5 -50.5q1 -72 -94 -167z" />
    <glyph glyph-name="hyphen" unicode="-" horiz-adv-x="403" 
d="M45 267h313v-75h-313v75z" />
    <glyph glyph-name="period" unicode="." horiz-adv-x="230" 
d="M161.5 97.5q20.5 -20.5 20.5 -47.5t-20 -46.5t-47 -19.5q-28 0 -47.5 19.5t-19.5 46.5t20 47.5t47 20.5q26 0 46.5 -20.5z" />
    <glyph glyph-name="slash" unicode="/" horiz-adv-x="360" 
d="M301 589h85l-327 -720h-85z" />
    <glyph glyph-name="zero" unicode="0" horiz-adv-x="598" 
d="M476.5 533q63.5 -72 63.5 -239q0 -166 -64 -238t-177 -72q-114 0 -177 72t-63 238q0 168 63 239.5t177 71.5t177.5 -72zM192.5 477.5q-37.5 -49.5 -37.5 -183.5q0 -133 38 -182.5t106 -49.5q69 0 107 49.5t38 182.5q0 134 -38 183.5t-107 49.5t-106.5 -49.5z" />
    <glyph glyph-name="one" unicode="1" horiz-adv-x="494" 
d="M258 593h56l-1 -515h154v-78h-407v78h164l1 383l-136 -112l-50 62z" />
    <glyph glyph-name="two" unicode="2" horiz-adv-x="545" 
d="M34 81q53 49 134 116q15 13 54 46t64 58q37 35 55 66t18 64q0 46 -31.5 71.5t-79.5 25.5q-36 0 -73.5 -16t-67.5 -44l-56 54q43 44 95.5 65.5t108.5 21.5q55 0 100.5 -21t72.5 -60t27 -92q0 -44 -29 -88.5t-83 -94.5q-36 -35 -124 -107q-17 -14 -37.5 -31t-43.5 -37h255
l51 81l64 -35l-72 -124h-376z" />
    <glyph glyph-name="three" unicode="3" horiz-adv-x="512" 
d="M321.5 369.5q27.5 27.5 27.5 72.5q0 39 -29.5 62.5t-78.5 23.5q-39 0 -76.5 -15t-61.5 -39l-59 57q35 36 87.5 55t114.5 19q89 0 142 -44t53 -116q0 -48 -27 -87t-71 -55q56 -11 91 -49t35 -91q0 -81 -60.5 -130t-160.5 -49q-71 0 -123 18t-92 54l56 65q42 -32 77 -45.5
t83 -13.5q56 0 90.5 27.5t34.5 73.5t-39.5 74t-104.5 28h-50v77h68q46 0 73.5 27.5z" />
    <glyph glyph-name="four" unicode="4" horiz-adv-x="555" 
d="M219 0v78h109v88h-303l-1 51l210 406l72 -41l-177 -341h199v253h90v-253l89 1v-76h-89v-88h85v-78h-284z" />
    <glyph glyph-name="five" unicode="5" horiz-adv-x="520" 
d="M283 396q85 0 139.5 -51t54.5 -143q0 -106 -59 -162t-168 -56q-59 0 -113 22t-90 63l64 51q27 -29 63.5 -44.5t78.5 -15.5q64 0 97.5 34.5t33.5 98.5q0 60 -37 94t-91 34q-33 0 -65.5 -14t-58.5 -41l-53 24v299h354v-79h-265v-148q52 34 115 34z" />
    <glyph glyph-name="six" unicode="6" horiz-adv-x="555" 
d="M327 528q-89 0 -130.5 -66t-43.5 -157q25 29 67.5 48.5t91.5 19.5q87 0 143.5 -44.5t56.5 -149.5q0 -43 -20 -87.5t-69.5 -76t-132.5 -31.5q-231 0 -231 306q0 88 32.5 160t93 113.5t140.5 41.5q38 0 71.5 -9.5t56 -20.5t28.5 -16l-36 -66q-70 35 -118 35zM214 281
q-41 -18 -59 -49q7 -100 45.5 -136t96.5 -36q40 0 67.5 17.5t41.5 45t14 56.5q0 59 -29 89.5t-85 30.5q-51 0 -92 -18z" />
    <glyph glyph-name="seven" unicode="7" horiz-adv-x="510" 
d="M337.5 266q-50.5 -143 -54.5 -266h-91q22 254 185 511h-254l-15 -64l-78 17l23 125h440v-50q-105 -130 -155.5 -273z" />
    <glyph glyph-name="eight" unicode="8" horiz-adv-x="536" 
d="M411.5 560.5q57.5 -44.5 57.5 -125.5q0 -43 -27 -80.5t-73 -50.5q50 -10 81 -50t31 -91q0 -59 -29 -99t-77.5 -60t-106.5 -20t-106.5 20t-77.5 60t-29 99q0 51 30.5 91.5t81.5 49.5q-46 13 -73 50.5t-27 80.5q0 81 56.5 125.5t143.5 44.5t144.5 -44.5zM189.5 503.5
q-28.5 -26.5 -28.5 -68.5t28.5 -69.5t78.5 -27.5t78.5 27.5t28.5 69.5t-28.5 68.5t-78.5 26.5t-78.5 -26.5zM181 237q-30 -29 -30 -74q0 -46 32.5 -75t84.5 -29t84.5 29t32.5 75q0 45 -30 74t-87 29t-87 -29z" />
    <glyph glyph-name="nine" unicode="9" horiz-adv-x="554" 
d="M247 61q84 0 120.5 58.5t40.5 145.5q-26 -30 -68 -50.5t-91 -20.5q-87 0 -143.5 48.5t-56.5 161.5q0 45 20 90.5t69.5 78t132.5 32.5q117 0 176 -78t59 -229q0 -114 -38.5 -184t-98.5 -100t-127 -30q-57 0 -101 17t-61 29l37 66q70 -35 130 -35zM172.5 490.5
q-31.5 -38.5 -31.5 -96.5q0 -56 29.5 -91t83.5 -35q56 0 95.5 21t57.5 56q-6 109 -44.5 146.5t-98.5 37.5t-91.5 -38.5z" />
    <glyph glyph-name="colon" unicode=":" horiz-adv-x="216" 
d="M155 428q20 -20 20 -47t-20 -47t-47 -20q-28 0 -47.5 20t-19.5 47t19.5 47t47.5 20q27 0 47 -20zM155 97.5q20 -20.5 20 -47.5t-20 -46.5t-47 -19.5q-28 0 -47.5 19.5t-19.5 46.5t20 47.5t47 20.5t47 -20.5z" />
    <glyph glyph-name="semicolon" unicode=";" horiz-adv-x="215" 
d="M154 428q20 -20 20 -47t-20 -47t-47 -20q-28 0 -47.5 20t-19.5 47t19.5 47t47.5 20q27 0 47 -20zM72 -60.5q16 25.5 26 47.5q-27 3 -42.5 20.5t-15.5 40.5q0 30 19.5 48t49.5 18q29 0 50.5 -21.5t21.5 -50.5q1 -72 -94 -167l-36 32q5 7 21 32.5z" />
    <glyph glyph-name="less" unicode="&#x3c;" horiz-adv-x="474" 
d="M398 523l35 -71l-285 -139v-5l285 -152l-36 -71l-356 195v67z" />
    <glyph glyph-name="equal" unicode="=" horiz-adv-x="474" 
d="M50 349v76h374v-76h-374zM50 189v76h374v-76h-374z" />
    <glyph glyph-name="greater" unicode="&#x3e;" horiz-adv-x="474" 
d="M76 523l357 -176v-67l-356 -195l-36 71l285 152v5l-285 139z" />
    <glyph glyph-name="question" unicode="?" horiz-adv-x="377" 
d="M90.5 593.5q46.5 11.5 95.5 11.5q86 0 136 -38.5t50 -102.5q0 -43 -25.5 -73t-82.5 -61q-49 -25 -65 -39.5t-16 -32.5q0 -12 9 -23.5t29 -24.5l-46 -49q-43 25 -58 49.5t-15 52.5q0 37 21.5 61t77.5 55q36 20 53 33t23 25.5t6 30.5q0 29 -28.5 47.5t-75.5 18.5
q-46 0 -89 -18l-13 -84l-73 8l17 125q23 17 69.5 28.5zM228 97.5q20 -20.5 20 -47.5q0 -26 -19.5 -46t-47.5 -20q-27 0 -47 19.5t-20 46.5q0 28 20 48t47 20t47 -20.5z" />
    <glyph glyph-name="at" unicode="@" horiz-adv-x="762" 
d="M519 -79q-22 -12 -57.5 -22.5t-80.5 -10.5q-103 0 -174.5 42t-107 115.5t-35.5 167.5q0 76 35 151.5t108.5 125t181.5 49.5q99 0 170.5 -43t107.5 -114.5t36 -155.5q0 -61 -21 -105.5t-55 -68t-72 -23.5q-52 0 -87 44q-15 -15 -33.5 -27t-53.5 -12q-63 0 -104.5 41.5
t-41.5 125.5q0 86 47 127.5t118 41.5q37 0 69.5 -13.5t47.5 -24.5v-220q6 -9 16 -14.5t23 -5.5q27 0 46.5 31.5t19.5 101.5q0 66 -24 121t-76 89t-133 34q-68 0 -122 -31.5t-85.5 -89.5t-31.5 -135q0 -135 66 -195t167 -60q37 0 71 11t50 19l37 -53q0 -2 -22 -14zM428 301.5
q-14 4.5 -29 4.5q-41 0 -62 -25.5t-21 -80.5q0 -51 20.5 -77t51.5 -26q37 0 47.5 12.5t11.5 13.5v172q-5 2 -19 6.5z" />
    <glyph glyph-name="A" unicode="A" horiz-adv-x="659" 
d="M9 0v78h97l162 433h-97v78h204l181 -511h94v-78h-248v78h61l-32 90h-211l-33 -90h62v-78h-240zM246 239h160l-76 245z" />
    <glyph glyph-name="B" unicode="B" horiz-adv-x="566" 
d="M38 78h92v433h-92v78h257q110 0 167.5 -40t57.5 -115q0 -41 -21.5 -76.5t-58.5 -54.5q45 -16 72 -53t27 -89q0 -74 -50 -117.5t-148 -43.5h-303v78zM340 331q41 0 63 24t22 66q0 90 -119 90h-86v-180h120zM333 79q54 0 82.5 23.5t28.5 70.5q0 44 -27 67t-78 23h-119v-184
h113z" />
    <glyph glyph-name="C" unicode="C" horiz-adv-x="584" 
d="M400 522q-30 7 -68 7q-93 0 -143 -61.5t-50 -172.5q0 -112 50.5 -173.5t142.5 -61.5q58 0 113 22l20 82l76 -18l-26 -123q0 -1 -26.5 -11.5t-67 -19t-89.5 -8.5q-87 0 -152 37.5t-100.5 108t-35.5 167.5q0 93 35.5 162.5t100 107.5t149.5 38q59 0 101 -10.5t65 -23
t23 -14.5l24 -123l-76 -17l-21 90q-15 8 -45 15z" />
    <glyph glyph-name="D" unicode="D" horiz-adv-x="655" 
d="M531 508.5q81 -80.5 81 -223.5q0 -134 -79 -209.5t-219 -75.5h-276v78h92v433h-92v78h268q144 0 225 -80.5zM461 130.5q56 52.5 56 153.5q0 112 -53.5 169.5t-157.5 57.5h-86v-433h76q109 0 165 52.5z" />
    <glyph glyph-name="E" unicode="E" horiz-adv-x="593" 
d="M39 589h447l53 -160l-73 -25l-40 107h-204v-169h182v-78h-182l-1 -186h227l39 105l73 -25l-53 -158h-469v78h93l1 433h-93v78z" />
    <glyph glyph-name="F" unicode="F" horiz-adv-x="567" 
d="M39 589h446l54 -162l-73 -25l-40 109h-205v-174h162v-78h-163v-181h124v-78h-306v78h93l1 433h-93v78z" />
    <glyph glyph-name="G" unicode="G" horiz-adv-x="601" 
d="M441.5 0q-43.5 -16 -114.5 -16q-82 0 -146 35.5t-101 105.5t-37 170q0 94 36 164t101.5 108t153.5 38q115 0 188 -57l25 -114l-77 -18l-19 83q-26 16 -51 23.5t-64 7.5q-52 0 -97.5 -28t-73 -81.5t-27.5 -125.5q0 -117 53 -176t135 -59q44 0 72 8t58 28v122h-128v76h213
v-239q-56 -39 -99.5 -55z" />
    <glyph glyph-name="H" unicode="H" horiz-adv-x="720" 
d="M39 589h245v-78h-62l-1 -172h278l1 172h-62v78h244v-78h-92l-2 -433h93v-78h-244v78h62v184h-278l-1 -184h62v-78h-244v78h93l1 433h-93v78z" />
    <glyph glyph-name="I" unicode="I" horiz-adv-x="357" 
d="M39 589h280v-78h-93l-2 -433h95v-78h-281v78h97v433h-96v78z" />
    <glyph glyph-name="J" unicode="J" horiz-adv-x="518" 
d="M346 50q-53 -66 -152 -66q-62 0 -143 33l-27 130l77 18l21 -91q39 -16 71 -16q54 0 84.5 43.5t30.5 124.5l1 285h-130v78h311v-78h-91v-274q0 -121 -53 -187z" />
    <glyph glyph-name="K" unicode="K" horiz-adv-x="676" 
d="M38 589h243v-78h-62v-176h87l130 176h-67v78h250v-78h-92l-147 -197l162 -236h100v-78h-276v78h78l-122 180h-103v-180h62v-78h-243v78h92v433h-92v78z" />
    <glyph glyph-name="L" unicode="L" horiz-adv-x="555" 
d="M38 589h310v-78h-110l-2 -433h181l38 104l74 -25l-55 -157h-436v78h109l1 433h-110v78z" />
    <glyph glyph-name="M" unicode="M" horiz-adv-x="852" 
d="M41 589h233l158 -411l154 411h228v-78h-92v-433h92v-78h-246v78h64v438l-44 -131l-117 -314h-86l-126 319l-44 124l-3 -436h66v-78h-241v78h93l1 433h-90v78z" />
    <glyph glyph-name="N" unicode="N" horiz-adv-x="724" 
d="M39 589h232l243 -455v377h-82v78h265v-78h-96v-511h-108l-276 511l2 -433h84v-78h-265v78h94l-1 433h-92v78z" />
    <glyph glyph-name="O" unicode="O" horiz-adv-x="645" 
d="M467.5 567q63.5 -38 98.5 -108.5t35 -163.5q0 -94 -35 -164.5t-98 -108.5t-146 -38q-82 0 -145 38t-98 108.5t-35 164.5q0 93 34.5 163.5t97.5 108.5t145 38q83 0 146.5 -38zM187 467q-48 -61 -48 -172q0 -112 48 -173t135 -61q88 0 136.5 61t48.5 173q0 111 -48.5 172
t-136.5 61q-87 0 -135 -61z" />
    <glyph glyph-name="P" unicode="P" horiz-adv-x="547" 
d="M469.5 541.5q57.5 -47.5 57.5 -138.5q0 -93 -57.5 -141.5t-167.5 -48.5h-83v-135h114v-78h-295v78h91v433h-91v78h264q110 0 167.5 -47.5zM432 401q0 110 -131 110h-81v-222h81q131 0 131 112z" />
    <glyph glyph-name="Q" unicode="Q" horiz-adv-x="671" 
d="M322 -16q-82 0 -145 37.5t-98 108t-35 165.5t35 165t97.5 107.5t144.5 37.5q83 0 146.5 -37.5t98.5 -107.5t35 -165q0 -145 -79 -229l130 -76l-59 -73l-124 105q-62 -38 -147 -38zM185 468.5q-46 -60.5 -46 -173.5t46 -174t137 -61q92 0 138.5 61t46.5 174t-46.5 173.5
t-138.5 60.5q-91 0 -137 -60.5z" />
    <glyph glyph-name="R" unicode="R" horiz-adv-x="618" 
d="M590 78v-78h-155l-121 222h-5h-90v-144h60v-78h-241v78h91v433h-91v78h265q121 0 171.5 -45t50.5 -137q0 -71 -28.5 -114t-90.5 -60l91 -155h93zM400 322.5q30 21.5 30 83.5t-30.5 83.5t-97.5 21.5h-82v-210h82q68 0 98 21.5z" />
    <glyph glyph-name="S" unicode="S" horiz-adv-x="543" 
d="M62 22l-19 126l74 8l13 -75q34 -11 66.5 -16.5t76.5 -5.5q61 0 100 24.5t39 77.5q0 41 -22.5 67t-78.5 34l-75 11q-87 13 -133.5 57t-46.5 112q0 74 57 118.5t161 44.5q56 0 98 -7.5t91 -26.5l18 -130l-76 -8l-13 83q-48 16 -119 16q-63 0 -99 -22.5t-36 -63.5
q0 -40 26.5 -62t77.5 -30l87 -14q86 -12 128 -55.5t42 -111.5q0 -63 -31 -105.5t-82 -63t-111 -20.5q-114 0 -213 38z" />
    <glyph glyph-name="T" unicode="T" horiz-adv-x="591" 
d="M34 589h520v-174h-83v96h-131l-2 -433h92v-78h-274v78h92l1 433h-131v-96h-84v174z" />
    <glyph glyph-name="U" unicode="U" horiz-adv-x="681" 
d="M504.5 44.5q-55.5 -60.5 -167.5 -60.5q-109 0 -163 60.5t-54 169.5v297h-93v78h246v-78h-63v-322q0 -66 33.5 -98t93.5 -32q63 0 98 35t35 105v312h-62v78h245v-78h-93v-297q0 -109 -55.5 -169.5z" />
    <glyph glyph-name="V" unicode="V" horiz-adv-x="662" 
d="M5 589h252v-78h-64l100 -263l49 -151l45 145l96 269h-65v78h239v-78h-88l-178 -511h-99l-196 511h-91v78z" />
    <glyph glyph-name="W" unicode="W" horiz-adv-x="918" 
d="M2 589h251v-78h-62l78 -270l40 -142l29 138l79 277h103l70 -272l30 -142l39 142l84 269h-64v78h237v-78h-89l-161 -511h-104l-68 268l-31 133l-37 -136l-70 -265h-99l-162 511h-93v78z" />
    <glyph glyph-name="X" unicode="X" horiz-adv-x="674" 
d="M22 0v77h89l167 222l-170 212h-85v78h257v-78h-62l119 -149l114 149h-65v78h253v-78h-93l-158 -209l179 -225h91v-77h-269v77h70l-130 161l-123 -161h68v-77h-252z" />
    <glyph glyph-name="Y" unicode="Y" horiz-adv-x="654" 
d="M5 589h248v-78h-56l135 -189l147 189h-72v78h243v-78h-69l-208 -259l-1 -174h94v-78h-277v78h94l1 171l-197 262h-82v78z" />
    <glyph glyph-name="Z" unicode="Z" horiz-adv-x="543" 
d="M61 589h427v-58l-329 -453h238l38 104l75 -25l-53 -157h-414v63l325 448h-242l-19 -95l-74 11z" />
    <glyph glyph-name="bracketleft" unicode="[" horiz-adv-x="238" 
d="M56 655h185v-71h-99v-640h99v-71h-185v782z" />
    <glyph glyph-name="backslash" unicode="\" horiz-adv-x="360" 
d="M-26 589h84l328 -720h-85z" />
    <glyph glyph-name="bracketright" unicode="]" horiz-adv-x="237" 
d="M-3 655h184v-782h-184v71h99v640h-99v71z" />
    <glyph glyph-name="asciicircum" unicode="^" horiz-adv-x="474" 
d="M277 717l188 -288l-63 -47l-153 231h-7l-152 -231l-63 47l188 288h62z" />
    <glyph glyph-name="underscore" unicode="_" horiz-adv-x="597" 
d="M64 -18h469v-77h-469v77z" />
    <glyph glyph-name="grave" unicode="`" horiz-adv-x="288" 
d="M199 491l-151 169l64 48l127 -188z" />
    <glyph glyph-name="a" unicode="a" horiz-adv-x="532" 
d="M213 -16q-87 0 -132 35t-45 102q0 65 43.5 98t127.5 33h124q0 128 -98 128q-47 0 -87 -12l-10 -54l-72 13l17 95q78 28 151 28q92 0 139.5 -49.5t47.5 -145.5v-172l92 -30l-23 -72l-133 46q-68 -43 -142 -43zM147.5 169q-21.5 -17 -21.5 -49q0 -66 91 -66q65 0 114 35v96
l-121 1q-41 0 -62.5 -17z" />
    <glyph glyph-name="b" unicode="b" horiz-adv-x="525" 
d="M154 -2q-50 14 -88 42v511l-96 33l24 71l159 -54v-183q58 32 114 32q109 0 162 -55t53 -168q0 -124 -54.5 -183.5t-167.5 -59.5q-56 0 -106 14zM359.5 98q32.5 42 32.5 129q0 77 -31 114t-95 37q-56 0 -113 -36v-264q43 -22 106 -22q68 0 100.5 42z" />
    <glyph glyph-name="c" unicode="c" horiz-adv-x="477" 
d="M271 382q-67 0 -104 -42t-37 -124q0 -75 40 -117t101 -42q67 0 129 43l37 -54q-45 -33 -81 -47.5t-93 -14.5q-101 0 -162 62t-61 170q0 75 29.5 128t82 80.5t120.5 27.5q36 0 69 -7t83 -23l17 -114l-73 -16l-13 77q-42 13 -84 13z" />
    <glyph glyph-name="d" unicode="d" horiz-adv-x="570" 
d="M395 27q-29 -20 -63.5 -31.5t-67.5 -11.5q-106 0 -164.5 63.5t-58.5 177.5q0 106 58.5 165.5t164.5 59.5q55 0 106 -20v121l-96 33l24 71l160 -54v-515l91 -32l-23 -73zM317 65q29 9 53 24v266q-22 10 -50.5 16.5t-54.5 6.5q-60 0 -97 -42t-37 -110q0 -77 37 -123.5
t97 -46.5q23 0 52 9z" />
    <glyph glyph-name="e" unicode="e" horiz-adv-x="499" 
d="M368.5 0.5q-43.5 -16.5 -94.5 -16.5q-109 0 -172.5 62.5t-63.5 170.5q0 69 27.5 122t78 82t116.5 29q94 0 148.5 -58t54.5 -155q0 -22 -3 -43l-336 -2q4 -68 45.5 -102t102.5 -34q84 0 145 49l37 -53q-42 -35 -85.5 -51.5zM344 347.5q-31 33.5 -83 33.5t-90.5 -34
t-45.5 -88h251q-1 55 -32 88.5z" />
    <glyph glyph-name="f" unicode="f" horiz-adv-x="361" 
d="M169 617.5q47 45.5 134 45.5q38 0 72 -11t57 -31l-33 -62q-38 32 -96 32q-44 0 -69 -30t-25 -84v-43h124v-70h-124v-294h90v-70h-261v70h84v294h-84v70h84v55q0 83 47 128.5z" />
    <glyph glyph-name="g" unicode="g" horiz-adv-x="546" 
d="M418.5 2.5q41.5 -31.5 41.5 -91.5q0 -67 -59 -103t-159 -36q-55 0 -122 15.5t-97 33.5l32 67q39 -19 89.5 -30t97.5 -11q64 0 97.5 15t33.5 44q0 57 -97 57h-147v172q-47 19 -71.5 55.5t-24.5 88.5q0 79 54.5 125t147.5 46q74 0 122 -27l145 53l26 -76l-119 -25
q30 -36 30 -91q0 -79 -56 -123t-149 -44q-17 0 -25 1v-84h86q82 0 123.5 -31.5zM149.5 354.5q-29.5 -25.5 -29.5 -71.5q0 -43 31.5 -69.5t84.5 -26.5t84.5 26.5t31.5 69.5q0 46 -30 71.5t-86 25.5q-57 0 -86.5 -25.5z" />
    <glyph glyph-name="h" unicode="h" horiz-adv-x="611" 
d="M21 70h84v483l-95 33l23 70l160 -55v-192q64 41 135 41q89 0 132 -42.5t43 -130.5v-207h84v-70h-216v70h44v191q0 61 -24 88.5t-77 27.5q-30 0 -64 -9t-57 -23v-275h44v-70h-216v70z" />
    <glyph glyph-name="i" unicode="i" horiz-adv-x="315" 
d="M37 434h172v-364h83v-70h-255v70h83v294h-83v70zM200 630.5q18 -17.5 18 -46.5q0 -28 -18 -46t-46 -18t-45.5 17.5t-17.5 46.5t17.5 46.5t45.5 17.5t46 -17.5z" />
    <glyph glyph-name="j" unicode="j" horiz-adv-x="262" 
d="M185.5 -130.5q-9.5 -39.5 -49.5 -68.5t-125 -29q-14 0 -56 6l11 68q26 -2 45 -2q47 0 68 17.5t24.5 39t3.5 59.5v404h-84v70h172v-466q0 -59 -9.5 -98.5zM188 630.5q18 -17.5 18 -46.5q0 -28 -18 -46t-46 -18t-45.5 17.5t-17.5 46.5t17.5 46.5t45.5 17.5t46 -17.5z" />
    <glyph glyph-name="k" unicode="k" horiz-adv-x="561" 
d="M36 657l159 -55v-348h86l65 110h-52v70h219v-70h-82l-84 -140l95 -154h85v-70h-135l-112 184h-85v-114h42v-70h-214v70h84v484l-95 33z" />
    <glyph glyph-name="l" unicode="l" horiz-adv-x="304" 
d="M25 0v70h84v492l-99 24l20 72l167 -43v-545h84v-70h-256z" />
    <glyph glyph-name="m" unicode="m" horiz-adv-x="894" 
d="M43 70h84v276l-96 32l23 70l135 -46q28 22 65.5 35t72.5 13q98 0 142 -53q27 24 66 38.5t78 14.5q92 0 132.5 -41t40.5 -135v-204h85v-70h-216v70h43v191q0 63 -21 89.5t-72 26.5q-30 0 -59 -9.5t-45 -24.5v-273h43v-70h-175v70h44v191q0 63 -21.5 89.5t-72.5 26.5
q-30 0 -59 -9.5t-45 -24.5v-273h44v-70h-216v70z" />
    <glyph glyph-name="n" unicode="n" horiz-adv-x="632" 
d="M43 70h84v275l-96 33l23 70l135 -47q74 49 158 49q79 0 128.5 -46t49.5 -128v-206h83v-70h-215v70h44v190q0 58 -28.5 87t-78.5 29q-27 0 -57.5 -9t-57.5 -25v-272h44v-70h-216v70z" />
    <glyph glyph-name="o" unicode="o" horiz-adv-x="530" 
d="M428.5 387.5q61.5 -62.5 61.5 -171.5q0 -108 -61 -170t-165 -62q-101 0 -161.5 62t-60.5 170q0 109 60.5 171.5t161.5 62.5q103 0 164.5 -62.5zM165 336q-34 -42 -34 -120t34 -119t100 -41q67 0 101.5 41t34.5 119t-34.5 120t-101.5 42q-66 0 -100 -42z" />
    <glyph glyph-name="p" unicode="p" horiz-adv-x="571" 
d="M30 -142h84v491l-94 31l23 72l136 -47q33 21 68 33t67 12q101 0 159 -59.5t58 -162.5q0 -72 -28 -127.5t-78.5 -86t-116.5 -30.5q-56 0 -106 15v-141h84v-69h-256v69zM405.5 100.5q35.5 45.5 35.5 127.5q0 74 -32.5 112t-96.5 38q-31 0 -61.5 -10.5t-48.5 -26.5v-263
q17 -10 46 -16.5t59 -6.5q63 0 98.5 45.5z" />
    <glyph glyph-name="q" unicode="q" horiz-adv-x="523" 
d="M283 -142h87v156q-25 -14 -54 -22t-55 -8q-104 0 -162 64t-58 178q0 105 63 164.5t170 59.5q54 0 101.5 -14.5t83.5 -42.5v-535h80v-69h-256v69zM319 65q29 9 51 24v263q-45 26 -106 26q-60 0 -96.5 -41.5t-36.5 -109.5q0 -77 36.5 -124t96.5 -47q26 0 55 9z" />
    <glyph glyph-name="r" unicode="r" horiz-adv-x="433" 
d="M270.5 437q42.5 13 83.5 13q33 0 47 -6l17 -110l-73 -15l-10 55q-31 -1 -62.5 -10t-56.5 -25l-1 -269h98v-70h-269v70h84v274l-96 33l23 70l137 -47q36 24 78.5 37z" />
    <glyph glyph-name="s" unicode="s" horiz-adv-x="454" 
d="M272.5 380q-19.5 4 -47.5 4q-40 0 -68 -16.5t-28 -44.5q0 -56 91 -65l47 -6q78 -8 113 -40t35 -88q0 -64 -52 -102t-133 -38q-50 0 -95.5 12t-81.5 33l-18 102l77 17l13 -66q46 -25 101 -25q46 0 77.5 17t31.5 48q0 28 -19 40.5t-67 18.5l-48 6q-73 9 -112.5 43.5
t-39.5 86.5q0 63 51.5 98.5t124.5 35.5q89 0 157 -38l18 -95l-69 -15l-17 64q-22 9 -41.5 13z" />
    <glyph glyph-name="t" unicode="t" horiz-adv-x="374" 
d="M147.5 23.5q-40.5 39.5 -40.5 129.5v211h-83v70h83v94l86 22v-116h124v-70h-124v-171q0 -70 15 -105.5t54 -35.5q16 0 31.5 4.5t37.5 14.5l17 -64q-56 -23 -94 -23q-66 0 -106.5 39.5z" />
    <glyph glyph-name="u" unicode="u" horiz-adv-x="617" 
d="M365 -4q-40 -12 -75 -12q-95 0 -139.5 42t-44.5 131v207h-83v70h171v-260q0 -61 24 -88.5t77 -27.5q30 0 64 9t57 23v274h-83v70h171v-348l92 -31l-23 -74l-136 47q-32 -20 -72 -32z" />
    <glyph glyph-name="v" unicode="v" horiz-adv-x="581" 
d="M3 434h219v-70h-48l84 -199l36 -88l36 88l84 199h-47v70h211v-70h-74l-164 -364h-98l-159 364h-80v70z" />
    <glyph glyph-name="w" unicode="w" horiz-adv-x="755" 
d="M201 0l-119 364h-79v70h230v-70h-63l51 -166l32 -105l30 103l54 176h87l55 -180l30 -101l29 97l56 176h-56v70h214v-70h-79l-120 -364h-89l-84 268l-88 -268h-91z" />
    <glyph glyph-name="x" unicode="x" horiz-adv-x="599" 
d="M27 0v70h87l128 150l-139 144h-76v70h233v-70h-49l97 -103l86 103h-42v70h208v-70h-75l-128 -151l139 -143h82v-70h-234v70h45l-97 101l-87 -101h43v-70h-221z" />
    <glyph glyph-name="y" unicode="y" horiz-adv-x="558" 
d="M556 434v-70h-74l-168 -450q-27 -71 -67 -107t-96 -36q-34 0 -72 13l15 68q32 -10 52 -10q28 0 45 9.5t31.5 34.5t32.5 75l3 10l-184 393h-72v70h218v-70h-56l129 -297l106 297h-54l1 70h210z" />
    <glyph glyph-name="z" unicode="z" horiz-adv-x="464" 
d="M44 0v60l263 304h-190l-11 -56l-75 15l21 111h358v-57l-265 -307h200l10 61l77 -14l-23 -117h-365z" />
    <glyph glyph-name="braceleft" unicode="{" horiz-adv-x="244" 
d="M76.5 308.5q4.5 21.5 4.5 57.5v113q0 80 37.5 123.5t120.5 49.5l9 -71q-52 -6 -70.5 -35t-18.5 -83v-121q0 -63 -53 -87q53 -22 53 -86v-113q0 -54 18.5 -83.5t70.5 -35.5l-9 -70q-83 6 -120.5 49.5t-37.5 123.5v105q0 36 -4.5 57.5t-22.5 21.5h-67v63h67q18 0 22.5 21.5
z" />
    <glyph glyph-name="bar" unicode="|" horiz-adv-x="297" 
d="M108 653h80v-864h-80v864z" />
    <glyph glyph-name="braceright" unicode="}" horiz-adv-x="245" 
d="M168.5 203q-4.5 -21 -4.5 -58v-105q0 -80 -37.5 -123.5t-120.5 -49.5l-10 70q53 6 71 35t18 84v113q0 64 54 86q-54 24 -54 87v121q0 54 -18 83t-71 35l10 71q83 -6 120.5 -49.5t37.5 -123.5v-113q0 -36 4.5 -57.5t22.5 -21.5h67v-63h-67q-18 0 -22.5 -21z" />
    <glyph glyph-name="asciitilde" unicode="~" horiz-adv-x="474" 
d="M43 303q35 27 61 39t59 12q22 0 42 -6t45 -18q22 -9 37 -14t31 -5q18 0 35 6.5t39 26.5l39 -55q-44 -32 -65.5 -42t-57.5 -10q-15 0 -29 5t-40 16q-23 10 -38.5 15.5t-31.5 5.5q-23 0 -41 -7.5t-43 -24.5z" />
    <glyph glyph-name="uni00A0" unicode="&#xa0;" horiz-adv-x="248" 
 />
    <glyph glyph-name="exclamdown" unicode="&#xa1;" horiz-adv-x="215" 
d="M154 425.5q20 -19.5 20 -47.5q0 -27 -20 -47t-47 -20q-28 0 -47.5 20t-19.5 47q0 28 19.5 47.5t47.5 19.5q27 0 47 -19.5zM74 240h66l15 -443h-93z" />
    <glyph glyph-name="cent" unicode="&#xa2;" horiz-adv-x="437" 
d="M302 449.5q-13 3.5 -25 3.5v-319q26 4 55.5 16t49.5 26l37 -54q-77 -51 -142 -60v-94h-73v95q-86 13 -134 73.5t-48 155.5q0 94 48.5 155.5t133.5 74.5v97h73v-95q33 -2 64 -9t46 -15l22 -113l-73 -16l-13 70q-8 5 -21 8.5zM134 397q-24 -40 -24 -105q0 -132 94 -156v313
q-46 -12 -70 -52z" />
    <glyph glyph-name="sterling" unicode="&#xa3;" horiz-adv-x="543" 
d="M522 32q-25 -21 -62 -34.5t-69 -13.5q-33 0 -55.5 6t-56.5 18q-28 11 -44.5 15.5t-38.5 4.5q-33 0 -63 -10.5t-65 -33.5l-43 58q56 38 82 81t26 99q0 19 -3 40h-91v63h80q-6 41 -6 74q0 101 51.5 154t151.5 53q49 0 83.5 -10t82.5 -38l21 -133l-70 -11l-22 101
q-22 14 -45 19.5t-56 5.5q-53 0 -83 -35.5t-30 -106.5q0 -35 7 -73h164v-63h-153q4 -23 4 -46q0 -39 -17 -68.5t-59 -68.5l2 -3q37 24 86 24q23 0 42.5 -5t44.5 -15q26 -9 42.5 -13.5t35.5 -4.5q22 0 44.5 8.5t41.5 24.5z" />
    <glyph glyph-name="currency" unicode="&#xa4;" horiz-adv-x="503" 
d="M41 155l67 44q-30 42 -30 95q0 52 31 98l-67 45l40 60l82 -56q38 22 86 22t87 -21l81 55l40 -59l-65 -44q33 -43 33 -100q0 -55 -30 -96l63 -42l-41 -60l-79 53q-39 -21 -88 -21q-50 0 -88 22l-81 -55zM324.5 221q29.5 30 29.5 73q0 44 -29.5 74.5t-73.5 30.5
q-42 0 -72 -31t-30 -74t30 -73t72 -30q44 0 73.5 30z" />
    <glyph glyph-name="yen" unicode="&#xa5;" horiz-adv-x="661" 
d="M192 0v78h94v55h-159v60h159v42h-159v60h140l-177 216h-82v78h248v-78h-54l135 -173l128 173h-55v78h243v-78h-93l-166 -216h140v-60h-158v-42h158v-60h-158l-1 -55h94v-78h-277z" />
    <glyph glyph-name="brokenbar" unicode="&#xa6;" horiz-adv-x="296" 
d="M108 658h80v-360h-80v360zM108 146h80v-358h-80v358z" />
    <glyph glyph-name="section" unicode="&#xa7;" horiz-adv-x="520" 
d="M386 155q48 -38 48 -99q0 -42 -25 -74.5t-67 -50.5t-92 -18q-99 0 -169 50l-15 90l69 14l12 -54q35 -30 102 -30q47 0 73 17.5t26 51.5q0 28 -31 49t-96 40q-65 21 -101.5 57.5t-36.5 83.5q0 35 20 62.5t54 39.5q-61 41 -61 101q0 63 50 97.5t127 34.5q42 0 82.5 -13
t72.5 -36l14 -94l-75 -13l-12 67q-40 21 -82 21q-44 0 -69 -14t-25 -43q0 -47 111 -83q70 -22 109 -61.5t39 -91.5q0 -57 -52 -101zM332 186q22 25 22 57q0 34 -25.5 58.5t-86.5 43.5q-14 4 -38 14q-19 -9 -29 -25.5t-10 -37.5q0 -28 26.5 -49.5t85.5 -40.5q27 -8 55 -20z
" />
    <glyph glyph-name="dieresis" unicode="&#xa8;" horiz-adv-x="381" 
d="M140 598q18 -18 18 -42t-18 -41.5t-42 -17.5t-41.5 17.5t-17.5 41.5t17.5 42t41.5 18t42 -18zM321.5 598q17.5 -18 17.5 -42t-17.5 -41.5t-41.5 -17.5q-25 0 -42.5 17.5t-17.5 41.5t17.5 42t42.5 18q24 0 41.5 -18z" />
    <glyph glyph-name="copyright" unicode="&#xa9;" horiz-adv-x="847" 
d="M611 610.5q82 -46.5 128.5 -129.5t46.5 -188q0 -103 -46.5 -185.5t-128.5 -129t-186 -46.5t-187 47t-130 129t-47 185q0 105 47 188t130 129.5t187 46.5t186 -46.5zM270.5 548.5q-65.5 -39.5 -102 -108t-36.5 -152.5q0 -81 36.5 -146.5t102 -103t150.5 -37.5t152 37.5
t105 103.5t38 146q0 84 -38 152.5t-105 108t-152 39.5t-150.5 -39.5zM488.5 419.5q-14.5 6.5 -47.5 6.5q-61 0 -91.5 -35.5t-30.5 -95.5q0 -59 31.5 -95.5t90.5 -36.5q20 0 39.5 5.5t24.5 8.5l16 51l63 -19l-26 -84q-4 -2 -19.5 -8t-43 -12t-59.5 -6q-89 0 -141 50t-53 145
q0 94 52 145t142 51q35 0 62.5 -8t44.5 -17t17 -10l23 -78l-60 -18l-19 54q-1 0 -15.5 6.5z" />
    <glyph glyph-name="ordfeminine" unicode="&#xaa;" horiz-adv-x="365" 
d="M250 183q-49 -27 -93 -27q-52 0 -82.5 24.5t-30.5 63.5q0 43 29 63.5t80 20.5h73q0 40 -12 55.5t-45 15.5q-23 0 -49 -7l-8 -34l-52 10l11 63q51 19 96 19q75 0 98.5 -32.5t23.5 -89.5v-104l46 -16l-17 -52zM226 231v49h-71q-22 0 -34 -7.5t-12 -28.5q0 -17 14.5 -27
t36.5 -10q35 0 66 24z" />
    <glyph glyph-name="guillemotleft" unicode="&#xab;" horiz-adv-x="323" 
d="M151 436l57 -40l-126 -179l126 -179l-57 -40l-158 219zM254 365l59 -38l-73 -110l73 -110l-59 -38l-97 148z" />
    <glyph glyph-name="logicalnot" unicode="&#xac;" horiz-adv-x="474" 
d="M50 342h374v-216h-88v140h-286v76z" />
    <glyph glyph-name="uni00AD" unicode="&#xad;" horiz-adv-x="362" 
d="M46 315h270v-83h-270v83z" />
    <glyph glyph-name="registered" unicode="&#xae;" horiz-adv-x="657" 
d="M194 103q-60 34 -94 94t-34 134q0 75 34 135t94 94t134 34q75 0 135 -34t94 -94t34 -135t-34 -134.5t-94 -93.5t-135 -34q-74 0 -134 34zM431 150.5q46 26.5 71.5 73t25.5 103.5q0 59 -25.5 107t-71.5 75.5t-104 27.5t-103 -27.5t-70 -75.5t-25 -107q0 -57 25 -103.5
t70 -73t103 -26.5t104 26.5zM212 244h40v181h-40v45h124q57 0 80.5 -21t23.5 -67q0 -58 -50 -76l35 -62h45v-47h-79l-52 100h-35v-53h28v-47h-120v47zM337 343q23 0 36 8t13 30q0 26 -12.5 35t-38.5 9h-30v-82h32z" />
    <glyph glyph-name="macron" unicode="&#xaf;" horiz-adv-x="399" 
d="M47 597h309v-64h-309v64z" />
    <glyph glyph-name="degree" unicode="&#xb0;" horiz-adv-x="381" 
d="M265 578.5q31 -28.5 31 -77.5t-31 -77t-75 -28t-74.5 28t-30.5 77t30.5 77.5t74.5 28.5t75 -28.5zM154.5 542q-14.5 -15 -14.5 -41t14.5 -40.5t35.5 -14.5t35 14.5t14 40.5t-14 41t-35 15t-35.5 -15z" />
    <glyph glyph-name="plusminus" unicode="&#xb1;" horiz-adv-x="474" 
d="M195 488h84v-125h145v-76h-145v-105h-84v105h-145v76h145v125zM424 145v-76h-374v76h374z" />
    <glyph glyph-name="uni00B2" unicode="&#xb2;" horiz-adv-x="392" 
d="M27 293q9 6 27 16q78 47 114 72q75 54 75 106q0 24 -18.5 36.5t-47.5 12.5q-27 0 -56 -11t-52 -31l-47 49q38 32 73 46.5t78 14.5q68 0 109.5 -30.5t41.5 -83.5q0 -74 -101 -142q-34 -24 -112 -66h161l38 52l56 -34l-55 -82h-258z" />
    <glyph glyph-name="uni00B3" unicode="&#xb3;" horiz-adv-x="388" 
d="M232.5 453q18.5 14 18.5 37q0 22 -19.5 34.5t-53.5 12.5q-28 0 -56 -9t-46 -24l-45 48q27 25 65 37.5t82 12.5q69 0 109.5 -29t40.5 -75q0 -31 -20 -54.5t-53 -31.5q42 -9 66.5 -32t24.5 -57q0 -52 -44.5 -85t-116.5 -33q-52 0 -90.5 12.5t-71.5 38.5l44 58
q29 -22 55.5 -32.5t61.5 -10.5q38 0 60 15t22 39t-21.5 38.5t-60.5 14.5h-49v61h48q31 0 49.5 14z" />
    <glyph glyph-name="acute" unicode="&#xb4;" horiz-adv-x="288" 
d="M176 708l64 -48l-151 -169l-40 29z" />
    <glyph glyph-name="uni00B5" unicode="&#xb5;" horiz-adv-x="629" 
d="M136 -177.5q-36 46.5 -36 149.5v462h88v-221q0 -87 24 -122t79 -35q30 0 64.5 12.5t54.5 30.5v335h88v-347l92 -32l-23 -72l-136 47q-32 -21 -71 -33t-76 -12q-30 0 -57 10.5t-46 29.5v-56q0 -67 20 -95t64 -28q26 0 54 10l14 -68q-39 -12 -81 -12q-80 0 -116 46.5z" />
    <glyph glyph-name="paragraph" unicode="&#xb6;" horiz-adv-x="612" 
d="M93 330q-41 37 -41 114q0 70 44 107.5t118 37.5h360v-77h-92v-436h88v-76h-164v512h-71v-512h-172v76h97v217h-33q-93 0 -134 37z" />
    <glyph glyph-name="periodcentered" unicode="&#xb7;" horiz-adv-x="229" 
d="M161.5 267.5q19.5 -19.5 19.5 -47.5t-19.5 -47.5t-46.5 -19.5q-28 0 -47.5 19.5t-19.5 47.5t19.5 47.5t47.5 19.5q27 0 46.5 -19.5z" />
    <glyph glyph-name="cedilla" unicode="&#xb8;" horiz-adv-x="279" 
d="M71 -213.5q-26 12.5 -46 26.5l25 40q17 -12 40.5 -19.5t44.5 -7.5q52 0 52 35q0 18 -14 26t-48 8h-43v105h56v-60q113 2 113 -80q0 -41 -31 -63.5t-83 -22.5q-40 0 -66 12.5z" />
    <glyph glyph-name="uni00B9" unicode="&#xb9;" horiz-adv-x="368" 
d="M191 589h49l-2 -307h113v-64h-305v64h116l1 206l-99 -66l-35 48z" />
    <glyph glyph-name="ordmasculine" unicode="&#xba;" horiz-adv-x="370" 
d="M286.5 411.5q38.5 -38.5 38.5 -107.5q0 -67 -38.5 -106t-102.5 -39q-63 0 -101 38.5t-38 106.5q0 69 38 107.5t101 38.5q64 0 102.5 -38.5zM129.5 371q-19.5 -24 -19.5 -67t19.5 -66.5t55.5 -23.5t55.5 23.5t19.5 66.5t-19.5 67t-55.5 24t-55.5 -24z" />
    <glyph glyph-name="guillemotright" unicode="&#xbb;" horiz-adv-x="323" 
d="M171 436l159 -219l-159 -219l-55 40l125 179l-125 179zM68 365l98 -148l-98 -148l-58 38l74 110l-74 110z" />
    <glyph glyph-name="onequarter" unicode="&#xbc;" horiz-adv-x="950" 
d="M191 589h49l-2 -307h113v-64h-305v64h116l1 206l-99 -66l-35 48zM658 652h75l-440 -728h-76zM689 0v64h83v42h-221l-1 63l165 232l58 -42l-140 -189h139v127h77v-127h63v-64h-63v-42h61v-64h-221z" />
    <glyph glyph-name="onehalf" unicode="&#xbd;" horiz-adv-x="954" 
d="M191 589h49l-2 -307h113v-64h-305v64h116l1 206l-99 -66l-35 48zM658 652h75l-440 -728h-76zM589 75q9 6 27 16q78 47 114 72q75 54 75 106q0 24 -18.5 36.5t-47.5 12.5q-27 0 -56 -11t-52 -31l-47 49q38 32 73 46.5t78 14.5q68 0 109.5 -30.5t41.5 -83.5
q0 -74 -101 -142q-34 -24 -112 -66h161l38 52l56 -34l-55 -82h-258z" />
    <glyph glyph-name="threequarters" unicode="&#xbe;" horiz-adv-x="932" 
d="M232.5 453q18.5 14 18.5 37q0 22 -19.5 34.5t-53.5 12.5q-28 0 -56 -9t-46 -24l-45 48q27 25 65 37.5t82 12.5q69 0 109.5 -29t40.5 -75q0 -31 -20 -54.5t-53 -31.5q42 -9 66.5 -32t24.5 -57q0 -52 -44.5 -85t-116.5 -33q-52 0 -90.5 12.5t-71.5 38.5l44 58
q29 -22 55.5 -32.5t61.5 -10.5q38 0 60 15t22 39t-21.5 38.5t-60.5 14.5h-49v61h48q31 0 49.5 14zM640 652h75l-440 -728h-76zM671 0v64h83v42h-221l-1 63l165 232l58 -42l-140 -189h139v127h77v-127h63v-64h-63v-42h61v-64h-221z" />
    <glyph glyph-name="questiondown" unicode="&#xbf;" horiz-adv-x="377" 
d="M149 284.5q-20 20.5 -20 47.5t20 46.5t47 19.5t47 -19.5t20 -46.5q0 -28 -20 -48t-47 -20t-47 20.5zM286.5 -211.5q-46.5 -11.5 -95.5 -11.5q-86 0 -136 38.5t-50 102.5q0 43 25.5 73t82.5 61q49 25 65 39.5t16 32.5q0 12 -9 23.5t-29 24.5l46 49q43 -25 58 -49.5
t15 -52.5q0 -37 -21.5 -61t-77.5 -55q-36 -20 -53 -33t-23 -25.5t-6 -30.5q0 -29 28.5 -47.5t75.5 -18.5q46 0 89 18l13 84l73 -8l-17 -125q-23 -17 -69.5 -28.5z" />
    <glyph glyph-name="Agrave" unicode="&#xc0;" horiz-adv-x="659" 
d="M9 0v78h97l162 433h-97v78h204l181 -511h94v-78h-248v78h61l-32 90h-211l-33 -90h62v-78h-240zM246 239h160l-76 245zM142 771l244 -86l-11 -38l-253 45z" />
    <glyph glyph-name="Aacute" unicode="&#xc1;" horiz-adv-x="659" 
d="M9 0v78h97l162 433h-97v78h204l181 -511h94v-78h-248v78h61l-32 90h-211l-33 -90h62v-78h-240zM246 239h160l-76 245zM475 775l20 -79l-252 -45l-11 38z" />
    <glyph glyph-name="Acircumflex" unicode="&#xc2;" horiz-adv-x="659" 
d="M9 0v78h97l162 433h-97v78h204l181 -511h94v-78h-248v78h61l-32 90h-211l-33 -90h62v-78h-240zM246 239h160l-76 245zM322 783l174 -99l-22 -35l-152 57l-153 -57l-21 35z" />
    <glyph glyph-name="Atilde" unicode="&#xc3;" horiz-adv-x="659" 
d="M9 0v78h97l162 433h-97v78h204l181 -511h94v-78h-248v78h61l-32 90h-211l-33 -90h62v-78h-240zM246 239h160l-76 245zM173 716q35 24 57.5 33.5t55.5 9.5q21 0 38 -6t37 -17q17 -9 27.5 -13t23.5 -4q17 0 29.5 6.5t39.5 25.5l25 -58q-30 -26 -51.5 -35.5t-49.5 -9.5
q-15 0 -28.5 5.5t-31.5 15.5q-19 10 -32 15t-27 5q-21 0 -35.5 -4.5t-31 -12.5t-23.5 -11z" />
    <glyph glyph-name="Adieresis" unicode="&#xc4;" horiz-adv-x="659" 
d="M9 0v78h97l162 433h-97v78h204l181 -511h94v-78h-248v78h61l-32 90h-211l-33 -90h62v-78h-240zM246 239h160l-76 245zM273 767q18 -18 18 -42t-18 -41.5t-42 -17.5t-41.5 17.5t-17.5 41.5t17.5 42t41.5 18t42 -18zM454.5 767q17.5 -18 17.5 -42t-17.5 -41.5t-41.5 -17.5
q-25 0 -42.5 17.5t-17.5 41.5t17.5 42t42.5 18q24 0 41.5 -18z" />
    <glyph glyph-name="Aring" unicode="&#xc5;" horiz-adv-x="688" 
d="M650 78v-78h-248v78h61l-32 90h-211l-33 -90h62v-78h-240v78h97l162 433h-97v78h104q-27 25 -27 68q0 41 24.5 66t65.5 25q42 0 67 -25t25 -66q0 -29 -13.5 -50.5t-36.5 -32.5l176 -496h94zM308.5 687q-11.5 -12 -11.5 -30q0 -19 11.5 -30.5t29.5 -11.5q19 0 30.5 11.5
t11.5 30.5q0 18 -11.5 30t-30.5 12q-18 0 -29.5 -12zM246 239h160l-76 245z" />
    <glyph glyph-name="AE" unicode="&#xc6;" horiz-adv-x="925" 
d="M27 0v78h99l273 433h-101v78h518l55 -160l-75 -25l-39 107h-183v-177h161v-77h-162v-179h205l39 105l74 -25l-53 -158h-447v78h92v85h-214l-53 -85h57v-78h-246zM316 241h167l1 270z" />
    <glyph glyph-name="Ccedilla" unicode="&#xc7;" horiz-adv-x="584" 
d="M465 164l76 -18l-26 -123q-5 -3 -24 -10.5t-53 -16t-75 -11.5v-45q113 2 113 -80q0 -41 -31 -63.5t-83 -22.5q-40 0 -66 12.5t-46 26.5l25 40q17 -12 40.5 -19.5t44.5 -7.5q52 0 52 35q0 18 -14 26t-48 8h-43v90q-80 5 -139.5 44t-91.5 107.5t-32 160.5q0 93 35.5 162.5
t100 107.5t149.5 38q59 0 101 -10.5t65 -23t23 -14.5l24 -123l-76 -17l-21 90q-15 8 -45 15t-68 7q-93 0 -143 -61.5t-50 -172.5q0 -112 50.5 -173.5t142.5 -61.5q58 0 113 22z" />
    <glyph glyph-name="Egrave" unicode="&#xc8;" horiz-adv-x="593" 
d="M39 589h447l53 -160l-73 -25l-40 107h-204v-169h182v-78h-182l-1 -186h227l39 105l73 -25l-53 -158h-469v78h93l1 433h-93v78zM115 771l244 -86l-11 -38l-253 45z" />
    <glyph glyph-name="Eacute" unicode="&#xc9;" horiz-adv-x="593" 
d="M39 589h447l53 -160l-73 -25l-40 107h-204v-169h182v-78h-182l-1 -186h227l39 105l73 -25l-53 -158h-469v78h93l1 433h-93v78zM448 775l20 -79l-252 -45l-11 38z" />
    <glyph glyph-name="Ecircumflex" unicode="&#xca;" horiz-adv-x="593" 
d="M39 589h447l53 -160l-73 -25l-40 107h-204v-169h182v-78h-182l-1 -186h227l39 105l73 -25l-53 -158h-469v78h93l1 433h-93v78zM295 783l174 -99l-22 -35l-152 57l-153 -57l-21 35z" />
    <glyph glyph-name="Edieresis" unicode="&#xcb;" horiz-adv-x="593" 
d="M39 589h447l53 -160l-73 -25l-40 107h-204v-169h182v-78h-182l-1 -186h227l39 105l73 -25l-53 -158h-469v78h93l1 433h-93v78zM246 767q18 -18 18 -42t-18 -41.5t-42 -17.5t-41.5 17.5t-17.5 41.5t17.5 42t41.5 18t42 -18zM427.5 767q17.5 -18 17.5 -42t-17.5 -41.5
t-41.5 -17.5q-25 0 -42.5 17.5t-17.5 41.5t17.5 42t42.5 18q24 0 41.5 -18z" />
    <glyph glyph-name="Igrave" unicode="&#xcc;" horiz-adv-x="357" 
d="M39 589h280v-78h-93l-2 -433h95v-78h-281v78h97v433h-96v78zM-1 771l244 -86l-11 -38l-253 45z" />
    <glyph glyph-name="Iacute" unicode="&#xcd;" horiz-adv-x="357" 
d="M39 589h280v-78h-93l-2 -433h95v-78h-281v78h97v433h-96v78zM332 775l20 -79l-252 -45l-11 38z" />
    <glyph glyph-name="Icircumflex" unicode="&#xce;" horiz-adv-x="357" 
d="M39 589h280v-78h-93l-2 -433h95v-78h-281v78h97v433h-96v78zM179 783l174 -99l-22 -35l-152 57l-153 -57l-21 35z" />
    <glyph glyph-name="Idieresis" unicode="&#xcf;" horiz-adv-x="357" 
d="M39 589h280v-78h-93l-2 -433h95v-78h-281v78h97v433h-96v78zM130 767q18 -18 18 -42t-18 -41.5t-42 -17.5t-41.5 17.5t-17.5 41.5t17.5 42t41.5 18t42 -18zM311.5 767q17.5 -18 17.5 -42t-17.5 -41.5t-41.5 -17.5q-25 0 -42.5 17.5t-17.5 41.5t17.5 42t42.5 18
q24 0 41.5 -18z" />
    <glyph glyph-name="Eth" unicode="&#xd0;" horiz-adv-x="668" 
d="M545.5 519q79.5 -70 79.5 -234q0 -90 -38.5 -154t-106.5 -97.5t-153 -33.5h-276v78h92v189h-92v74h92v170h-92v78h268q147 0 226.5 -70zM475 128.5q55 50.5 55 155.5q0 90 -23.5 139.5t-69 68.5t-118.5 19h-86v-170h108v-74h-108v-189h76q111 0 166 50.5z" />
    <glyph glyph-name="Ntilde" unicode="&#xd1;" horiz-adv-x="724" 
d="M39 589h232l243 -455v377h-82v78h265v-78h-96v-511h-108l-276 511l2 -433h84v-78h-265v78h94l-1 433h-92v78zM214 716q35 24 57.5 33.5t55.5 9.5q21 0 38 -6t37 -17q17 -9 27.5 -13t23.5 -4q17 0 29.5 6.5t39.5 25.5l25 -58q-30 -26 -51.5 -35.5t-49.5 -9.5
q-15 0 -28.5 5.5t-31.5 15.5q-19 10 -32 15t-27 5q-21 0 -35.5 -4.5t-31 -12.5t-23.5 -11z" />
    <glyph glyph-name="Ograve" unicode="&#xd2;" horiz-adv-x="645" 
d="M467.5 567q63.5 -38 98.5 -108.5t35 -163.5q0 -94 -35 -164.5t-98 -108.5t-146 -38q-82 0 -145 38t-98 108.5t-35 164.5q0 93 34.5 163.5t97.5 108.5t145 38q83 0 146.5 -38zM187 467q-48 -61 -48 -172q0 -112 48 -173t135 -61q88 0 136.5 61t48.5 173q0 111 -48.5 172
t-136.5 61q-87 0 -135 -61zM142 771l244 -86l-11 -38l-253 45z" />
    <glyph glyph-name="Oacute" unicode="&#xd3;" horiz-adv-x="645" 
d="M467.5 567q63.5 -38 98.5 -108.5t35 -163.5q0 -94 -35 -164.5t-98 -108.5t-146 -38q-82 0 -145 38t-98 108.5t-35 164.5q0 93 34.5 163.5t97.5 108.5t145 38q83 0 146.5 -38zM187 467q-48 -61 -48 -172q0 -112 48 -173t135 -61q88 0 136.5 61t48.5 173q0 111 -48.5 172
t-136.5 61q-87 0 -135 -61zM475 775l20 -79l-252 -45l-11 38z" />
    <glyph glyph-name="Ocircumflex" unicode="&#xd4;" horiz-adv-x="645" 
d="M467.5 567q63.5 -38 98.5 -108.5t35 -163.5q0 -94 -35 -164.5t-98 -108.5t-146 -38q-82 0 -145 38t-98 108.5t-35 164.5q0 93 34.5 163.5t97.5 108.5t145 38q83 0 146.5 -38zM187 467q-48 -61 -48 -172q0 -112 48 -173t135 -61q88 0 136.5 61t48.5 173q0 111 -48.5 172
t-136.5 61q-87 0 -135 -61zM322 783l174 -99l-22 -35l-152 57l-153 -57l-21 35z" />
    <glyph glyph-name="Otilde" unicode="&#xd5;" horiz-adv-x="645" 
d="M467.5 567q63.5 -38 98.5 -108.5t35 -163.5q0 -94 -35 -164.5t-98 -108.5t-146 -38q-82 0 -145 38t-98 108.5t-35 164.5q0 93 34.5 163.5t97.5 108.5t145 38q83 0 146.5 -38zM187 467q-48 -61 -48 -172q0 -112 48 -173t135 -61q88 0 136.5 61t48.5 173q0 111 -48.5 172
t-136.5 61q-87 0 -135 -61zM173 716q35 24 57.5 33.5t55.5 9.5q21 0 38 -6t37 -17q17 -9 27.5 -13t23.5 -4q17 0 29.5 6.5t39.5 25.5l25 -58q-30 -26 -51.5 -35.5t-49.5 -9.5q-15 0 -28.5 5.5t-31.5 15.5q-19 10 -32 15t-27 5q-21 0 -35.5 -4.5t-31 -12.5t-23.5 -11z" />
    <glyph glyph-name="Odieresis" unicode="&#xd6;" horiz-adv-x="645" 
d="M467.5 567q63.5 -38 98.5 -108.5t35 -163.5q0 -94 -35 -164.5t-98 -108.5t-146 -38q-82 0 -145 38t-98 108.5t-35 164.5q0 93 34.5 163.5t97.5 108.5t145 38q83 0 146.5 -38zM187 467q-48 -61 -48 -172q0 -112 48 -173t135 -61q88 0 136.5 61t48.5 173q0 111 -48.5 172
t-136.5 61q-87 0 -135 -61zM273 767q18 -18 18 -42t-18 -41.5t-42 -17.5t-41.5 17.5t-17.5 41.5t17.5 42t41.5 18t42 -18zM454.5 767q17.5 -18 17.5 -42t-17.5 -41.5t-41.5 -17.5q-25 0 -42.5 17.5t-17.5 41.5t17.5 42t42.5 18q24 0 41.5 -18z" />
    <glyph glyph-name="multiply" unicode="&#xd7;" horiz-adv-x="474" 
d="M136 462l102 -102l104 103l54 -53l-104 -104l103 -103l-57 -56l-102 102l-105 -103l-53 53l104 104l-103 103z" />
    <glyph glyph-name="Oslash" unicode="&#xd8;" horiz-adv-x="645" 
d="M574 441.5q27 -64.5 27 -146.5q0 -94 -35 -164.5t-98 -108.5t-146 -38q-45 0 -86 12l-30 -65h-80l43 96q-59 39 -92 108t-33 160q0 93 34.5 163.5t97.5 108.5t145 38q63 0 114 -21l30 67h80l-48 -105q50 -40 77 -104.5zM187 467q-48 -61 -48 -172q0 -67 18 -116.5
t52 -78.5l189 414q-34 14 -76 14q-87 0 -135 -61zM458.5 122q48.5 61 48.5 173q0 115 -51 175l-183 -403q23 -6 49 -6q88 0 136.5 61z" />
    <glyph glyph-name="Ugrave" unicode="&#xd9;" horiz-adv-x="681" 
d="M504.5 44.5q-55.5 -60.5 -167.5 -60.5q-109 0 -163 60.5t-54 169.5v297h-93v78h246v-78h-63v-322q0 -66 33.5 -98t93.5 -32q63 0 98 35t35 105v312h-62v78h245v-78h-93v-297q0 -109 -55.5 -169.5zM160 771l244 -86l-11 -38l-253 45z" />
    <glyph glyph-name="Uacute" unicode="&#xda;" horiz-adv-x="681" 
d="M504.5 44.5q-55.5 -60.5 -167.5 -60.5q-109 0 -163 60.5t-54 169.5v297h-93v78h246v-78h-63v-322q0 -66 33.5 -98t93.5 -32q63 0 98 35t35 105v312h-62v78h245v-78h-93v-297q0 -109 -55.5 -169.5zM493 775l20 -79l-252 -45l-11 38z" />
    <glyph glyph-name="Ucircumflex" unicode="&#xdb;" horiz-adv-x="681" 
d="M504.5 44.5q-55.5 -60.5 -167.5 -60.5q-109 0 -163 60.5t-54 169.5v297h-93v78h246v-78h-63v-322q0 -66 33.5 -98t93.5 -32q63 0 98 35t35 105v312h-62v78h245v-78h-93v-297q0 -109 -55.5 -169.5zM340 783l174 -99l-22 -35l-152 57l-153 -57l-21 35z" />
    <glyph glyph-name="Udieresis" unicode="&#xdc;" horiz-adv-x="681" 
d="M504.5 44.5q-55.5 -60.5 -167.5 -60.5q-109 0 -163 60.5t-54 169.5v297h-93v78h246v-78h-63v-322q0 -66 33.5 -98t93.5 -32q63 0 98 35t35 105v312h-62v78h245v-78h-93v-297q0 -109 -55.5 -169.5zM291 767q18 -18 18 -42t-18 -41.5t-42 -17.5t-41.5 17.5t-17.5 41.5
t17.5 42t41.5 18t42 -18zM472.5 767q17.5 -18 17.5 -42t-17.5 -41.5t-41.5 -17.5q-25 0 -42.5 17.5t-17.5 41.5t17.5 42t42.5 18q24 0 41.5 -18z" />
    <glyph glyph-name="Yacute" unicode="&#xdd;" horiz-adv-x="654" 
d="M5 589h248v-78h-56l135 -189l147 189h-72v78h243v-78h-69l-208 -259l-1 -174h94v-78h-277v78h94l1 171l-197 262h-82v78zM480 775l20 -79l-252 -45l-11 38z" />
    <glyph glyph-name="Thorn" unicode="&#xde;" horiz-adv-x="545" 
d="M38 78h91v437h-91v74h274v-74h-93v-62h104q100 0 151 -34.5t51 -113.5q0 -77 -52 -119t-141 -42h-113v-66h117v-78h-298v78zM319 221q54 0 83 17t29 60q0 46 -28 63t-86 17h-97v-157h99z" />
    <glyph glyph-name="germandbls" unicode="&#xdf;" horiz-adv-x="591" 
d="M338 -2q-37 13 -55 32l-16 88l72 15l9 -57q10 -10 27.5 -15.5t37.5 -5.5q29 0 47.5 16.5t18.5 42.5q0 27 -19 46.5t-60 34.5q-58 22 -89 55t-31 74q0 42 17.5 67t50.5 53q25 21 36.5 35t11.5 35q0 27 -24 45t-61 18q-56 0 -78.5 -27t-22.5 -93v-457h-172v72h84v290h-84
v72h84v43q0 87 45 128.5t139 41.5q79 0 125.5 -36t46.5 -97q0 -38 -17.5 -63.5t-49.5 -53.5q-23 -20 -34 -34t-11 -31q0 -22 17 -36.5t63 -31.5q58 -22 86 -58.5t28 -89.5q0 -58 -41 -94.5t-106 -36.5q-38 0 -75 13z" />
    <glyph glyph-name="agrave" unicode="&#xe0;" horiz-adv-x="532" 
d="M213 -16q-87 0 -132 35t-45 102q0 65 43.5 98t127.5 33h124q0 128 -98 128q-47 0 -87 -12l-10 -54l-72 13l17 95q78 28 151 28q92 0 139.5 -49.5t47.5 -145.5v-172l92 -30l-23 -72l-133 46q-68 -43 -142 -43zM147.5 169q-21.5 -17 -21.5 -49q0 -66 91 -66q65 0 114 35v96
l-121 1q-41 0 -62.5 -17zM233 491l-151 169l64 48l127 -188z" />
    <glyph glyph-name="aacute" unicode="&#xe1;" horiz-adv-x="532" 
d="M213 -16q-87 0 -132 35t-45 102q0 65 43.5 98t127.5 33h124q0 128 -98 128q-47 0 -87 -12l-10 -54l-72 13l17 95q78 28 151 28q92 0 139.5 -49.5t47.5 -145.5v-172l92 -30l-23 -72l-133 46q-68 -43 -142 -43zM147.5 169q-21.5 -17 -21.5 -49q0 -66 91 -66q65 0 114 35v96
l-121 1q-41 0 -62.5 -17zM312 708l64 -48l-151 -169l-40 29z" />
    <glyph glyph-name="acircumflex" unicode="&#xe2;" horiz-adv-x="532" 
d="M213 -16q-87 0 -132 35t-45 102q0 65 43.5 98t127.5 33h124q0 128 -98 128q-47 0 -87 -12l-10 -54l-72 13l17 95q78 28 151 28q92 0 139.5 -49.5t47.5 -145.5v-172l92 -30l-23 -72l-133 46q-68 -43 -142 -43zM147.5 169q-21.5 -17 -21.5 -49q0 -66 91 -66q65 0 114 35v96
l-121 1q-41 0 -62.5 -17zM239 642l153 -103l-26 -46l-127 68l-128 -66l-29 44z" />
    <glyph glyph-name="atilde" unicode="&#xe3;" horiz-adv-x="532" 
d="M213 -16q-87 0 -132 35t-45 102q0 65 43.5 98t127.5 33h124q0 128 -98 128q-47 0 -87 -12l-10 -54l-72 13l17 95q78 28 151 28q92 0 139.5 -49.5t47.5 -145.5v-172l92 -30l-23 -72l-133 46q-68 -43 -142 -43zM147.5 169q-21.5 -17 -21.5 -49q0 -66 91 -66q65 0 114 35v96
l-121 1q-41 0 -62.5 -17zM88 561q35 24 57.5 33.5t55.5 9.5q21 0 38 -6t37 -17q17 -9 27.5 -13t23.5 -4q17 0 29.5 6.5t39.5 25.5l25 -58q-30 -26 -51.5 -35.5t-49.5 -9.5q-15 0 -28.5 5.5t-31.5 15.5q-19 10 -32 15t-27 5q-21 0 -35.5 -4.5t-31 -12.5t-23.5 -11z" />
    <glyph glyph-name="adieresis" unicode="&#xe4;" horiz-adv-x="532" 
d="M213 -16q-87 0 -132 35t-45 102q0 65 43.5 98t127.5 33h124q0 128 -98 128q-47 0 -87 -12l-10 -54l-72 13l17 95q78 28 151 28q92 0 139.5 -49.5t47.5 -145.5v-172l92 -30l-23 -72l-133 46q-68 -43 -142 -43zM147.5 169q-21.5 -17 -21.5 -49q0 -66 91 -66q65 0 114 35v96
l-121 1q-41 0 -62.5 -17zM188 612q18 -18 18 -42t-18 -41.5t-42 -17.5t-41.5 17.5t-17.5 41.5t17.5 42t41.5 18t42 -18zM369.5 612q17.5 -18 17.5 -42t-17.5 -41.5t-41.5 -17.5q-25 0 -42.5 17.5t-17.5 41.5t17.5 42t42.5 18q24 0 41.5 -18z" />
    <glyph glyph-name="aring" unicode="&#xe5;" horiz-adv-x="532" 
d="M213 -16q-87 0 -132 35t-45 102q0 65 43.5 98t127.5 33h124q0 128 -98 128q-47 0 -87 -12l-10 -54l-72 13l17 95q78 28 151 28q92 0 139.5 -49.5t47.5 -145.5v-172l92 -30l-23 -72l-133 46q-68 -43 -142 -43zM147.5 169q-21.5 -17 -21.5 -49q0 -66 91 -66q65 0 114 35v96
l-121 1q-41 0 -62.5 -17zM303 659q25 -25 25 -66t-25 -66t-67 -25q-41 0 -65.5 25t-24.5 66t24.5 66t65.5 25q42 0 67 -25zM206.5 623q-11.5 -12 -11.5 -30q0 -19 11.5 -30.5t29.5 -11.5q19 0 30.5 11.5t11.5 30.5q0 18 -11.5 30t-30.5 12q-18 0 -29.5 -12z" />
    <glyph glyph-name="ae" unicode="&#xe6;" horiz-adv-x="784" 
d="M151 441q32 7 77 7q64 0 104 -25t56 -69q29 44 73.5 69t99.5 25q77 0 127.5 -50t50.5 -152q0 -25 -3 -52l-319 -2q5 -66 39.5 -101.5t95.5 -35.5q56 0 94.5 17t55.5 31l40 -51q0 -3 -25.5 -20.5t-68 -32.5t-97.5 -15q-101 0 -162 61q-31 -21 -83.5 -41t-92.5 -20
q-82 0 -129.5 38t-47.5 99q0 67 47.5 100t123.5 33h126q0 65 -20.5 92.5t-80.5 27.5q-44 0 -86 -11l-10 -53l-73 13l17 96q39 15 71 22zM636 347q-25 29 -79 29q-56 0 -92.5 -30.5t-45.5 -85.5l243 1q-1 57 -26 86zM148.5 171.5q-22.5 -13.5 -22.5 -51.5q0 -32 26 -48.5
t65 -16.5q32 0 70.5 13t66.5 30q-19 40 -22 87h-122q-39 0 -61.5 -13.5z" />
    <glyph glyph-name="ccedilla" unicode="&#xe7;" horiz-adv-x="477" 
d="M373.5 5.5q-27.5 -13.5 -63.5 -18.5v-47q113 2 113 -80q0 -41 -31 -63.5t-83 -22.5q-40 0 -66 12.5t-46 26.5l25 40q17 -12 40.5 -19.5t44.5 -7.5q52 0 52 35q0 18 -14 26t-48 8h-43v89q-97 3 -155.5 64.5t-58.5 167.5q0 75 29.5 128t82 80.5t120.5 27.5q36 0 69 -7
t83 -23l17 -114l-73 -16l-13 77q-42 13 -84 13q-67 0 -104 -42t-37 -124q0 -75 40 -117t101 -42q67 0 129 43l37 -54q-36 -27 -63.5 -40.5z" />
    <glyph glyph-name="egrave" unicode="&#xe8;" horiz-adv-x="499" 
d="M368.5 0.5q-43.5 -16.5 -94.5 -16.5q-109 0 -172.5 62.5t-63.5 170.5q0 69 27.5 122t78 82t116.5 29q94 0 148.5 -58t54.5 -155q0 -22 -3 -43l-336 -2q4 -68 45.5 -102t102.5 -34q84 0 145 49l37 -53q-42 -35 -85.5 -51.5zM344 347.5q-31 33.5 -83 33.5t-90.5 -34
t-45.5 -88h251q-1 55 -32 88.5zM253 491l-151 169l64 48l127 -188z" />
    <glyph glyph-name="eacute" unicode="&#xe9;" horiz-adv-x="499" 
d="M368.5 0.5q-43.5 -16.5 -94.5 -16.5q-109 0 -172.5 62.5t-63.5 170.5q0 69 27.5 122t78 82t116.5 29q94 0 148.5 -58t54.5 -155q0 -22 -3 -43l-336 -2q4 -68 45.5 -102t102.5 -34q84 0 145 49l37 -53q-42 -35 -85.5 -51.5zM344 347.5q-31 33.5 -83 33.5t-90.5 -34
t-45.5 -88h251q-1 55 -32 88.5zM332 708l64 -48l-151 -169l-40 29z" />
    <glyph glyph-name="ecircumflex" unicode="&#xea;" horiz-adv-x="499" 
d="M368.5 0.5q-43.5 -16.5 -94.5 -16.5q-109 0 -172.5 62.5t-63.5 170.5q0 69 27.5 122t78 82t116.5 29q94 0 148.5 -58t54.5 -155q0 -22 -3 -43l-336 -2q4 -68 45.5 -102t102.5 -34q84 0 145 49l37 -53q-42 -35 -85.5 -51.5zM344 347.5q-31 33.5 -83 33.5t-90.5 -34
t-45.5 -88h251q-1 55 -32 88.5zM259 642l153 -103l-26 -46l-127 68l-128 -66l-29 44z" />
    <glyph glyph-name="edieresis" unicode="&#xeb;" horiz-adv-x="499" 
d="M368.5 0.5q-43.5 -16.5 -94.5 -16.5q-109 0 -172.5 62.5t-63.5 170.5q0 69 27.5 122t78 82t116.5 29q94 0 148.5 -58t54.5 -155q0 -22 -3 -43l-336 -2q4 -68 45.5 -102t102.5 -34q84 0 145 49l37 -53q-42 -35 -85.5 -51.5zM344 347.5q-31 33.5 -83 33.5t-90.5 -34
t-45.5 -88h251q-1 55 -32 88.5zM208 612q18 -18 18 -42t-18 -41.5t-42 -17.5t-41.5 17.5t-17.5 41.5t17.5 42t41.5 18t42 -18zM389.5 612q17.5 -18 17.5 -42t-17.5 -41.5t-41.5 -17.5q-25 0 -42.5 17.5t-17.5 41.5t17.5 42t42.5 18q24 0 41.5 -18z" />
    <glyph glyph-name="igrave" unicode="&#xec;" horiz-adv-x="315" 
d="M37 434h172v-364h83v-70h-255v70h83v294h-83v70zM151 491l-151 169l64 48l127 -188z" />
    <glyph glyph-name="iacute" unicode="&#xed;" horiz-adv-x="315" 
d="M37 434h172v-364h83v-70h-255v70h83v294h-83v70zM230 708l64 -48l-151 -169l-40 29z" />
    <glyph glyph-name="icircumflex" unicode="&#xee;" horiz-adv-x="315" 
d="M37 434h172v-364h83v-70h-255v70h83v294h-83v70zM157 642l153 -103l-26 -46l-127 68l-128 -66l-29 44z" />
    <glyph glyph-name="idieresis" unicode="&#xef;" horiz-adv-x="315" 
d="M37 434h172v-364h83v-70h-255v70h83v294h-83v70zM106 612q18 -18 18 -42t-18 -41.5t-42 -17.5t-41.5 17.5t-17.5 41.5t17.5 42t41.5 18t42 -18zM287.5 612q17.5 -18 17.5 -42t-17.5 -41.5t-41.5 -17.5q-25 0 -42.5 17.5t-17.5 41.5t17.5 42t42.5 18q24 0 41.5 -18z" />
    <glyph glyph-name="eth" unicode="&#xf0;" horiz-adv-x="532" 
d="M433 449q52 -89 54 -187q0 -93 -29.5 -155.5t-80 -93t-115.5 -30.5q-61 0 -111.5 25.5t-81 78t-30.5 128.5q0 68 28.5 119t78.5 78t112 27q59 0 102 -19q-39 65 -107 108l-45 -50l-46 44l33 37q-42 19 -96 38l15 59q38 -11 71.5 -22t57.5 -23l46 52l46 -45l-34 -38
q80 -42 132 -131zM163.5 330q-34.5 -41 -34.5 -117q0 -77 34 -117.5t100 -40.5q65 0 100 50.5t35 140.5q0 42 -14 93q-20 14 -52.5 23t-66.5 9q-67 0 -101.5 -41z" />
    <glyph glyph-name="ntilde" unicode="&#xf1;" horiz-adv-x="632" 
d="M43 70h84v275l-96 33l23 70l135 -47q74 49 158 49q79 0 128.5 -46t49.5 -128v-206h83v-70h-215v70h44v190q0 58 -28.5 87t-78.5 29q-27 0 -57.5 -9t-57.5 -25v-272h44v-70h-216v70zM165 561q35 24 57.5 33.5t55.5 9.5q21 0 38 -6t37 -17q17 -9 27.5 -13t23.5 -4
q17 0 29.5 6.5t39.5 25.5l25 -58q-30 -26 -51.5 -35.5t-49.5 -9.5q-15 0 -28.5 5.5t-31.5 15.5q-19 10 -32 15t-27 5q-21 0 -35.5 -4.5t-31 -12.5t-23.5 -11z" />
    <glyph glyph-name="ograve" unicode="&#xf2;" horiz-adv-x="530" 
d="M428.5 387.5q61.5 -62.5 61.5 -171.5q0 -108 -61 -170t-165 -62q-101 0 -161.5 62t-60.5 170q0 109 60.5 171.5t161.5 62.5q103 0 164.5 -62.5zM165 336q-34 -42 -34 -120t34 -119t100 -41q67 0 101.5 41t34.5 119t-34.5 120t-101.5 42q-66 0 -100 -42zM262 491l-151 169
l64 48l127 -188z" />
    <glyph glyph-name="oacute" unicode="&#xf3;" horiz-adv-x="530" 
d="M428.5 387.5q61.5 -62.5 61.5 -171.5q0 -108 -61 -170t-165 -62q-101 0 -161.5 62t-60.5 170q0 109 60.5 171.5t161.5 62.5q103 0 164.5 -62.5zM165 336q-34 -42 -34 -120t34 -119t100 -41q67 0 101.5 41t34.5 119t-34.5 120t-101.5 42q-66 0 -100 -42zM341 708l64 -48
l-151 -169l-40 29z" />
    <glyph glyph-name="ocircumflex" unicode="&#xf4;" horiz-adv-x="530" 
d="M428.5 387.5q61.5 -62.5 61.5 -171.5q0 -108 -61 -170t-165 -62q-101 0 -161.5 62t-60.5 170q0 109 60.5 171.5t161.5 62.5q103 0 164.5 -62.5zM165 336q-34 -42 -34 -120t34 -119t100 -41q67 0 101.5 41t34.5 119t-34.5 120t-101.5 42q-66 0 -100 -42zM268 642l153 -103
l-26 -46l-127 68l-128 -66l-29 44z" />
    <glyph glyph-name="otilde" unicode="&#xf5;" horiz-adv-x="530" 
d="M428.5 387.5q61.5 -62.5 61.5 -171.5q0 -108 -61 -170t-165 -62q-101 0 -161.5 62t-60.5 170q0 109 60.5 171.5t161.5 62.5q103 0 164.5 -62.5zM165 336q-34 -42 -34 -120t34 -119t100 -41q67 0 101.5 41t34.5 119t-34.5 120t-101.5 42q-66 0 -100 -42zM117 561
q35 24 57.5 33.5t55.5 9.5q21 0 38 -6t37 -17q17 -9 27.5 -13t23.5 -4q17 0 29.5 6.5t39.5 25.5l25 -58q-30 -26 -51.5 -35.5t-49.5 -9.5q-15 0 -28.5 5.5t-31.5 15.5q-19 10 -32 15t-27 5q-21 0 -35.5 -4.5t-31 -12.5t-23.5 -11z" />
    <glyph glyph-name="odieresis" unicode="&#xf6;" horiz-adv-x="530" 
d="M428.5 387.5q61.5 -62.5 61.5 -171.5q0 -108 -61 -170t-165 -62q-101 0 -161.5 62t-60.5 170q0 109 60.5 171.5t161.5 62.5q103 0 164.5 -62.5zM165 336q-34 -42 -34 -120t34 -119t100 -41q67 0 101.5 41t34.5 119t-34.5 120t-101.5 42q-66 0 -100 -42zM217 612
q18 -18 18 -42t-18 -41.5t-42 -17.5t-41.5 17.5t-17.5 41.5t17.5 42t41.5 18t42 -18zM398.5 612q17.5 -18 17.5 -42t-17.5 -41.5t-41.5 -17.5q-25 0 -42.5 17.5t-17.5 41.5t17.5 42t42.5 18q24 0 41.5 -18z" />
    <glyph glyph-name="divide" unicode="&#xf7;" horiz-adv-x="474" 
d="M283 506.5q20 -19.5 20 -45.5q0 -27 -20 -46.5t-46 -19.5q-27 0 -46.5 19.5t-19.5 46.5q0 26 19.5 45.5t46.5 19.5q26 0 46 -19.5zM424 342v-76h-374v76h374zM283 181.5q20 -19.5 20 -45.5q0 -27 -20 -46.5t-46 -19.5q-27 0 -46.5 19.5t-19.5 46.5q0 26 19.5 45.5
t46.5 19.5q26 0 46 -19.5z" />
    <glyph glyph-name="oslash" unicode="&#xf8;" horiz-adv-x="530" 
d="M461 343.5q29 -53.5 29 -127.5q0 -108 -61 -170t-165 -62q-33 0 -67 8l-26 -63h-53l34 80q-52 27 -81 80.5t-29 126.5q0 109 60.5 171.5t161.5 62.5q35 0 69 -8l26 61h53l-33 -79q53 -27 82 -80.5zM182 81l123 293q-16 4 -40 4q-66 0 -100 -42t-34 -120q0 -96 51 -135z
M366.5 97q34.5 41 34.5 119q0 96 -52 137l-123 -293q16 -4 39 -4q67 0 101.5 41z" />
    <glyph glyph-name="ugrave" unicode="&#xf9;" horiz-adv-x="617" 
d="M365 -4q-40 -12 -75 -12q-95 0 -139.5 42t-44.5 131v207h-83v70h171v-260q0 -61 24 -88.5t77 -27.5q30 0 64 9t57 23v274h-83v70h171v-348l92 -31l-23 -74l-136 47q-32 -20 -72 -32zM281 491l-151 169l64 48l127 -188z" />
    <glyph glyph-name="uacute" unicode="&#xfa;" horiz-adv-x="617" 
d="M365 -4q-40 -12 -75 -12q-95 0 -139.5 42t-44.5 131v207h-83v70h171v-260q0 -61 24 -88.5t77 -27.5q30 0 64 9t57 23v274h-83v70h171v-348l92 -31l-23 -74l-136 47q-32 -20 -72 -32zM360 708l64 -48l-151 -169l-40 29z" />
    <glyph glyph-name="ucircumflex" unicode="&#xfb;" horiz-adv-x="617" 
d="M365 -4q-40 -12 -75 -12q-95 0 -139.5 42t-44.5 131v207h-83v70h171v-260q0 -61 24 -88.5t77 -27.5q30 0 64 9t57 23v274h-83v70h171v-348l92 -31l-23 -74l-136 47q-32 -20 -72 -32zM287 642l153 -103l-26 -46l-127 68l-128 -66l-29 44z" />
    <glyph glyph-name="udieresis" unicode="&#xfc;" horiz-adv-x="617" 
d="M365 -4q-40 -12 -75 -12q-95 0 -139.5 42t-44.5 131v207h-83v70h171v-260q0 -61 24 -88.5t77 -27.5q30 0 64 9t57 23v274h-83v70h171v-348l92 -31l-23 -74l-136 47q-32 -20 -72 -32zM236 612q18 -18 18 -42t-18 -41.5t-42 -17.5t-41.5 17.5t-17.5 41.5t17.5 42t41.5 18
t42 -18zM417.5 612q17.5 -18 17.5 -42t-17.5 -41.5t-41.5 -17.5q-25 0 -42.5 17.5t-17.5 41.5t17.5 42t42.5 18q24 0 41.5 -18z" />
    <glyph glyph-name="yacute" unicode="&#xfd;" horiz-adv-x="558" 
d="M556 434v-70h-74l-168 -450q-27 -71 -67 -107t-96 -36q-34 0 -72 13l15 68q32 -10 52 -10q28 0 45 9.5t31.5 34.5t32.5 75l3 10l-184 393h-72v70h218v-70h-56l129 -297l106 297h-54l1 70h210zM356 708l64 -48l-151 -169l-40 29z" />
    <glyph glyph-name="thorn" unicode="&#xfe;" horiz-adv-x="526" 
d="M269 449q99 0 158.5 -58.5t59.5 -163.5q0 -72 -28 -127t-79 -85.5t-117 -30.5q-57 0 -105 15v-141h84v-69h-256v69h84v695l-96 32l24 73l159 -55v-184q56 30 112 30zM170.5 72q12.5 -6 38 -11.5t53.5 -5.5q65 0 99.5 46.5t34.5 125.5q0 74 -33 112t-97 38
q-39 0 -64 -11.5t-45 -24.5v-263q1 0 13.5 -6z" />
    <glyph glyph-name="ydieresis" unicode="&#xff;" horiz-adv-x="558" 
d="M556 434v-70h-74l-168 -450q-27 -71 -67 -107t-96 -36q-34 0 -72 13l15 68q32 -10 52 -10q28 0 45 9.5t31.5 34.5t32.5 75l3 10l-184 393h-72v70h218v-70h-56l129 -297l106 297h-54l1 70h210zM232 612q18 -18 18 -42t-18 -41.5t-42 -17.5t-41.5 17.5t-17.5 41.5t17.5 42
t41.5 18t42 -18zM413.5 612q17.5 -18 17.5 -42t-17.5 -41.5t-41.5 -17.5q-25 0 -42.5 17.5t-17.5 41.5t17.5 42t42.5 18q24 0 41.5 -18z" />
    <glyph glyph-name="Amacron" unicode="&#x100;" horiz-adv-x="659" 
d="M9 0v78h97l162 433h-97v78h204l181 -511h94v-78h-248v78h61l-32 90h-211l-33 -90h62v-78h-240zM246 239h160l-76 245zM167 752h309v-64h-309v64z" />
    <glyph glyph-name="amacron" unicode="&#x101;" horiz-adv-x="532" 
d="M213 -16q-87 0 -132 35t-45 102q0 65 43.5 98t127.5 33h124q0 128 -98 128q-47 0 -87 -12l-10 -54l-72 13l17 95q78 28 151 28q92 0 139.5 -49.5t47.5 -145.5v-172l92 -30l-23 -72l-133 46q-68 -43 -142 -43zM147.5 169q-21.5 -17 -21.5 -49q0 -66 91 -66q65 0 114 35v96
l-121 1q-41 0 -62.5 -17zM82 597h309v-64h-309v64z" />
    <glyph glyph-name="Abreve" unicode="&#x102;" horiz-adv-x="659" 
d="M9 0v78h97l162 433h-97v78h204l181 -511h94v-78h-248v78h61l-32 90h-211l-33 -90h62v-78h-240zM246 239h160l-76 245zM212 684q-41 32 -52 94l69 11q9 -70 92 -70q42 0 65.5 18t27.5 52l69 -11q-11 -62 -52.5 -94t-109.5 -32t-109 32z" />
    <glyph glyph-name="abreve" unicode="&#x103;" horiz-adv-x="532" 
d="M213 -16q-87 0 -132 35t-45 102q0 65 43.5 98t127.5 33h124q0 128 -98 128q-47 0 -87 -12l-10 -54l-72 13l17 95q78 28 151 28q92 0 139.5 -49.5t47.5 -145.5v-172l92 -30l-23 -72l-133 46q-68 -43 -142 -43zM147.5 169q-21.5 -17 -21.5 -49q0 -66 91 -66q65 0 114 35v96
l-121 1q-41 0 -62.5 -17zM127 529q-41 32 -52 94l69 11q9 -70 92 -70q42 0 65.5 18t27.5 52l69 -11q-11 -62 -52.5 -94t-109.5 -32t-109 32z" />
    <glyph glyph-name="Aogonek" unicode="&#x104;" horiz-adv-x="659" 
d="M491 -48q-19 -26 -19 -57q0 -22 16 -34t44 -12q24 0 49 9v-64q-39 -19 -82 -19q-50 0 -83 25t-33 67q0 41 23.5 73.5t72.5 59.5h-77v78h61l-32 90h-211l-33 -90h62v-78h-240v78h97l162 433h-97v78h204l181 -511h94v-78h-99q-41 -22 -60 -48zM246 239h160l-76 245z" />
    <glyph glyph-name="aogonek" unicode="&#x105;" horiz-adv-x="532" 
d="M519 -161v-64q-39 -19 -82 -19q-50 0 -83 25t-33 67q0 47 30.5 83t95.5 64l-92 32q-68 -43 -142 -43q-87 0 -132 35t-45 102q0 65 43.5 98t127.5 33h124q0 128 -98 128q-47 0 -87 -12l-10 -54l-72 13l17 95q78 28 151 28q92 0 139.5 -49.5t47.5 -145.5v-172l92 -30
l-23 -71l1 -1q-41 -22 -60 -48t-19 -57q0 -22 16 -34t44 -12q24 0 49 9zM331 185l-121 1q-41 0 -62.5 -17t-21.5 -49q0 -66 91 -66q65 0 114 35v96z" />
    <glyph glyph-name="Cacute" unicode="&#x106;" horiz-adv-x="584" 
d="M400 522q-30 7 -68 7q-93 0 -143 -61.5t-50 -172.5q0 -112 50.5 -173.5t142.5 -61.5q58 0 113 22l20 82l76 -18l-26 -123q0 -1 -26.5 -11.5t-67 -19t-89.5 -8.5q-87 0 -152 37.5t-100.5 108t-35.5 167.5q0 93 35.5 162.5t100 107.5t149.5 38q59 0 101 -10.5t65 -23
t23 -14.5l24 -123l-76 -17l-21 90q-15 8 -45 15zM484 775l20 -79l-252 -45l-11 38z" />
    <glyph glyph-name="cacute" unicode="&#x107;" horiz-adv-x="477" 
d="M271 382q-67 0 -104 -42t-37 -124q0 -75 40 -117t101 -42q67 0 129 43l37 -54q-45 -33 -81 -47.5t-93 -14.5q-101 0 -162 62t-61 170q0 75 29.5 128t82 80.5t120.5 27.5q36 0 69 -7t83 -23l17 -114l-73 -16l-13 77q-42 13 -84 13zM347 708l64 -48l-151 -169l-40 29z" />
    <glyph glyph-name="Ccircumflex" unicode="&#x108;" horiz-adv-x="584" 
d="M400 522q-30 7 -68 7q-93 0 -143 -61.5t-50 -172.5q0 -112 50.5 -173.5t142.5 -61.5q58 0 113 22l20 82l76 -18l-26 -123q0 -1 -26.5 -11.5t-67 -19t-89.5 -8.5q-87 0 -152 37.5t-100.5 108t-35.5 167.5q0 93 35.5 162.5t100 107.5t149.5 38q59 0 101 -10.5t65 -23
t23 -14.5l24 -123l-76 -17l-21 90q-15 8 -45 15zM331 783l174 -99l-22 -35l-152 57l-153 -57l-21 35z" />
    <glyph glyph-name="ccircumflex" unicode="&#x109;" horiz-adv-x="477" 
d="M271 382q-67 0 -104 -42t-37 -124q0 -75 40 -117t101 -42q67 0 129 43l37 -54q-45 -33 -81 -47.5t-93 -14.5q-101 0 -162 62t-61 170q0 75 29.5 128t82 80.5t120.5 27.5q36 0 69 -7t83 -23l17 -114l-73 -16l-13 77q-42 13 -84 13zM274 642l153 -103l-26 -46l-127 68
l-128 -66l-29 44z" />
    <glyph glyph-name="Cdotaccent" unicode="&#x10a;" horiz-adv-x="584" 
d="M400 522q-30 7 -68 7q-93 0 -143 -61.5t-50 -172.5q0 -112 50.5 -173.5t142.5 -61.5q58 0 113 22l20 82l76 -18l-26 -123q0 -1 -26.5 -11.5t-67 -19t-89.5 -8.5q-87 0 -152 37.5t-100.5 108t-35.5 167.5q0 93 35.5 162.5t100 107.5t149.5 38q59 0 101 -10.5t65 -23
t23 -14.5l24 -123l-76 -17l-21 90q-15 8 -45 15zM376 785.5q18 -17.5 18 -46.5q0 -28 -18 -46t-46 -18t-45.5 17.5t-17.5 46.5t17.5 46.5t45.5 17.5t46 -17.5z" />
    <glyph glyph-name="cdotaccent" unicode="&#x10b;" horiz-adv-x="477" 
d="M271 382q-67 0 -104 -42t-37 -124q0 -75 40 -117t101 -42q67 0 129 43l37 -54q-45 -33 -81 -47.5t-93 -14.5q-101 0 -162 62t-61 170q0 75 29.5 128t82 80.5t120.5 27.5q36 0 69 -7t83 -23l17 -114l-73 -16l-13 77q-42 13 -84 13zM317 630.5q18 -17.5 18 -46.5
q0 -28 -18 -46t-46 -18t-45.5 17.5t-17.5 46.5t17.5 46.5t45.5 17.5t46 -17.5z" />
    <glyph glyph-name="Ccaron" unicode="&#x10c;" horiz-adv-x="584" 
d="M400 522q-30 7 -68 7q-93 0 -143 -61.5t-50 -172.5q0 -112 50.5 -173.5t142.5 -61.5q58 0 113 22l20 82l76 -18l-26 -123q0 -1 -26.5 -11.5t-67 -19t-89.5 -8.5q-87 0 -152 37.5t-100.5 108t-35.5 167.5q0 93 35.5 162.5t100 107.5t149.5 38q59 0 101 -10.5t65 -23
t23 -14.5l24 -123l-76 -17l-21 90q-15 8 -45 15zM333 638l-157 103l29 44l128 -66l127 68l26 -46z" />
    <glyph glyph-name="ccaron" unicode="&#x10d;" horiz-adv-x="477" 
d="M271 382q-67 0 -104 -42t-37 -124q0 -75 40 -117t101 -42q67 0 129 43l37 -54q-45 -33 -81 -47.5t-93 -14.5q-101 0 -162 62t-61 170q0 75 29.5 128t82 80.5t120.5 27.5q36 0 69 -7t83 -23l17 -114l-73 -16l-13 77q-42 13 -84 13zM274 483l-157 103l29 44l128 -66l127 68
l26 -46z" />
    <glyph glyph-name="Dcaron" unicode="&#x10e;" horiz-adv-x="655" 
d="M531 508.5q81 -80.5 81 -223.5q0 -134 -79 -209.5t-219 -75.5h-276v78h92v433h-92v78h268q144 0 225 -80.5zM461 130.5q56 52.5 56 153.5q0 112 -53.5 169.5t-157.5 57.5h-86v-433h76q109 0 165 52.5zM289 645l-174 99l21 35l153 -57l152 57l22 -35z" />
    <glyph glyph-name="dcaron" unicode="&#x10f;" horiz-adv-x="570" 
d="M395 27q-29 -20 -63.5 -31.5t-67.5 -11.5q-106 0 -164.5 63.5t-58.5 177.5q0 106 58.5 165.5t164.5 59.5q55 0 106 -20v121l-96 33l24 71l160 -54v-515l91 -32l-23 -73zM317 65q29 9 53 24v266q-22 10 -50.5 16.5t-54.5 6.5q-60 0 -97 -42t-37 -110q0 -77 37 -123.5
t97 -46.5q23 0 52 9zM414 647l-157 103l29 44l128 -66l127 68l26 -46z" />
    <glyph glyph-name="Dcroat" unicode="&#x110;" horiz-adv-x="668" 
d="M545.5 519q79.5 -70 79.5 -234q0 -90 -38.5 -154t-106.5 -97.5t-153 -33.5h-276v78h92v189h-92v74h92v170h-92v78h268q147 0 226.5 -70zM475 128.5q55 50.5 55 155.5q0 90 -23.5 139.5t-69 68.5t-118.5 19h-86v-170h108v-74h-108v-189h76q111 0 166 50.5z" />
    <glyph glyph-name="dcroat" unicode="&#x111;" horiz-adv-x="570" 
d="M549 54l-23 -73l-131 46q-29 -20 -63.5 -31.5t-67.5 -11.5q-106 0 -164.5 60.5t-58.5 168.5q0 101 59 159t164 58q51 0 106 -20v54h-145v60h145v27l-96 33l24 71l160 -54v-77h80v-60h-80v-378zM370 334q-21 11 -50 17.5t-55 6.5q-60 0 -97 -40.5t-37 -103.5
q0 -72 37 -115t97 -43q52 0 105 33v245z" />
    <glyph glyph-name="Emacron" unicode="&#x112;" horiz-adv-x="593" 
d="M39 589h447l53 -160l-73 -25l-40 107h-204v-169h182v-78h-182l-1 -186h227l39 105l73 -25l-53 -158h-469v78h93l1 433h-93v78zM140 752h309v-64h-309v64z" />
    <glyph glyph-name="emacron" unicode="&#x113;" horiz-adv-x="499" 
d="M368.5 0.5q-43.5 -16.5 -94.5 -16.5q-109 0 -172.5 62.5t-63.5 170.5q0 69 27.5 122t78 82t116.5 29q94 0 148.5 -58t54.5 -155q0 -22 -3 -43l-336 -2q4 -68 45.5 -102t102.5 -34q84 0 145 49l37 -53q-42 -35 -85.5 -51.5zM344 347.5q-31 33.5 -83 33.5t-90.5 -34
t-45.5 -88h251q-1 55 -32 88.5zM102 597h309v-64h-309v64z" />
    <glyph glyph-name="Ebreve" unicode="&#x114;" horiz-adv-x="593" 
d="M39 589h447l53 -160l-73 -25l-40 107h-204v-169h182v-78h-182l-1 -186h227l39 105l73 -25l-53 -158h-469v78h93l1 433h-93v78zM185 684q-41 32 -52 94l69 11q9 -70 92 -70q42 0 65.5 18t27.5 52l69 -11q-11 -62 -52.5 -94t-109.5 -32t-109 32z" />
    <glyph glyph-name="ebreve" unicode="&#x115;" horiz-adv-x="499" 
d="M368.5 0.5q-43.5 -16.5 -94.5 -16.5q-109 0 -172.5 62.5t-63.5 170.5q0 69 27.5 122t78 82t116.5 29q94 0 148.5 -58t54.5 -155q0 -22 -3 -43l-336 -2q4 -68 45.5 -102t102.5 -34q84 0 145 49l37 -53q-42 -35 -85.5 -51.5zM344 347.5q-31 33.5 -83 33.5t-90.5 -34
t-45.5 -88h251q-1 55 -32 88.5zM147 529q-41 32 -52 94l69 11q9 -70 92 -70q42 0 65.5 18t27.5 52l69 -11q-11 -62 -52.5 -94t-109.5 -32t-109 32z" />
    <glyph glyph-name="Edotaccent" unicode="&#x116;" horiz-adv-x="593" 
d="M39 589h447l53 -160l-73 -25l-40 107h-204v-169h182v-78h-182l-1 -186h227l39 105l73 -25l-53 -158h-469v78h93l1 433h-93v78zM340 785.5q18 -17.5 18 -46.5q0 -28 -18 -46t-46 -18t-45.5 17.5t-17.5 46.5t17.5 46.5t45.5 17.5t46 -17.5z" />
    <glyph glyph-name="edotaccent" unicode="&#x117;" horiz-adv-x="499" 
d="M368.5 0.5q-43.5 -16.5 -94.5 -16.5q-109 0 -172.5 62.5t-63.5 170.5q0 69 27.5 122t78 82t116.5 29q94 0 148.5 -58t54.5 -155q0 -22 -3 -43l-336 -2q4 -68 45.5 -102t102.5 -34q84 0 145 49l37 -53q-42 -35 -85.5 -51.5zM344 347.5q-31 33.5 -83 33.5t-90.5 -34
t-45.5 -88h251q-1 55 -32 88.5zM302 630.5q18 -17.5 18 -46.5q0 -28 -18 -46t-46 -18t-45.5 17.5t-17.5 46.5t17.5 46.5t45.5 17.5t46 -17.5z" />
    <glyph glyph-name="Eogonek" unicode="&#x118;" horiz-adv-x="593" 
d="M445 -139q16 -12 44 -12q24 0 49 9v-64q-39 -19 -82 -19q-50 0 -83 25t-33 67q0 41 23.5 73.5t72.5 59.5h-398v78h93l1 433h-93v78h447l53 -160l-73 -25l-40 107h-204v-169h182v-78h-182l-1 -186h227l39 105l73 -25l-53 -157l1 -1q-41 -22 -60 -48t-19 -57q0 -22 16 -34z
" />
    <glyph glyph-name="eogonek" unicode="&#x119;" horiz-adv-x="499" 
d="M460 194l-336 -2q4 -68 45.5 -102t102.5 -34q84 0 145 49l37 -53q-26 -22 -59 -40q-56 -37 -56 -91q0 -22 16 -34t44 -12q24 0 49 9v-64q-39 -19 -82 -19q-50 0 -83 25t-33 67q0 53 38 91h-14q-109 0 -172.5 62.5t-63.5 170.5q0 69 27.5 122t78 82t116.5 29
q94 0 148.5 -58t54.5 -155q0 -22 -3 -43zM376 259q-1 55 -32 88.5t-83 33.5t-90.5 -34t-45.5 -88h251z" />
    <glyph glyph-name="Ecaron" unicode="&#x11a;" horiz-adv-x="593" 
d="M39 589h447l53 -160l-73 -25l-40 107h-204v-169h182v-78h-182l-1 -186h227l39 105l73 -25l-53 -158h-469v78h93l1 433h-93v78zM297 638l-157 103l29 44l128 -66l127 68l26 -46z" />
    <glyph glyph-name="ecaron" unicode="&#x11b;" horiz-adv-x="499" 
d="M368.5 0.5q-43.5 -16.5 -94.5 -16.5q-109 0 -172.5 62.5t-63.5 170.5q0 69 27.5 122t78 82t116.5 29q94 0 148.5 -58t54.5 -155q0 -22 -3 -43l-336 -2q4 -68 45.5 -102t102.5 -34q84 0 145 49l37 -53q-42 -35 -85.5 -51.5zM344 347.5q-31 33.5 -83 33.5t-90.5 -34
t-45.5 -88h251q-1 55 -32 88.5zM259 483l-157 103l29 44l128 -66l127 68l26 -46z" />
    <glyph glyph-name="Gcircumflex" unicode="&#x11c;" horiz-adv-x="601" 
d="M441.5 0q-43.5 -16 -114.5 -16q-82 0 -146 35.5t-101 105.5t-37 170q0 94 36 164t101.5 108t153.5 38q115 0 188 -57l25 -114l-77 -18l-19 83q-26 16 -51 23.5t-64 7.5q-52 0 -97.5 -28t-73 -81.5t-27.5 -125.5q0 -117 53 -176t135 -59q44 0 72 8t58 28v122h-128v76h213
v-239q-56 -39 -99.5 -55zM339 783l174 -99l-22 -35l-152 57l-153 -57l-21 35z" />
    <glyph glyph-name="gcircumflex" unicode="&#x11d;" horiz-adv-x="546" 
d="M418.5 2.5q41.5 -31.5 41.5 -91.5q0 -67 -59 -103t-159 -36q-55 0 -122 15.5t-97 33.5l32 67q39 -19 89.5 -30t97.5 -11q64 0 97.5 15t33.5 44q0 57 -97 57h-147v172q-47 19 -71.5 55.5t-24.5 88.5q0 79 54.5 125t147.5 46q74 0 122 -27l145 53l26 -76l-119 -25
q30 -36 30 -91q0 -79 -56 -123t-149 -44q-17 0 -25 1v-84h86q82 0 123.5 -31.5zM149.5 354.5q-29.5 -25.5 -29.5 -71.5q0 -43 31.5 -69.5t84.5 -26.5t84.5 26.5t31.5 69.5q0 46 -30 71.5t-86 25.5q-57 0 -86.5 -25.5zM238 642l153 -103l-26 -46l-127 68l-128 -66l-29 44z
" />
    <glyph glyph-name="Gbreve" unicode="&#x11e;" horiz-adv-x="601" 
d="M441.5 0q-43.5 -16 -114.5 -16q-82 0 -146 35.5t-101 105.5t-37 170q0 94 36 164t101.5 108t153.5 38q115 0 188 -57l25 -114l-77 -18l-19 83q-26 16 -51 23.5t-64 7.5q-52 0 -97.5 -28t-73 -81.5t-27.5 -125.5q0 -117 53 -176t135 -59q44 0 72 8t58 28v122h-128v76h213
v-239q-56 -39 -99.5 -55zM229 684q-41 32 -52 94l69 11q9 -70 92 -70q42 0 65.5 18t27.5 52l69 -11q-11 -62 -52.5 -94t-109.5 -32t-109 32z" />
    <glyph glyph-name="gbreve" unicode="&#x11f;" horiz-adv-x="546" 
d="M418.5 2.5q41.5 -31.5 41.5 -91.5q0 -67 -59 -103t-159 -36q-55 0 -122 15.5t-97 33.5l32 67q39 -19 89.5 -30t97.5 -11q64 0 97.5 15t33.5 44q0 57 -97 57h-147v172q-47 19 -71.5 55.5t-24.5 88.5q0 79 54.5 125t147.5 46q74 0 122 -27l145 53l26 -76l-119 -25
q30 -36 30 -91q0 -79 -56 -123t-149 -44q-17 0 -25 1v-84h86q82 0 123.5 -31.5zM149.5 354.5q-29.5 -25.5 -29.5 -71.5q0 -43 31.5 -69.5t84.5 -26.5t84.5 26.5t31.5 69.5q0 46 -30 71.5t-86 25.5q-57 0 -86.5 -25.5zM126 529q-41 32 -52 94l69 11q9 -70 92 -70
q42 0 65.5 18t27.5 52l69 -11q-11 -62 -52.5 -94t-109.5 -32t-109 32z" />
    <glyph glyph-name="Gdotaccent" unicode="&#x120;" horiz-adv-x="601" 
d="M441.5 0q-43.5 -16 -114.5 -16q-82 0 -146 35.5t-101 105.5t-37 170q0 94 36 164t101.5 108t153.5 38q115 0 188 -57l25 -114l-77 -18l-19 83q-26 16 -51 23.5t-64 7.5q-52 0 -97.5 -28t-73 -81.5t-27.5 -125.5q0 -117 53 -176t135 -59q44 0 72 8t58 28v122h-128v76h213
v-239q-56 -39 -99.5 -55zM384 785.5q18 -17.5 18 -46.5q0 -28 -18 -46t-46 -18t-45.5 17.5t-17.5 46.5t17.5 46.5t45.5 17.5t46 -17.5z" />
    <glyph glyph-name="gdotaccent" unicode="&#x121;" horiz-adv-x="546" 
d="M418.5 2.5q41.5 -31.5 41.5 -91.5q0 -67 -59 -103t-159 -36q-55 0 -122 15.5t-97 33.5l32 67q39 -19 89.5 -30t97.5 -11q64 0 97.5 15t33.5 44q0 57 -97 57h-147v172q-47 19 -71.5 55.5t-24.5 88.5q0 79 54.5 125t147.5 46q74 0 122 -27l145 53l26 -76l-119 -25
q30 -36 30 -91q0 -79 -56 -123t-149 -44q-17 0 -25 1v-84h86q82 0 123.5 -31.5zM149.5 354.5q-29.5 -25.5 -29.5 -71.5q0 -43 31.5 -69.5t84.5 -26.5t84.5 26.5t31.5 69.5q0 46 -30 71.5t-86 25.5q-57 0 -86.5 -25.5zM281 630.5q18 -17.5 18 -46.5q0 -28 -18 -46t-46 -18
t-45.5 17.5t-17.5 46.5t17.5 46.5t45.5 17.5t46 -17.5z" />
    <glyph glyph-name="Gcommaaccent" unicode="&#x122;" horiz-adv-x="601" 
d="M441.5 0q-43.5 -16 -114.5 -16q-82 0 -146 35.5t-101 105.5t-37 170q0 94 36 164t101.5 108t153.5 38q115 0 188 -57l25 -114l-77 -18l-19 83q-26 16 -51 23.5t-64 7.5q-52 0 -97.5 -28t-73 -81.5t-27.5 -125.5q0 -117 53 -176t135 -59q44 0 72 8t58 28v122h-128v76h213
v-239q-56 -39 -99.5 -55zM279 -277q5 7 21 32t26 47q-27 4 -42.5 21.5t-15.5 40.5q0 29 19.5 47.5t49.5 18.5q29 0 50.5 -21.5t21.5 -50.5q1 -72 -94 -167z" />
    <glyph glyph-name="gcommaaccent" unicode="&#x123;" horiz-adv-x="546" 
d="M418.5 2.5q41.5 -31.5 41.5 -91.5q0 -67 -59 -103t-159 -36q-55 0 -122 15.5t-97 33.5l32 67q39 -19 89.5 -30t97.5 -11q64 0 97.5 15t33.5 44q0 57 -97 57h-147v172q-47 19 -71.5 55.5t-24.5 88.5q0 79 54.5 125t147.5 46q74 0 122 -27l145 53l26 -76l-119 -25
q30 -36 30 -91q0 -79 -56 -123t-149 -44q-17 0 -25 1v-84h86q82 0 123.5 -31.5zM149.5 354.5q-29.5 -25.5 -29.5 -71.5q0 -43 31.5 -69.5t84.5 -26.5t84.5 26.5t31.5 69.5q0 46 -30 71.5t-86 25.5q-57 0 -86.5 -25.5zM296 705q-5 -7 -21 -32t-26 -47q27 -4 42.5 -21.5
t15.5 -40.5q0 -29 -19.5 -47.5t-49.5 -18.5q-29 0 -50.5 22t-21.5 51q0 72 94 166z" />
    <glyph glyph-name="Hcircumflex" unicode="&#x124;" horiz-adv-x="720" 
d="M39 589h245v-78h-62l-1 -172h278l1 172h-62v78h244v-78h-92l-2 -433h93v-78h-244v78h62v184h-278l-1 -184h62v-78h-244v78h93l1 433h-93v78zM360 783l174 -99l-22 -35l-152 57l-153 -57l-21 35z" />
    <glyph glyph-name="hcircumflex" unicode="&#x125;" horiz-adv-x="611" 
d="M21 70h84v483l-95 33l23 70l160 -55v-192q64 41 135 41q89 0 132 -42.5t43 -130.5v-207h84v-70h-216v70h44v191q0 61 -24 88.5t-77 27.5q-30 0 -64 -9t-57 -23v-275h44v-70h-216v70zM114 793l174 -99l-22 -35l-152 57l-153 -57l-21 35z" />
    <glyph glyph-name="Hbar" unicode="&#x126;" horiz-adv-x="720" 
d="M682 511h-92v-56h74v-54h-75l-1 -323h93v-78h-244v78h62v184h-278l-1 -184h62v-78h-244v78h93l1 323h-82v54h82v56h-93v78h245v-78h-62v-56h278v56h-62v78h244v-78zM499 339v62h-278v-62h278z" />
    <glyph glyph-name="hbar" unicode="&#x127;" horiz-adv-x="611" 
d="M587 70v-70h-216v70h44v167q0 61 -24 88.5t-77 27.5q-30 0 -64 -9t-57 -23v-251h44v-70h-216v70h84v394h-90v60h90v29l-95 33l23 70l160 -55v-77h133v-60h-133v-79q66 41 135 41q89 0 132 -42.5t43 -130.5v-183h84z" />
    <glyph glyph-name="Itilde" unicode="&#x128;" horiz-adv-x="357" 
d="M39 589h280v-78h-93l-2 -433h95v-78h-281v78h97v433h-96v78zM30 716q35 24 57.5 33.5t55.5 9.5q21 0 38 -6t37 -17q17 -9 27.5 -13t23.5 -4q17 0 29.5 6.5t39.5 25.5l25 -58q-30 -26 -51.5 -35.5t-49.5 -9.5q-15 0 -28.5 5.5t-31.5 15.5q-19 10 -32 15t-27 5
q-21 0 -35.5 -4.5t-31 -12.5t-23.5 -11z" />
    <glyph glyph-name="itilde" unicode="&#x129;" horiz-adv-x="315" 
d="M37 434h172v-364h83v-70h-255v70h83v294h-83v70zM23 561q29 24 48.5 33.5t47.5 9.5q15 0 27 -4.5t21.5 -10t12.5 -7.5q14 -9 23.5 -13.5t20.5 -4.5q15 0 27 6.5t34 25.5l22 -58q-24 -26 -43.5 -35.5t-47.5 -9.5q-12 0 -23.5 5t-25.5 15q-15 10 -26.5 15.5t-24.5 5.5
q-15 0 -26.5 -4.5t-25 -12.5t-19.5 -11z" />
    <glyph glyph-name="Imacron" unicode="&#x12a;" horiz-adv-x="357" 
d="M39 589h280v-78h-93l-2 -433h95v-78h-281v78h97v433h-96v78zM24 752h309v-64h-309v64z" />
    <glyph glyph-name="imacron" unicode="&#x12b;" horiz-adv-x="315" 
d="M37 434h172v-364h83v-70h-255v70h83v294h-83v70zM30 597h249v-64h-249v64z" />
    <glyph glyph-name="Ibreve" unicode="&#x12c;" horiz-adv-x="357" 
d="M39 589h280v-78h-93l-2 -433h95v-78h-281v78h97v433h-96v78zM69 684q-41 32 -52 94l69 11q9 -70 92 -70q42 0 65.5 18t27.5 52l69 -11q-11 -62 -52.5 -94t-109.5 -32t-109 32z" />
    <glyph glyph-name="ibreve" unicode="&#x12d;" horiz-adv-x="315" 
d="M37 434h172v-364h83v-70h-255v70h83v294h-83v70zM59 529q-36 32 -46 94l68 11q8 -70 73 -70q67 0 73 70l69 -11q-21 -126 -142 -126q-59 0 -95 32z" />
    <glyph glyph-name="Iogonek" unicode="&#x12e;" horiz-adv-x="357" 
d="M350 -142v-64q-39 -19 -82 -19q-50 0 -83 25t-33 67q0 41 23.5 73.5t72.5 59.5h-210v78h97v433h-96v78h280v-78h-93l-2 -433h95v-77l1 -1q-41 -22 -60 -48t-19 -57q0 -22 16 -34t44 -12q23 0 49 9z" />
    <glyph glyph-name="iogonek" unicode="&#x12f;" horiz-adv-x="315" 
d="M108.5 537.5q-17.5 17.5 -17.5 46.5t17.5 46.5t45.5 17.5q29 0 46.5 -17.5t17.5 -46.5q0 -28 -17.5 -46t-46.5 -18q-28 0 -45.5 17.5zM169 -48q-19 -26 -19 -57q0 -22 16 -34t44 -12q24 0 49 9v-64q-39 -19 -82 -19q-50 0 -83 25t-33 67q0 41 23.5 73.5t72.5 59.5h-120
v70h83v294h-83v70h172v-364h83v-70h-63q-41 -22 -60 -48z" />
    <glyph glyph-name="Idotaccent" unicode="&#x130;" horiz-adv-x="357" 
d="M39 589h280v-78h-93l-2 -433h95v-78h-281v78h97v433h-96v78zM224 785.5q18 -17.5 18 -46.5q0 -28 -18 -46t-46 -18t-45.5 17.5t-17.5 46.5t17.5 46.5t45.5 17.5t46 -17.5z" />
    <glyph glyph-name="dotlessi" unicode="&#x131;" horiz-adv-x="315" 
d="M37 434h172v-364h83v-70h-255v70h83v294h-83v70z" />
    <glyph glyph-name="Jcircumflex" unicode="&#x134;" horiz-adv-x="518" 
d="M346 50q-53 -66 -152 -66q-62 0 -143 33l-27 130l77 18l21 -91q39 -16 71 -16q54 0 84.5 43.5t30.5 124.5l1 285h-130v78h311v-78h-91v-274q0 -121 -53 -187zM348 783l174 -99l-22 -35l-152 57l-153 -57l-21 35z" />
    <glyph glyph-name="jcircumflex" unicode="&#x135;" horiz-adv-x="262" 
d="M185.5 -130.5q-9.5 -39.5 -49.5 -68.5t-125 -29q-14 0 -56 6l11 68q26 -2 45 -2q47 0 68 17.5t24.5 39t3.5 59.5v404h-84v70h172v-466q0 -59 -9.5 -98.5zM145 642l153 -103l-26 -46l-127 68l-128 -66l-29 44z" />
    <glyph glyph-name="Kcommaaccent" unicode="&#x136;" horiz-adv-x="676" 
d="M38 589h243v-78h-62v-176h87l130 176h-67v78h250v-78h-92l-147 -197l162 -236h100v-78h-276v78h78l-122 180h-103v-180h62v-78h-243v78h92v433h-92v78zM266 -277q5 7 21 32t26 47q-27 4 -42.5 21.5t-15.5 40.5q0 29 19.5 47.5t49.5 18.5q29 0 50.5 -21.5t21.5 -50.5
q1 -72 -94 -167z" />
    <glyph glyph-name="kcommaaccent" unicode="&#x137;" horiz-adv-x="561" 
d="M36 657l159 -55v-348h86l65 110h-52v70h219v-70h-82l-84 -140l95 -154h85v-70h-135l-112 184h-85v-114h42v-70h-214v70h84v484l-95 33zM248 -277q5 7 21 32t26 47q-27 4 -42.5 21.5t-15.5 40.5q0 29 19.5 47.5t49.5 18.5q29 0 50.5 -21.5t21.5 -50.5q1 -72 -94 -167z" />
    <glyph glyph-name="kgreenlandic" unicode="&#x138;" horiz-adv-x="583" 
d="M43 434h214v-70h-42v-115h87l74 115h-51v70h218v-70h-81l-94 -145l96 -149h85v-70h-138l-115 179h-81v-109h42v-70h-214v70h84v294h-84v70z" />
    <glyph glyph-name="Lacute" unicode="&#x139;" horiz-adv-x="555" 
d="M38 589h310v-78h-110l-2 -433h181l38 104l74 -25l-55 -157h-436v78h109l1 433h-110v78zM353 775l20 -79l-252 -45l-11 38z" />
    <glyph glyph-name="lacute" unicode="&#x13a;" horiz-adv-x="304" 
d="M25 0v70h84v492l-99 24l20 72l167 -43v-545h84v-70h-256zM292 813l20 -79l-252 -45l-11 38z" />
    <glyph glyph-name="Lcommaaccent" unicode="&#x13b;" horiz-adv-x="555" 
d="M38 589h310v-78h-110l-2 -433h181l38 104l74 -25l-55 -157h-436v78h109l1 433h-110v78zM208 -277q5 7 21 32t26 47q-27 4 -42.5 21.5t-15.5 40.5q0 29 19.5 47.5t49.5 18.5q29 0 50.5 -21.5t21.5 -50.5q1 -72 -94 -167z" />
    <glyph glyph-name="lcommaaccent" unicode="&#x13c;" horiz-adv-x="304" 
d="M25 0v70h84v492l-99 24l20 72l167 -43v-545h84v-70h-256zM91 -277q5 7 21 32t26 47q-27 4 -42.5 21.5t-15.5 40.5q0 29 19.5 47.5t49.5 18.5q29 0 50.5 -21.5t21.5 -50.5q1 -72 -94 -167z" />
    <glyph glyph-name="Lcaron" unicode="&#x13d;" horiz-adv-x="555" 
d="M38 589h310v-78h-110l-2 -433h181l38 104l74 -25l-55 -157h-436v78h109l1 433h-110v78zM443 610l78 -18l-70 -216l-48 11z" />
    <glyph glyph-name="lcaron" unicode="&#x13e;" horiz-adv-x="304" 
d="M7 747l132 -65l132 65l24 -37l-156 -109l-157 109zM25 0v70h84v418l-99 24l20 71l167 -42v-471h84v-70h-256z" />
    <glyph glyph-name="Ldot" unicode="&#x13f;" horiz-adv-x="600" 
d="M38 589h310v-78h-110l-2 -433h181l38 104l74 -25l-55 -157h-436v78h109l1 433h-110v78zM405.5 377.5q19.5 -19.5 19.5 -47.5t-19.5 -47.5t-46.5 -19.5q-28 0 -47.5 19.5t-19.5 47.5t19.5 47.5t47.5 19.5q27 0 46.5 -19.5z" />
    <glyph glyph-name="ldot" unicode="&#x140;" horiz-adv-x="383" 
d="M25 0v70h84v492l-99 24l20 72l167 -43v-545h84v-70h-256zM343.5 339.5q19.5 -19.5 19.5 -47.5t-19.5 -47.5t-46.5 -19.5q-28 0 -47.5 19.5t-19.5 47.5t19.5 47.5t47.5 19.5q27 0 46.5 -19.5z" />
    <glyph glyph-name="Lslash" unicode="&#x141;" horiz-adv-x="555" 
d="M455 182l74 -25l-55 -157h-436v78h109v124l-71 -41v76l71 41l1 233h-110v78h310v-78h-110l-1 -182l175 100v-76l-175 -100l-1 -175h181z" />
    <glyph glyph-name="lslash" unicode="&#x142;" horiz-adv-x="304" 
d="M197 70h84v-70h-256v70h84v179l-71 -62v78l71 61v236l-99 24l20 72l167 -43v-213l75 65v-77l-75 -65v-255z" />
    <glyph glyph-name="Nacute" unicode="&#x143;" horiz-adv-x="724" 
d="M39 589h232l243 -455v377h-82v78h265v-78h-96v-511h-108l-276 511l2 -433h84v-78h-265v78h94l-1 433h-92v78zM516 775l20 -79l-252 -45l-11 38z" />
    <glyph glyph-name="nacute" unicode="&#x144;" horiz-adv-x="632" 
d="M43 70h84v275l-96 33l23 70l135 -47q74 49 158 49q79 0 128.5 -46t49.5 -128v-206h83v-70h-215v70h44v190q0 58 -28.5 87t-78.5 29q-27 0 -57.5 -9t-57.5 -25v-272h44v-70h-216v70zM389 708l64 -48l-151 -169l-40 29z" />
    <glyph glyph-name="Ncommaaccent" unicode="&#x145;" horiz-adv-x="724" 
d="M39 589h232l243 -455v377h-82v78h265v-78h-96v-511h-108l-276 511l2 -433h84v-78h-265v78h94l-1 433h-92v78zM303 -277q5 7 21 32t26 47q-27 4 -42.5 21.5t-15.5 40.5q0 29 19.5 47.5t49.5 18.5q29 0 50.5 -21.5t21.5 -50.5q1 -72 -94 -167z" />
    <glyph glyph-name="ncommaaccent" unicode="&#x146;" horiz-adv-x="632" 
d="M43 70h84v275l-96 33l23 70l135 -47q74 49 158 49q79 0 128.5 -46t49.5 -128v-206h83v-70h-215v70h44v190q0 58 -28.5 87t-78.5 29q-27 0 -57.5 -9t-57.5 -25v-272h44v-70h-216v70zM254 -277q5 7 21 32t26 47q-27 4 -42.5 21.5t-15.5 40.5q0 29 19.5 47.5t49.5 18.5
q29 0 50.5 -21.5t21.5 -50.5q1 -72 -94 -167z" />
    <glyph glyph-name="Ncaron" unicode="&#x147;" horiz-adv-x="724" 
d="M39 589h232l243 -455v377h-82v78h265v-78h-96v-511h-108l-276 511l2 -433h84v-78h-265v78h94l-1 433h-92v78zM365 638l-157 103l29 44l128 -66l127 68l26 -46z" />
    <glyph glyph-name="ncaron" unicode="&#x148;" horiz-adv-x="632" 
d="M43 70h84v275l-96 33l23 70l135 -47q74 49 158 49q79 0 128.5 -46t49.5 -128v-206h83v-70h-215v70h44v190q0 58 -28.5 87t-78.5 29q-27 0 -57.5 -9t-57.5 -25v-272h44v-70h-216v70zM316 483l-157 103l29 44l128 -66l127 68l26 -46z" />
    <glyph glyph-name="Eng" unicode="&#x14a;" horiz-adv-x="724" 
d="M297 -199l20 67q51 -19 93 -19q47 0 73 29.5t30 91.5l-296 541l2 -433h84v-78h-265v78h94l-1 433h-92v78h232l243 -455v377h-82v78h265v-78h-96v-514q-4 -108 -49.5 -166.5t-125.5 -58.5q-62 0 -129 29z" />
    <glyph glyph-name="eng" unicode="&#x14b;" horiz-adv-x="575" 
d="M477 403q48 -47 48 -127v-261q0 -117 -45.5 -180t-128.5 -63q-61 0 -129 29l21 67q51 -19 93 -19q50 0 75.5 35.5t25.5 110.5v265q0 56 -27.5 86t-79.5 30q-27 0 -57.5 -9t-57.5 -25v-272h44v-70h-216v70h84v275l-96 33l23 70l135 -47q73 49 158 49q82 0 130 -47z" />
    <glyph glyph-name="Omacron" unicode="&#x14c;" horiz-adv-x="645" 
d="M467.5 567q63.5 -38 98.5 -108.5t35 -163.5q0 -94 -35 -164.5t-98 -108.5t-146 -38q-82 0 -145 38t-98 108.5t-35 164.5q0 93 34.5 163.5t97.5 108.5t145 38q83 0 146.5 -38zM187 467q-48 -61 -48 -172q0 -112 48 -173t135 -61q88 0 136.5 61t48.5 173q0 111 -48.5 172
t-136.5 61q-87 0 -135 -61zM167 752h309v-64h-309v64z" />
    <glyph glyph-name="omacron" unicode="&#x14d;" horiz-adv-x="530" 
d="M428.5 387.5q61.5 -62.5 61.5 -171.5q0 -108 -61 -170t-165 -62q-101 0 -161.5 62t-60.5 170q0 109 60.5 171.5t161.5 62.5q103 0 164.5 -62.5zM165 336q-34 -42 -34 -120t34 -119t100 -41q67 0 101.5 41t34.5 119t-34.5 120t-101.5 42q-66 0 -100 -42zM111 597h309v-64
h-309v64z" />
    <glyph glyph-name="Obreve" unicode="&#x14e;" horiz-adv-x="645" 
d="M467.5 567q63.5 -38 98.5 -108.5t35 -163.5q0 -94 -35 -164.5t-98 -108.5t-146 -38q-82 0 -145 38t-98 108.5t-35 164.5q0 93 34.5 163.5t97.5 108.5t145 38q83 0 146.5 -38zM187 467q-48 -61 -48 -172q0 -112 48 -173t135 -61q88 0 136.5 61t48.5 173q0 111 -48.5 172
t-136.5 61q-87 0 -135 -61zM212 684q-41 32 -52 94l69 11q9 -70 92 -70q42 0 65.5 18t27.5 52l69 -11q-11 -62 -52.5 -94t-109.5 -32t-109 32z" />
    <glyph glyph-name="obreve" unicode="&#x14f;" horiz-adv-x="530" 
d="M428.5 387.5q61.5 -62.5 61.5 -171.5q0 -108 -61 -170t-165 -62q-101 0 -161.5 62t-60.5 170q0 109 60.5 171.5t161.5 62.5q103 0 164.5 -62.5zM165 336q-34 -42 -34 -120t34 -119t100 -41q67 0 101.5 41t34.5 119t-34.5 120t-101.5 42q-66 0 -100 -42zM156 529
q-41 32 -52 94l69 11q9 -70 92 -70q42 0 65.5 18t27.5 52l69 -11q-11 -62 -52.5 -94t-109.5 -32t-109 32z" />
    <glyph glyph-name="Ohungarumlaut" unicode="&#x150;" horiz-adv-x="645" 
d="M467.5 567q63.5 -38 98.5 -108.5t35 -163.5q0 -94 -35 -164.5t-98 -108.5t-146 -38q-82 0 -145 38t-98 108.5t-35 164.5q0 93 34.5 163.5t97.5 108.5t145 38q83 0 146.5 -38zM187 467q-48 -61 -48 -172q0 -112 48 -173t135 -61q88 0 136.5 61t48.5 173q0 111 -48.5 172
t-136.5 61q-87 0 -135 -61zM396 814l45 -59l-166 -105l-23 29zM551 771l27 -69l-191 -50l-15 33z" />
    <glyph glyph-name="ohungarumlaut" unicode="&#x151;" horiz-adv-x="530" 
d="M428.5 387.5q61.5 -62.5 61.5 -171.5q0 -108 -61 -170t-165 -62q-101 0 -161.5 62t-60.5 170q0 109 60.5 171.5t161.5 62.5q103 0 164.5 -62.5zM165 336q-34 -42 -34 -120t34 -119t100 -41q67 0 101.5 41t34.5 119t-34.5 120t-101.5 42q-66 0 -100 -42zM281 708l64 -48
l-151 -169l-40 29zM456 688l53 -59l-179 -138l-34 36z" />
    <glyph glyph-name="OE" unicode="&#x152;" horiz-adv-x="879" 
d="M187 34.5q-67 34.5 -105 101t-38 160.5q0 160 78 226.5t223 66.5h426l55 -161l-75 -24l-39 107h-203v-169h181v-78h-182v-186h225l39 105l75 -25l-55 -158h-453q-85 0 -152 34.5zM230.5 495.5q-43.5 -16.5 -67.5 -63.5t-24 -136q0 -110 54.5 -165t160.5 -54l65 1v434h-74
q-71 0 -114.5 -16.5z" />
    <glyph glyph-name="oe" unicode="&#x153;" horiz-adv-x="759" 
d="M688 31q-25 -17 -67.5 -32t-97.5 -15q-76 0 -131 40q-58 -40 -129 -40q-66 0 -116.5 29t-78.5 83t-28 126q0 66 29 117.5t80 80t114 28.5q77 0 139 -35q53 35 122 35q87 0 139.5 -48t52.5 -157q0 -28 -3 -51l-320 -2q5 -66 38 -100.5t93 -34.5q57 0 95.5 17t55.5 31
l40 -51q-2 -4 -27 -21zM166.5 333.5q-36.5 -42.5 -36.5 -110.5q0 -78 34.5 -123t99.5 -45q42 0 80 20q-38 57 -38 140q0 43 11 80.5t31 65.5q-36 15 -84 15q-61 0 -97.5 -42.5zM607.5 346q-28.5 30 -83.5 30t-87.5 -30t-42.5 -86l242 1q0 55 -28.5 85z" />
    <glyph glyph-name="Racute" unicode="&#x154;" horiz-adv-x="618" 
d="M590 78v-78h-155l-121 222h-5h-90v-144h60v-78h-241v78h91v433h-91v78h265q121 0 171.5 -45t50.5 -137q0 -71 -28.5 -114t-90.5 -60l91 -155h93zM400 322.5q30 21.5 30 83.5t-30.5 83.5t-97.5 21.5h-82v-210h82q68 0 98 21.5zM430 775l20 -79l-252 -45l-11 38z" />
    <glyph glyph-name="racute" unicode="&#x155;" horiz-adv-x="433" 
d="M270.5 437q42.5 13 83.5 13q33 0 47 -6l17 -110l-73 -15l-10 55q-31 -1 -62.5 -10t-56.5 -25l-1 -269h98v-70h-269v70h84v274l-96 33l23 70l137 -47q36 24 78.5 37zM290 708l64 -48l-151 -169l-40 29z" />
    <glyph glyph-name="Rcommaaccent" unicode="&#x156;" horiz-adv-x="618" 
d="M590 78v-78h-155l-121 222h-5h-90v-144h60v-78h-241v78h91v433h-91v78h265q121 0 171.5 -45t50.5 -137q0 -71 -28.5 -114t-90.5 -60l91 -155h93zM400 322.5q30 21.5 30 83.5t-30.5 83.5t-97.5 21.5h-82v-210h82q68 0 98 21.5zM249 -277q5 7 21 32t26 47q-27 4 -42.5 21.5
t-15.5 40.5q0 29 19.5 47.5t49.5 18.5q29 0 50.5 -21.5t21.5 -50.5q1 -72 -94 -167z" />
    <glyph glyph-name="rcommaaccent" unicode="&#x157;" horiz-adv-x="433" 
d="M270.5 437q42.5 13 83.5 13q33 0 47 -6l17 -110l-73 -15l-10 55q-31 -1 -62.5 -10t-56.5 -25l-1 -269h98v-70h-269v70h84v274l-96 33l23 70l137 -47q36 24 78.5 37zM114 -277q5 7 21 32t26 47q-27 4 -42.5 21.5t-15.5 40.5q0 29 19.5 47.5t49.5 18.5q29 0 50.5 -21.5
t21.5 -50.5q1 -72 -94 -167z" />
    <glyph glyph-name="Rcaron" unicode="&#x158;" horiz-adv-x="618" 
d="M590 78v-78h-155l-121 222h-5h-90v-144h60v-78h-241v78h91v433h-91v78h265q121 0 171.5 -45t50.5 -137q0 -71 -28.5 -114t-90.5 -60l91 -155h93zM400 322.5q30 21.5 30 83.5t-30.5 83.5t-97.5 21.5h-82v-210h82q68 0 98 21.5zM279 638l-157 103l29 44l128 -66l127 68
l26 -46z" />
    <glyph glyph-name="rcaron" unicode="&#x159;" horiz-adv-x="433" 
d="M270.5 437q42.5 13 83.5 13q33 0 47 -6l17 -110l-73 -15l-10 55q-31 -1 -62.5 -10t-56.5 -25l-1 -269h98v-70h-269v70h84v274l-96 33l23 70l137 -47q36 24 78.5 37zM217 483l-157 103l29 44l128 -66l127 68l26 -46z" />
    <glyph glyph-name="Sacute" unicode="&#x15a;" horiz-adv-x="543" 
d="M62 22l-19 126l74 8l13 -75q34 -11 66.5 -16.5t76.5 -5.5q61 0 100 24.5t39 77.5q0 41 -22.5 67t-78.5 34l-75 11q-87 13 -133.5 57t-46.5 112q0 74 57 118.5t161 44.5q56 0 98 -7.5t91 -26.5l18 -130l-76 -8l-13 83q-48 16 -119 16q-63 0 -99 -22.5t-36 -63.5
q0 -40 26.5 -62t77.5 -30l87 -14q86 -12 128 -55.5t42 -111.5q0 -63 -31 -105.5t-82 -63t-111 -20.5q-114 0 -213 38zM424 775l20 -79l-252 -45l-11 38z" />
    <glyph glyph-name="sacute" unicode="&#x15b;" horiz-adv-x="454" 
d="M272.5 380q-19.5 4 -47.5 4q-40 0 -68 -16.5t-28 -44.5q0 -56 91 -65l47 -6q78 -8 113 -40t35 -88q0 -64 -52 -102t-133 -38q-50 0 -95.5 12t-81.5 33l-18 102l77 17l13 -66q46 -25 101 -25q46 0 77.5 17t31.5 48q0 28 -19 40.5t-67 18.5l-48 6q-73 9 -112.5 43.5
t-39.5 86.5q0 63 51.5 98.5t124.5 35.5q89 0 157 -38l18 -95l-69 -15l-17 64q-22 9 -41.5 13zM300 708l64 -48l-151 -169l-40 29z" />
    <glyph glyph-name="Scircumflex" unicode="&#x15c;" horiz-adv-x="543" 
d="M62 22l-19 126l74 8l13 -75q34 -11 66.5 -16.5t76.5 -5.5q61 0 100 24.5t39 77.5q0 41 -22.5 67t-78.5 34l-75 11q-87 13 -133.5 57t-46.5 112q0 74 57 118.5t161 44.5q56 0 98 -7.5t91 -26.5l18 -130l-76 -8l-13 83q-48 16 -119 16q-63 0 -99 -22.5t-36 -63.5
q0 -40 26.5 -62t77.5 -30l87 -14q86 -12 128 -55.5t42 -111.5q0 -63 -31 -105.5t-82 -63t-111 -20.5q-114 0 -213 38zM271 783l174 -99l-22 -35l-152 57l-153 -57l-21 35z" />
    <glyph glyph-name="scircumflex" unicode="&#x15d;" horiz-adv-x="454" 
d="M272.5 380q-19.5 4 -47.5 4q-40 0 -68 -16.5t-28 -44.5q0 -56 91 -65l47 -6q78 -8 113 -40t35 -88q0 -64 -52 -102t-133 -38q-50 0 -95.5 12t-81.5 33l-18 102l77 17l13 -66q46 -25 101 -25q46 0 77.5 17t31.5 48q0 28 -19 40.5t-67 18.5l-48 6q-73 9 -112.5 43.5
t-39.5 86.5q0 63 51.5 98.5t124.5 35.5q89 0 157 -38l18 -95l-69 -15l-17 64q-22 9 -41.5 13zM227 642l153 -103l-26 -46l-127 68l-128 -66l-29 44z" />
    <glyph glyph-name="Scedilla" unicode="&#x15e;" horiz-adv-x="543" 
d="M451 46.5q-48 -46.5 -124 -58.5v-48q113 2 113 -80q0 -41 -31 -63.5t-83 -22.5q-40 0 -66 12.5t-46 26.5l25 40q17 -12 40.5 -19.5t44.5 -7.5q52 0 52 35q0 18 -14 26t-48 8h-43v89q-115 1 -209 38l-19 126l74 8l13 -75q34 -11 66.5 -16.5t76.5 -5.5q61 0 100 24.5
t39 77.5q0 41 -22.5 67t-78.5 34l-75 11q-87 13 -133.5 57t-46.5 112q0 74 57 118.5t161 44.5q56 0 98 -7.5t91 -26.5l18 -130l-76 -8l-13 83q-48 16 -119 16q-63 0 -99 -22.5t-36 -63.5q0 -40 26.5 -62t77.5 -30l87 -14q86 -12 128 -55.5t42 -111.5q0 -80 -48 -126.5z" />
    <glyph glyph-name="scedilla" unicode="&#x15f;" horiz-adv-x="454" 
d="M394 -140q0 -41 -31 -63.5t-83 -22.5q-40 0 -66 12.5t-46 26.5l25 40q17 -12 40.5 -19.5t44.5 -7.5q52 0 52 35q0 18 -14 26t-48 8h-43v89q-48 1 -92.5 13t-79.5 32l-18 102l77 17l13 -66q46 -25 101 -25q46 0 77.5 17t31.5 48q0 28 -19 40.5t-67 18.5l-48 6
q-73 9 -112.5 43.5t-39.5 86.5q0 63 51.5 98.5t124.5 35.5q89 0 157 -38l18 -95l-69 -15l-17 64q-22 9 -41.5 13t-47.5 4q-40 0 -68 -16.5t-28 -44.5q0 -56 91 -65l47 -6q78 -8 113 -40t35 -88q0 -53 -36.5 -88.5t-97.5 -47.5v-48q113 2 113 -80z" />
    <glyph glyph-name="Scaron" unicode="&#x160;" horiz-adv-x="543" 
d="M62 22l-19 126l74 8l13 -75q34 -11 66.5 -16.5t76.5 -5.5q61 0 100 24.5t39 77.5q0 41 -22.5 67t-78.5 34l-75 11q-87 13 -133.5 57t-46.5 112q0 74 57 118.5t161 44.5q56 0 98 -7.5t91 -26.5l18 -130l-76 -8l-13 83q-48 16 -119 16q-63 0 -99 -22.5t-36 -63.5
q0 -40 26.5 -62t77.5 -30l87 -14q86 -12 128 -55.5t42 -111.5q0 -63 -31 -105.5t-82 -63t-111 -20.5q-114 0 -213 38zM273 638l-157 103l29 44l128 -66l127 68l26 -46z" />
    <glyph glyph-name="scaron" unicode="&#x161;" horiz-adv-x="454" 
d="M272.5 380q-19.5 4 -47.5 4q-40 0 -68 -16.5t-28 -44.5q0 -56 91 -65l47 -6q78 -8 113 -40t35 -88q0 -64 -52 -102t-133 -38q-50 0 -95.5 12t-81.5 33l-18 102l77 17l13 -66q46 -25 101 -25q46 0 77.5 17t31.5 48q0 28 -19 40.5t-67 18.5l-48 6q-73 9 -112.5 43.5
t-39.5 86.5q0 63 51.5 98.5t124.5 35.5q89 0 157 -38l18 -95l-69 -15l-17 64q-22 9 -41.5 13zM227 483l-157 103l29 44l128 -66l127 68l26 -46z" />
    <glyph glyph-name="uni0162" unicode="&#x162;" horiz-adv-x="591" 
d="M34 589h520v-174h-83v96h-131l-2 -433h92v-78h-274v78h92l1 433h-131v-96h-84v174zM284 -213.5q-26 12.5 -46 26.5l25 40q17 -12 40.5 -19.5t44.5 -7.5q52 0 52 35q0 18 -14 26t-48 8h-43v105h56v-60q113 2 113 -80q0 -41 -31 -63.5t-83 -22.5q-40 0 -66 12.5z" />
    <glyph glyph-name="uni0163" unicode="&#x163;" horiz-adv-x="374" 
d="M350 -140q0 -41 -31 -63.5t-83 -22.5q-40 0 -66 12.5t-46 26.5l25 40q17 -12 40.5 -19.5t44.5 -7.5q52 0 52 35q0 18 -14 26t-48 8h-43v104q-74 35 -74 154v211h-83v70h83v94l86 22v-116h124v-70h-124v-171q0 -70 15 -105.5t54 -35.5q16 0 31.5 4.5t37.5 14.5l17 -64
q-56 -23 -94 -23q-11 0 -17 1v-45q113 2 113 -80z" />
    <glyph glyph-name="Tcaron" unicode="&#x164;" horiz-adv-x="591" 
d="M34 589h520v-174h-83v96h-131l-2 -433h92v-78h-274v78h92l1 433h-131v-96h-84v174zM297 638l-157 103l29 44l128 -66l127 68l26 -46z" />
    <glyph glyph-name="tcaron" unicode="&#x165;" horiz-adv-x="374" 
d="M147.5 23.5q-40.5 39.5 -40.5 129.5v211h-83v70h83v94l86 22v-116h124v-70h-124v-171q0 -70 15 -105.5t54 -35.5q16 0 31.5 4.5t37.5 14.5l17 -64q-56 -23 -94 -23q-66 0 -106.5 39.5zM161 554l-157 103l29 44l128 -66l127 68l26 -46z" />
    <glyph glyph-name="Tbar" unicode="&#x166;" horiz-adv-x="591" 
d="M34 589h520v-174h-83v96h-131l-1 -181h112v-65h-112l-1 -187h92v-78h-274v78h92v187h-110v65h111v181h-131v-96h-84v174z" />
    <glyph glyph-name="tbar" unicode="&#x167;" horiz-adv-x="374" 
d="M348 7q-56 -23 -94 -23q-66 0 -106.5 39.5t-40.5 129.5v99h-87v65h87v47h-83v70h83v94l86 22v-116h124v-70h-124v-47h140v-65h-140v-59q0 -70 15 -105.5t54 -35.5q16 0 31.5 4.5t37.5 14.5z" />
    <glyph glyph-name="Utilde" unicode="&#x168;" horiz-adv-x="681" 
d="M504.5 44.5q-55.5 -60.5 -167.5 -60.5q-109 0 -163 60.5t-54 169.5v297h-93v78h246v-78h-63v-322q0 -66 33.5 -98t93.5 -32q63 0 98 35t35 105v312h-62v78h245v-78h-93v-297q0 -109 -55.5 -169.5zM191 716q35 24 57.5 33.5t55.5 9.5q21 0 38 -6t37 -17q17 -9 27.5 -13
t23.5 -4q17 0 29.5 6.5t39.5 25.5l25 -58q-30 -26 -51.5 -35.5t-49.5 -9.5q-15 0 -28.5 5.5t-31.5 15.5q-19 10 -32 15t-27 5q-21 0 -35.5 -4.5t-31 -12.5t-23.5 -11z" />
    <glyph glyph-name="utilde" unicode="&#x169;" horiz-adv-x="617" 
d="M365 -4q-40 -12 -75 -12q-95 0 -139.5 42t-44.5 131v207h-83v70h171v-260q0 -61 24 -88.5t77 -27.5q30 0 64 9t57 23v274h-83v70h171v-348l92 -31l-23 -74l-136 47q-32 -20 -72 -32zM136 561q35 24 57.5 33.5t55.5 9.5q21 0 38 -6t37 -17q17 -9 27.5 -13t23.5 -4
q17 0 29.5 6.5t39.5 25.5l25 -58q-30 -26 -51.5 -35.5t-49.5 -9.5q-15 0 -28.5 5.5t-31.5 15.5q-19 10 -32 15t-27 5q-21 0 -35.5 -4.5t-31 -12.5t-23.5 -11z" />
    <glyph glyph-name="Umacron" unicode="&#x16a;" horiz-adv-x="681" 
d="M504.5 44.5q-55.5 -60.5 -167.5 -60.5q-109 0 -163 60.5t-54 169.5v297h-93v78h246v-78h-63v-322q0 -66 33.5 -98t93.5 -32q63 0 98 35t35 105v312h-62v78h245v-78h-93v-297q0 -109 -55.5 -169.5zM185 752h309v-64h-309v64z" />
    <glyph glyph-name="umacron" unicode="&#x16b;" horiz-adv-x="617" 
d="M365 -4q-40 -12 -75 -12q-95 0 -139.5 42t-44.5 131v207h-83v70h171v-260q0 -61 24 -88.5t77 -27.5q30 0 64 9t57 23v274h-83v70h171v-348l92 -31l-23 -74l-136 47q-32 -20 -72 -32zM130 597h309v-64h-309v64z" />
    <glyph glyph-name="Ubreve" unicode="&#x16c;" horiz-adv-x="681" 
d="M504.5 44.5q-55.5 -60.5 -167.5 -60.5q-109 0 -163 60.5t-54 169.5v297h-93v78h246v-78h-63v-322q0 -66 33.5 -98t93.5 -32q63 0 98 35t35 105v312h-62v78h245v-78h-93v-297q0 -109 -55.5 -169.5zM230 684q-41 32 -52 94l69 11q9 -70 92 -70q42 0 65.5 18t27.5 52l69 -11
q-11 -62 -52.5 -94t-109.5 -32t-109 32z" />
    <glyph glyph-name="ubreve" unicode="&#x16d;" horiz-adv-x="617" 
d="M365 -4q-40 -12 -75 -12q-95 0 -139.5 42t-44.5 131v207h-83v70h171v-260q0 -61 24 -88.5t77 -27.5q30 0 64 9t57 23v274h-83v70h171v-348l92 -31l-23 -74l-136 47q-32 -20 -72 -32zM175 529q-41 32 -52 94l69 11q9 -70 92 -70q42 0 65.5 18t27.5 52l69 -11
q-11 -62 -52.5 -94t-109.5 -32t-109 32z" />
    <glyph glyph-name="Uring" unicode="&#x16e;" horiz-adv-x="681" 
d="M504.5 44.5q-55.5 -60.5 -167.5 -60.5q-109 0 -163 60.5t-54 169.5v297h-93v78h246v-78h-63v-322q0 -66 33.5 -98t93.5 -32q63 0 98 35t35 105v312h-62v78h245v-78h-93v-297q0 -109 -55.5 -169.5zM406 814q25 -25 25 -66t-25 -66t-67 -25q-41 0 -65.5 25t-24.5 66
t24.5 66t65.5 25q42 0 67 -25zM309.5 778q-11.5 -12 -11.5 -30q0 -19 11.5 -30.5t29.5 -11.5q19 0 30.5 11.5t11.5 30.5q0 18 -11.5 30t-30.5 12q-18 0 -29.5 -12z" />
    <glyph glyph-name="uring" unicode="&#x16f;" horiz-adv-x="617" 
d="M365 -4q-40 -12 -75 -12q-95 0 -139.5 42t-44.5 131v207h-83v70h171v-260q0 -61 24 -88.5t77 -27.5q30 0 64 9t57 23v274h-83v70h171v-348l92 -31l-23 -74l-136 47q-32 -20 -72 -32zM351 659q25 -25 25 -66t-25 -66t-67 -25q-41 0 -65.5 25t-24.5 66t24.5 66t65.5 25
q42 0 67 -25zM254.5 623q-11.5 -12 -11.5 -30q0 -19 11.5 -30.5t29.5 -11.5q19 0 30.5 11.5t11.5 30.5q0 18 -11.5 30t-30.5 12q-18 0 -29.5 -12z" />
    <glyph glyph-name="Uhungarumlaut" unicode="&#x170;" horiz-adv-x="681" 
d="M504.5 44.5q-55.5 -60.5 -167.5 -60.5q-109 0 -163 60.5t-54 169.5v297h-93v78h246v-78h-63v-322q0 -66 33.5 -98t93.5 -32q63 0 98 35t35 105v312h-62v78h245v-78h-93v-297q0 -109 -55.5 -169.5zM414 814l45 -59l-166 -105l-23 29zM569 771l27 -69l-191 -50l-15 33z" />
    <glyph glyph-name="uhungarumlaut" unicode="&#x171;" horiz-adv-x="617" 
d="M365 -4q-40 -12 -75 -12q-95 0 -139.5 42t-44.5 131v207h-83v70h171v-260q0 -61 24 -88.5t77 -27.5q30 0 64 9t57 23v274h-83v70h171v-348l92 -31l-23 -74l-136 47q-32 -20 -72 -32zM300 708l64 -48l-151 -169l-40 29zM475 688l53 -59l-179 -138l-34 36z" />
    <glyph glyph-name="Uogonek" unicode="&#x172;" horiz-adv-x="681" 
d="M653 589v-78h-93v-297q0 -81 -31 -136t-94 -78q-61 -40 -61 -95q0 -22 16 -34t44 -12q24 0 49 9v-64q-39 -19 -82 -19q-50 0 -83 25t-33 67q0 63 56 107h-4q-109 0 -163 60.5t-54 169.5v297h-93v78h246v-78h-63v-322q0 -66 33.5 -98t93.5 -32q63 0 98 35t35 105v312h-62
v78h245z" />
    <glyph glyph-name="uogonek" unicode="&#x173;" horiz-adv-x="617" 
d="M604 -161v-64q-39 -19 -82 -19q-50 0 -83 25t-33 67q0 47 30.5 83t95.5 64l-95 33q-32 -20 -72 -32t-75 -12q-95 0 -139.5 42t-44.5 131v207h-83v70h171v-260q0 -61 24 -88.5t77 -27.5q30 0 64 9t57 23v274h-83v70h171v-348l92 -31l-23 -73l1 -1q-41 -22 -60 -48t-19 -57
q0 -22 16 -34t44 -12q24 0 49 9z" />
    <glyph glyph-name="Wcircumflex" unicode="&#x174;" horiz-adv-x="918" 
d="M2 589h251v-78h-62l78 -270l40 -142l29 138l79 277h103l70 -272l30 -142l39 142l84 269h-64v78h237v-78h-89l-161 -511h-104l-68 268l-31 133l-37 -136l-70 -265h-99l-162 511h-93v78zM465 783l174 -99l-22 -35l-152 57l-153 -57l-21 35z" />
    <glyph glyph-name="wcircumflex" unicode="&#x175;" horiz-adv-x="755" 
d="M201 0l-119 364h-79v70h230v-70h-63l51 -166l32 -105l30 103l54 176h87l55 -180l30 -101l29 97l56 176h-56v70h214v-70h-79l-120 -364h-89l-84 268l-88 -268h-91zM381 642l153 -103l-26 -46l-127 68l-128 -66l-29 44z" />
    <glyph glyph-name="Ycircumflex" unicode="&#x176;" horiz-adv-x="654" 
d="M5 589h248v-78h-56l135 -189l147 189h-72v78h243v-78h-69l-208 -259l-1 -174h94v-78h-277v78h94l1 171l-197 262h-82v78zM327 783l174 -99l-22 -35l-152 57l-153 -57l-21 35z" />
    <glyph glyph-name="ycircumflex" unicode="&#x177;" horiz-adv-x="558" 
d="M556 434v-70h-74l-168 -450q-27 -71 -67 -107t-96 -36q-34 0 -72 13l15 68q32 -10 52 -10q28 0 45 9.5t31.5 34.5t32.5 75l3 10l-184 393h-72v70h218v-70h-56l129 -297l106 297h-54l1 70h210zM283 642l153 -103l-26 -46l-127 68l-128 -66l-29 44z" />
    <glyph glyph-name="Ydieresis" unicode="&#x178;" horiz-adv-x="654" 
d="M5 589h248v-78h-56l135 -189l147 189h-72v78h243v-78h-69l-208 -259l-1 -174h94v-78h-277v78h94l1 171l-197 262h-82v78zM278 767q18 -18 18 -42t-18 -41.5t-42 -17.5t-41.5 17.5t-17.5 41.5t17.5 42t41.5 18t42 -18zM459.5 767q17.5 -18 17.5 -42t-17.5 -41.5
t-41.5 -17.5q-25 0 -42.5 17.5t-17.5 41.5t17.5 42t42.5 18q24 0 41.5 -18z" />
    <glyph glyph-name="Zacute" unicode="&#x179;" horiz-adv-x="543" 
d="M61 589h427v-58l-329 -453h238l38 104l75 -25l-53 -157h-414v63l325 448h-242l-19 -95l-74 11zM423 775l20 -79l-252 -45l-11 38z" />
    <glyph glyph-name="zacute" unicode="&#x17a;" horiz-adv-x="464" 
d="M44 0v60l263 304h-190l-11 -56l-75 15l21 111h358v-57l-265 -307h200l10 61l77 -14l-23 -117h-365zM307 708l64 -48l-151 -169l-40 29z" />
    <glyph glyph-name="Zdotaccent" unicode="&#x17b;" horiz-adv-x="543" 
d="M61 589h427v-58l-329 -453h238l38 104l75 -25l-53 -157h-414v63l325 448h-242l-19 -95l-74 11zM315 785.5q18 -17.5 18 -46.5q0 -28 -18 -46t-46 -18t-45.5 17.5t-17.5 46.5t17.5 46.5t45.5 17.5t46 -17.5z" />
    <glyph glyph-name="zdotaccent" unicode="&#x17c;" horiz-adv-x="464" 
d="M44 0v60l263 304h-190l-11 -56l-75 15l21 111h358v-57l-265 -307h200l10 61l77 -14l-23 -117h-365zM277 630.5q18 -17.5 18 -46.5q0 -28 -18 -46t-46 -18t-45.5 17.5t-17.5 46.5t17.5 46.5t45.5 17.5t46 -17.5z" />
    <glyph glyph-name="Zcaron" unicode="&#x17d;" horiz-adv-x="543" 
d="M61 589h427v-58l-329 -453h238l38 104l75 -25l-53 -157h-414v63l325 448h-242l-19 -95l-74 11zM272 638l-157 103l29 44l128 -66l127 68l26 -46z" />
    <glyph glyph-name="zcaron" unicode="&#x17e;" horiz-adv-x="464" 
d="M44 0v60l263 304h-190l-11 -56l-75 15l21 111h358v-57l-265 -307h200l10 61l77 -14l-23 -117h-365zM234 483l-157 103l29 44l128 -66l127 68l26 -46z" />
    <glyph glyph-name="uni018F" unicode="&#x18f;" horiz-adv-x="609" 
d="M425 567q65 -38 100 -108t35 -164t-34.5 -164.5t-97 -108.5t-144.5 -38q-76 0 -135 36.5t-92 104t-33 157.5v39h442q-17 208 -195 208q-77 0 -129 -24l-19 -84l-77 17l23 119q27 17 72 32.5t133 15.5q86 0 151 -38zM413.5 111q50.5 50 50.5 137h-351q0 -89 47 -138
t124 -49q79 0 129.5 50z" />
    <glyph glyph-name="florin" unicode="&#x192;" horiz-adv-x="482" 
d="M24 34l43 62q30 -27 61 -27q32 0 54.5 27.5t29.5 78.5l26 189h-84l10 70h84l8 55q11 83 62.5 129.5t131.5 46.5q32 0 59.5 -11.5t43.5 -32.5l-41 -58q-26 26 -68 26q-40 0 -66.5 -25t-32.5 -66l-9 -64h101l-11 -70h-100l-28 -207q-12 -87 -56.5 -126t-116.5 -39
q-60 0 -101 42z" />
    <glyph glyph-name="Ohorn" unicode="&#x1a0;" horiz-adv-x="645" 
d="M574 440.5q27 -64.5 27 -145.5q0 -94 -35 -164.5t-98 -108.5t-146 -38q-82 0 -145 38t-98 108.5t-35 164.5q0 93 34.5 163.5t97.5 108.5t145 38q54 0 97 -15q28 3 42.5 23t14.5 55h70q0 -86 -47 -122q49 -41 76 -105.5zM458.5 122q48.5 61 48.5 173q0 111 -48.5 172
t-136.5 61q-87 0 -135 -61t-48 -172q0 -112 48 -173t135 -61q88 0 136.5 61z" />
    <glyph glyph-name="ohorn" unicode="&#x1a1;" horiz-adv-x="530" 
d="M432 384q58 -63 58 -168q0 -108 -61 -170t-165 -62q-101 0 -161.5 62t-60.5 170q0 109 60.5 171.5t161.5 62.5q52 0 93 -16q31 2 47 22t16 57h70q0 -94 -58 -129zM366.5 97q34.5 41 34.5 119t-34.5 120t-101.5 42q-66 0 -100 -42t-34 -120t34 -119t100 -41q67 0 101.5 41
z" />
    <glyph glyph-name="Uhorn" unicode="&#x1af;" horiz-adv-x="699" 
d="M560 516v-302q0 -109 -55.5 -169.5t-167.5 -60.5q-109 0 -163 60.5t-54 169.5v297h-93v78h246v-78h-63v-322q0 -66 33.5 -98t93.5 -32q63 0 98 35t35 105v312h-62v78h108q34 0 51.5 20t17.5 59h70q0 -129 -95 -152z" />
    <glyph glyph-name="uhorn" unicode="&#x1b0;" horiz-adv-x="631" 
d="M504 86l92 -31l-23 -74l-136 47q-32 -20 -72 -32t-75 -12q-95 0 -139.5 42t-44.5 131v207h-83v70h171v-260q0 -61 24 -88.5t77 -27.5q30 0 64 9t57 23v274h-83v70h128q34 0 51.5 20t17.5 59h70q0 -122 -96 -145v-282z" />
    <glyph glyph-name="Gcaron" unicode="&#x1e6;" horiz-adv-x="601" 
d="M441.5 0q-43.5 -16 -114.5 -16q-82 0 -146 35.5t-101 105.5t-37 170q0 94 36 164t101.5 108t153.5 38q115 0 188 -57l25 -114l-77 -18l-19 83q-26 16 -51 23.5t-64 7.5q-52 0 -97.5 -28t-73 -81.5t-27.5 -125.5q0 -117 53 -176t135 -59q44 0 72 8t58 28v122h-128v76h213
v-239q-56 -39 -99.5 -55zM341 638l-157 103l29 44l128 -66l127 68l26 -46z" />
    <glyph glyph-name="gcaron" unicode="&#x1e7;" horiz-adv-x="546" 
d="M418.5 2.5q41.5 -31.5 41.5 -91.5q0 -67 -59 -103t-159 -36q-55 0 -122 15.5t-97 33.5l32 67q39 -19 89.5 -30t97.5 -11q64 0 97.5 15t33.5 44q0 57 -97 57h-147v172q-47 19 -71.5 55.5t-24.5 88.5q0 79 54.5 125t147.5 46q74 0 122 -27l145 53l26 -76l-119 -25
q30 -36 30 -91q0 -79 -56 -123t-149 -44q-17 0 -25 1v-84h86q82 0 123.5 -31.5zM149.5 354.5q-29.5 -25.5 -29.5 -71.5q0 -43 31.5 -69.5t84.5 -26.5t84.5 26.5t31.5 69.5q0 46 -30 71.5t-86 25.5q-57 0 -86.5 -25.5zM238 483l-157 103l29 44l128 -66l127 68l26 -46z" />
    <glyph glyph-name="uni01EA" unicode="&#x1ea;" horiz-adv-x="645" 
d="M382.5 -39q-17.5 -25 -17.5 -56q0 -22 16 -34t44 -12q24 0 49 9v-64q-39 -19 -82 -19q-50 0 -83 25t-33 67q0 63 56 107h-10q-82 0 -145 38t-98 108.5t-35 164.5q0 93 34.5 163.5t97.5 108.5t145 38q83 0 146.5 -38t98.5 -108.5t35 -163.5q0 -105 -43 -180t-120 -108
q-38 -21 -55.5 -46zM187 122q48 -61 135 -61q88 0 136.5 61t48.5 173q0 111 -48.5 172t-136.5 61q-87 0 -135 -61t-48 -172q0 -112 48 -173z" />
    <glyph glyph-name="uni01EB" unicode="&#x1eb;" horiz-adv-x="530" 
d="M337 -118q16 -12 44 -12q23 0 49 9v-64q-39 -19 -82 -19q-50 0 -83 25t-33 67q0 56 43 96h-11q-101 0 -161.5 62t-60.5 170q0 109 60.5 171.5t161.5 62.5q103 0 164.5 -62.5t61.5 -171.5q0 -66 -23.5 -115.5t-67.5 -78.5l1 -1q-41 -22 -60 -48t-19 -57q0 -22 16 -34z
M165 97q34 -41 100 -41q67 0 101.5 41t34.5 119t-34.5 120t-101.5 42q-66 0 -100 -42t-34 -120t34 -119z" />
    <glyph glyph-name="Aringacute" unicode="&#x1fa;" horiz-adv-x="688" 
d="M650 78v-78h-248v78h61l-32 90h-211l-33 -90h62v-78h-240v78h97l162 433h-97v78h104q-27 25 -27 68q0 41 24.5 66t65.5 25q42 0 67 -25t25 -66q0 -29 -13.5 -50.5t-36.5 -32.5l176 -496h94zM308.5 687q-11.5 -12 -11.5 -30q0 -19 11.5 -30.5t29.5 -11.5q19 0 30.5 11.5
t11.5 30.5q0 18 -11.5 30t-30.5 12q-18 0 -29.5 -12zM246 239h160l-76 245zM487 897l20 -79l-252 -45l-11 38z" />
    <glyph glyph-name="aringacute" unicode="&#x1fb;" horiz-adv-x="532" 
d="M213 -16q-87 0 -132 35t-45 102q0 65 43.5 98t127.5 33h124q0 128 -98 128q-47 0 -87 -12l-10 -54l-72 13l17 95q78 28 151 28q92 0 139.5 -49.5t47.5 -145.5v-172l92 -30l-23 -72l-133 46q-68 -43 -142 -43zM147.5 169q-21.5 -17 -21.5 -49q0 -66 91 -66q65 0 114 35v96
l-121 1q-41 0 -62.5 -17zM303 659q25 -25 25 -66t-25 -66t-67 -25q-41 0 -65.5 25t-24.5 66t24.5 66t65.5 25q42 0 67 -25zM206.5 623q-11.5 -12 -11.5 -30q0 -19 11.5 -30.5t29.5 -11.5q19 0 30.5 11.5t11.5 30.5q0 18 -11.5 30t-30.5 12q-18 0 -29.5 -12zM312 958l64 -48
l-151 -169l-40 29z" />
    <glyph glyph-name="AEacute" unicode="&#x1fc;" horiz-adv-x="925" 
d="M27 0v78h99l273 433h-101v78h518l55 -160l-75 -25l-39 107h-183v-177h161v-77h-162v-179h205l39 105l74 -25l-53 -158h-447v78h92v85h-214l-53 -85h57v-78h-246zM316 241h167l1 270zM676 775l20 -79l-252 -45l-11 38z" />
    <glyph glyph-name="aeacute" unicode="&#x1fd;" horiz-adv-x="784" 
d="M151 441q32 7 77 7q64 0 104 -25t56 -69q29 44 73.5 69t99.5 25q77 0 127.5 -50t50.5 -152q0 -25 -3 -52l-319 -2q5 -66 39.5 -101.5t95.5 -35.5q56 0 94.5 17t55.5 31l40 -51q0 -3 -25.5 -20.5t-68 -32.5t-97.5 -15q-101 0 -162 61q-31 -21 -83.5 -41t-92.5 -20
q-82 0 -129.5 38t-47.5 99q0 67 47.5 100t123.5 33h126q0 65 -20.5 92.5t-80.5 27.5q-44 0 -86 -11l-10 -53l-73 13l17 96q39 15 71 22zM636 347q-25 29 -79 29q-56 0 -92.5 -30.5t-45.5 -85.5l243 1q-1 57 -26 86zM148.5 171.5q-22.5 -13.5 -22.5 -51.5q0 -32 26 -48.5
t65 -16.5q32 0 70.5 13t66.5 30q-19 40 -22 87h-122q-39 0 -61.5 -13.5zM469 708l64 -48l-151 -169l-40 29z" />
    <glyph glyph-name="Oslashacute" unicode="&#x1fe;" horiz-adv-x="645" 
d="M574 441.5q27 -64.5 27 -146.5q0 -94 -35 -164.5t-98 -108.5t-146 -38q-45 0 -86 12l-30 -65h-80l43 96q-59 39 -92 108t-33 160q0 93 34.5 163.5t97.5 108.5t145 38q63 0 114 -21l30 67h80l-48 -105q50 -40 77 -104.5zM187 467q-48 -61 -48 -172q0 -67 18 -116.5
t52 -78.5l189 414q-34 14 -76 14q-87 0 -135 -61zM458.5 122q48.5 61 48.5 173q0 115 -51 175l-183 -403q23 -6 49 -6q88 0 136.5 61zM475 775l20 -79l-252 -45l-11 38z" />
    <glyph glyph-name="oslashacute" unicode="&#x1ff;" horiz-adv-x="530" 
d="M461 343.5q29 -53.5 29 -127.5q0 -108 -61 -170t-165 -62q-33 0 -67 8l-26 -63h-53l34 80q-52 27 -81 80.5t-29 126.5q0 109 60.5 171.5t161.5 62.5q35 0 69 -8l26 61h53l-33 -79q53 -27 82 -80.5zM182 81l123 293q-16 4 -40 4q-66 0 -100 -42t-34 -120q0 -96 51 -135z
M366.5 97q34.5 41 34.5 119q0 96 -52 137l-123 -293q16 -4 39 -4q67 0 101.5 41zM341 708l64 -48l-151 -169l-40 29z" />
    <glyph glyph-name="uni0200" unicode="&#x200;" horiz-adv-x="659" 
d="M9 0v78h97l162 433h-97v78h204l181 -511h94v-78h-248v78h61l-32 90h-211l-33 -90h62v-78h-240zM246 239h160l-76 245zM247 814l145 -135l-23 -29l-167 105zM93 771l179 -86l-15 -33l-192 50z" />
    <glyph glyph-name="uni0201" unicode="&#x201;" horiz-adv-x="532" 
d="M213 -16q-87 0 -132 35t-45 102q0 65 43.5 98t127.5 33h124q0 128 -98 128q-47 0 -87 -12l-10 -54l-72 13l17 95q78 28 151 28q92 0 139.5 -49.5t47.5 -145.5v-172l92 -30l-23 -72l-133 46q-68 -43 -142 -43zM147.5 169q-21.5 -17 -21.5 -49q0 -66 91 -66q65 0 114 35v96
l-121 1q-41 0 -62.5 -17zM223 708l127 -188l-40 -29l-151 169zM48 688l160 -161l-34 -36l-179 138z" />
    <glyph glyph-name="uni0202" unicode="&#x202;" horiz-adv-x="659" 
d="M9 0v78h97l162 433h-97v78h204l181 -511h94v-78h-248v78h61l-32 90h-211l-33 -90h62v-78h-240zM246 239h160l-76 245zM430.5 768q41.5 -32 52.5 -94l-69 -11q-4 34 -27.5 52t-65.5 18q-83 0 -92 -70l-69 11q11 62 52 94t109 32t109.5 -32z" />
    <glyph glyph-name="uni0203" unicode="&#x203;" horiz-adv-x="532" 
d="M213 -16q-87 0 -132 35t-45 102q0 65 43.5 98t127.5 33h124q0 128 -98 128q-47 0 -87 -12l-10 -54l-72 13l17 95q78 28 151 28q92 0 139.5 -49.5t47.5 -145.5v-172l92 -30l-23 -72l-133 46q-68 -43 -142 -43zM147.5 169q-21.5 -17 -21.5 -49q0 -66 91 -66q65 0 114 35v96
l-121 1q-41 0 -62.5 -17zM345.5 613q41.5 -32 52.5 -94l-69 -11q-4 34 -27.5 52t-65.5 18q-83 0 -92 -70l-69 11q11 62 52 94t109 32t109.5 -32z" />
    <glyph glyph-name="uni0204" unicode="&#x204;" horiz-adv-x="593" 
d="M39 589h447l53 -160l-73 -25l-40 107h-204v-169h182v-78h-182l-1 -186h227l39 105l73 -25l-53 -158h-469v78h93l1 433h-93v78zM281 863l127 -188l-40 -29l-151 169zM106 843l160 -161l-34 -36l-179 138z" />
    <glyph glyph-name="uni0205" unicode="&#x205;" horiz-adv-x="499" 
d="M368.5 0.5q-43.5 -16.5 -94.5 -16.5q-109 0 -172.5 62.5t-63.5 170.5q0 69 27.5 122t78 82t116.5 29q94 0 148.5 -58t54.5 -155q0 -22 -3 -43l-336 -2q4 -68 45.5 -102t102.5 -34q84 0 145 49l37 -53q-42 -35 -85.5 -51.5zM344 347.5q-31 33.5 -83 33.5t-90.5 -34
t-45.5 -88h251q-1 55 -32 88.5zM243 708l127 -188l-40 -29l-151 169zM68 688l160 -161l-34 -36l-179 138z" />
    <glyph glyph-name="uni0206" unicode="&#x206;" horiz-adv-x="593" 
d="M39 589h447l53 -160l-73 -25l-40 107h-204v-169h182v-78h-182l-1 -186h227l39 105l73 -25l-53 -158h-469v78h93l1 433h-93v78zM403.5 768q41.5 -32 52.5 -94l-69 -11q-4 34 -27.5 52t-65.5 18q-83 0 -92 -70l-69 11q11 62 52 94t109 32t109.5 -32z" />
    <glyph glyph-name="uni0207" unicode="&#x207;" horiz-adv-x="499" 
d="M368.5 0.5q-43.5 -16.5 -94.5 -16.5q-109 0 -172.5 62.5t-63.5 170.5q0 69 27.5 122t78 82t116.5 29q94 0 148.5 -58t54.5 -155q0 -22 -3 -43l-336 -2q4 -68 45.5 -102t102.5 -34q84 0 145 49l37 -53q-42 -35 -85.5 -51.5zM344 347.5q-31 33.5 -83 33.5t-90.5 -34
t-45.5 -88h251q-1 55 -32 88.5zM365.5 613q41.5 -32 52.5 -94l-69 -11q-4 34 -27.5 52t-65.5 18q-83 0 -92 -70l-69 11q11 62 52 94t109 32t109.5 -32z" />
    <glyph glyph-name="uni0208" unicode="&#x208;" horiz-adv-x="357" 
d="M39 589h280v-78h-93l-2 -433h95v-78h-281v78h97v433h-96v78zM165 863l127 -188l-40 -29l-151 169zM-10 843l160 -161l-34 -36l-179 138z" />
    <glyph glyph-name="uni0209" unicode="&#x209;" horiz-adv-x="315" 
d="M37 434h172v-364h83v-70h-255v70h83v294h-83v70zM141 708l127 -188l-40 -29l-151 169zM-34 688l160 -161l-34 -36l-179 138z" />
    <glyph glyph-name="uni020A" unicode="&#x20a;" horiz-adv-x="357" 
d="M39 589h280v-78h-93l-2 -433h95v-78h-281v78h97v433h-96v78zM287.5 768q41.5 -32 52.5 -94l-69 -11q-4 34 -27.5 52t-65.5 18q-83 0 -92 -70l-69 11q11 62 52 94t109 32t109.5 -32z" />
    <glyph glyph-name="uni020B" unicode="&#x20b;" horiz-adv-x="315" 
d="M37 434h172v-364h83v-70h-255v70h83v294h-83v70zM249 612.5q35 -31.5 42 -93.5l-61 -12q-5 71 -76 71q-70 0 -75 -71l-61 12q7 62 42 93.5t94 31.5q60 0 95 -31.5z" />
    <glyph glyph-name="uni020C" unicode="&#x20c;" horiz-adv-x="645" 
d="M467.5 567q63.5 -38 98.5 -108.5t35 -163.5q0 -94 -35 -164.5t-98 -108.5t-146 -38q-82 0 -145 38t-98 108.5t-35 164.5q0 93 34.5 163.5t97.5 108.5t145 38q83 0 146.5 -38zM187 467q-48 -61 -48 -172q0 -112 48 -173t135 -61q88 0 136.5 61t48.5 173q0 111 -48.5 172
t-136.5 61q-87 0 -135 -61zM308 863l127 -188l-40 -29l-151 169zM133 843l160 -161l-34 -36l-179 138z" />
    <glyph glyph-name="uni020D" unicode="&#x20d;" horiz-adv-x="530" 
d="M428.5 387.5q61.5 -62.5 61.5 -171.5q0 -108 -61 -170t-165 -62q-101 0 -161.5 62t-60.5 170q0 109 60.5 171.5t161.5 62.5q103 0 164.5 -62.5zM165 336q-34 -42 -34 -120t34 -119t100 -41q67 0 101.5 41t34.5 119t-34.5 120t-101.5 42q-66 0 -100 -42zM252 708l127 -188
l-40 -29l-151 169zM77 688l160 -161l-34 -36l-179 138z" />
    <glyph glyph-name="uni020E" unicode="&#x20e;" horiz-adv-x="645" 
d="M467.5 567q63.5 -38 98.5 -108.5t35 -163.5q0 -94 -35 -164.5t-98 -108.5t-146 -38q-82 0 -145 38t-98 108.5t-35 164.5q0 93 34.5 163.5t97.5 108.5t145 38q83 0 146.5 -38zM187 467q-48 -61 -48 -172q0 -112 48 -173t135 -61q88 0 136.5 61t48.5 173q0 111 -48.5 172
t-136.5 61q-87 0 -135 -61zM430.5 768q41.5 -32 52.5 -94l-69 -11q-4 34 -27.5 52t-65.5 18q-83 0 -92 -70l-69 11q11 62 52 94t109 32t109.5 -32z" />
    <glyph glyph-name="uni020F" unicode="&#x20f;" horiz-adv-x="530" 
d="M428.5 387.5q61.5 -62.5 61.5 -171.5q0 -108 -61 -170t-165 -62q-101 0 -161.5 62t-60.5 170q0 109 60.5 171.5t161.5 62.5q103 0 164.5 -62.5zM165 336q-34 -42 -34 -120t34 -119t100 -41q67 0 101.5 41t34.5 119t-34.5 120t-101.5 42q-66 0 -100 -42zM374.5 613
q41.5 -32 52.5 -94l-69 -11q-4 34 -27.5 52t-65.5 18q-83 0 -92 -70l-69 11q11 62 52 94t109 32t109.5 -32z" />
    <glyph glyph-name="uni0210" unicode="&#x210;" horiz-adv-x="618" 
d="M590 78v-78h-155l-121 222h-5h-90v-144h60v-78h-241v78h91v433h-91v78h265q121 0 171.5 -45t50.5 -137q0 -71 -28.5 -114t-90.5 -60l91 -155h93zM400 322.5q30 21.5 30 83.5t-30.5 83.5t-97.5 21.5h-82v-210h82q68 0 98 21.5zM263 863l127 -188l-40 -29l-151 169zM88 843
l160 -161l-34 -36l-179 138z" />
    <glyph glyph-name="uni0211" unicode="&#x211;" horiz-adv-x="433" 
d="M270.5 437q42.5 13 83.5 13q33 0 47 -6l17 -110l-73 -15l-10 55q-31 -1 -62.5 -10t-56.5 -25l-1 -269h98v-70h-269v70h84v274l-96 33l23 70l137 -47q36 24 78.5 37zM201 708l127 -188l-40 -29l-151 169zM26 688l160 -161l-34 -36l-179 138z" />
    <glyph glyph-name="uni0212" unicode="&#x212;" horiz-adv-x="618" 
d="M590 78v-78h-155l-121 222h-5h-90v-144h60v-78h-241v78h91v433h-91v78h265q121 0 171.5 -45t50.5 -137q0 -71 -28.5 -114t-90.5 -60l91 -155h93zM400 322.5q30 21.5 30 83.5t-30.5 83.5t-97.5 21.5h-82v-210h82q68 0 98 21.5zM385.5 768q41.5 -32 52.5 -94l-69 -11
q-4 34 -27.5 52t-65.5 18q-83 0 -92 -70l-69 11q11 62 52 94t109 32t109.5 -32z" />
    <glyph glyph-name="uni0213" unicode="&#x213;" horiz-adv-x="433" 
d="M270.5 437q42.5 13 83.5 13q33 0 47 -6l17 -110l-73 -15l-10 55q-31 -1 -62.5 -10t-56.5 -25l-1 -269h98v-70h-269v70h84v274l-96 33l23 70l137 -47q36 24 78.5 37zM323.5 613q41.5 -32 52.5 -94l-69 -11q-4 34 -27.5 52t-65.5 18q-83 0 -92 -70l-69 11q11 62 52 94
t109 32t109.5 -32z" />
    <glyph glyph-name="uni0214" unicode="&#x214;" horiz-adv-x="681" 
d="M504.5 44.5q-55.5 -60.5 -167.5 -60.5q-109 0 -163 60.5t-54 169.5v297h-93v78h246v-78h-63v-322q0 -66 33.5 -98t93.5 -32q63 0 98 35t35 105v312h-62v78h245v-78h-93v-297q0 -109 -55.5 -169.5zM326 863l127 -188l-40 -29l-151 169zM151 843l160 -161l-34 -36l-179 138
z" />
    <glyph glyph-name="uni0215" unicode="&#x215;" horiz-adv-x="617" 
d="M365 -4q-40 -12 -75 -12q-95 0 -139.5 42t-44.5 131v207h-83v70h171v-260q0 -61 24 -88.5t77 -27.5q30 0 64 9t57 23v274h-83v70h171v-348l92 -31l-23 -74l-136 47q-32 -20 -72 -32zM271 708l127 -188l-40 -29l-151 169zM96 688l160 -161l-34 -36l-179 138z" />
    <glyph glyph-name="uni0216" unicode="&#x216;" horiz-adv-x="681" 
d="M504.5 44.5q-55.5 -60.5 -167.5 -60.5q-109 0 -163 60.5t-54 169.5v297h-93v78h246v-78h-63v-322q0 -66 33.5 -98t93.5 -32q63 0 98 35t35 105v312h-62v78h245v-78h-93v-297q0 -109 -55.5 -169.5zM448.5 768q41.5 -32 52.5 -94l-69 -11q-4 34 -27.5 52t-65.5 18
q-83 0 -92 -70l-69 11q11 62 52 94t109 32t109.5 -32z" />
    <glyph glyph-name="uni0217" unicode="&#x217;" horiz-adv-x="617" 
d="M365 -4q-40 -12 -75 -12q-95 0 -139.5 42t-44.5 131v207h-83v70h171v-260q0 -61 24 -88.5t77 -27.5q30 0 64 9t57 23v274h-83v70h171v-348l92 -31l-23 -74l-136 47q-32 -20 -72 -32zM393.5 613q41.5 -32 52.5 -94l-69 -11q-4 34 -27.5 52t-65.5 18q-83 0 -92 -70l-69 11
q11 62 52 94t109 32t109.5 -32z" />
    <glyph glyph-name="Scommaaccent" unicode="&#x218;" horiz-adv-x="543" 
d="M62 22l-19 126l74 8l13 -75q34 -11 66.5 -16.5t76.5 -5.5q61 0 100 24.5t39 77.5q0 41 -22.5 67t-78.5 34l-75 11q-87 13 -133.5 57t-46.5 112q0 74 57 118.5t161 44.5q56 0 98 -7.5t91 -26.5l18 -130l-76 -8l-13 83q-48 16 -119 16q-63 0 -99 -22.5t-36 -63.5
q0 -40 26.5 -62t77.5 -30l87 -14q86 -12 128 -55.5t42 -111.5q0 -63 -31 -105.5t-82 -63t-111 -20.5q-114 0 -213 38zM211 -277q5 7 21 32t26 47q-27 4 -42.5 21.5t-15.5 40.5q0 29 19.5 47.5t49.5 18.5q29 0 50.5 -21.5t21.5 -50.5q1 -72 -94 -167z" />
    <glyph glyph-name="scommaaccent" unicode="&#x219;" horiz-adv-x="454" 
d="M272.5 380q-19.5 4 -47.5 4q-40 0 -68 -16.5t-28 -44.5q0 -56 91 -65l47 -6q78 -8 113 -40t35 -88q0 -64 -52 -102t-133 -38q-50 0 -95.5 12t-81.5 33l-18 102l77 17l13 -66q46 -25 101 -25q46 0 77.5 17t31.5 48q0 28 -19 40.5t-67 18.5l-48 6q-73 9 -112.5 43.5
t-39.5 86.5q0 63 51.5 98.5t124.5 35.5q89 0 157 -38l18 -95l-69 -15l-17 64q-22 9 -41.5 13zM165 -277q5 7 21 32t26 47q-27 4 -42.5 21.5t-15.5 40.5q0 29 19.5 47.5t49.5 18.5q29 0 50.5 -21.5t21.5 -50.5q1 -72 -94 -167z" />
    <glyph glyph-name="uni021A" unicode="&#x21a;" horiz-adv-x="591" 
d="M34 589h520v-174h-83v96h-131l-2 -433h92v-78h-274v78h92l1 433h-131v-96h-84v174zM235 -277q5 7 21 32t26 47q-27 4 -42.5 21.5t-15.5 40.5q0 29 19.5 47.5t49.5 18.5q29 0 50.5 -21.5t21.5 -50.5q1 -72 -94 -167z" />
    <glyph glyph-name="uni021B" unicode="&#x21b;" horiz-adv-x="374" 
d="M147.5 23.5q-40.5 39.5 -40.5 129.5v211h-83v70h83v94l86 22v-116h124v-70h-124v-171q0 -70 15 -105.5t54 -35.5q16 0 31.5 4.5t37.5 14.5l17 -64q-56 -23 -94 -23q-66 0 -106.5 39.5zM121 -277q5 7 21 32t26 47q-27 4 -42.5 21.5t-15.5 40.5q0 29 19.5 47.5t49.5 18.5
q29 0 50.5 -21.5t21.5 -50.5q1 -72 -94 -167z" />
    <glyph glyph-name="uni022A" unicode="&#x22a;" horiz-adv-x="645" 
d="M467.5 567q63.5 -38 98.5 -108.5t35 -163.5q0 -94 -35 -164.5t-98 -108.5t-146 -38q-82 0 -145 38t-98 108.5t-35 164.5q0 93 34.5 163.5t97.5 108.5t145 38q83 0 146.5 -38zM187 467q-48 -61 -48 -172q0 -112 48 -173t135 -61q88 0 136.5 61t48.5 173q0 111 -48.5 172
t-136.5 61q-87 0 -135 -61zM273 767q18 -18 18 -42t-18 -41.5t-42 -17.5t-41.5 17.5t-17.5 41.5t17.5 42t41.5 18t42 -18zM454.5 767q17.5 -18 17.5 -42t-17.5 -41.5t-41.5 -17.5q-25 0 -42.5 17.5t-17.5 41.5t17.5 42t42.5 18q24 0 41.5 -18zM167 890h309v-64h-309v64z" />
    <glyph glyph-name="uni022B" unicode="&#x22b;" horiz-adv-x="530" 
d="M428.5 387.5q61.5 -62.5 61.5 -171.5q0 -108 -61 -170t-165 -62q-101 0 -161.5 62t-60.5 170q0 109 60.5 171.5t161.5 62.5q103 0 164.5 -62.5zM165 336q-34 -42 -34 -120t34 -119t100 -41q67 0 101.5 41t34.5 119t-34.5 120t-101.5 42q-66 0 -100 -42zM217 612
q18 -18 18 -42t-18 -41.5t-42 -17.5t-41.5 17.5t-17.5 41.5t17.5 42t41.5 18t42 -18zM398.5 612q17.5 -18 17.5 -42t-17.5 -41.5t-41.5 -17.5q-25 0 -42.5 17.5t-17.5 41.5t17.5 42t42.5 18q24 0 41.5 -18zM111 735h309v-64h-309v64z" />
    <glyph glyph-name="uni022C" unicode="&#x22c;" horiz-adv-x="645" 
d="M467.5 567q63.5 -38 98.5 -108.5t35 -163.5q0 -94 -35 -164.5t-98 -108.5t-146 -38q-82 0 -145 38t-98 108.5t-35 164.5q0 93 34.5 163.5t97.5 108.5t145 38q83 0 146.5 -38zM187 467q-48 -61 -48 -172q0 -112 48 -173t135 -61q88 0 136.5 61t48.5 173q0 111 -48.5 172
t-136.5 61q-87 0 -135 -61zM173 716q35 24 57.5 33.5t55.5 9.5q21 0 38 -6t37 -17q17 -9 27.5 -13t23.5 -4q17 0 29.5 6.5t39.5 25.5l25 -58q-30 -26 -51.5 -35.5t-49.5 -9.5q-15 0 -28.5 5.5t-31.5 15.5q-19 10 -32 15t-27 5q-21 0 -35.5 -4.5t-31 -12.5t-23.5 -11z
M162 902h309v-64h-309v64z" />
    <glyph glyph-name="uni022D" unicode="&#x22d;" horiz-adv-x="530" 
d="M428.5 387.5q61.5 -62.5 61.5 -171.5q0 -108 -61 -170t-165 -62q-101 0 -161.5 62t-60.5 170q0 109 60.5 171.5t161.5 62.5q103 0 164.5 -62.5zM165 336q-34 -42 -34 -120t34 -119t100 -41q67 0 101.5 41t34.5 119t-34.5 120t-101.5 42q-66 0 -100 -42zM117 561
q35 24 57.5 33.5t55.5 9.5q21 0 38 -6t37 -17q17 -9 27.5 -13t23.5 -4q17 0 29.5 6.5t39.5 25.5l25 -58q-30 -26 -51.5 -35.5t-49.5 -9.5q-15 0 -28.5 5.5t-31.5 15.5q-19 10 -32 15t-27 5q-21 0 -35.5 -4.5t-31 -12.5t-23.5 -11zM106 747h309v-64h-309v64z" />
    <glyph glyph-name="uni0230" unicode="&#x230;" horiz-adv-x="645" 
d="M467.5 567q63.5 -38 98.5 -108.5t35 -163.5q0 -94 -35 -164.5t-98 -108.5t-146 -38q-82 0 -145 38t-98 108.5t-35 164.5q0 93 34.5 163.5t97.5 108.5t145 38q83 0 146.5 -38zM187 467q-48 -61 -48 -172q0 -112 48 -173t135 -61q88 0 136.5 61t48.5 173q0 111 -48.5 172
t-136.5 61q-87 0 -135 -61zM367 785.5q18 -17.5 18 -46.5q0 -28 -18 -46t-46 -18t-45.5 17.5t-17.5 46.5t17.5 46.5t45.5 17.5t46 -17.5zM169 898h309v-64h-309v64z" />
    <glyph glyph-name="uni0231" unicode="&#x231;" horiz-adv-x="530" 
d="M428.5 387.5q61.5 -62.5 61.5 -171.5q0 -108 -61 -170t-165 -62q-101 0 -161.5 62t-60.5 170q0 109 60.5 171.5t161.5 62.5q103 0 164.5 -62.5zM165 336q-34 -42 -34 -120t34 -119t100 -41q67 0 101.5 41t34.5 119t-34.5 120t-101.5 42q-66 0 -100 -42zM311 630.5
q18 -17.5 18 -46.5q0 -28 -18 -46t-46 -18t-45.5 17.5t-17.5 46.5t17.5 46.5t45.5 17.5t46 -17.5zM111 751h309v-64h-309v64z" />
    <glyph glyph-name="uni0232" unicode="&#x232;" horiz-adv-x="654" 
d="M5 589h248v-78h-56l135 -189l147 189h-72v78h243v-78h-69l-208 -259l-1 -174h94v-78h-277v78h94l1 171l-197 262h-82v78zM172 752h309v-64h-309v64z" />
    <glyph glyph-name="uni0233" unicode="&#x233;" horiz-adv-x="558" 
d="M556 434v-70h-74l-168 -450q-27 -71 -67 -107t-96 -36q-34 0 -72 13l15 68q32 -10 52 -10q28 0 45 9.5t31.5 34.5t32.5 75l3 10l-184 393h-72v70h218v-70h-56l129 -297l106 297h-54l1 70h210zM126 597h309v-64h-309v64z" />
    <glyph glyph-name="uni0237" unicode="&#x237;" horiz-adv-x="262" 
d="M185.5 -130.5q-9.5 -39.5 -49.5 -68.5t-125 -29q-14 0 -56 6l11 68q26 -2 45 -2q47 0 68 17.5t24.5 39t3.5 59.5v404h-84v70h172v-466q0 -59 -9.5 -98.5z" />
    <glyph glyph-name="uni0259" unicode="&#x259;" horiz-adv-x="499" 
d="M130.5 433.5q43.5 16.5 94.5 16.5q109 0 172.5 -62.5t63.5 -170.5q0 -69 -27.5 -122t-78 -82t-116.5 -29q-94 0 -148.5 58t-54.5 155q0 22 3 43l336 2q-4 68 -45.5 102t-102.5 34q-84 0 -145 -49l-37 53q42 35 85.5 51.5zM155 86.5q31 -33.5 83 -33.5t90.5 34t45.5 88
h-251q1 -55 32 -88.5z" />
    <glyph glyph-name="uni02B9" unicode="&#x2b9;" horiz-adv-x="223" 
d="M78 607h95l-81 -210h-65z" />
    <glyph glyph-name="uni02BA" unicode="&#x2ba;" horiz-adv-x="373" 
d="M78 607h95l-81 -210h-65zM228 607h95l-81 -210h-65z" />
    <glyph glyph-name="uni02BB" unicode="&#x2bb;" horiz-adv-x="218" 
d="M173 643q-5 -7 -21 -32t-26 -47q27 -4 42.5 -21.5t15.5 -40.5q0 -29 -19.5 -47.5t-49.5 -18.5q-29 0 -50.5 22t-21.5 51q0 72 94 166z" />
    <glyph glyph-name="uni02BC" unicode="&#x2bc;" horiz-adv-x="198" 
d="M22 433q16 25 26 47q-27 4 -42.5 21.5t-15.5 40.5q0 30 20 48t50 18q28 0 49.5 -21.5t21.5 -50.5q1 -72 -94 -167l-36 32q5 7 21 32z" />
    <glyph glyph-name="uni02BE" unicode="&#x2be;" horiz-adv-x="205" 
d="M124.5 632q30.5 -28 30.5 -82t-30.5 -82t-74.5 -28v51q21 0 35.5 14.5t14.5 44.5q0 31 -14.5 45t-35.5 14v51q44 0 74.5 -28z" />
    <glyph glyph-name="uni02BF" unicode="&#x2bf;" horiz-adv-x="205" 
d="M80.5 468q-30.5 28 -30.5 82t30.5 82t74.5 28v-51q-21 0 -35.5 -14.5t-14.5 -44.5q0 -31 14.5 -45t35.5 -14v-51q-44 0 -74.5 28z" />
    <glyph glyph-name="circumflex" unicode="&#x2c6;" horiz-adv-x="362" 
d="M181 642l153 -103l-26 -46l-127 68l-128 -66l-29 44z" />
    <glyph glyph-name="caron" unicode="&#x2c7;" horiz-adv-x="366" 
d="M181 483l-157 103l29 44l128 -66l127 68l26 -46z" />
    <glyph glyph-name="uni02C8" unicode="&#x2c8;" horiz-adv-x="280" 
d="M100 658h80v-212h-80v212z" />
    <glyph glyph-name="uni02C9" unicode="&#x2c9;" horiz-adv-x="383" 
d="M39 597h309v-64h-309v64z" />
    <glyph glyph-name="uni02CA" unicode="&#x2ca;" horiz-adv-x="232" 
d="M85 607h97l-115 -108h-67z" />
    <glyph glyph-name="uni02CB" unicode="&#x2cb;" horiz-adv-x="232" 
d="M147 607l85 -108h-67l-115 108h97z" />
    <glyph glyph-name="uni02CC" unicode="&#x2cc;" horiz-adv-x="180" 
d="M50 0h80v-211h-80v211z" />
    <glyph glyph-name="breve" unicode="&#x2d8;" horiz-adv-x="407" 
d="M94 529q-41 32 -52 94l69 11q9 -70 92 -70q42 0 65.5 18t27.5 52l69 -11q-11 -62 -52.5 -94t-109.5 -32t-109 32z" />
    <glyph glyph-name="dotaccent" unicode="&#x2d9;" horiz-adv-x="243" 
d="M167 630.5q18 -17.5 18 -46.5q0 -28 -18 -46t-46 -18t-45.5 17.5t-17.5 46.5t17.5 46.5t45.5 17.5t46 -17.5z" />
    <glyph glyph-name="ring" unicode="&#x2da;" horiz-adv-x="266" 
d="M198 659q25 -25 25 -66t-25 -66t-67 -25q-41 0 -65.5 25t-24.5 66t24.5 66t65.5 25q42 0 67 -25zM101.5 623q-11.5 -12 -11.5 -30q0 -19 11.5 -30.5t29.5 -11.5q19 0 30.5 11.5t11.5 30.5q0 18 -11.5 30t-30.5 12q-18 0 -29.5 -12z" />
    <glyph glyph-name="ogonek" unicode="&#x2db;" horiz-adv-x="281" 
d="M210 0q-41 -22 -60 -48t-19 -57q0 -22 16 -34t44 -12q24 0 49 9v-64q-39 -19 -82 -19q-50 0 -83 25t-33 67q0 50 34.5 87.5t109.5 67.5z" />
    <glyph glyph-name="tilde" unicode="&#x2dc;" horiz-adv-x="464" 
d="M-5 663q35 27 61 39t59 12q22 0 42 -6t45 -18q22 -9 37 -14t31 -5q18 0 35 6.5t39 26.5l39 -55q-44 -32 -65.5 -42t-57.5 -10q-15 0 -29 5t-40 16q-23 10 -38.5 15.5t-31.5 5.5q-23 0 -41 -7.5t-43 -24.5z" />
    <glyph glyph-name="hungarumlaut" unicode="&#x2dd;" horiz-adv-x="600" 
d="M176 708l64 -48l-151 -169l-40 29zM351 688l53 -59l-179 -138l-34 36z" />
    <glyph glyph-name="gravecomb" unicode="&#x300;" 
d="M-123 491l-151 169l64 48l127 -188z" />
    <glyph glyph-name="acutecomb" unicode="&#x301;" 
d="M-112 708l64 -48l-151 -169l-40 29z" />
    <glyph glyph-name="uni0302" unicode="&#x302;" 
d="M-181 642l153 -103l-26 -46l-127 68l-128 -66l-29 44z" />
    <glyph glyph-name="tildecomb" unicode="&#x303;" 
d="M-383 561q35 24 57.5 33.5t55.5 9.5q21 0 38 -6t37 -17q17 -9 27.5 -13t23.5 -4q17 0 29.5 6.5t39.5 25.5l25 -58q-30 -26 -51.5 -35.5t-49.5 -9.5q-15 0 -28.5 5.5t-31.5 15.5q-19 10 -32 15t-27 5q-21 0 -35.5 -4.5t-31 -12.5t-23.5 -11z" />
    <glyph glyph-name="uni0304" unicode="&#x304;" 
d="M-344 597h309v-64h-309v64z" />
    <glyph glyph-name="uni0306" unicode="&#x306;" 
d="M-313 529q-41 32 -52 94l69 11q9 -70 92 -70q42 0 65.5 18t27.5 52l69 -11q-11 -62 -52.5 -94t-109.5 -32t-109 32z" />
    <glyph glyph-name="uni0307" unicode="&#x307;" 
d="M-76 630.5q18 -17.5 18 -46.5q0 -28 -18 -46t-46 -18t-45.5 17.5t-17.5 46.5t17.5 46.5t45.5 17.5t46 -17.5z" />
    <glyph glyph-name="uni0308" unicode="&#x308;" 
d="M-241 612q18 -18 18 -42t-18 -41.5t-42 -17.5t-41.5 17.5t-17.5 41.5t17.5 42t41.5 18t42 -18zM-59.5 612q17.5 -18 17.5 -42t-17.5 -41.5t-41.5 -17.5q-25 0 -42.5 17.5t-17.5 41.5t17.5 42t42.5 18q24 0 41.5 -18z" />
    <glyph glyph-name="hookabovecomb" unicode="&#x309;" 
d="M-125 518q16 13 25 29.5t9 31.5q0 14 -7.5 22t-22.5 8q-25 0 -48 -27l-38 43q20 24 45.5 36t52.5 12q37 0 61.5 -22t24.5 -61q0 -54 -74 -104z" />
    <glyph glyph-name="uni030A" unicode="&#x30a;" 
d="M-63 659q25 -25 25 -66t-25 -66t-67 -25q-41 0 -65.5 25t-24.5 66t24.5 66t65.5 25q42 0 67 -25zM-159.5 623q-11.5 -12 -11.5 -30q0 -19 11.5 -30.5t29.5 -11.5q19 0 30.5 11.5t11.5 30.5q0 18 -11.5 30t-30.5 12q-18 0 -29.5 -12z" />
    <glyph glyph-name="uni030B" unicode="&#x30b;" 
d="M-276 708l64 -48l-151 -169l-40 29zM-101 688l53 -59l-179 -138l-34 36z" />
    <glyph glyph-name="uni030C" unicode="&#x30c;" 
d="M-185 483l-157 103l29 44l128 -66l127 68l26 -46z" />
    <glyph glyph-name="uni030F" unicode="&#x30f;" 
d="M-177 708l127 -188l-40 -29l-151 169zM-352 688l160 -161l-34 -36l-179 138z" />
    <glyph glyph-name="uni0311" unicode="&#x311;" 
d="M-94.5 613q41.5 -32 52.5 -94l-69 -11q-4 34 -27.5 52t-65.5 18q-83 0 -92 -70l-69 11q11 62 52 94t109 32t109.5 -32z" />
    <glyph glyph-name="uni0312" unicode="&#x312;" 
d="M-61 705q-5 -7 -21 -32t-26 -47q27 -4 42.5 -21.5t15.5 -40.5q0 -29 -19.5 -47.5t-49.5 -18.5q-29 0 -50.5 22t-21.5 51q0 72 94 166z" />
    <glyph glyph-name="uni031B" unicode="&#x31b;" 
d="M-169 434q34 0 51.5 20t17.5 59h70q0 -73 -35.5 -111t-103.5 -38v70z" />
    <glyph glyph-name="dotbelowcomb" unicode="&#x323;" 
d="M-76 -76q18 -18 18 -46q0 -29 -18 -46.5t-46 -17.5t-45.5 17.5t-17.5 46.5t17.5 46.5t45.5 17.5t46 -18z" />
    <glyph glyph-name="uni0324" unicode="&#x324;" 
d="M-249 -79q18 -18 18 -42t-18 -41.5t-42 -17.5t-41.5 17.5t-17.5 41.5t17.5 42t41.5 18t42 -18zM-67.5 -79q17.5 -18 17.5 -42t-17.5 -41.5t-41.5 -17.5q-25 0 -42.5 17.5t-17.5 41.5t17.5 42t42.5 18q24 0 41.5 -18z" />
    <glyph glyph-name="uni0326" unicode="&#x326;" 
d="M-165 -277q5 7 21 32t26 47q-27 4 -42.5 21.5t-15.5 40.5q0 29 19.5 47.5t49.5 18.5q29 0 50.5 -21.5t21.5 -50.5q1 -72 -94 -167z" />
    <glyph glyph-name="uni0327" unicode="&#x327;" 
d="M-201 -213.5q-26 12.5 -46 26.5l25 40q17 -12 40.5 -19.5t44.5 -7.5q52 0 52 35q0 18 -14 26t-48 8h-43v105h56v-60q113 2 113 -80q0 -41 -31 -63.5t-83 -22.5q-40 0 -66 12.5z" />
    <glyph glyph-name="uni0328" unicode="&#x328;" 
d="M-81 0q-41 -22 -60 -48t-19 -57q0 -22 16 -34t44 -12q23 0 49 9v-64q-39 -19 -82 -19q-50 0 -83 25t-33 67q0 50 34.5 87.5t109.5 67.5z" />
    <glyph glyph-name="uni032E" unicode="&#x32e;" 
d="M-313 -155q-41 32 -52 94l69 11q9 -70 92 -70q42 0 65.5 18t27.5 52l69 -11q-11 -62 -52.5 -94t-109.5 -32t-109 32z" />
    <glyph glyph-name="uni0331" unicode="&#x331;" 
d="M-313 -44h313v-66h-313v66z" />
    <glyph glyph-name="uni0335" unicode="&#x335;" 
d="M-371 267h313v-65h-313v65z" />
    <glyph glyph-name="pi" unicode="&#x3c0;" horiz-adv-x="540" 
d="M499 65v-72q-10 -1 -29 -1q-71 0 -107.5 34t-36.5 100v238h-129v-294h55v-70h-209v70h66v294h-63v70h452v-70h-84v-217q0 -88 85 -82z" />
    <glyph glyph-name="uni0400" unicode="&#x400;" horiz-adv-x="593" 
d="M39 589h447l53 -160l-73 -25l-40 107h-204v-169h182v-78h-182l-1 -186h227l39 105l73 -25l-53 -158h-469v78h93l1 433h-93v78zM300 646l-151 169l64 48l127 -188z" />
    <glyph glyph-name="uni0401" unicode="&#x401;" horiz-adv-x="593" 
d="M39 589h447l53 -160l-73 -25l-40 107h-204v-169h182v-78h-182l-1 -186h227l39 105l73 -25l-53 -158h-469v78h93l1 433h-93v78zM255 767q18 -18 18 -42t-18 -41.5t-42 -17.5t-41.5 17.5t-17.5 41.5t17.5 42t41.5 18t42 -18zM436.5 767q17.5 -18 17.5 -42t-17.5 -41.5
t-41.5 -17.5q-25 0 -42.5 17.5t-17.5 41.5t17.5 42t42.5 18q24 0 41.5 -18z" />
    <glyph glyph-name="uni0402" unicode="&#x402;" horiz-adv-x="691" 
d="M485 366q78 0 125 -47t47 -129q0 -48 -18.5 -92t-56.5 -72t-92 -28q-17 0 -37 4l7 75q18 -3 27 -3q39 0 59.5 30.5t20.5 84.5t-28 79.5t-76 25.5q-66 0 -124 -32v-184h51v-78h-237v78h95l1 433h-131v-91h-84v169h520v-169h-83v91h-131l-1 -186q65 41 146 41z" />
    <glyph glyph-name="uni0403" unicode="&#x403;" horiz-adv-x="520" 
d="M47 589h428l35 -155l-76 -19l-25 96h-178l-1 -433h117v-78h-301v78h95l1 433h-95v78zM399 863l64 -48l-151 -169l-40 29z" />
    <glyph glyph-name="uni0404" unicode="&#x404;" horiz-adv-x="610" 
d="M202 111q49 -51 136 -51q57 0 129 22l19 82l76 -18l-26 -123q0 -1 -27 -11.5t-71 -19t-100 -8.5q-87 0 -152.5 37.5t-101 108t-35.5 167.5q0 93 35.5 162.5t100 107.5t150.5 38q65 0 111 -10.5t70 -22.5t24 -15l24 -123l-77 -17l-20 88q-18 9 -52 16.5t-77 7.5
q-91 0 -139.5 -54.5t-53.5 -154.5l132 7h131v-77h-130l-133 7q8 -95 57 -146z" />
    <glyph glyph-name="uni0405" unicode="&#x405;" horiz-adv-x="543" 
d="M62 22l-19 126l74 8l13 -75q34 -11 66.5 -16.5t76.5 -5.5q61 0 100 24.5t39 77.5q0 41 -22.5 67t-78.5 34l-75 11q-87 13 -133.5 57t-46.5 112q0 74 57 118.5t161 44.5q56 0 98 -7.5t91 -26.5l18 -130l-76 -8l-13 83q-48 16 -119 16q-63 0 -99 -22.5t-36 -63.5
q0 -40 26.5 -62t77.5 -30l87 -14q86 -12 128 -55.5t42 -111.5q0 -63 -31 -105.5t-82 -63t-111 -20.5q-114 0 -213 38z" />
    <glyph glyph-name="uni0406" unicode="&#x406;" horiz-adv-x="357" 
d="M39 589h280v-78h-93l-2 -433h95v-78h-281v78h97v433h-96v78z" />
    <glyph glyph-name="uni0407" unicode="&#x407;" horiz-adv-x="357" 
d="M39 589h280v-78h-93l-2 -433h95v-78h-281v78h97v433h-96v78zM130 767q18 -18 18 -42t-18 -41.5t-42 -17.5t-41.5 17.5t-17.5 41.5t17.5 42t41.5 18t42 -18zM311.5 767q17.5 -18 17.5 -42t-17.5 -41.5t-41.5 -17.5q-25 0 -42.5 17.5t-17.5 41.5t17.5 42t42.5 18
q24 0 41.5 -18z" />
    <glyph glyph-name="uni0408" unicode="&#x408;" horiz-adv-x="518" 
d="M346 50q-53 -66 -152 -66q-62 0 -143 33l-27 130l77 18l21 -91q39 -16 71 -16q54 0 84.5 43.5t30.5 124.5l1 285h-130v78h311v-78h-91v-274q0 -121 -53 -187z" />
    <glyph glyph-name="uni0409" unicode="&#x409;" horiz-adv-x="879" 
d="M797.5 328q55.5 -45 55.5 -136q0 -93 -54.5 -142.5t-145.5 -49.5h-282v78h79l1 435h-171l-16 -202q-13 -165 -55 -244.5t-135 -79.5q-22 0 -34 2v84l17 -1q48 0 73 26.5t36 78.5t18 152l13 184h-87v76h525v-76h-95v-140h97q105 0 160.5 -45zM724 106q34 27 34 86
q0 104 -126 104h-92v-217h93q57 0 91 27z" />
    <glyph glyph-name="uni040A" unicode="&#x40a;" horiz-adv-x="929" 
d="M38 78h92l1 433h-92v78h244v-78h-62l-1 -172h278l1 172h-62v78h244v-78h-92l-1 -172h97q115 0 166.5 -40t51.5 -125q0 -84 -55 -129t-147 -45h-264v78h61v184h-278v-184h61v-78h-243v78zM682 78q126 0 126 96q0 54 -34 71t-93 17h-93v-184h94z" />
    <glyph glyph-name="uni040B" unicode="&#x40b;" horiz-adv-x="763" 
d="M456 374q96 0 140 -45.5t44 -133.5v-117h93v-78h-247v78h63v100q0 59 -22.5 89t-81.5 30q-39 0 -72.5 -11t-52.5 -22v-186h87v-78h-273v78h95l1 433h-131v-91h-83v169h520v-163h-84v85h-131l-1 -181q64 44 136 44z" />
    <glyph glyph-name="uni040C" unicode="&#x40c;" horiz-adv-x="676" 
d="M38 589h243v-78h-62v-176h87l130 176h-67v78h250v-78h-92l-147 -197l162 -236h100v-78h-276v78h78l-122 180h-103v-180h62v-78h-243v78h92v433h-92v78zM405 863l64 -48l-151 -169l-40 29z" />
    <glyph glyph-name="uni040D" unicode="&#x40d;" horiz-adv-x="744" 
d="M39 589h244v-78h-62l-2 -395l306 473h181v-78h-93l-1 -433h92v-78h-242v78h62l1 387l-306 -465h-181v78h93v433h-92v78zM380 646l-151 169l64 48l127 -188z" />
    <glyph glyph-name="uni040E" unicode="&#x40e;" horiz-adv-x="630" 
d="M118 0l23 76q21 -8 44 -12.5t39 -4.5q29 0 43 14.5t29 53.5l-207 384h-87v78h247v-78h-60l146 -285l109 285h-65v78h249v-78h-97l-165 -409q-26 -64 -55.5 -91.5t-82.5 -27.5q-49 0 -110 17zM203 668q-44 27 -58 79l77 11q8 -29 32 -44t62 -15q81 0 95 59l77 -11
q-17 -52 -61 -79t-111 -27q-69 0 -113 27z" />
    <glyph glyph-name="uni040F" unicode="&#x40f;" horiz-adv-x="711" 
d="M314 -200l3 200h-271v78h92l1 433h-93v78h245v-78h-63v-433h254v433h-61v78h244v-78h-93l-1 -433h93v-78h-265l3 -200h-88z" />
    <glyph glyph-name="uni0410" unicode="&#x410;" horiz-adv-x="659" 
d="M9 0v78h97l162 433h-97v78h204l181 -511h94v-78h-248v78h61l-32 90h-211l-33 -90h62v-78h-240zM246 239h160l-76 245z" />
    <glyph glyph-name="uni0411" unicode="&#x411;" horiz-adv-x="567" 
d="M487 301.5q51 -40.5 51 -119.5q0 -88 -46.5 -135t-135.5 -47h-318v78h92v433h-92v78h439l35 -148l-79 -20l-23 90h-191v-174l121 3q96 2 147 -38.5zM443 177q0 88 -104 85l-120 -3l-1 -180h114q111 0 111 98z" />
    <glyph glyph-name="uni0412" unicode="&#x412;" horiz-adv-x="566" 
d="M38 78h92v433h-92v78h257q110 0 167.5 -40t57.5 -115q0 -41 -21.5 -76.5t-58.5 -54.5q45 -16 72 -53t27 -89q0 -74 -50 -117.5t-148 -43.5h-303v78zM340 331q41 0 63 24t22 66q0 90 -119 90h-86v-180h120zM333 79q54 0 82.5 23.5t28.5 70.5q0 44 -27 67t-78 23h-119v-184
h113z" />
    <glyph glyph-name="uni0413" unicode="&#x413;" horiz-adv-x="520" 
d="M47 589h428l35 -155l-76 -19l-25 96h-178l-1 -433h117v-78h-301v78h95l1 433h-95v78z" />
    <glyph glyph-name="uni0414" unicode="&#x414;" horiz-adv-x="684" 
d="M157 166.5q17 54.5 24 139.5l17 205h-105v78h545v-78h-97v-433h93v-211h-76v133h-442v-133h-76v211h72q28 34 45 88.5zM453 78v433h-173l-20 -216q-15 -149 -68 -217h261z" />
    <glyph glyph-name="uni0415" unicode="&#x415;" horiz-adv-x="593" 
d="M39 589h447l53 -160l-73 -25l-40 107h-204v-169h182v-78h-182l-1 -186h227l39 105l73 -25l-53 -158h-469v78h93l1 433h-93v78z" />
    <glyph glyph-name="uni0416" unicode="&#x416;" horiz-adv-x="974" 
d="M50 589h253v-78h-68l127 -172h81v171h-66v78h220v-78h-65l-1 -171h81l127 172h-67v78h252v-78h-89l-153 -205l154 -228h92v-78h-256v78h60l-114 184l-87 -1l-1 -183h67v-78h-220v78h66v183l-87 1l-114 -184h61v-78h-257v78h92l153 228l-151 205h-90v78z" />
    <glyph glyph-name="uni0417" unicode="&#x417;" horiz-adv-x="526" 
d="M171 593q49 12 96 12q94 0 148.5 -43.5t54.5 -123.5q0 -49 -24.5 -81.5t-75.5 -51.5q60 -16 90.5 -52.5t30.5 -89.5q0 -54 -28.5 -94.5t-80.5 -62.5t-120 -22q-55 0 -102 15t-95 50l-22 101l76 19l18 -68q25 -22 55.5 -31t71.5 -9q67 0 100 26t33 74t-31 74.5t-85 26.5
h-89v75h89q44 0 69 27.5t25 71.5q0 45 -31 69t-84 24q-55 0 -108 -23l-19 -81l-77 17l22 116q44 23 93 35z" />
    <glyph glyph-name="uni0418" unicode="&#x418;" horiz-adv-x="744" 
d="M39 589h244v-78h-62l-2 -395l306 473h181v-78h-93l-1 -433h92v-78h-242v78h62l1 387l-306 -465h-181v78h93v433h-92v78z" />
    <glyph glyph-name="uni0419" unicode="&#x419;" horiz-adv-x="744" 
d="M39 589h244v-78h-62l-2 -395l306 473h181v-78h-93l-1 -433h92v-78h-242v78h62l1 387l-306 -465h-181v78h93v433h-92v78zM270 668q-44 27 -58 79l77 11q8 -29 32 -44t62 -15q81 0 95 59l77 -11q-17 -52 -61 -79t-111 -27q-69 0 -113 27z" />
    <glyph glyph-name="uni041A" unicode="&#x41a;" horiz-adv-x="676" 
d="M38 589h243v-78h-62v-176h87l130 176h-67v78h250v-78h-92l-147 -197l162 -236h100v-78h-276v78h78l-122 180h-103v-180h62v-78h-243v78h92v433h-92v78z" />
    <glyph glyph-name="uni041B" unicode="&#x41b;" horiz-adv-x="683" 
d="M39 -11v83q55 0 84 21t41.5 64.5t17.5 123.5l17 232h-87v78h525v-78h-96l-1 -435h95v-78h-262v78h78l1 435h-173l-20 -257q-9 -128 -50.5 -197.5t-137.5 -70.5q-17 0 -32 1z" />
    <glyph glyph-name="uni041C" unicode="&#x41c;" horiz-adv-x="852" 
d="M41 589h233l158 -411l154 411h228v-78h-92v-433h92v-78h-246v78h64v438l-44 -131l-117 -314h-86l-126 319l-44 124l-3 -436h66v-78h-241v78h93l1 433h-90v78z" />
    <glyph glyph-name="uni041D" unicode="&#x41d;" horiz-adv-x="720" 
d="M39 589h245v-78h-62l-1 -172h278l1 172h-62v78h244v-78h-92l-2 -433h93v-78h-244v78h62v184h-278l-1 -184h62v-78h-244v78h93l1 433h-93v78z" />
    <glyph glyph-name="uni041E" unicode="&#x41e;" horiz-adv-x="645" 
d="M467.5 567q63.5 -38 98.5 -108.5t35 -163.5q0 -94 -35 -164.5t-98 -108.5t-146 -38q-82 0 -145 38t-98 108.5t-35 164.5q0 93 34.5 163.5t97.5 108.5t145 38q83 0 146.5 -38zM187 467q-48 -61 -48 -172q0 -112 48 -173t135 -61q88 0 136.5 61t48.5 173q0 111 -48.5 172
t-136.5 61q-87 0 -135 -61z" />
    <glyph glyph-name="uni041F" unicode="&#x41f;" horiz-adv-x="697" 
d="M39 589h620v-78h-95l-2 -433h96v-78h-262v78h78l1 433h-252l-1 -433h78v-78h-262v78h95l1 433h-95v78z" />
    <glyph glyph-name="uni0420" unicode="&#x420;" horiz-adv-x="547" 
d="M469.5 541.5q57.5 -47.5 57.5 -138.5q0 -93 -57.5 -141.5t-167.5 -48.5h-83v-135h114v-78h-295v78h91v433h-91v78h264q110 0 167.5 -47.5zM432 401q0 110 -131 110h-81v-222h81q131 0 131 112z" />
    <glyph glyph-name="uni0421" unicode="&#x421;" horiz-adv-x="584" 
d="M400 522q-30 7 -68 7q-93 0 -143 -61.5t-50 -172.5q0 -112 50.5 -173.5t142.5 -61.5q58 0 113 22l20 82l76 -18l-26 -123q0 -1 -26.5 -11.5t-67 -19t-89.5 -8.5q-87 0 -152 37.5t-100.5 108t-35.5 167.5q0 93 35.5 162.5t100 107.5t149.5 38q59 0 101 -10.5t65 -23
t23 -14.5l24 -123l-76 -17l-21 90q-15 8 -45 15z" />
    <glyph glyph-name="uni0422" unicode="&#x422;" horiz-adv-x="591" 
d="M34 589h520v-174h-83v96h-131l-2 -433h92v-78h-274v78h92l1 433h-131v-96h-84v174z" />
    <glyph glyph-name="uni0423" unicode="&#x423;" horiz-adv-x="630" 
d="M118 0l23 76q21 -8 44 -12.5t39 -4.5q29 0 43 14.5t29 53.5l-207 384h-87v78h247v-78h-60l146 -285l109 285h-65v78h249v-78h-97l-165 -409q-26 -64 -55.5 -91.5t-82.5 -27.5q-49 0 -110 17z" />
    <glyph glyph-name="uni0424" unicode="&#x424;" horiz-adv-x="735" 
d="M229 35h94v53h-19q-119 0 -194.5 56t-75.5 182t73 173.5t196 47.5h20v48l-112 31l22 79l179 -54v-104h20q123 -1 196 -48.5t73 -173.5t-75 -181.5t-194 -55.5h-20v-53h95v-75h-278v75zM323 159v319h-25q-52 0 -87.5 -11t-57 -44.5t-21.5 -96.5q0 -92 44.5 -129.5
t120.5 -37.5h26zM436 159q76 0 121.5 37.5t45.5 129.5q0 63 -22 96.5t-57 44.5t-87 11h-25v-319h24z" />
    <glyph glyph-name="uni0425" unicode="&#x425;" horiz-adv-x="674" 
d="M22 0v77h89l167 222l-170 212h-85v78h257v-78h-62l119 -149l114 149h-65v78h253v-78h-93l-158 -209l179 -225h91v-77h-269v77h70l-130 161l-123 -161h68v-77h-252z" />
    <glyph glyph-name="uni0426" unicode="&#x426;" horiz-adv-x="711" 
d="M575 -175l2 175h-531v78h92l1 433h-93v78h245v-78h-63v-433h254v433h-61v78h244v-78h-93l-1 -433h93v-253h-89z" />
    <glyph glyph-name="uni0427" unicode="&#x427;" horiz-adv-x="695" 
d="M321 78h147v175q-47 -36 -135 -36q-91 0 -147 51.5t-56 152.5l1 90h-93v78h243v-78h-63v-90q0 -71 31.5 -100.5t101.5 -29.5q76 0 117 33v187h-63v78h243v-78h-92v-433h91v-78h-326v78z" />
    <glyph glyph-name="uni0428" unicode="&#x428;" horiz-adv-x="971" 
d="M46 0v78h92l1 433h-92v78h244v-78h-63v-433h208l1 433h-61v78h212v-78h-62l-1 -433h218l1 433h-61v78h242v-78h-92v-433h92v-78h-879z" />
    <glyph glyph-name="uni0429" unicode="&#x429;" horiz-adv-x="988" 
d="M47 589h244v-78h-63v-433h208l1 433h-61v78h212v-78h-62l-1 -433h218l1 433h-61v78h242v-78h-92v-433h113v-253h-89l1 175h-812v78h92l1 433h-92v78z" />
    <glyph glyph-name="uni042A" unicode="&#x42a;" horiz-adv-x="687" 
d="M167 79h93v433h-136v-118h-76v195l372 1v-78h-72v-139h97q114 0 165 -43.5t51 -137.5q0 -93 -54.5 -142.5t-145.5 -49.5h-294v79zM441 79q125 0 125 113q0 43 -14.5 66t-41 30.5t-69.5 7.5h-92v-217h92z" />
    <glyph glyph-name="uni042B" unicode="&#x42b;" horiz-adv-x="870" 
d="M46 79h90v433h-86v78h238v-78h-64v-139h97q114 0 165 -43.5t51 -137.5q0 -93 -54.5 -142.5t-145.5 -49.5l-291 1v78zM580 0v78h62l1 432h-63v78h243v-78h-91l-1 -432h92v-78h-243zM317 79q126 0 126 113q0 43 -14.5 66t-41.5 30.5t-70 7.5h-92v-217h92z" />
    <glyph glyph-name="uni042C" unicode="&#x42c;" horiz-adv-x="563" 
d="M486 329.5q51 -43.5 51 -137.5q0 -93 -55 -142.5t-146 -49.5l-290 1v78h90v433h-86v78h238v-78h-64v-139h97q114 0 165 -43.5zM442 192q0 43 -14.5 66t-41.5 30.5t-70 7.5h-92v-217h93q125 0 125 113z" />
    <glyph glyph-name="uni042D" unicode="&#x42d;" horiz-adv-x="604" 
d="M171.5 -7.5q-43.5 8.5 -70.5 19t-27 11.5l-26 118l76 18l18 -76q69 -23 129 -23q87 0 135.5 51t56.5 146l-155 -7h-102v78h104l154 -8q-5 100 -53.5 154.5t-139.5 54.5q-42 0 -77 -7.5t-52 -16.5l-19 -84l-77 17l23 119q38 23 85 35.5t122 12.5q85 0 149.5 -38
t99.5 -107.5t35 -162.5q0 -97 -35.5 -167.5t-101 -108t-152.5 -37.5q-56 0 -99.5 8.5z" />
    <glyph glyph-name="uni042E" unicode="&#x42e;" horiz-adv-x="887" 
d="M461.5 18q-55.5 34 -88.5 97t-38 150l-80 -4h-36l-1 -183h64v-78h-244v78h92v432h-92v78h245v-78h-63l-1 -171h36l81 -5q9 126 77 198.5t176 72.5q77 0 134.5 -37.5t89 -107.5t31.5 -165t-31 -165.5t-88.5 -108t-134.5 -37.5q-73 0 -128.5 34zM749 295q0 115 -38 174.5
t-121 59.5t-121.5 -59.5t-38.5 -174.5t38.5 -175t121.5 -60q159 0 159 235z" />
    <glyph glyph-name="uni042F" unicode="&#x42f;" horiz-adv-x="619" 
d="M40 78h94l83 162q-59 19 -91 61t-32 102q0 90 57.5 138t167.5 48h262v-78h-90v-433h90v-78h-241v78h62v147h-102l-110 -225h-150v78zM401 300v211h-81q-64 0 -97.5 -28.5t-33.5 -82.5q0 -48 33 -74t96 -26h83z" />
    <glyph glyph-name="uni0430" unicode="&#x430;" horiz-adv-x="532" 
d="M213 -16q-87 0 -132 35t-45 102q0 65 43.5 98t127.5 33h124q0 128 -98 128q-47 0 -87 -12l-10 -54l-72 13l17 95q78 28 151 28q92 0 139.5 -49.5t47.5 -145.5v-172l92 -30l-23 -72l-133 46q-68 -43 -142 -43zM147.5 169q-21.5 -17 -21.5 -49q0 -66 91 -66q65 0 114 35v96
l-121 1q-41 0 -62.5 -17z" />
    <glyph glyph-name="uni0431" unicode="&#x431;" horiz-adv-x="529" 
d="M305 515q-15 -5 -31 -10t-32 -11q-66 -24 -94.5 -72.5t-34.5 -132.5q18 49 61.5 84.5t111.5 35.5q58 0 104.5 -25t72.5 -73t26 -114q0 -100 -59 -156.5t-154 -56.5q-117 0 -171.5 73.5t-54.5 180.5q0 90 12.5 152t51 109.5t113.5 75.5q24 9 54 18q54 17 88 29.5t59 27.5
l33 -75q-40 -25 -156 -60zM182.5 301.5q-33.5 -35.5 -33.5 -104.5q0 -70 31.5 -105.5t93.5 -35.5t94 35.5t32 105.5q0 69 -30 104.5t-88 35.5q-66 0 -99.5 -35.5z" />
    <glyph glyph-name="uni0432" unicode="&#x432;" horiz-adv-x="541" 
d="M437 407.5q43 -26.5 43 -80.5q0 -73 -58 -95q79 -19 79 -101q0 -66 -33.5 -98.5t-101.5 -32.5h-323v71h88v293h-88v70h263q88 0 131 -26.5zM372.5 269q14.5 13 14.5 41q0 57 -81 57h-86v-111h107q31 0 45.5 13zM412 133q0 61 -73 61h-119v-125h115q77 0 77 64z" />
    <glyph glyph-name="uni0433" unicode="&#x433;" horiz-adv-x="465" 
d="M43 435h380l32 -143l-74 -18l-22 91h-140v-295h109v-70h-285v70h88v295h-88v70z" />
    <glyph glyph-name="uni0434" unicode="&#x434;" horiz-adv-x="609" 
d="M33 70h61q36 18 50 77t22 143l7 74h-83v70h475v-70h-91v-294h91v-212h-86v142h-360v-142h-86v212zM387 70v294h-141l-8 -85q-8 -90 -19 -138.5t-33 -70.5h201z" />
    <glyph glyph-name="uni0435" unicode="&#x435;" horiz-adv-x="499" 
d="M368.5 0.5q-43.5 -16.5 -94.5 -16.5q-109 0 -172.5 62.5t-63.5 170.5q0 69 27.5 122t78 82t116.5 29q94 0 148.5 -58t54.5 -155q0 -22 -3 -43l-336 -2q4 -68 45.5 -102t102.5 -34q84 0 145 49l37 -53q-42 -35 -85.5 -51.5zM344 347.5q-31 33.5 -83 33.5t-90.5 -34
t-45.5 -88h251q-1 55 -32 88.5z" />
    <glyph glyph-name="uni0436" unicode="&#x436;" horiz-adv-x="789" 
d="M27 0v70h85l96 149l-97 145h-78v70h218v-70h-54l74 -117h77v116h-46v70h178v-70h-46v-116h76l75 117h-54v70h219v-70h-82l-94 -145l96 -149h85v-70h-134l-115 180h-72v-110h46v-70h-178v70h46v110h-71l-115 -180h-135z" />
    <glyph glyph-name="uni0437" unicode="&#x437;" horiz-adv-x="451" 
d="M24 50l44 57q29 -24 70.5 -37.5t80.5 -13.5q53 0 83 18t30 51q0 32 -24.5 46.5t-76.5 14.5h-53v68h60q38 0 56.5 14t18.5 44q0 34 -27 51t-70 17q-53 0 -102 -23l-12 -65l-69 14l16 94q39 24 85 37t94 13q78 0 125 -33.5t47 -88.5q0 -34 -19 -61.5t-52 -41.5
q42 -6 67 -34t25 -69t-26.5 -72.5t-72.5 -49t-101 -17.5q-111 0 -197 67z" />
    <glyph glyph-name="uni0438" unicode="&#x438;" horiz-adv-x="637" 
d="M43 434h221v-70h-52v-254l214 324h168v-70h-85v-294h85v-70h-220v70h52v256l-214 -326h-169v70h85v294h-85v70z" />
    <glyph glyph-name="uni0439" unicode="&#x439;" horiz-adv-x="637" 
d="M43 434h221v-70h-52v-254l214 324h168v-70h-85v-294h85v-70h-220v70h52v256l-214 -326h-169v70h85v294h-85v70zM218 532q-40 35 -51 91l69 11q4 -32 27 -51t65 -19q43 0 66.5 19t27.5 51l68 -11q-10 -56 -50.5 -91t-111.5 -35q-70 0 -110 35z" />
    <glyph glyph-name="uni043A" unicode="&#x43a;" horiz-adv-x="583" 
d="M43 434h214v-70h-42v-115h87l74 115h-51v70h218v-70h-81l-94 -145l96 -149h85v-70h-138l-115 179h-81v-109h42v-70h-214v70h84v294h-84v70z" />
    <glyph glyph-name="uni043B" unicode="&#x43b;" horiz-adv-x="599" 
d="M556 70v-70h-224v70h43v294h-123l-9 -132q-8 -111 -52 -176t-129 -65q-8 0 -28 2v72q6 -1 18 -1q61 0 85 49t30 143l6 108h-88v70h469v-70h-91v-294h93z" />
    <glyph glyph-name="uni043C" unicode="&#x43c;" horiz-adv-x="787" 
d="M744 364h-85v-294h85v-70h-223v70h52v306l-145 -316h-63l-150 308v-298h52v-70h-224v70h85v294h-85v70h224l133 -281l128 281h216v-70z" />
    <glyph glyph-name="uni043D" unicode="&#x43d;" horiz-adv-x="646" 
d="M43 434h225v-70h-52v-114h214v114h-51v70h224v-70h-85v-294h85v-70h-224v70h51v109h-214v-109h52v-70h-225v70h85v294h-85v70z" />
    <glyph glyph-name="uni043E" unicode="&#x43e;" horiz-adv-x="530" 
d="M428.5 387.5q61.5 -62.5 61.5 -171.5q0 -108 -61 -170t-165 -62q-101 0 -161.5 62t-60.5 170q0 109 60.5 171.5t161.5 62.5q103 0 164.5 -62.5zM165 336q-34 -42 -34 -120t34 -119t100 -41q67 0 101.5 41t34.5 119t-34.5 120t-101.5 42q-66 0 -100 -42z" />
    <glyph glyph-name="uni043F" unicode="&#x43f;" horiz-adv-x="639" 
d="M43 434h552v-70h-85v-294h85v-70h-224v70h51v294h-206v-294h52v-70h-225v70h85v294h-85v70z" />
    <glyph glyph-name="uni0440" unicode="&#x440;" horiz-adv-x="571" 
d="M30 -142h84v491l-94 31l23 72l136 -47q33 21 68 33t67 12q101 0 159 -59.5t58 -162.5q0 -72 -28 -127.5t-78.5 -86t-116.5 -30.5q-56 0 -106 15v-141h84v-69h-256v69zM405.5 100.5q35.5 45.5 35.5 127.5q0 74 -32.5 112t-96.5 38q-31 0 -61.5 -10.5t-48.5 -26.5v-263
q17 -10 46 -16.5t59 -6.5q63 0 98.5 45.5z" />
    <glyph glyph-name="uni0441" unicode="&#x441;" horiz-adv-x="477" 
d="M271 382q-67 0 -104 -42t-37 -124q0 -75 40 -117t101 -42q67 0 129 43l37 -54q-45 -33 -81 -47.5t-93 -14.5q-101 0 -162 62t-61 170q0 75 29.5 128t82 80.5t120.5 27.5q36 0 69 -7t83 -23l17 -114l-73 -16l-13 77q-42 13 -84 13z" />
    <glyph glyph-name="uni0442" unicode="&#x442;" horiz-adv-x="484" 
d="M18 434h448v-158h-68v88h-112v-294h88v-70h-264v70h88v294h-112v-88h-68v158z" />
    <glyph glyph-name="uni0443" unicode="&#x443;" horiz-adv-x="558" 
d="M556 434v-70h-74l-168 -450q-27 -71 -67 -107t-96 -36q-34 0 -72 13l15 68q32 -10 52 -10q28 0 45 9.5t31.5 34.5t32.5 75l3 10l-184 393h-72v70h218v-70h-56l129 -297l106 297h-54l1 70h210z" />
    <glyph glyph-name="uni0444" unicode="&#x444;" horiz-adv-x="733" 
d="M226 -142h97v141q-31 -11 -75 -11q-52 0 -99 27t-76 80t-29 127q0 73 26.5 123t70.5 74.5t96 24.5q48 0 86 -15v133l-99 25l20 72l167 -45v-185q37 15 86 15q52 0 95.5 -24.5t70 -74.5t26.5 -123q0 -74 -29 -127t-76 -80t-99 -27q-45 0 -74 11v-141h94v-70h-279v70z
M310.5 60q11.5 4 12.5 4v295l-6.5 4t-23.5 8t-38 4q-54 0 -87.5 -40.5t-33.5 -114.5t38 -119t97 -45q30 0 41.5 4zM561.5 101q38.5 45 38.5 119t-33.5 114.5t-87.5 40.5q-28 0 -41.5 -4.5t-26.5 -11.5v-295l10.5 -4t42.5 -4q59 0 97.5 45z" />
    <glyph glyph-name="uni0445" unicode="&#x445;" horiz-adv-x="599" 
d="M27 0v70h87l128 150l-139 144h-76v70h233v-70h-49l97 -103l86 103h-42v70h208v-70h-75l-128 -151l139 -143h82v-70h-234v70h45l-97 101l-87 -101h43v-70h-221z" />
    <glyph glyph-name="uni0446" unicode="&#x446;" horiz-adv-x="651" 
d="M523 -143v143h-479v70h93v294h-94v70h225v-70h-45v-294h205v294h-45v70h225v-70h-94v-294h93v-213h-84z" />
    <glyph glyph-name="uni0447" unicode="&#x447;" horiz-adv-x="612" 
d="M256 150q-89 0 -119 47.5t-28 119.5l1 46h-85v71h225v-71h-52v-35q0 -41 5 -63t24 -34.5t60 -12.5q34 0 62 9.5t47 23.5v112h-51v70h224v-70h-85v-293h85v-70h-258v70h85v118q-59 -38 -140 -38z" />
    <glyph glyph-name="uni0448" unicode="&#x448;" horiz-adv-x="818" 
d="M43 434h222v-70h-42v-294h145v294h-40v70h169v-70h-43v-294h142v294h-35v70h214v-70h-93v-294h93v-70h-729v70h91v294h-94v70z" />
    <glyph glyph-name="uni0449" unicode="&#x449;" horiz-adv-x="819" 
d="M691 -143v143h-645v70h91v294h-94v70h225v-70h-45v-294h145v294h-46v70h175v-70h-43v-294h142v294h-43v70h223v-70h-94v-294h93v-213h-84z" />
    <glyph glyph-name="uni044A" unicode="&#x44a;" horiz-adv-x="575" 
d="M506.5 237q48.5 -32 48.5 -100q0 -60 -37.5 -98.5t-105.5 -38.5h-291v71h80v293h-110v-88h-73v158h353l-1 -69h-83v-96h94q77 0 125.5 -32zM445 88.5q21 17.5 21 49.5q0 30 -19.5 47t-53.5 17h-106v-131h102q35 0 56 17.5z" />
    <glyph glyph-name="uni044B" unicode="&#x44b;" horiz-adv-x="770" 
d="M43 71h80v293h-80v70h252v-69h-86v-99h88q77 0 124.5 -31.5t47.5 -98.5q0 -60 -37 -98t-104 -38h-285v71zM518 0v70h36v294h-58v70h230v-70h-84v-294h84v-70h-208zM305 72q36 0 56.5 16.5t20.5 49.5q0 30 -19.5 46.5t-53.5 16.5h-100v-129h96z" />
    <glyph glyph-name="uni044C" unicode="&#x44c;" horiz-adv-x="516" 
d="M43 71h80v293h-80v70h252v-69h-84v-96h112q77 0 125 -32t48 -100q0 -60 -37 -98.5t-105 -38.5h-311v71zM331 71q35 0 55.5 17.5t20.5 49.5q0 31 -19 47.5t-53 16.5h-124v-131h120z" />
    <glyph glyph-name="uni044D" unicode="&#x44d;" horiz-adv-x="474" 
d="M303 345q-33 32 -94 32q-44 0 -78 -12l-14 -70l-73 16l22 114q73 25 152 25q101 0 158 -63t57 -171q0 -107 -60 -169.5t-163 -62.5q-49 0 -89.5 11.5t-82.5 33.5l28 64q32 -18 65.5 -27.5t77.5 -9.5q60 0 94 34t39 100l-73 -5h-93v67h95l71 -5q-6 66 -39 98z" />
    <glyph glyph-name="uni044E" unicode="&#x44e;" horiz-adv-x="777" 
d="M376.5 38.5q-58.5 53.5 -65.5 149.5l-70 -3h-25v-115h52v-70h-225v70h85v294h-85v70h225v-70h-52v-109h25l70 -4q10 95 67 148t145 53q62 0 110.5 -27.5t76 -80.5t27.5 -126q0 -74 -27.5 -126.5t-75.5 -79.5t-111 -27q-88 0 -146.5 53.5zM614.5 98.5
q32.5 42.5 32.5 119.5t-32.5 119.5t-91.5 42.5t-91.5 -42.5t-32.5 -119.5t32.5 -119.5t91.5 -42.5t91.5 42.5z" />
    <glyph glyph-name="uni044F" unicode="&#x44f;" horiz-adv-x="580" 
d="M445 367v-298h92v-70h-249v70h70v90l-85 1l-107 -160h-134v70h83l72 102q-47 14 -75 46.5t-28 79.5q0 62 49.5 99t144.5 37h259v-67h-92zM358 366h-76q-49 0 -78 -15.5t-29 -58.5q0 -34 28 -51t76 -17h79v142z" />
    <glyph glyph-name="uni0450" unicode="&#x450;" horiz-adv-x="499" 
d="M368.5 0.5q-43.5 -16.5 -94.5 -16.5q-109 0 -172.5 62.5t-63.5 170.5q0 69 27.5 122t78 82t116.5 29q94 0 148.5 -58t54.5 -155q0 -22 -3 -43l-336 -2q4 -68 45.5 -102t102.5 -34q84 0 145 49l37 -53q-42 -35 -85.5 -51.5zM344 347.5q-31 33.5 -83 33.5t-90.5 -34
t-45.5 -88h251q-1 55 -32 88.5zM264 491l-151 169l64 48l127 -188z" />
    <glyph glyph-name="uni0451" unicode="&#x451;" horiz-adv-x="499" 
d="M368.5 0.5q-43.5 -16.5 -94.5 -16.5q-109 0 -172.5 62.5t-63.5 170.5q0 69 27.5 122t78 82t116.5 29q94 0 148.5 -58t54.5 -155q0 -22 -3 -43l-336 -2q4 -68 45.5 -102t102.5 -34q84 0 145 49l37 -53q-42 -35 -85.5 -51.5zM344 347.5q-31 33.5 -83 33.5t-90.5 -34
t-45.5 -88h251q-1 55 -32 88.5zM219 612q18 -18 18 -42t-18 -41.5t-42 -17.5t-41.5 17.5t-17.5 41.5t17.5 42t41.5 18t42 -18zM400.5 612q17.5 -18 17.5 -42t-17.5 -41.5t-41.5 -17.5q-25 0 -42.5 17.5t-17.5 41.5t17.5 42t42.5 18q24 0 41.5 -18z" />
    <glyph glyph-name="uni0452" unicode="&#x452;" horiz-adv-x="526" 
d="M245 -154q71 38 114.5 118t43.5 176q0 77 -27 116.5t-79 39.5q-30 0 -54.5 -8t-49.5 -24v-194h44v-70h-216v70h84v377h-84v64h84v45l-95 33l23 70l160 -54v-94h153v-64h-153v-115q25 18 57 27.5t66 9.5q83 0 129 -54.5t46 -156.5q0 -119 -56 -220.5t-149 -148.5z" />
    <glyph glyph-name="uni0453" unicode="&#x453;" horiz-adv-x="465" 
d="M43 435h380l32 -143l-74 -18l-22 91h-140v-295h109v-70h-285v70h88v295h-88v70zM356 708l64 -48l-151 -169l-40 29z" />
    <glyph glyph-name="uni0454" unicode="&#x454;" horiz-adv-x="471" 
d="M174.5 90.5q33.5 -34.5 94.5 -34.5q45 0 82 12.5t59 23.5l29 -63q-23 -13 -68 -29t-103 -16q-66 0 -116.5 27.5t-78.5 80t-28 124.5q0 111 57 172t166 61q84 0 144 -24l22 -114l-73 -16l-14 70q-32 12 -78 12q-122 0 -133 -129l71 5h97v-67h-95l-73 5q5 -66 38.5 -100.5z
" />
    <glyph glyph-name="uni0455" unicode="&#x455;" horiz-adv-x="454" 
d="M272.5 380q-19.5 4 -47.5 4q-40 0 -68 -16.5t-28 -44.5q0 -56 91 -65l47 -6q78 -8 113 -40t35 -88q0 -64 -52 -102t-133 -38q-50 0 -95.5 12t-81.5 33l-18 102l77 17l13 -66q46 -25 101 -25q46 0 77.5 17t31.5 48q0 28 -19 40.5t-67 18.5l-48 6q-73 9 -112.5 43.5
t-39.5 86.5q0 63 51.5 98.5t124.5 35.5q89 0 157 -38l18 -95l-69 -15l-17 64q-22 9 -41.5 13z" />
    <glyph glyph-name="uni0456" unicode="&#x456;" horiz-adv-x="315" 
d="M37 434h172v-364h83v-70h-255v70h83v294h-83v70zM200 630.5q18 -17.5 18 -46.5q0 -28 -18 -46t-46 -18t-45.5 17.5t-17.5 46.5t17.5 46.5t45.5 17.5t46 -17.5z" />
    <glyph glyph-name="uni0457" unicode="&#x457;" horiz-adv-x="315" 
d="M37 434h172v-364h83v-70h-255v70h83v294h-83v70zM106 612q18 -18 18 -42t-18 -41.5t-42 -17.5t-41.5 17.5t-17.5 41.5t17.5 42t41.5 18t42 -18zM287.5 612q17.5 -18 17.5 -42t-17.5 -41.5t-41.5 -17.5q-25 0 -42.5 17.5t-17.5 41.5t17.5 42t42.5 18q24 0 41.5 -18z" />
    <glyph glyph-name="uni0458" unicode="&#x458;" horiz-adv-x="262" 
d="M185.5 -130.5q-9.5 -39.5 -49.5 -68.5t-125 -29q-14 0 -56 6l11 68q26 -2 45 -2q47 0 68 17.5t24.5 39t3.5 59.5v404h-84v70h172v-466q0 -59 -9.5 -98.5zM188 630.5q18 -17.5 18 -46.5q0 -28 -18 -46t-46 -18t-45.5 17.5t-17.5 46.5t17.5 46.5t45.5 17.5t46 -17.5z" />
    <glyph glyph-name="uni0459" unicode="&#x459;" horiz-adv-x="789" 
d="M34 65q6 -1 18 -1q61 0 85 49t30 143l6 108h-75v70h477v-70h-91v-98h111q78 0 126 -31t48 -99q0 -59 -37.5 -97.5t-105.5 -38.5h-274v70h45v294h-145l-9 -132q-8 -111 -52 -176t-129 -65q-8 0 -28 2v72zM603 70q37 0 57 17.5t20 50.5q0 30 -19 45.5t-54 15.5h-123v-129
h119z" />
    <glyph glyph-name="uni045A" unicode="&#x45a;" horiz-adv-x="824" 
d="M758 220q46 -27 46 -96q0 -58 -38 -91t-109 -33h-279v70h52v109h-214v-109h52v-70h-225v70h85v294h-85v70h225v-70h-52v-114h214v114h-52v70h225v-70h-85v-117h109q85 0 131 -27zM695 82.5q20 12.5 20 43.5q0 27 -20.5 40t-55.5 13h-121v-109h116q41 0 61 12.5z" />
    <glyph glyph-name="uni045B" unicode="&#x45b;" horiz-adv-x="604" 
d="M35 70h84v377h-84v64h84v45l-95 33l24 70l159 -54v-94h176v-64h-176v-95q56 37 119 37q90 0 129 -43t39 -130v-146h84v-70h-216v70h44v130q0 59 -19 87.5t-74 28.5q-53 0 -78.5 -15.5t-27.5 -16.5v-214h44v-70h-216v70z" />
    <glyph glyph-name="uni045C" unicode="&#x45c;" horiz-adv-x="583" 
d="M43 434h214v-70h-42v-115h87l74 115h-51v70h218v-70h-81l-94 -145l96 -149h85v-70h-138l-115 179h-81v-109h42v-70h-214v70h84v294h-84v70zM363 708l64 -48l-151 -169l-40 29z" />
    <glyph glyph-name="uni045D" unicode="&#x45d;" horiz-adv-x="637" 
d="M43 434h221v-70h-52v-254l214 324h168v-70h-85v-294h85v-70h-220v70h52v256l-214 -326h-169v70h85v294h-85v70zM325 491l-151 169l64 48l127 -188z" />
    <glyph glyph-name="uni045E" unicode="&#x45e;" horiz-adv-x="558" 
d="M556 434v-70h-74l-168 -450q-27 -71 -67 -107t-96 -36q-34 0 -72 13l15 68q32 -10 52 -10q28 0 45 9.5t31.5 34.5t32.5 75l3 10l-184 393h-72v70h218v-70h-56l129 -297l106 297h-54l1 70h210zM188 532q-40 35 -51 91l69 11q4 -32 27 -51t65 -19q43 0 66.5 19t27.5 51
l68 -11q-10 -56 -50.5 -91t-111.5 -35q-70 0 -110 35z" />
    <glyph glyph-name="uni045F" unicode="&#x45f;" horiz-adv-x="651" 
d="M284 -143v143h-240v70h93v294h-94v70h225v-70h-45v-294h205v294h-45v70h225v-70h-94v-294h93v-70h-240v-143h-83z" />
    <glyph glyph-name="uni0462" unicode="&#x462;" horiz-adv-x="611" 
d="M95 79h90v382h-105v-51h-63v119h168v56h-87v78h245v-78h-70v-56h188v-119h-62v51h-126v-104h96q113 0 164.5 -43.5t51.5 -129.5q0 -91 -54 -137.5t-146 -46.5h-290v79zM365 79q126 0 126 105q0 53 -27.5 74.5t-98.5 21.5h-92v-201h92z" />
    <glyph glyph-name="uni0463" unicode="&#x463;" horiz-adv-x="563" 
d="M86 70h79v294h-90v-43h-62v108h152v90h-79v70h251v-69h-83v-91h184l1 -108h-60v44l-125 -1v-95h111q78 0 126 -32t48 -100q0 -60 -37.5 -98.5t-105.5 -38.5h-310v70zM374 71q35 0 55.5 17.5t20.5 49.5q0 31 -19 47t-54 16h-123v-130h120z" />
    <glyph glyph-name="uni046A" unicode="&#x46a;" horiz-adv-x="862" 
d="M8 78h92l113 164q24 34 52 59.5t66 28.5l-181 181h-82v78h732v-78h-93l-176 -181q37 -4 64.5 -29t51.5 -59l113 -164h93v-78h-257v78h60l-89 142q-18 31 -32.5 40t-48.5 9h-10l-1 -191h60v-78h-210v78h61v191h-11q-34 0 -48.5 -9t-33.5 -40l-89 -142h61v-78h-257v78z
M436 331l173 180h-348z" />
    <glyph glyph-name="uni046B" unicode="&#x46b;" horiz-adv-x="654" 
d="M9 71h86l36 89q15 38 43 55t83 19l-127 134h-69v66h533v-66h-69l-125 -134l18 -1q43 -1 66.5 -17.5t39.5 -55.5l36 -89h85v-71l-146 -1l-47 127q-11 31 -27 43t-44 12h-12v-111h44v-70h-172v70h44v111h-12q-27 0 -43 -12t-28 -43l-47 -126h-146v71zM329 244l115 124h-228
z" />
    <glyph glyph-name="uni0472" unicode="&#x472;" horiz-adv-x="645" 
d="M467.5 567q63.5 -38 98.5 -108.5t35 -163.5q0 -94 -35 -164.5t-98 -108.5t-146 -38q-82 0 -145 38t-98 108.5t-35 164.5q0 93 34.5 163.5t97.5 108.5t145 38q83 0 146.5 -38zM196 477q-47 -51 -55 -144h364q-8 93 -55.5 144t-127.5 51q-79 0 -126 -51zM452 115
q48 54 54 153h-366q6 -99 53 -153t129 -54t130 54z" />
    <glyph glyph-name="uni0473" unicode="&#x473;" horiz-adv-x="530" 
d="M428.5 387.5q61.5 -62.5 61.5 -171.5q0 -108 -61 -170t-165 -62q-101 0 -161.5 62t-60.5 170q0 109 60.5 171.5t161.5 62.5q103 0 164.5 -62.5zM174 345.5q-33 -32.5 -41 -93.5h266q-8 61 -41.5 93.5t-92.5 32.5q-58 0 -91 -32.5zM359.5 89.5q34.5 33.5 40.5 97.5h-268
q6 -64 39.5 -97.5t93.5 -33.5t94.5 33.5z" />
    <glyph glyph-name="uni0474" unicode="&#x474;" horiz-adv-x="646" 
d="M515 559.5q32 31.5 74 31.5q29 0 55 -11l-19 -89q-17 5 -26 5q-23 0 -39 -19t-31 -64l-144 -413h-93l-196 511h-91v78h252v-78h-62l98 -263l50 -147l45 139l75 226q20 62 52 93.5z" />
    <glyph glyph-name="uni0475" unicode="&#x475;" horiz-adv-x="532" 
d="M83 364h-80v70h219v-70h-48l74 -200l29 -80l29 78l59 162q47 126 130 126q22 0 38 -5v-80q-12 3 -23 3q-28 0 -46.5 -21t-39.5 -74l-105 -273h-90z" />
    <glyph glyph-name="uni048A" unicode="&#x48a;" horiz-adv-x="744" 
d="M270 668q-44 27 -58 79l77 11q8 -29 32 -44t62 -15q81 0 95 59l77 -11q-17 -52 -61 -79t-111 -27q-69 0 -113 27zM707 78v-78l-72 -175h-76l60 175h-157v78h62l1 387l-306 -465h-181v78h93v433h-92v78h244v-78h-62l-2 -395l306 473h181v-78h-93l-1 -433h95z" />
    <glyph glyph-name="uni048B" unicode="&#x48b;" horiz-adv-x="637" 
d="M218 532q-40 35 -51 91l69 11q4 -32 27 -51t65 -19q43 0 66.5 19t27.5 51l68 -11q-10 -56 -50.5 -91t-111.5 -35q-70 0 -110 35zM607 70v-70l-53 -143h-72l46 143h-154v70h52v256l-214 -326h-169v70h85v294h-85v70h221v-70h-52v-254l214 324h168v-70h-85v-294h98z" />
    <glyph glyph-name="uni048C" unicode="&#x48c;" horiz-adv-x="581" 
d="M486 329.5q51 -43.5 51 -137.5q0 -93 -55 -142.5t-146 -49.5l-290 1v78h90v334h-93v62h93v37h-86v78h238v-78h-64v-37h132v-62h-132v-40h97q114 0 165 -43.5zM442 192q0 43 -14.5 66t-41.5 30.5t-70 7.5h-92v-217h93q125 0 125 113z" />
    <glyph glyph-name="uni048D" unicode="&#x48d;" horiz-adv-x="535" 
d="M448 261q48 -36 48 -112q0 -65 -37 -107t-105 -42h-311v71h80v299h-81v64h81v119l-95 33l24 70l159 -55v-167h90v-64h-90v-73h112q77 0 125 -36zM386.5 91.5q20.5 20.5 20.5 59.5q0 37 -19 58t-53 21h-124v-159h120q35 0 55.5 20.5z" />
    <glyph glyph-name="uni048E" unicode="&#x48e;" horiz-adv-x="593" 
d="M460 254l47 -55l-41 -34l-54 64q-50 -16 -110 -16h-83v-135h114v-78h-295v78h91v433h-91v78h264q110 0 167.5 -47.5t57.5 -138.5q0 -100 -67 -149zM356 295l-46 55l41 34l53 -63q28 28 28 80q0 110 -131 110h-81v-222h81q31 0 55 6z" />
    <glyph glyph-name="uni048F" unicode="&#x48f;" horiz-adv-x="600" 
d="M511 119q-20 -49 -56 -82l54 -67l-49 -38l-57 71q-44 -19 -95 -19q-56 0 -106 15v-141h84v-69h-256v69h84v491l-94 31l23 72l136 -47q33 21 68 33t67 12q101 0 159 -59.5t58 -162.5q0 -60 -20 -109zM355 63l-59 73l47 38l61 -75q37 46 37 129q0 74 -32.5 112t-96.5 38
q-31 0 -61.5 -10.5t-48.5 -26.5v-263q17 -10 46 -16.5t59 -6.5q24 0 48 8z" />
    <glyph glyph-name="uni0490" unicode="&#x490;" horiz-adv-x="516" 
d="M430 686l76 -20l-35 -155h-248l-1 -433h117v-78h-301v78h95l1 433h-95v78h365z" />
    <glyph glyph-name="uni0491" unicode="&#x491;" horiz-adv-x="467" 
d="M384 527l73 -20l-35 -142h-203v-295h109v-70h-285v70h88v295h-88v70h318z" />
    <glyph glyph-name="uni0492" unicode="&#x492;" horiz-adv-x="520" 
d="M475 589l35 -155l-76 -19l-25 96h-178v-181h145v-65h-146v-187h117v-78h-301v78h95v187h-78v65h79v181h-95v78h428z" />
    <glyph glyph-name="uni0493" unicode="&#x493;" horiz-adv-x="464" 
d="M423 435l31 -137l-74 -18l-21 85h-140v-119h123v-60h-123v-116h109v-70h-285v70h88v116h-82v60h82v119h-88v70h380z" />
    <glyph glyph-name="uni0494" unicode="&#x494;" horiz-adv-x="584" 
d="M343 -65q58 26 88.5 82.5t30.5 129.5q0 72 -29 106t-91 34q-56 0 -120 -32v-177h73v-78h-257v78h95l1 433h-95v78h428l33 -150l-76 -19l-22 91h-179l-1 -192q73 40 143 40q82 0 133.5 -46.5t51.5 -150.5q0 -201 -181 -289z" />
    <glyph glyph-name="uni0495" unicode="&#x495;" horiz-adv-x="523" 
d="M405 218q42 -23 66 -65t24 -98q0 -172 -211 -265l-30 51q59 33 91.5 62t46 63t13.5 82q0 58 -30 90.5t-85 32.5q-37 0 -71 -11v-90h61v-70h-237v70h88v295h-88v70h380l31 -137l-74 -18l-20 85h-141v-141q49 17 91 17q53 0 95 -23z" />
    <glyph glyph-name="uni0496" unicode="&#x496;" horiz-adv-x="974" 
d="M929 78v-253h-88l1 175h-170v78h60l-114 184l-87 -1l-1 -183h67v-78h-220v78h66v183l-87 1l-114 -184h61v-78h-257v78h92l153 228l-151 205h-90v78h253v-78h-68l127 -172h81v171h-66v78h220v-78h-65l-1 -171h81l127 172h-67v78h252v-78h-89l-153 -205l154 -228h93z" />
    <glyph glyph-name="uni0497" unicode="&#x497;" horiz-adv-x="798" 
d="M678 70h86v-213h-83l-1 143h-53l-113 180h-71v-110h46v-70h-180v70h46v110h-72l-112 -180h-138v70h86l96 149l-95 145h-81v70h219v-70h-54l74 -117h77v116h-46v70h180v-70h-46v-116h76l75 117h-54v70h218v-70h-82l-93 -145z" />
    <glyph glyph-name="uni0498" unicode="&#x498;" horiz-adv-x="526" 
d="M447.5 50q-43.5 -46 -118.5 -60v-165h-87l2 159q-49 2 -92 17.5t-87 47.5l-22 101l76 19l18 -68q25 -22 55.5 -31t71.5 -9q67 0 100 26t33 74t-31 74.5t-85 26.5h-89v75h89q44 0 69 27.5t25 71.5q0 45 -31 69t-84 24q-55 0 -108 -23l-19 -81l-77 17l22 116q44 23 93 35
t96 12q94 0 148.5 -43.5t54.5 -123.5q0 -49 -24.5 -81.5t-75.5 -51.5q60 -16 90.5 -52.5t30.5 -89.5q0 -67 -43.5 -113z" />
    <glyph glyph-name="uni0499" unicode="&#x499;" horiz-adv-x="458" 
d="M387.5 35q-40.5 -36 -105.5 -47v-131h-83l-1 127q-94 8 -167 66l44 57q29 -24 70.5 -37.5t80.5 -13.5q53 0 83 18t30 51q0 32 -24.5 46.5t-76.5 14.5h-53v68h60q38 0 56.5 14t18.5 44q0 34 -27 51t-70 17q-53 0 -102 -23l-12 -65l-69 14l16 94q39 24 85 37t94 13
q78 0 125 -33.5t47 -88.5q0 -34 -19 -61.5t-52 -41.5q42 -6 67 -34t25 -69q0 -51 -40.5 -87z" />
    <glyph glyph-name="uni049A" unicode="&#x49a;" horiz-adv-x="676" 
d="M650 78v-253h-88l1 175h-197v78h78l-122 180h-103v-180h62v-78h-243v78h92v433h-92v78h243v-78h-62v-176h87l130 176h-67v78h250v-78h-92l-147 -197l162 -236h108z" />
    <glyph glyph-name="uni049B" unicode="&#x49b;" horiz-adv-x="591" 
d="M466 -143l-1 143h-53l-115 179h-82v-109h42v-70h-214v70h84v294h-84v70h214v-70h-42v-115h87l74 115h-51v70h218v-70h-82l-93 -145l95 -149h86v-213h-83z" />
    <glyph glyph-name="uni049C" unicode="&#x49c;" horiz-adv-x="692" 
d="M550 78h100v-78h-276v78h74l-121 180h-2v-83h-51v83h-55v-180h62v-78h-243v78h92v433h-92v78h243v-78h-62v-176h55v91h51v-72l115 157h-63v78h250v-78h-92l-147 -197z" />
    <glyph glyph-name="uni049D" unicode="&#x49d;" horiz-adv-x="613" 
d="M486 70h85v-70h-137l-112 174v-77h-48v82h-59v-109h36v-70h-208v70h84v294h-84v70h208v-70h-36v-115h59v80h48v-80h2l74 115h-49v70h216v-70h-82l-93 -145z" />
    <glyph glyph-name="uni049E" unicode="&#x49e;" horiz-adv-x="676" 
d="M542 78h100v-78h-276v78h78l-122 180h-103v-180h62v-78h-243v78h92v322h-80v62h80v49h-92v78h243v-78h-62v-49h96v-62h-96v-65h87l130 176h-67v78h250v-78h-92l-147 -197z" />
    <glyph glyph-name="uni049F" unicode="&#x49f;" horiz-adv-x="591" 
d="M464 70h85v-70h-137l-115 179h-82v-109h42v-70h-214v70h84v395h-90v62h90v37l-99 24l21 72l166 -43v-90h133v-62h-133v-216h87l74 115h-51v70h218v-70h-81l-94 -145z" />
    <glyph glyph-name="uni04A0" unicode="&#x4a0;" horiz-adv-x="786" 
d="M653 78h100v-78h-276v78h78l-122 180h-103v-180h62v-78h-243v78h92v433h-123v-96h-84v174h358v-78h-62v-176h87l130 176h-67v78h250v-78h-92l-147 -197z" />
    <glyph glyph-name="uni04A1" unicode="&#x4a1;" horiz-adv-x="651" 
d="M532 70h85v-70h-138l-115 179h-81v-109h42v-70h-214v70h84v294h-109v-88h-68v158h307v-70h-42v-115h87l74 115h-51v70h218v-70h-81l-94 -145z" />
    <glyph glyph-name="uni04A2" unicode="&#x4a2;" horiz-adv-x="720" 
d="M688 78v-253h-88l1 175h-164v78h62v184h-278l-1 -184h62v-78h-244v78h93l1 433h-93v78h245v-78h-62l-1 -172h278l1 172h-62v78h244v-78h-92l-2 -433h100z" />
    <glyph glyph-name="uni04A3" unicode="&#x4a3;" horiz-adv-x="646" 
d="M611 70v-213h-83l-1 143h-148v70h51v109h-214v-109h52v-70h-225v70h85v294h-85v70h225v-70h-52v-114h214v114h-51v70h224v-70h-85v-294h93z" />
    <glyph glyph-name="uni04A4" unicode="&#x4a4;" horiz-adv-x="887" 
d="M842 589l35 -155l-77 -19l-25 96h-185l-2 -433h93v-78h-244v78h62v184h-278l-1 -184h62v-78h-244v78h93l1 433h-93v78h245v-78h-62l-1 -172h278l1 172h-62v78h404z" />
    <glyph glyph-name="uni04A5" unicode="&#x4a5;" horiz-adv-x="758" 
d="M716 434l32 -143l-74 -18l-22 91h-134v-294h85v-70h-224v70h51v109h-214v-109h52v-70h-225v70h85v294h-85v70h225v-70h-52v-114h214v114h-51v70h337z" />
    <glyph glyph-name="uni04A8" unicode="&#x4a8;" horiz-adv-x="774" 
d="M754 82q-73 -90 -194 -90q-46 0 -90 12q-57 -19 -135 -19q-82 0 -148 34.5t-104.5 104.5t-38.5 172q0 109 46 181t122 102l24 -65q-99 -56 -99 -214q0 -241 218 -241h2q-122 75 -122 263q0 140 62.5 208.5t171.5 68.5q107 0 169.5 -68.5t62.5 -200.5q0 -192 -136 -271h2
q41 0 75.5 19t70.5 58zM362 152q33 -55 101 -78q72 23 107.5 82.5t35.5 158.5q0 106 -36 157t-103 51q-68 0 -103 -48.5t-35 -160.5q0 -107 33 -162z" />
    <glyph glyph-name="uni04A9" unicode="&#x4a9;" horiz-adv-x="652" 
d="M611 58q-31 -34 -67 -50.5t-81 -16.5q-41 0 -82 11q-46 -16 -100 -16q-108 0 -173.5 56.5t-65.5 172.5q0 87 40 143.5t98 79.5l28 -60q-78 -45 -78 -158q0 -83 39 -123t105 -45q-73 60 -73 189q0 101 47.5 154.5t132.5 53.5q82 0 128.5 -51t46.5 -154q0 -71 -29.5 -120
t-75.5 -73q61 0 107 57zM312.5 337q-24.5 -41 -24.5 -108q0 -129 80 -166q48 18 72.5 61t24.5 105q0 76 -22.5 112.5t-62.5 36.5q-43 0 -67.5 -41z" />
    <glyph glyph-name="uni04AA" unicode="&#x4aa;" horiz-adv-x="594" 
d="M470 164l76 -18l-26 -123q-4 -2 -21.5 -9.5t-47.5 -15.5t-67 -12v-161h-87l1 161q-116 12 -182.5 94t-66.5 217q0 93 35.5 162.5t100 107.5t149.5 38q59 0 101 -10.5t65 -23t23 -14.5l24 -123l-76 -17l-21 90q-15 8 -45 15t-68 7q-93 0 -143 -61.5t-50 -172.5
q0 -112 50.5 -173.5t142.5 -61.5q58 0 113 22z" />
    <glyph glyph-name="uni04AB" unicode="&#x4ab;" horiz-adv-x="481" 
d="M441 46q-34 -26 -62 -39.5t-64 -19.5v-130h-83l-1 129q-86 11 -136.5 71.5t-50.5 158.5q0 75 29.5 128t82 80.5t120.5 27.5q36 0 69 -7t83 -23l17 -114l-73 -16l-13 77q-42 13 -84 13q-67 0 -104 -42t-37 -124q0 -75 40 -117t101 -42q67 0 129 43z" />
    <glyph glyph-name="uni04AC" unicode="&#x4ac;" horiz-adv-x="591" 
d="M34 589h520v-174h-83v96h-131l-2 -433h97v-253h-88l1 175h-192v78h92l1 433h-131v-96h-84v174z" />
    <glyph glyph-name="uni04AD" unicode="&#x4ad;" horiz-adv-x="484" 
d="M18 434h448v-158h-68v88h-112v-294h97v-213h-83l-1 143h-189v70h88v294h-112v-88h-68v158z" />
    <glyph glyph-name="uni04AE" unicode="&#x4ae;" horiz-adv-x="654" 
d="M5 589h248v-78h-56l135 -189l147 189h-72v78h243v-78h-69l-208 -259l-1 -174h94v-78h-277v78h94l1 171l-197 262h-82v78z" />
    <glyph glyph-name="uni04AF" unicode="&#x4af;" horiz-adv-x="581" 
d="M165 -211v69h84v129l-166 377h-80v70h219v-70h-48l85 -217l35 -94l35 93l85 218h-47v70h211v-70h-74l-167 -376v-130h84v-69h-256z" />
    <glyph glyph-name="uni04B0" unicode="&#x4b0;" horiz-adv-x="654" 
d="M407 589h243v-78h-69l-202 -251h106v-65h-112l-1 -117h94v-78h-277v78h94l1 117h-112v65h104l-189 251h-82v78h248v-78h-56l135 -189l147 189h-72v78z" />
    <glyph glyph-name="uni04B1" unicode="&#x4b1;" horiz-adv-x="581" 
d="M367 434h211v-70h-74l-146 -329h91v-65h-112v-112h84v-69h-256v69h84v112h-113v65h92l-145 329h-80v70h219v-70h-48l85 -217l35 -94l35 93l85 218h-47v70z" />
    <glyph glyph-name="uni04B2" unicode="&#x4b2;" horiz-adv-x="674" 
d="M566 78h92v-253h-88l1 175h-182v77h70l-130 161l-123 -161h68v-77h-252v77h89l167 222l-170 212h-85v78h257v-78h-62l119 -149l114 149h-65v78h253v-78h-93l-158 -209z" />
    <glyph glyph-name="uni04B3" unicode="&#x4b3;" horiz-adv-x="599" 
d="M580 70v-213h-83l-1 143h-152v70h45l-97 101l-87 -101h43v-70h-221v70h87l128 150l-139 144h-76v70h233v-70h-49l97 -103l86 103h-42v70h208v-70h-75l-128 -151l139 -143h84z" />
    <glyph glyph-name="uni04B4" unicode="&#x4b4;" horiz-adv-x="819" 
d="M773 511h-93l-1 -433h93v-253h-89l2 175h-531v78h92l1 433h-129v-96h-84v174h458v-174h-83v96h-73v-433h254v433h-61v78h244v-78z" />
    <glyph glyph-name="uni04B5" unicode="&#x4b5;" horiz-adv-x="697" 
d="M654 364h-94v-294h93v-213h-84v143h-479v70h93v294h-97v-88h-68v158h368v-158h-68v88h-49v-294h205v294h-45v70h225v-70z" />
    <glyph glyph-name="uni04B6" unicode="&#x4b6;" horiz-adv-x="695" 
d="M649 -175h-88l1 175h-241v78h147v175q-47 -36 -135 -36q-91 0 -147 51.5t-56 152.5l1 90h-93v78h243v-78h-63v-90q0 -71 31.5 -100.5t101.5 -29.5q76 0 117 33v187h-63v78h243v-78h-92v-433h93v-253z" />
    <glyph glyph-name="uni04B7" unicode="&#x4b7;" horiz-adv-x="612" 
d="M577 -143h-83l-1 143h-182v70h85v118q-59 -38 -140 -38q-89 0 -119 47.5t-28 119.5l1 46h-85v71h225v-71h-52v-35q0 -41 5 -63t24 -34.5t60 -12.5q34 0 62 9.5t47 23.5v112h-51v70h224v-70h-85v-293h93v-213z" />
    <glyph glyph-name="uni04B8" unicode="&#x4b8;" horiz-adv-x="695" 
d="M556 511v-433h91v-78h-326v78h147v175q-37 -26 -92 -33v-80h-51v77q-88 2 -141.5 53.5t-53.5 150.5l1 90h-93v78h243v-78h-63v-90q0 -64 26 -94t81 -35v99h51v-99q56 4 92 32v187h-63v78h243v-78h-92z" />
    <glyph glyph-name="uni04B9" unicode="&#x4b9;" horiz-adv-x="612" 
d="M484 363v-293h85v-70h-241v70h68v113q-34 -23 -70 -32v-72h-48v66h-14q-86 0 -121.5 47.5t-33.5 120.5l1 50h-85v70h223v-70h-51v-50q0 -47 17.5 -72.5t63.5 -28.5v99h48v-95q35 7 70 29v118h-43v70h216v-70h-85z" />
    <glyph glyph-name="uni04BA" unicode="&#x4ba;" horiz-adv-x="673" 
d="M313 511h-94v-175q47 36 133 36q92 0 149 -51.5t57 -152.5l-1 -90h90v-78h-243v78h63v90q0 71 -31.5 100.5t-101.5 29.5q-74 0 -115 -33v-187h61v-78h-245v78h94v433h-91v78h275v-78z" />
    <glyph glyph-name="uni04BB" unicode="&#x4bb;" horiz-adv-x="611" 
d="M21 70h84v483l-95 33l23 70l160 -55v-192q64 41 135 41q89 0 132 -42.5t43 -130.5v-207h84v-70h-216v70h44v191q0 61 -24 88.5t-77 27.5q-30 0 -64 -9t-57 -23v-275h44v-70h-216v70z" />
    <glyph glyph-name="uni04BC" unicode="&#x4bc;" horiz-adv-x="698" 
d="M651 268l-427 -1q4 -98 57.5 -152.5t136.5 -54.5q53 0 95 19t84 60l46 -60q-52 -48 -107.5 -71.5t-120.5 -23.5q-78 0 -139 35t-97 101t-40 156q-65 10 -104 50t-35 112h79q-1 -5 -1 -15q0 -32 16.5 -52t45.5 -28q7 78 42.5 137.5t92.5 92t128 32.5q120 0 185.5 -74
t65.5 -205q0 -28 -3 -58zM568 338q0 89 -39.5 139.5t-121.5 50.5q-50 0 -91 -23t-65.5 -66t-25.5 -101h343z" />
    <glyph glyph-name="uni04BD" unicode="&#x4bd;" horiz-adv-x="577" 
d="M538 194l-336 -2q4 -68 45.5 -102t102.5 -34q84 0 145 49l37 -53q-42 -35 -85.5 -51.5t-94.5 -16.5q-102 0 -165 56t-70 154q-49 6 -84.5 40t-35.5 92q0 11 1 17h73q-1 -6 -1 -17q0 -29 13.5 -46t35.5 -20q13 87 71.5 138.5t147.5 51.5q94 0 148.5 -58t54.5 -155
q0 -22 -3 -43zM454 259q-1 55 -32 88.5t-83 33.5t-90.5 -34t-45.5 -88h251z" />
    <glyph glyph-name="uni04BE" unicode="&#x4be;" horiz-adv-x="698" 
d="M651 268l-427 -1q4 -98 57.5 -152.5t136.5 -54.5q53 0 95 19t84 60l46 -60q-46 -42 -94.5 -65.5t-103.5 -28.5l10 -142h-94l11 144q-101 14 -164 90t-69 199q-65 10 -104 50t-35 112h79q-1 -5 -1 -15q0 -32 16.5 -52t45.5 -28q7 78 42.5 137.5t92.5 92t128 32.5
q120 0 185.5 -74t65.5 -205q0 -28 -3 -58zM568 338q0 89 -39.5 139.5t-121.5 50.5q-50 0 -91 -23t-65.5 -66t-25.5 -101h343z" />
    <glyph glyph-name="uni04BF" unicode="&#x4bf;" horiz-adv-x="577" 
d="M538 194l-336 -2q4 -68 45.5 -102t102.5 -34q84 0 145 49l37 -53q-38 -31 -77 -47.5t-83 -19.5l9 -128h-85l9 130q-83 13 -132.5 67t-55.5 140q-49 6 -84.5 40t-35.5 92q0 11 1 17h73q-1 -6 -1 -17q0 -29 13.5 -46t35.5 -20q13 87 71.5 138.5t147.5 51.5q94 0 148.5 -58
t54.5 -155q0 -22 -3 -43zM454 259q-1 55 -32 88.5t-83 33.5t-90.5 -34t-45.5 -88h251z" />
    <glyph glyph-name="uni04C0" unicode="&#x4c0;" horiz-adv-x="357" 
d="M39 589h280v-78h-93l-2 -433h95v-78h-281v78h97v433h-96v78z" />
    <glyph glyph-name="uni04C1" unicode="&#x4c1;" horiz-adv-x="974" 
d="M50 589h253v-78h-68l127 -172h81v171h-66v78h220v-78h-65l-1 -171h81l127 172h-67v78h252v-78h-89l-153 -205l154 -228h92v-78h-256v78h60l-114 184l-87 -1l-1 -183h67v-78h-220v78h66v183l-87 1l-114 -184h61v-78h-257v78h92l153 228l-151 205h-90v78zM374 668
q-44 27 -58 79l77 11q8 -29 32 -44t62 -15q81 0 95 59l77 -11q-17 -52 -61 -79t-111 -27q-69 0 -113 27z" />
    <glyph glyph-name="uni04C2" unicode="&#x4c2;" horiz-adv-x="789" 
d="M27 0v70h85l96 149l-97 145h-78v70h218v-70h-54l74 -117h77v116h-46v70h178v-70h-46v-116h76l75 117h-54v70h219v-70h-82l-94 -145l96 -149h85v-70h-134l-115 180h-72v-110h46v-70h-178v70h46v110h-71l-115 -180h-135zM280 532q-40 35 -51 91l69 11q4 -32 27 -51t65 -19
q43 0 66.5 19t27.5 51l68 -11q-10 -56 -50.5 -91t-111.5 -35q-70 0 -110 35z" />
    <glyph glyph-name="uni04C3" unicode="&#x4c3;" horiz-adv-x="676" 
d="M372 -190l24 76q40 -16 68 -16q63 0 63 63q0 57 -94 180l-112 145h-102v-180h62v-78h-243v78h92v433h-92v78h243v-78h-62v-176h87l130 176h-67v78h250v-78h-92l-147 -197l141 -173q103 -127 103 -217q0 -60 -37 -99t-110 -39q-51 0 -105 24z" />
    <glyph glyph-name="uni04C4" unicode="&#x4c4;" horiz-adv-x="553" 
d="M299 -192l21 67q33 -11 54 -11q31 0 48.5 21t17.5 54q0 47 -33 93l-110 147h-82v-109h42v-70h-214v70h84v294h-84v70h214v-70h-42v-115h87l74 115h-51v70h218v-70h-81l-94 -145l100 -128q32 -40 47.5 -82.5t15.5 -82.5q0 -62 -36.5 -101t-103.5 -39q-42 0 -92 22z" />
    <glyph glyph-name="uni04C5" unicode="&#x4c5;" horiz-adv-x="683" 
d="M641 0l-72 -175h-76l60 175h-180v78h78l1 435h-173l-20 -257q-9 -128 -50.5 -197.5t-137.5 -70.5q-17 0 -32 1v83q55 0 84 21t41.5 64.5t17.5 123.5l17 232h-87v78h525v-78h-96l-1 -435h101v-78z" />
    <glyph glyph-name="uni04C6" unicode="&#x4c6;" horiz-adv-x="599" 
d="M560 0l-53 -143h-72l46 143h-149v70h43v294h-123l-9 -132q-8 -111 -52 -176t-129 -65q-8 0 -28 2v72q6 -1 18 -1q61 0 85 49t30 143l6 108h-88v70h469v-70h-91v-294h97v-70z" />
    <glyph glyph-name="uni04C7" unicode="&#x4c7;" horiz-adv-x="720" 
d="M682 589v-78h-92l-2 -511h-1q0 -109 -48.5 -167t-130.5 -58q-47 0 -102 26l24 77q40 -16 68 -16q48 0 74.5 37t26.5 101v262h-278l-1 -184h62v-78h-244v78h93l1 433h-93v78h245v-78h-62l-1 -172h278l1 172h-62v78h244z" />
    <glyph glyph-name="uni04C8" unicode="&#x4c8;" horiz-adv-x="646" 
d="M603 434v-70h-85v-364q0 -110 -36 -166t-103 -56q-44 0 -92 22l21 67q33 -11 53 -11q37 0 53.5 33t16.5 111h-1v179h-214v-109h52v-70h-225v70h85v294h-85v70h225v-70h-52v-114h214v114h-51v70h224z" />
    <glyph glyph-name="uni04C9" unicode="&#x4c9;" horiz-adv-x="720" 
d="M690 78v-78l-72 -175h-76l60 175h-165v78h62v184h-278l-1 -184h62v-78h-244v78h93l1 433h-93v78h245v-78h-62l-1 -172h278l1 172h-62v78h244v-78h-92l-2 -433h102z" />
    <glyph glyph-name="uni04CA" unicode="&#x4ca;" horiz-adv-x="646" 
d="M611 70v-70l-53 -143h-72l46 143h-153v70h51v109h-214v-109h52v-70h-225v70h85v294h-85v70h225v-70h-52v-114h214v114h-51v70h224v-70h-85v-294h93z" />
    <glyph glyph-name="uni04CB" unicode="&#x4cb;" horiz-adv-x="696" 
d="M566 511v-433h91v-78h-252l1 -175h-89v253h161v175q-47 -36 -135 -36q-91 0 -147 51.5t-56 152.5l1 90h-93v78h243v-78h-63v-90q0 -71 31.5 -100.5t101.5 -29.5q76 0 117 33v187h-63v78h243v-78h-92z" />
    <glyph glyph-name="uni04CC" unicode="&#x4cc;" horiz-adv-x="612" 
d="M484 363v-293h85v-70h-176l-1 -143h-83v213h87v118q-59 -38 -140 -38q-89 0 -119 47.5t-28 119.5l1 46h-85v71h225v-71h-52v-35q0 -41 5 -63t24 -34.5t60 -12.5q34 0 62 9.5t47 23.5v112h-51v70h224v-70h-85z" />
    <glyph glyph-name="uni04CD" unicode="&#x4cd;" horiz-adv-x="852" 
d="M817 78v-78l-72 -175h-76l60 175h-161v78h64v438l-44 -131l-117 -314h-86l-126 319l-44 124l-3 -436h66v-78h-241v78h93l1 433h-90v78h233l158 -411l154 411h228v-78h-92v-433h95z" />
    <glyph glyph-name="uni04CE" unicode="&#x4ce;" horiz-adv-x="787" 
d="M752 70v-70l-53 -143h-72l46 143h-152v70h52v306l-145 -316h-63l-150 308v-298h52v-70h-224v70h85v294h-85v70h224l133 -281l128 281h216v-70h-85v-294h93z" />
    <glyph glyph-name="uni04CF" unicode="&#x4cf;" horiz-adv-x="304" 
d="M25 0v70h84v492l-99 24l20 72l167 -43v-545h84v-70h-256z" />
    <glyph glyph-name="uni04D0" unicode="&#x4d0;" horiz-adv-x="659" 
d="M9 0v78h97l162 433h-97v78h204l181 -511h94v-78h-248v78h61l-32 90h-211l-33 -90h62v-78h-240zM246 239h160l-76 245zM209 668q-44 27 -58 79l77 11q8 -29 32 -44t62 -15q81 0 95 59l77 -11q-17 -52 -61 -79t-111 -27q-69 0 -113 27z" />
    <glyph glyph-name="uni04D1" unicode="&#x4d1;" horiz-adv-x="532" 
d="M213 -16q-87 0 -132 35t-45 102q0 65 43.5 98t127.5 33h124q0 128 -98 128q-47 0 -87 -12l-10 -54l-72 13l17 95q78 28 151 28q92 0 139.5 -49.5t47.5 -145.5v-172l92 -30l-23 -72l-133 46q-68 -43 -142 -43zM147.5 169q-21.5 -17 -21.5 -49q0 -66 91 -66q65 0 114 35v96
l-121 1q-41 0 -62.5 -17zM125 532q-40 35 -51 91l69 11q4 -32 27 -51t65 -19q43 0 66.5 19t27.5 51l68 -11q-10 -56 -50.5 -91t-111.5 -35q-70 0 -110 35z" />
    <glyph glyph-name="uni04D2" unicode="&#x4d2;" horiz-adv-x="659" 
d="M9 0v78h97l162 433h-97v78h204l181 -511h94v-78h-248v78h61l-32 90h-211l-33 -90h62v-78h-240zM246 239h160l-76 245zM274 767q18 -18 18 -42t-18 -41.5t-42 -17.5t-41.5 17.5t-17.5 41.5t17.5 42t41.5 18t42 -18zM455.5 767q17.5 -18 17.5 -42t-17.5 -41.5t-41.5 -17.5
q-25 0 -42.5 17.5t-17.5 41.5t17.5 42t42.5 18q24 0 41.5 -18z" />
    <glyph glyph-name="uni04D3" unicode="&#x4d3;" horiz-adv-x="532" 
d="M213 -16q-87 0 -132 35t-45 102q0 65 43.5 98t127.5 33h124q0 128 -98 128q-47 0 -87 -12l-10 -54l-72 13l17 95q78 28 151 28q92 0 139.5 -49.5t47.5 -145.5v-172l92 -30l-23 -72l-133 46q-68 -43 -142 -43zM147.5 169q-21.5 -17 -21.5 -49q0 -66 91 -66q65 0 114 35v96
l-121 1q-41 0 -62.5 -17zM187 612q18 -18 18 -42t-18 -41.5t-42 -17.5t-41.5 17.5t-17.5 41.5t17.5 42t41.5 18t42 -18zM368.5 612q17.5 -18 17.5 -42t-17.5 -41.5t-41.5 -17.5q-25 0 -42.5 17.5t-17.5 41.5t17.5 42t42.5 18q24 0 41.5 -18z" />
    <glyph glyph-name="uni04D4" unicode="&#x4d4;" horiz-adv-x="925" 
d="M27 0v78h99l273 433h-101v78h518l55 -160l-75 -25l-39 107h-183v-177h161v-77h-162v-179h205l39 105l74 -25l-53 -158h-447v78h92v85h-214l-53 -85h57v-78h-246zM316 241h167l1 270z" />
    <glyph glyph-name="uni04D5" unicode="&#x4d5;" horiz-adv-x="784" 
d="M151 441q32 7 77 7q64 0 104 -25t56 -69q29 44 73.5 69t99.5 25q77 0 127.5 -50t50.5 -152q0 -25 -3 -52l-319 -2q5 -66 39.5 -101.5t95.5 -35.5q56 0 94.5 17t55.5 31l40 -51q0 -3 -25.5 -20.5t-68 -32.5t-97.5 -15q-101 0 -162 61q-31 -21 -83.5 -41t-92.5 -20
q-82 0 -129.5 38t-47.5 99q0 67 47.5 100t123.5 33h126q0 65 -20.5 92.5t-80.5 27.5q-44 0 -86 -11l-10 -53l-73 13l17 96q39 15 71 22zM636 347q-25 29 -79 29q-56 0 -92.5 -30.5t-45.5 -85.5l243 1q-1 57 -26 86zM148.5 171.5q-22.5 -13.5 -22.5 -51.5q0 -32 26 -48.5
t65 -16.5q32 0 70.5 13t66.5 30q-19 40 -22 87h-122q-39 0 -61.5 -13.5z" />
    <glyph glyph-name="uni04D6" unicode="&#x4d6;" horiz-adv-x="593" 
d="M39 589h447l53 -160l-73 -25l-40 107h-204v-169h182v-78h-182l-1 -186h227l39 105l73 -25l-53 -158h-469v78h93l1 433h-93v78zM190 668q-44 27 -58 79l77 11q8 -29 32 -44t62 -15q81 0 95 59l77 -11q-17 -52 -61 -79t-111 -27q-69 0 -113 27z" />
    <glyph glyph-name="uni04D7" unicode="&#x4d7;" horiz-adv-x="499" 
d="M368.5 0.5q-43.5 -16.5 -94.5 -16.5q-109 0 -172.5 62.5t-63.5 170.5q0 69 27.5 122t78 82t116.5 29q94 0 148.5 -58t54.5 -155q0 -22 -3 -43l-336 -2q4 -68 45.5 -102t102.5 -34q84 0 145 49l37 -53q-42 -35 -85.5 -51.5zM344 347.5q-31 33.5 -83 33.5t-90.5 -34
t-45.5 -88h251q-1 55 -32 88.5zM157 532q-40 35 -51 91l69 11q4 -32 27 -51t65 -19q43 0 66.5 19t27.5 51l68 -11q-10 -56 -50.5 -91t-111.5 -35q-70 0 -110 35z" />
    <glyph glyph-name="uni04D8" unicode="&#x4d8;" horiz-adv-x="605" 
d="M70 555q102 51 208 51q83 0 147 -37t100 -108.5t36 -172.5q0 -91 -34 -160.5t-94.5 -107t-135.5 -37.5q-77 0 -134 33.5t-88 96.5t-31 150q0 28 3 59l424 1q-4 98 -60.5 152.5t-143.5 54.5q-59 0 -124 -27l-18 -82l-78 17zM168.5 111.5q41.5 -50.5 124.5 -50.5
q49 0 90 22.5t64.5 65.5t22.5 101h-338q-5 -88 36.5 -138.5z" />
    <glyph glyph-name="uni04D9" unicode="&#x4d9;" horiz-adv-x="509" 
d="M143 8.5q-45 24.5 -70.5 70t-25.5 106.5q0 28 3 53l327 2q-4 69 -43.5 105t-102.5 36q-56 0 -108 -21l-11 -62l-69 13l16 100q88 40 181 40q64 0 116 -27t82 -80t30 -127q0 -69 -27.5 -122t-77.5 -82t-116 -29q-59 0 -104 24.5zM337.5 86.5q30.5 32.5 37.5 93.5l-242 -1
q1 -57 31 -91t82 -34q61 0 91.5 32.5z" />
    <glyph glyph-name="uni04DA" unicode="&#x4da;" horiz-adv-x="605" 
d="M70 555q102 51 208 51q83 0 147 -37t100 -108.5t36 -172.5q0 -91 -34 -160.5t-94.5 -107t-135.5 -37.5q-77 0 -134 33.5t-88 96.5t-31 150q0 28 3 59l424 1q-4 98 -60.5 152.5t-143.5 54.5q-59 0 -124 -27l-18 -82l-78 17zM168.5 111.5q41.5 -50.5 124.5 -50.5
q49 0 90 22.5t64.5 65.5t22.5 101h-338q-5 -88 36.5 -138.5zM244 767q18 -18 18 -42t-18 -41.5t-42 -17.5t-41.5 17.5t-17.5 41.5t17.5 42t41.5 18t42 -18zM425.5 767q17.5 -18 17.5 -42t-17.5 -41.5t-41.5 -17.5q-25 0 -42.5 17.5t-17.5 41.5t17.5 42t42.5 18
q24 0 41.5 -18z" />
    <glyph glyph-name="uni04DB" unicode="&#x4db;" horiz-adv-x="509" 
d="M143 8.5q-45 24.5 -70.5 70t-25.5 106.5q0 28 3 53l327 2q-4 69 -43.5 105t-102.5 36q-56 0 -108 -21l-11 -62l-69 13l16 100q88 40 181 40q64 0 116 -27t82 -80t30 -127q0 -69 -27.5 -122t-77.5 -82t-116 -29q-59 0 -104 24.5zM337.5 86.5q30.5 32.5 37.5 93.5l-242 -1
q1 -57 31 -91t82 -34q61 0 91.5 32.5zM193 612q18 -18 18 -42t-18 -41.5t-42 -17.5t-41.5 17.5t-17.5 41.5t17.5 42t41.5 18t42 -18zM374.5 612q17.5 -18 17.5 -42t-17.5 -41.5t-41.5 -17.5q-25 0 -42.5 17.5t-17.5 41.5t17.5 42t42.5 18q24 0 41.5 -18z" />
    <glyph glyph-name="uni04DC" unicode="&#x4dc;" horiz-adv-x="974" 
d="M50 589h253v-78h-68l127 -172h81v171h-66v78h220v-78h-65l-1 -171h81l127 172h-67v78h252v-78h-89l-153 -205l154 -228h92v-78h-256v78h60l-114 184l-87 -1l-1 -183h67v-78h-220v78h66v183l-87 1l-114 -184h61v-78h-257v78h92l153 228l-151 205h-90v78zM439 767
q18 -18 18 -42t-18 -41.5t-42 -17.5t-41.5 17.5t-17.5 41.5t17.5 42t41.5 18t42 -18zM620.5 767q17.5 -18 17.5 -42t-17.5 -41.5t-41.5 -17.5q-25 0 -42.5 17.5t-17.5 41.5t17.5 42t42.5 18q24 0 41.5 -18z" />
    <glyph glyph-name="uni04DD" unicode="&#x4dd;" horiz-adv-x="789" 
d="M27 0v70h85l96 149l-97 145h-78v70h218v-70h-54l74 -117h77v116h-46v70h178v-70h-46v-116h76l75 117h-54v70h219v-70h-82l-94 -145l96 -149h85v-70h-134l-115 180h-72v-110h46v-70h-178v70h46v110h-71l-115 -180h-135zM342 612q18 -18 18 -42t-18 -41.5t-42 -17.5
t-41.5 17.5t-17.5 41.5t17.5 42t41.5 18t42 -18zM523.5 612q17.5 -18 17.5 -42t-17.5 -41.5t-41.5 -17.5q-25 0 -42.5 17.5t-17.5 41.5t17.5 42t42.5 18q24 0 41.5 -18z" />
    <glyph glyph-name="uni04DE" unicode="&#x4de;" horiz-adv-x="526" 
d="M171 593q49 12 96 12q94 0 148.5 -43.5t54.5 -123.5q0 -49 -24.5 -81.5t-75.5 -51.5q60 -16 90.5 -52.5t30.5 -89.5q0 -54 -28.5 -94.5t-80.5 -62.5t-120 -22q-55 0 -102 15t-95 50l-22 101l76 19l18 -68q25 -22 55.5 -31t71.5 -9q67 0 100 26t33 74t-31 74.5t-85 26.5
h-89v75h89q44 0 69 27.5t25 71.5q0 45 -31 69t-84 24q-55 0 -108 -23l-19 -81l-77 17l22 116q44 23 93 35zM218 767q18 -18 18 -42t-18 -41.5t-42 -17.5t-41.5 17.5t-17.5 41.5t17.5 42t41.5 18t42 -18zM399.5 767q17.5 -18 17.5 -42t-17.5 -41.5t-41.5 -17.5
q-25 0 -42.5 17.5t-17.5 41.5t17.5 42t42.5 18q24 0 41.5 -18z" />
    <glyph glyph-name="uni04DF" unicode="&#x4df;" horiz-adv-x="451" 
d="M24 50l44 57q29 -24 70.5 -37.5t80.5 -13.5q53 0 83 18t30 51q0 32 -24.5 46.5t-76.5 14.5h-53v68h60q38 0 56.5 14t18.5 44q0 34 -27 51t-70 17q-53 0 -102 -23l-12 -65l-69 14l16 94q39 24 85 37t94 13q78 0 125 -33.5t47 -88.5q0 -34 -19 -61.5t-52 -41.5
q42 -6 67 -34t25 -69t-26.5 -72.5t-72.5 -49t-101 -17.5q-111 0 -197 67zM168 612q18 -18 18 -42t-18 -41.5t-42 -17.5t-41.5 17.5t-17.5 41.5t17.5 42t41.5 18t42 -18zM349.5 612q17.5 -18 17.5 -42t-17.5 -41.5t-41.5 -17.5q-25 0 -42.5 17.5t-17.5 41.5t17.5 42t42.5 18
q24 0 41.5 -18z" />
    <glyph glyph-name="uni04E0" unicode="&#x4e0;" horiz-adv-x="537" 
d="M161 -1q-47 15 -95 50l-23 101l76 19l18 -68q48 -41 127 -41q65 0 100.5 28.5t35.5 78.5q0 110 -122 110h-79v71l157 163h-214l-20 -95l-72 11l28 162h403v-58l-185 -184q97 -4 146.5 -49t49.5 -127q0 -87 -60 -137t-168 -50q-56 0 -103 15z" />
    <glyph glyph-name="uni04E1" unicode="&#x4e1;" horiz-adv-x="449" 
d="M105 -205q-46 16 -86 47l45 63q63 -51 127 -51q61 0 98 34.5t37 97.5q0 53 -32 85t-92 32h-77v68l170 193h-200l-11 -57l-73 16l21 111h361v-58l-183 -207q103 -1 152 -53t49 -128q0 -69 -29 -116t-77.5 -70t-107.5 -23q-46 0 -92 16z" />
    <glyph glyph-name="uni04E2" unicode="&#x4e2;" horiz-adv-x="744" 
d="M39 589h244v-78h-62l-2 -395l306 473h181v-78h-93l-1 -433h92v-78h-242v78h62l1 387l-306 -465h-181v78h93v433h-92v78zM229 752h309v-64h-309v64z" />
    <glyph glyph-name="uni04E3" unicode="&#x4e3;" horiz-adv-x="637" 
d="M43 434h221v-70h-52v-254l214 324h168v-70h-85v-294h85v-70h-220v70h52v256l-214 -326h-169v70h85v294h-85v70zM174 597h309v-64h-309v64z" />
    <glyph glyph-name="uni04E4" unicode="&#x4e4;" horiz-adv-x="744" 
d="M39 589h244v-78h-62l-2 -395l306 473h181v-78h-93l-1 -433h92v-78h-242v78h62l1 387l-306 -465h-181v78h93v433h-92v78zM335 767q18 -18 18 -42t-18 -41.5t-42 -17.5t-41.5 17.5t-17.5 41.5t17.5 42t41.5 18t42 -18zM516.5 767q17.5 -18 17.5 -42t-17.5 -41.5
t-41.5 -17.5q-25 0 -42.5 17.5t-17.5 41.5t17.5 42t42.5 18q24 0 41.5 -18z" />
    <glyph glyph-name="uni04E5" unicode="&#x4e5;" horiz-adv-x="637" 
d="M43 434h221v-70h-52v-254l214 324h168v-70h-85v-294h85v-70h-220v70h52v256l-214 -326h-169v70h85v294h-85v70zM280 612q18 -18 18 -42t-18 -41.5t-42 -17.5t-41.5 17.5t-17.5 41.5t17.5 42t41.5 18t42 -18zM461.5 612q17.5 -18 17.5 -42t-17.5 -41.5t-41.5 -17.5
q-25 0 -42.5 17.5t-17.5 41.5t17.5 42t42.5 18q24 0 41.5 -18z" />
    <glyph glyph-name="uni04E6" unicode="&#x4e6;" horiz-adv-x="645" 
d="M467.5 567q63.5 -38 98.5 -108.5t35 -163.5q0 -94 -35 -164.5t-98 -108.5t-146 -38q-82 0 -145 38t-98 108.5t-35 164.5q0 93 34.5 163.5t97.5 108.5t145 38q83 0 146.5 -38zM187 467q-48 -61 -48 -172q0 -112 48 -173t135 -61q88 0 136.5 61t48.5 173q0 111 -48.5 172
t-136.5 61q-87 0 -135 -61zM273 767q18 -18 18 -42t-18 -41.5t-42 -17.5t-41.5 17.5t-17.5 41.5t17.5 42t41.5 18t42 -18zM454.5 767q17.5 -18 17.5 -42t-17.5 -41.5t-41.5 -17.5q-25 0 -42.5 17.5t-17.5 41.5t17.5 42t42.5 18q24 0 41.5 -18z" />
    <glyph glyph-name="uni04E7" unicode="&#x4e7;" horiz-adv-x="530" 
d="M428.5 387.5q61.5 -62.5 61.5 -171.5q0 -108 -61 -170t-165 -62q-101 0 -161.5 62t-60.5 170q0 109 60.5 171.5t161.5 62.5q103 0 164.5 -62.5zM165 336q-34 -42 -34 -120t34 -119t100 -41q67 0 101.5 41t34.5 119t-34.5 120t-101.5 42q-66 0 -100 -42zM223 612
q18 -18 18 -42t-18 -41.5t-42 -17.5t-41.5 17.5t-17.5 41.5t17.5 42t41.5 18t42 -18zM404.5 612q17.5 -18 17.5 -42t-17.5 -41.5t-41.5 -17.5q-25 0 -42.5 17.5t-17.5 41.5t17.5 42t42.5 18q24 0 41.5 -18z" />
    <glyph glyph-name="uni04E8" unicode="&#x4e8;" horiz-adv-x="645" 
d="M467.5 567q63.5 -38 98.5 -108.5t35 -163.5q0 -94 -35 -164.5t-98 -108.5t-146 -38q-82 0 -145 38t-98 108.5t-35 164.5q0 93 34.5 163.5t97.5 108.5t145 38q83 0 146.5 -38zM196 477q-47 -51 -55 -144h364q-8 93 -55.5 144t-127.5 51q-79 0 -126 -51zM452 115
q48 54 54 153h-366q6 -99 53 -153t129 -54t130 54z" />
    <glyph glyph-name="uni04E9" unicode="&#x4e9;" horiz-adv-x="530" 
d="M428.5 387.5q61.5 -62.5 61.5 -171.5q0 -108 -61 -170t-165 -62q-101 0 -161.5 62t-60.5 170q0 109 60.5 171.5t161.5 62.5q103 0 164.5 -62.5zM174 345.5q-33 -32.5 -41 -93.5h266q-8 61 -41.5 93.5t-92.5 32.5q-58 0 -91 -32.5zM359.5 89.5q34.5 33.5 40.5 97.5h-268
q6 -64 39.5 -97.5t93.5 -33.5t94.5 33.5z" />
    <glyph glyph-name="uni04EA" unicode="&#x4ea;" horiz-adv-x="645" 
d="M467.5 567q63.5 -38 98.5 -108.5t35 -163.5q0 -94 -35 -164.5t-98 -108.5t-146 -38q-82 0 -145 38t-98 108.5t-35 164.5q0 93 34.5 163.5t97.5 108.5t145 38q83 0 146.5 -38zM196 477q-47 -51 -55 -144h364q-8 93 -55.5 144t-127.5 51q-79 0 -126 -51zM452 115
q48 54 54 153h-366q6 -99 53 -153t129 -54t130 54zM273 767q18 -18 18 -42t-18 -41.5t-42 -17.5t-41.5 17.5t-17.5 41.5t17.5 42t41.5 18t42 -18zM454.5 767q17.5 -18 17.5 -42t-17.5 -41.5t-41.5 -17.5q-25 0 -42.5 17.5t-17.5 41.5t17.5 42t42.5 18q24 0 41.5 -18z" />
    <glyph glyph-name="uni04EB" unicode="&#x4eb;" horiz-adv-x="530" 
d="M428.5 387.5q61.5 -62.5 61.5 -171.5q0 -108 -61 -170t-165 -62q-101 0 -161.5 62t-60.5 170q0 109 60.5 171.5t161.5 62.5q103 0 164.5 -62.5zM174 345.5q-33 -32.5 -41 -93.5h266q-8 61 -41.5 93.5t-92.5 32.5q-58 0 -91 -32.5zM359.5 89.5q34.5 33.5 40.5 97.5h-268
q6 -64 39.5 -97.5t93.5 -33.5t94.5 33.5zM223 612q18 -18 18 -42t-18 -41.5t-42 -17.5t-41.5 17.5t-17.5 41.5t17.5 42t41.5 18t42 -18zM404.5 612q17.5 -18 17.5 -42t-17.5 -41.5t-41.5 -17.5q-25 0 -42.5 17.5t-17.5 41.5t17.5 42t42.5 18q24 0 41.5 -18z" />
    <glyph glyph-name="uni04EC" unicode="&#x4ec;" horiz-adv-x="604" 
d="M171.5 -7.5q-43.5 8.5 -70.5 19t-27 11.5l-26 118l76 18l18 -76q69 -23 129 -23q87 0 135.5 51t56.5 146l-155 -7h-102v78h104l154 -8q-5 100 -53.5 154.5t-139.5 54.5q-42 0 -77 -7.5t-52 -16.5l-19 -84l-77 17l23 119q38 23 85 35.5t122 12.5q85 0 149.5 -38
t99.5 -107.5t35 -162.5q0 -97 -35.5 -167.5t-101 -108t-152.5 -37.5q-56 0 -99.5 8.5zM239 767q18 -18 18 -42t-18 -41.5t-42 -17.5t-41.5 17.5t-17.5 41.5t17.5 42t41.5 18t42 -18zM420.5 767q17.5 -18 17.5 -42t-17.5 -41.5t-41.5 -17.5q-25 0 -42.5 17.5t-17.5 41.5
t17.5 42t42.5 18q24 0 41.5 -18z" />
    <glyph glyph-name="uni04ED" unicode="&#x4ed;" horiz-adv-x="474" 
d="M303 345q-33 32 -94 32q-44 0 -78 -12l-14 -70l-73 16l22 114q73 25 152 25q101 0 158 -63t57 -171q0 -107 -60 -169.5t-163 -62.5q-49 0 -89.5 11.5t-82.5 33.5l28 64q32 -18 65.5 -27.5t77.5 -9.5q60 0 94 34t39 100l-73 -5h-93v67h95l71 -5q-6 66 -39 98zM172 612
q18 -18 18 -42t-18 -41.5t-42 -17.5t-41.5 17.5t-17.5 41.5t17.5 42t41.5 18t42 -18zM353.5 612q17.5 -18 17.5 -42t-17.5 -41.5t-41.5 -17.5q-25 0 -42.5 17.5t-17.5 41.5t17.5 42t42.5 18q24 0 41.5 -18z" />
    <glyph glyph-name="uni04EE" unicode="&#x4ee;" horiz-adv-x="630" 
d="M118 0l23 76q21 -8 44 -12.5t39 -4.5q29 0 43 14.5t29 53.5l-207 384h-87v78h247v-78h-60l146 -285l109 285h-65v78h249v-78h-97l-165 -409q-26 -64 -55.5 -91.5t-82.5 -27.5q-49 0 -110 17zM162 752h309v-64h-309v64z" />
    <glyph glyph-name="uni04EF" unicode="&#x4ef;" horiz-adv-x="558" 
d="M556 434v-70h-74l-168 -450q-27 -71 -67 -107t-96 -36q-34 0 -72 13l15 68q32 -10 52 -10q28 0 45 9.5t31.5 34.5t32.5 75l3 10l-184 393h-72v70h218v-70h-56l129 -297l106 297h-54l1 70h210zM144 597h309v-64h-309v64z" />
    <glyph glyph-name="uni04F0" unicode="&#x4f0;" horiz-adv-x="630" 
d="M118 0l23 76q21 -8 44 -12.5t39 -4.5q29 0 43 14.5t29 53.5l-207 384h-87v78h247v-78h-60l146 -285l109 285h-65v78h249v-78h-97l-165 -409q-26 -64 -55.5 -91.5t-82.5 -27.5q-49 0 -110 17zM268 767q18 -18 18 -42t-18 -41.5t-42 -17.5t-41.5 17.5t-17.5 41.5t17.5 42
t41.5 18t42 -18zM449.5 767q17.5 -18 17.5 -42t-17.5 -41.5t-41.5 -17.5q-25 0 -42.5 17.5t-17.5 41.5t17.5 42t42.5 18q24 0 41.5 -18z" />
    <glyph glyph-name="uni04F1" unicode="&#x4f1;" horiz-adv-x="558" 
d="M556 434v-70h-74l-168 -450q-27 -71 -67 -107t-96 -36q-34 0 -72 13l15 68q32 -10 52 -10q28 0 45 9.5t31.5 34.5t32.5 75l3 10l-184 393h-72v70h218v-70h-56l129 -297l106 297h-54l1 70h210zM250 612q18 -18 18 -42t-18 -41.5t-42 -17.5t-41.5 17.5t-17.5 41.5t17.5 42
t41.5 18t42 -18zM431.5 612q17.5 -18 17.5 -42t-17.5 -41.5t-41.5 -17.5q-25 0 -42.5 17.5t-17.5 41.5t17.5 42t42.5 18q24 0 41.5 -18z" />
    <glyph glyph-name="uni04F2" unicode="&#x4f2;" horiz-adv-x="630" 
d="M118 0l23 76q21 -8 44 -12.5t39 -4.5q29 0 43 14.5t29 53.5l-207 384h-87v78h247v-78h-60l146 -285l109 285h-65v78h249v-78h-97l-165 -409q-26 -64 -55.5 -91.5t-82.5 -27.5q-49 0 -110 17zM391 814l45 -59l-166 -105l-23 29zM546 771l27 -69l-191 -50l-15 33z" />
    <glyph glyph-name="uni04F3" unicode="&#x4f3;" horiz-adv-x="558" 
d="M556 434v-70h-74l-168 -450q-27 -71 -67 -107t-96 -36q-34 0 -72 13l15 68q32 -10 52 -10q28 0 45 9.5t31.5 34.5t32.5 75l3 10l-184 393h-72v70h218v-70h-56l129 -297l106 297h-54l1 70h210zM314 708l64 -48l-151 -169l-40 29zM489 688l53 -59l-179 -138l-34 36z" />
    <glyph glyph-name="uni04F4" unicode="&#x4f4;" horiz-adv-x="695" 
d="M321 78h147v175q-47 -36 -135 -36q-91 0 -147 51.5t-56 152.5l1 90h-93v78h243v-78h-63v-90q0 -71 31.5 -100.5t101.5 -29.5q76 0 117 33v187h-63v78h243v-78h-92v-433h91v-78h-326v78zM302 767q18 -18 18 -42t-18 -41.5t-42 -17.5t-41.5 17.5t-17.5 41.5t17.5 42
t41.5 18t42 -18zM483.5 767q17.5 -18 17.5 -42t-17.5 -41.5t-41.5 -17.5q-25 0 -42.5 17.5t-17.5 41.5t17.5 42t42.5 18q24 0 41.5 -18z" />
    <glyph glyph-name="uni04F5" unicode="&#x4f5;" horiz-adv-x="612" 
d="M256 150q-89 0 -119 47.5t-28 119.5l1 46h-85v71h225v-71h-52v-35q0 -41 5 -63t24 -34.5t60 -12.5q34 0 62 9.5t47 23.5v112h-51v70h224v-70h-85v-293h85v-70h-258v70h85v118q-59 -38 -140 -38zM260 612q18 -18 18 -42t-18 -41.5t-42 -17.5t-41.5 17.5t-17.5 41.5
t17.5 42t41.5 18t42 -18zM441.5 612q17.5 -18 17.5 -42t-17.5 -41.5t-41.5 -17.5q-25 0 -42.5 17.5t-17.5 41.5t17.5 42t42.5 18q24 0 41.5 -18z" />
    <glyph glyph-name="uni04F6" unicode="&#x4f6;" horiz-adv-x="520" 
d="M475 589l35 -155l-76 -19l-25 96h-178l-1 -433h117v-253h-88l1 175h-214v78h95l1 433h-95v78h428z" />
    <glyph glyph-name="uni04F7" unicode="&#x4f7;" horiz-adv-x="465" 
d="M423 435l32 -143l-74 -18l-22 91h-140v-295h110v-213h-83l-1 143h-202v70h88v295h-88v70h380z" />
    <glyph glyph-name="uni04F8" unicode="&#x4f8;" horiz-adv-x="870" 
d="M46 79h90v433h-86v78h238v-78h-64v-139h97q114 0 165 -43.5t51 -137.5q0 -93 -54.5 -142.5t-145.5 -49.5l-291 1v78zM580 0v78h62l1 432h-63v78h243v-78h-91l-1 -432h92v-78h-243zM317 79q126 0 126 113q0 43 -14.5 66t-41.5 30.5t-70 7.5h-92v-217h92zM386 767
q18 -18 18 -42t-18 -41.5t-42 -17.5t-41.5 17.5t-17.5 41.5t17.5 42t41.5 18t42 -18zM567.5 767q17.5 -18 17.5 -42t-17.5 -41.5t-41.5 -17.5q-25 0 -42.5 17.5t-17.5 41.5t17.5 42t42.5 18q24 0 41.5 -18z" />
    <glyph glyph-name="uni04F9" unicode="&#x4f9;" horiz-adv-x="770" 
d="M43 71h80v293h-80v70h252v-69h-86v-99h88q77 0 124.5 -31.5t47.5 -98.5q0 -60 -37 -98t-104 -38h-285v71zM518 0v70h36v294h-58v70h230v-70h-84v-294h84v-70h-208zM305 72q36 0 56.5 16.5t20.5 49.5q0 30 -19.5 46.5t-53.5 16.5h-100v-129h96zM344 612q18 -18 18 -42
t-18 -41.5t-42 -17.5t-41.5 17.5t-17.5 41.5t17.5 42t41.5 18t42 -18zM525.5 612q17.5 -18 17.5 -42t-17.5 -41.5t-41.5 -17.5q-25 0 -42.5 17.5t-17.5 41.5t17.5 42t42.5 18q24 0 41.5 -18z" />
    <glyph glyph-name="uni04FA" unicode="&#x4fa;" horiz-adv-x="520" 
d="M475 589l35 -155l-76 -19l-25 96h-178v-181h145v-65h-146v-187h117v-78h-301v78h95v187h-78v65h79v181h-95v78h428zM298.5 -167q-48.5 -58 -130.5 -58q-47 0 -102 26l24 77q40 -16 68 -16q48 0 74.5 37t26.5 101h88q0 -109 -48.5 -167z" />
    <glyph glyph-name="uni04FB" unicode="&#x4fb;" horiz-adv-x="464" 
d="M423 435l31 -137l-74 -18l-21 85h-140v-119h123v-60h-123v-116h109v-70h-285v70h88v116h-82v60h82v119h-88v70h380zM291 -166q-36 -56 -103 -56q-44 0 -92 22l21 67q33 -11 53 -11q37 0 53.5 33t16.5 111h87q0 -110 -36 -166z" />
    <glyph glyph-name="uni04FC" unicode="&#x4fc;" horiz-adv-x="660" 
d="M370 -190l24 76q40 -16 68 -16q30 0 46 17t16 48q0 62 -94 178l-101 125l-123 -161h68v-77h-252v77h89l167 222l-170 212h-85v78h257v-78h-62l119 -149l114 149h-65v78h253v-78h-93l-158 -209l150 -189q37 -45 59.5 -95.5t22.5 -94.5q0 -59 -36.5 -98t-108.5 -39
q-50 0 -105 24z" />
    <glyph glyph-name="uni04FD" unicode="&#x4fd;" horiz-adv-x="576" 
d="M315 -192l21 67q33 -11 54 -11q28 0 46.5 21.5t18.5 54.5q0 28 -15 60.5t-46 64.5l-102 106l-87 -101h43v-70h-221v70h87l128 150l-139 144h-76v70h233v-70h-49l97 -103l86 103h-42v70h208v-70h-75l-128 -151l100 -103q43 -46 64 -92t21 -89q0 -62 -38.5 -102.5
t-96.5 -40.5q-42 0 -92 22z" />
    <glyph glyph-name="uni04FE" unicode="&#x4fe;" horiz-adv-x="674" 
d="M567 77h91v-77h-269v77h70l-130 161l-123 -161h68v-77h-252v77h89l141 187h-121v66h122l-145 181h-85v78h257v-78h-62l119 -149l114 149h-65v78h253v-78h-93l-141 -186h119v-66h-102z" />
    <glyph glyph-name="uni04FF" unicode="&#x4ff;" horiz-adv-x="599" 
d="M496 70h82v-70h-234v70h45l-97 101l-87 -101h43v-70h-221v70h87l100 117h-109v64h107l-109 113h-76v70h233v-70h-49l97 -103l86 103h-42v70h208v-70h-75l-100 -118h109v-64h-107z" />
    <glyph glyph-name="uni0510" unicode="&#x510;" horiz-adv-x="537" 
d="M485 442l-78 -17l-18 82q-55 24 -109 24q-58 0 -92 -24.5t-34 -70.5q0 -44 27 -71.5t76 -27.5h76v-75h-77q-53 0 -84 -26.5t-31 -74.5q0 -49 39 -76t96 -27q38 0 71 11t58 32l18 68l76 -19l-22 -103q-91 -63 -201 -63q-68 0 -120 22t-81 62.5t-29 94.5q0 53 30.5 89.5
t90.5 52.5q-52 17 -79.5 51t-27.5 82q0 80 56 123.5t154 43.5q48 0 98.5 -12t93.5 -35z" />
    <glyph glyph-name="uni0511" unicode="&#x511;" horiz-adv-x="474" 
d="M139 0.5q-46 17.5 -72.5 49t-26.5 72.5t25 69t67 34q-33 14 -52 41.5t-19 61.5q0 55 47 88.5t125 33.5q48 0 94 -13t85 -37l16 -94l-69 -14l-12 65q-49 23 -102 23q-43 0 -70 -17t-27 -51q0 -30 18.5 -44t56.5 -14h60v-68h-52q-52 0 -77 -14.5t-25 -46.5q0 -33 30 -51
t83 -18q39 0 80.5 13.5t70.5 37.5l44 -57q-86 -67 -197 -67q-55 0 -101 17.5z" />
    <glyph glyph-name="uni0512" unicode="&#x512;" horiz-adv-x="675" 
d="M637 591v-78h-95l-2 -513q0 -109 -48.5 -167t-130.5 -58q-47 0 -102 26l24 77q40 -16 68 -16q48 0 74.5 37t26.5 101v513h-173l-20 -257q-9 -128 -50.5 -197.5t-137.5 -70.5q-17 0 -32 1v83q55 0 84 21t41.5 64.5t17.5 123.5l17 232h-87v78h525z" />
    <glyph glyph-name="uni0513" unicode="&#x513;" horiz-adv-x="597" 
d="M554 434v-70h-91v-364h-1q0 -110 -36 -166t-103 -56q-44 0 -92 22l21 67q33 -11 53 -11q37 0 53.5 33t16.5 111v364h-123l-9 -132q-8 -111 -52 -176t-129 -65q-8 0 -28 2v72q6 -1 18 -1q61 0 85 49t30 143l6 108h-88v70h469z" />
    <glyph glyph-name="uni051A" unicode="&#x51a;" horiz-adv-x="671" 
d="M322 -16q-82 0 -145 37.5t-98 108t-35 165.5t35 165t97.5 107.5t144.5 37.5q83 0 146.5 -37.5t98.5 -107.5t35 -165q0 -145 -79 -229l130 -76l-59 -73l-124 105q-62 -38 -147 -38zM185 468.5q-46 -60.5 -46 -173.5t46 -174t137 -61q92 0 138.5 61t46.5 174t-46.5 173.5
t-138.5 60.5q-91 0 -137 -60.5z" />
    <glyph glyph-name="uni051B" unicode="&#x51b;" horiz-adv-x="523" 
d="M283 -142h87v156q-25 -14 -54 -22t-55 -8q-104 0 -162 64t-58 178q0 105 63 164.5t170 59.5q54 0 101.5 -14.5t83.5 -42.5v-535h80v-69h-256v69zM319 65q29 9 51 24v263q-45 26 -106 26q-60 0 -96.5 -41.5t-36.5 -109.5q0 -77 36.5 -124t96.5 -47q26 0 55 9z" />
    <glyph glyph-name="uni051C" unicode="&#x51c;" horiz-adv-x="918" 
d="M2 589h251v-78h-62l78 -270l40 -142l29 138l79 277h103l70 -272l30 -142l39 142l84 269h-64v78h237v-78h-89l-161 -511h-104l-68 268l-31 133l-37 -136l-70 -265h-99l-162 511h-93v78z" />
    <glyph glyph-name="uni051D" unicode="&#x51d;" horiz-adv-x="755" 
d="M201 0l-119 364h-79v70h230v-70h-63l51 -166l32 -105l30 103l54 176h87l55 -180l30 -101l29 97l56 176h-56v70h214v-70h-79l-120 -364h-89l-84 268l-88 -268h-91z" />
    <glyph glyph-name="uni0524" unicode="&#x524;" horiz-adv-x="697" 
d="M668 78v-253h-88l1 175h-185v78h78l1 433h-252l-1 -433h78v-78h-262v78h95l1 433h-95v78h620v-78h-95l-2 -433h106z" />
    <glyph glyph-name="uni0525" unicode="&#x525;" horiz-adv-x="639" 
d="M603 70v-213h-83l-1 143h-148v70h51v294h-206v-294h52v-70h-225v70h85v294h-85v70h552v-70h-85v-294h93z" />
    <glyph glyph-name="uni0526" unicode="&#x526;" horiz-adv-x="673" 
d="M651 -175h-88l1 175h-160v78h63v90q0 71 -31.5 100.5t-101.5 29.5q-74 0 -115 -33v-187h61v-78h-245v78h94v433h-91v78h275v-78h-94v-175q47 36 133 36q92 0 149 -51.5t57 -152.5l-1 -90h94v-253z" />
    </font>
</defs>
</svg>
